<?xml version="1.0" encoding="UTF-8" standalone="no"?>
<svg viewBox="0 0 233.61 149.04" version="1.1" xmlns="http://www.w3.org/2000/svg">
  <title>CSC logo</title>
  <g transform="translate(0)">
    <path shape-rendering="geometricPrecision" style="fill:#5e6a71;fill-opacity:1;fill-rule:nonzero;stroke:none;" d="M97.24,130.66l-.27-.17a.69.69,0,0,1-.44.19,14.57,14.57,0,0,1-1.87-1.07,9.29,9.29,0,0,0-4.46-1.06c-6,0-9.21,4.93-9.21,10.24S84.22,149,90.09,149c4.6,0,5.89-2.57,7-2.57a2.17,2.17,0,0,1,.25.05l.22-.11-2.44-3.34-.28.17a1.84,1.84,0,0,1,.06.41c0,1.34-2.36,2.71-4.64,2.65-4.33-.08-6.08-3.72-6.08-7.56s1.86-7.45,6-7.45c2.2,0,4.44,1.15,4.44,2.21,0,.25.06.41,0,.53l.33.13ZM108,146.72l.32.13a.75.75,0,0,1,.42-.22,12.54,12.54,0,0,0,7.62,2.41c4.32,0,7.28-2.49,7.28-6.19,0-8.14-11.86-4.17-11.86-8.6,0-1.7,1-3,4.11-3,2.41,0,5.26,1,5.26,2.49a.92.92,0,0,1,0,.3l.36.17,1.92-4.14-.28-.11a.85.85,0,0,1-.62.3,11.61,11.61,0,0,1-1.95-.88,11,11,0,0,0-4.5-.87c-4.33,0-7.4,2.08-7.4,5.8,0,7.82,11.76,3.68,11.76,8.67,0,2.27-1.65,3.28-4,3.28-2.77,0-6.11-1.53-6.11-3a1.89,1.89,0,0,1,0-.41l-.31-.17Zm42.56-16.06-.28-.17a.64.64,0,0,1-.43.19,14.57,14.57,0,0,1-1.87-1.07,9.3,9.3,0,0,0-4.47-1.06c-6,0-9.21,4.93-9.21,10.24S137.5,149,143.37,149c4.6,0,5.89-2.57,7-2.57a1.59,1.59,0,0,1,.24.05l.22-.11-2.44-3.34-.27.17a1.84,1.84,0,0,1,.05.41c0,1.34-2.35,2.71-4.63,2.65-4.33-.08-6.08-3.72-6.08-7.56s1.86-7.45,6-7.45c2.2,0,4.44,1.15,4.44,2.21a1.82,1.82,0,0,1,0,.53l.33.13Z"></path>
    <path shape-rendering="geometricPrecision" style="fill:#006778;fill-opacity:1;fill-rule:nonzero;stroke:none;" d="M117.26,117.71s-2.66-.42-2.72-1.66c-2.41-54.33-7.39-52.22-111.82-54.33-2,0-2.72-2.87-2.72-2.87H117.26Z"></path>
    <path shape-rendering="geometricPrecision" style="fill:#830051;fill-opacity:1;fill-rule:nonzero;stroke:none;" d="M116.35,0s2.66.42,2.72,1.66C121.49,56,126.46,53.88,230.89,56c2,0,2.72,2.87,2.72,2.87H116.35Z"></path>
  </g>
</svg>
