<svg width="754" height="335" viewBox="0 0 754 335" fill="none" xmlns="http://www.w3.org/2000/svg">
<rect width="754" height="335" fill="white"/>
<rect x="3.57794" y="93.5779" width="147.844" height="147.844" rx="73.9221" fill="#E6F0F2"/>
<rect x="3.57794" y="93.5779" width="147.844" height="147.844" rx="73.9221" stroke="#66A4AE" stroke-width="7.15589"/>
<path d="M51.2185 125.272C51.2185 121.976 53.7145 119.448 57.0585 119.448C59.8265 119.448 61.2505 121 61.2505 121L60.2585 122.536C60.2585 122.536 58.9625 121.336 57.1545 121.336C54.7545 121.336 53.3465 123.128 53.3465 125.24C53.3465 127.4 54.8025 129.304 57.1705 129.304C59.1385 129.304 60.4665 127.864 60.4665 127.864L61.5545 129.352C61.5545 129.352 59.9865 131.192 57.0905 131.192C53.6185 131.192 51.2185 128.616 51.2185 125.272ZM63.1356 131V122.84H65.0876V124.248C65.0876 124.552 65.0556 124.824 65.0556 124.824H65.0876C65.4556 123.656 66.4316 122.728 67.6796 122.728C67.8716 122.728 68.0476 122.76 68.0476 122.76V124.76C68.0476 124.76 67.8396 124.728 67.5676 124.728C66.7036 124.728 65.7276 125.224 65.3436 126.44C65.2156 126.84 65.1676 127.288 65.1676 127.768V131H63.1356ZM68.8409 126.92C68.8409 124.408 70.5529 122.648 72.9849 122.648C75.3369 122.648 76.6009 124.36 76.6009 126.52C76.6009 126.76 76.5529 127.304 76.5529 127.304H70.9209C71.0489 128.728 72.1529 129.464 73.3689 129.464C74.6809 129.464 75.7209 128.568 75.7209 128.568L76.5049 130.024C76.5049 130.024 75.2569 131.192 73.2249 131.192C70.5209 131.192 68.8409 129.24 68.8409 126.92ZM70.9849 125.912H74.5529C74.5209 124.808 73.8329 124.216 72.9369 124.216C71.8969 124.216 71.1769 124.856 70.9849 125.912ZM77.5883 128.648C77.5883 126.056 81.0923 125.88 82.4203 125.88H82.6923V125.768C82.6923 124.696 82.0203 124.328 81.1243 124.328C79.9563 124.328 78.8843 125.112 78.8843 125.112L78.1163 123.656C78.1163 123.656 79.3803 122.648 81.3163 122.648C83.4603 122.648 84.7083 123.832 84.7083 125.896V131H82.8363V130.328C82.8363 130.008 82.8683 129.752 82.8683 129.752H82.8363C82.8523 129.752 82.2123 131.192 80.3563 131.192C78.9003 131.192 77.5883 130.28 77.5883 128.648ZM79.6363 128.552C79.6363 129.096 80.0363 129.608 80.8683 129.608C81.9403 129.608 82.7083 128.456 82.7083 127.464V127.272H82.3563C81.3163 127.272 79.6363 127.416 79.6363 128.552ZM87.1283 128.008V124.584H86.0723V122.968H87.1763V120.616H89.1603V122.968H91.0163V124.584H89.1603V127.752C89.1603 129.096 90.2163 129.288 90.7763 129.288C91.0003 129.288 91.1443 129.256 91.1443 129.256V131.032C91.1443 131.032 90.9043 131.08 90.5203 131.08C89.3843 131.08 87.1283 130.744 87.1283 128.008ZM92.2315 126.92C92.2315 124.408 93.9435 122.648 96.3755 122.648C98.7275 122.648 99.9915 124.36 99.9915 126.52C99.9915 126.76 99.9435 127.304 99.9435 127.304H94.3115C94.4395 128.728 95.5435 129.464 96.7595 129.464C98.0715 129.464 99.1115 128.568 99.1115 128.568L99.8955 130.024C99.8955 130.024 98.6475 131.192 96.6155 131.192C93.9115 131.192 92.2315 129.24 92.2315 126.92ZM94.3755 125.912H97.9435C97.9115 124.808 97.2235 124.216 96.3275 124.216C95.2875 124.216 94.5675 124.856 94.3755 125.912ZM27.5935 141.272C27.5935 137.976 30.0895 135.448 33.4335 135.448C36.2015 135.448 37.6255 137 37.6255 137L36.6335 138.536C36.6335 138.536 35.3375 137.336 33.5295 137.336C31.1295 137.336 29.7215 139.128 29.7215 141.24C29.7215 143.4 31.1775 145.304 33.5455 145.304C35.5135 145.304 36.8415 143.864 36.8415 143.864L37.9295 145.352C37.9295 145.352 36.3615 147.192 33.4655 147.192C29.9935 147.192 27.5935 144.616 27.5935 141.272ZM38.9666 145.64L40.0866 144.088C40.0866 144.088 41.3186 145.288 42.9186 145.288C43.7826 145.288 44.5666 144.84 44.5666 143.912C44.5666 141.88 39.2066 142.232 39.2066 138.744C39.2066 136.856 40.8386 135.448 43.0146 135.448C45.2546 135.448 46.4066 136.664 46.4066 136.664L45.5106 138.344C45.5106 138.344 44.4226 137.352 42.9986 137.352C42.0386 137.352 41.2866 137.912 41.2866 138.712C41.2866 140.728 46.6306 140.232 46.6306 143.864C46.6306 145.672 45.2546 147.192 42.8866 147.192C40.3586 147.192 38.9666 145.64 38.9666 145.64ZM47.906 141.272C47.906 137.976 50.402 135.448 53.746 135.448C56.514 135.448 57.938 137 57.938 137L56.946 138.536C56.946 138.536 55.65 137.336 53.842 137.336C51.442 137.336 50.034 139.128 50.034 141.24C50.034 143.4 51.49 145.304 53.858 145.304C55.826 145.304 57.154 143.864 57.154 143.864L58.242 145.352C58.242 145.352 56.674 147.192 53.778 147.192C50.306 147.192 47.906 144.616 47.906 141.272ZM63.0258 144.648C63.0258 142.056 66.5298 141.88 67.8578 141.88H68.1298V141.768C68.1298 140.696 67.4578 140.328 66.5618 140.328C65.3938 140.328 64.3218 141.112 64.3218 141.112L63.5538 139.656C63.5538 139.656 64.8178 138.648 66.7538 138.648C68.8978 138.648 70.1458 139.832 70.1458 141.896V147H68.2738V146.328C68.2738 146.008 68.3058 145.752 68.3058 145.752H68.2738C68.2898 145.752 67.6498 147.192 65.7938 147.192C64.3378 147.192 63.0258 146.28 63.0258 144.648ZM65.0738 144.552C65.0738 145.096 65.4738 145.608 66.3058 145.608C67.3778 145.608 68.1458 144.456 68.1458 143.464V143.272H67.7938C66.7538 143.272 65.0738 143.416 65.0738 144.552ZM71.6686 142.92C71.6686 140.6 73.3966 138.648 76.1006 138.648C78.2286 138.648 79.2366 139.864 79.2366 139.864L78.3406 141.256C78.3406 141.256 77.4926 140.376 76.2126 140.376C74.7086 140.376 73.7326 141.512 73.7326 142.904C73.7326 144.28 74.7246 145.464 76.2766 145.464C77.6526 145.464 78.6766 144.424 78.6766 144.424L79.4606 145.864C79.4606 145.864 78.2926 147.192 76.1006 147.192C73.3966 147.192 71.6686 145.288 71.6686 142.92ZM80.3874 142.92C80.3874 140.6 82.1154 138.648 84.8194 138.648C86.9474 138.648 87.9554 139.864 87.9554 139.864L87.0594 141.256C87.0594 141.256 86.2114 140.376 84.9314 140.376C83.4274 140.376 82.4514 141.512 82.4514 142.904C82.4514 144.28 83.4434 145.464 84.9954 145.464C86.3714 145.464 87.3954 144.424 87.3954 144.424L88.1794 145.864C88.1794 145.864 87.0114 147.192 84.8194 147.192C82.1154 147.192 80.3874 145.288 80.3874 142.92ZM89.0901 142.92C89.0901 140.424 91.0901 138.648 93.5701 138.648C96.0661 138.648 98.0661 140.424 98.0661 142.92C98.0661 145.432 96.0661 147.192 93.5861 147.192C91.0901 147.192 89.0901 145.432 89.0901 142.92ZM91.1541 142.92C91.1541 144.44 92.2581 145.464 93.5861 145.464C94.8981 145.464 96.0021 144.44 96.0021 142.92C96.0021 141.416 94.8981 140.376 93.5861 140.376C92.2581 140.376 91.1541 141.416 91.1541 142.92ZM99.5861 144.088V138.84H101.618V143.672C101.618 144.664 101.874 145.336 102.882 145.336C104.354 145.336 105.17 144.04 105.17 142.584V138.84H107.202V147H105.25V146.072C105.25 145.752 105.282 145.496 105.282 145.496H105.25C104.85 146.344 103.81 147.192 102.418 147.192C100.674 147.192 99.5861 146.312 99.5861 144.088ZM109.448 147V138.84H111.4V139.784C111.4 140.088 111.368 140.344 111.368 140.344H111.4C111.752 139.656 112.648 138.648 114.296 138.648C116.104 138.648 117.128 139.592 117.128 141.752V147H115.112V142.168C115.112 141.176 114.856 140.504 113.816 140.504C112.728 140.504 111.928 141.192 111.624 142.168C111.512 142.504 111.48 142.872 111.48 143.256V147H109.448ZM119.613 144.008V140.584H118.557V138.968H119.661V136.616H121.645V138.968H123.501V140.584H121.645V143.752C121.645 145.096 122.701 145.288 123.261 145.288C123.485 145.288 123.629 145.256 123.629 145.256V147.032C123.629 147.032 123.389 147.08 123.005 147.08C121.869 147.08 119.613 146.744 119.613 144.008ZM40.8819 163L37.9219 154.84H40.0659L41.7619 159.896C41.9219 160.376 42.0339 161.128 42.0499 161.128H42.0819C42.0979 161.128 42.2099 160.376 42.3699 159.896L44.0659 154.84H46.2099L43.2819 163H40.8819ZM47.3388 153.448V151.64H49.3548V153.448H47.3388ZM47.3388 163V154.84H49.3708V163H47.3388ZM50.9164 160.648C50.9164 158.056 54.4204 157.88 55.7484 157.88H56.0204V157.768C56.0204 156.696 55.3484 156.328 54.4524 156.328C53.2844 156.328 52.2124 157.112 52.2124 157.112L51.4444 155.656C51.4444 155.656 52.7084 154.648 54.6444 154.648C56.7884 154.648 58.0364 155.832 58.0364 157.896V163H56.1644V162.328C56.1644 162.008 56.1964 161.752 56.1964 161.752H56.1644C56.1804 161.752 55.5404 163.192 53.6844 163.192C52.2284 163.192 50.9164 162.28 50.9164 160.648ZM52.9644 160.552C52.9644 161.096 53.3644 161.608 54.1964 161.608C55.2684 161.608 56.0364 160.456 56.0364 159.464V159.272H55.6844C54.6444 159.272 52.9644 159.416 52.9644 160.552ZM64.0099 163L64.9379 151.64H67.1459L69.3699 157.256C69.6259 157.928 69.9459 158.92 69.9459 158.92H69.9779C69.9779 158.92 70.2819 157.928 70.5379 157.256L72.7619 151.64H74.9699L75.8819 163H73.8339L73.3539 156.648C73.3059 155.896 73.3379 154.888 73.3379 154.888H73.3059C73.3059 154.888 72.9699 155.992 72.6979 156.648L70.8579 161.048H69.0499L67.2259 156.648C66.9539 155.992 66.6019 154.872 66.6019 154.872H66.5699C66.5699 154.872 66.6019 155.896 66.5539 156.648L66.0739 163H64.0099ZM76.9848 165.832L77.6568 164.312C77.6568 164.312 78.1048 164.648 78.5688 164.648C79.1288 164.648 79.6728 164.312 79.9768 163.592L80.2808 162.872L76.8407 154.84H79.1288L80.8408 159.544C81.0008 159.976 81.1448 160.648 81.1448 160.648H81.1768C81.1768 160.648 81.3048 160.008 81.4488 159.576L83.0488 154.84H85.2728L81.6248 164.232C81.0488 165.72 79.9128 166.36 78.6808 166.36C77.7048 166.36 76.9848 165.832 76.9848 165.832ZM85.9685 157.272C85.9685 153.976 88.4645 151.448 91.8085 151.448C94.5765 151.448 96.0005 153 96.0005 153L95.0085 154.536C95.0085 154.536 93.7125 153.336 91.9045 153.336C89.5045 153.336 88.0965 155.128 88.0965 157.24C88.0965 159.4 89.5525 161.304 91.9205 161.304C93.8885 161.304 95.2165 159.864 95.2165 159.864L96.3045 161.352C96.3045 161.352 94.7365 163.192 91.8405 163.192C88.3685 163.192 85.9685 160.616 85.9685 157.272ZM97.3416 161.64L98.4616 160.088C98.4616 160.088 99.6936 161.288 101.294 161.288C102.158 161.288 102.942 160.84 102.942 159.912C102.942 157.88 97.5816 158.232 97.5816 154.744C97.5816 152.856 99.2136 151.448 101.39 151.448C103.63 151.448 104.782 152.664 104.782 152.664L103.886 154.344C103.886 154.344 102.798 153.352 101.374 153.352C100.414 153.352 99.6616 153.912 99.6616 154.712C99.6616 156.728 105.006 156.232 105.006 159.864C105.006 161.672 103.63 163.192 101.262 163.192C98.7336 163.192 97.3416 161.64 97.3416 161.64ZM106.281 157.272C106.281 153.976 108.777 151.448 112.121 151.448C114.889 151.448 116.313 153 116.313 153L115.321 154.536C115.321 154.536 114.025 153.336 112.217 153.336C109.817 153.336 108.409 155.128 108.409 157.24C108.409 159.4 109.865 161.304 112.233 161.304C114.201 161.304 115.529 159.864 115.529 159.864L116.617 161.352C116.617 161.352 115.049 163.192 112.153 163.192C108.681 163.192 106.281 160.616 106.281 157.272Z" fill="#005260"/>
<rect x="56.5" y="175" width="42" height="42" rx="21" fill="#005260"/>
<g clip-path="url(#clip0_891_4771)">
<path d="M77.5 196C80.6653 196 83.229 193.436 83.229 190.271C83.229 187.106 80.6653 184.542 77.5 184.542C74.3347 184.542 71.7709 187.106 71.7709 190.271C71.7709 193.436 74.3347 196 77.5 196ZM77.5 198.865C73.6758 198.865 66.0419 200.784 66.0419 204.594V207.458H88.958V204.594C88.958 200.784 81.3241 198.865 77.5 198.865Z" fill="#E6F0F2"/>
</g>
<rect width="43.6509" height="24.33" transform="translate(152 154.262)" fill="#66A4AE"/>
<path d="M181.384 166.868L181.166 139.529L208.889 167.142L181.614 195.538L181.384 166.868Z" fill="#66A4AE"/>
<rect x="212.531" y="4" width="327" height="327" rx="163.5" fill="#E6F0F2"/>
<rect x="212.531" y="4" width="327" height="327" rx="163.5" stroke="#66A4AE" stroke-width="7.69225"/>
<path d="M341.073 92.3076V80.9476H343.137V92.3076H341.073ZM345.691 92.3076V84.1476H347.643V85.0916C347.643 85.3956 347.611 85.6516 347.611 85.6516H347.643C347.995 84.9636 348.891 83.9556 350.539 83.9556C352.347 83.9556 353.371 84.8996 353.371 87.0596V92.3076H351.355V87.4756C351.355 86.4836 351.099 85.8116 350.059 85.8116C348.971 85.8116 348.171 86.4996 347.867 87.4756C347.755 87.8116 347.723 88.1796 347.723 88.5636V92.3076H345.691ZM359.362 92.3076L360.29 80.9476H362.498L364.722 86.5636C364.978 87.2356 365.298 88.2276 365.298 88.2276H365.33C365.33 88.2276 365.634 87.2356 365.89 86.5636L368.114 80.9476H370.322L371.234 92.3076H369.186L368.706 85.9556C368.658 85.2036 368.69 84.1956 368.69 84.1956H368.658C368.658 84.1956 368.322 85.2996 368.05 85.9556L366.21 90.3556H364.402L362.578 85.9556C362.306 85.2996 361.954 84.1796 361.954 84.1796H361.922C361.922 84.1796 361.954 85.2036 361.906 85.9556L361.426 92.3076H359.362ZM372.337 95.1396L373.009 93.6196C373.009 93.6196 373.457 93.9556 373.921 93.9556C374.481 93.9556 375.025 93.6196 375.329 92.8996L375.633 92.1796L372.193 84.1476H374.481L376.193 88.8516C376.353 89.2836 376.497 89.9556 376.497 89.9556H376.529C376.529 89.9556 376.657 89.3156 376.801 88.8836L378.401 84.1476H380.625L376.977 93.5396C376.401 95.0276 375.265 95.6676 374.033 95.6676C373.057 95.6676 372.337 95.1396 372.337 95.1396ZM381.32 86.5796C381.32 83.2836 383.816 80.7556 387.16 80.7556C389.928 80.7556 391.352 82.3076 391.352 82.3076L390.36 83.8436C390.36 83.8436 389.064 82.6436 387.256 82.6436C384.856 82.6436 383.448 84.4356 383.448 86.5476C383.448 88.7076 384.904 90.6116 387.272 90.6116C389.24 90.6116 390.568 89.1716 390.568 89.1716L391.656 90.6596C391.656 90.6596 390.088 92.4996 387.192 92.4996C383.72 92.4996 381.32 89.9236 381.32 86.5796ZM392.693 90.9476L393.813 89.3956C393.813 89.3956 395.045 90.5956 396.645 90.5956C397.509 90.5956 398.293 90.1476 398.293 89.2196C398.293 87.1876 392.933 87.5396 392.933 84.0516C392.933 82.1636 394.565 80.7556 396.741 80.7556C398.981 80.7556 400.133 81.9716 400.133 81.9716L399.237 83.6516C399.237 83.6516 398.149 82.6596 396.725 82.6596C395.765 82.6596 395.013 83.2196 395.013 84.0196C395.013 86.0356 400.357 85.5396 400.357 89.1716C400.357 90.9796 398.981 92.4996 396.613 92.4996C394.085 92.4996 392.693 90.9476 392.693 90.9476ZM401.633 86.5796C401.633 83.2836 404.129 80.7556 407.473 80.7556C410.241 80.7556 411.665 82.3076 411.665 82.3076L410.673 83.8436C410.673 83.8436 409.377 82.6436 407.569 82.6436C405.169 82.6436 403.761 84.4356 403.761 86.5476C403.761 88.7076 405.217 90.6116 407.585 90.6116C409.553 90.6116 410.881 89.1716 410.881 89.1716L411.969 90.6596C411.969 90.6596 410.401 92.4996 407.505 92.4996C404.033 92.4996 401.633 89.9236 401.633 86.5796Z" fill="#005260"/>
<rect x="271.531" y="102.808" width="42" height="42" rx="21" fill="#005260"/>
<g clip-path="url(#clip1_891_4771)">
<path d="M305.131 126.608C305.131 125.838 304.501 125.208 303.731 125.208H300.931V128.008H303.731C304.501 128.008 305.131 127.378 305.131 126.608Z" fill="#E6F0F2"/>
<path d="M303.731 130.808H300.931V133.608H303.731C304.501 133.608 305.131 132.978 305.131 132.208C305.131 131.438 304.501 130.808 303.731 130.808Z" fill="#E6F0F2"/>
<path d="M292.532 126.608H289.732V132.208H292.532C292.532 133.748 293.792 135.008 295.332 135.008H299.532V123.808H295.332C293.792 123.808 292.532 125.068 292.532 126.608Z" fill="#E6F0F2"/>
<path d="M282.731 125.208C282.731 123.668 283.991 122.408 285.531 122.408H287.631C290.333 122.408 292.531 120.21 292.531 117.508C292.531 114.806 290.333 112.608 287.631 112.608H282.731C281.961 112.608 281.331 113.238 281.331 114.008C281.331 114.778 281.961 115.408 282.731 115.408H287.631C288.793 115.408 289.731 116.346 289.731 117.508C289.731 118.67 288.793 119.608 287.631 119.608H285.531C282.437 119.608 279.931 122.114 279.931 125.208C279.931 128.302 282.437 130.808 285.531 130.808H288.331V128.008H285.531C283.991 128.008 282.731 126.748 282.731 125.208Z" fill="#E6F0F2"/>
</g>
<path d="M329.231 113.308L328.237 110.466H324.513L323.533 113.308H322.105L325.661 103.424H327.117L330.673 113.308H329.231ZM326.403 104.782H326.375C326.375 104.782 326.151 105.678 325.983 106.182L324.877 109.318H327.873L326.781 106.182C326.613 105.678 326.403 104.782 326.403 104.782ZM331.344 109.766C331.344 107.666 332.912 106.056 335.138 106.056C336.916 106.056 337.798 107.092 337.798 107.092L337.154 108.044C337.154 108.044 336.398 107.232 335.194 107.232C333.766 107.232 332.73 108.296 332.73 109.752C332.73 111.194 333.766 112.3 335.236 112.3C336.552 112.3 337.42 111.348 337.42 111.348L337.966 112.342C337.966 112.342 336.986 113.476 335.138 113.476C332.912 113.476 331.344 111.894 331.344 109.766ZM339 109.766C339 107.666 340.568 106.056 342.794 106.056C344.572 106.056 345.454 107.092 345.454 107.092L344.81 108.044C344.81 108.044 344.054 107.232 342.85 107.232C341.422 107.232 340.386 108.296 340.386 109.752C340.386 111.194 341.422 112.3 342.892 112.3C344.208 112.3 345.076 111.348 345.076 111.348L345.622 112.342C345.622 112.342 344.642 113.476 342.794 113.476C340.568 113.476 339 111.894 339 109.766ZM346.67 109.766C346.67 107.512 348.196 106.056 350.212 106.056C352.214 106.056 353.278 107.54 353.278 109.374C353.278 109.556 353.236 109.962 353.236 109.962H348.07C348.14 111.516 349.246 112.3 350.506 112.3C351.724 112.3 352.606 111.474 352.606 111.474L353.166 112.468C353.166 112.468 352.116 113.476 350.422 113.476C348.196 113.476 346.67 111.866 346.67 109.766ZM348.112 108.94H351.892C351.85 107.722 351.094 107.134 350.184 107.134C349.148 107.134 348.308 107.778 348.112 108.94ZM354.926 116.108V106.224H356.172V106.826C356.172 107.106 356.144 107.344 356.144 107.344H356.172C356.172 107.344 356.774 106.056 358.552 106.056C360.456 106.056 361.66 107.568 361.66 109.766C361.66 112.02 360.302 113.476 358.454 113.476C356.9 113.476 356.284 112.314 356.284 112.314H356.256C356.256 112.314 356.284 112.566 356.284 112.93V116.108H354.926ZM356.242 109.794C356.242 111.054 356.942 112.314 358.244 112.314C359.364 112.314 360.288 111.39 360.288 109.78C360.288 108.24 359.462 107.246 358.286 107.246C357.222 107.246 356.242 107.988 356.242 109.794ZM363.615 110.718V107.414H362.691V106.322H363.657V104.278H364.973V106.322H366.681V107.414H364.973V110.564C364.973 111.978 365.967 112.16 366.485 112.16C366.681 112.16 366.807 112.132 366.807 112.132V113.336C366.807 113.336 366.611 113.364 366.331 113.364C365.421 113.364 363.615 113.084 363.615 110.718ZM372.228 110.718V107.414H371.304V106.322H372.27V104.278H373.586V106.322H375.294V107.414H373.586V110.564C373.586 111.978 374.58 112.16 375.098 112.16C375.294 112.16 375.42 112.132 375.42 112.132V113.336C375.42 113.336 375.224 113.364 374.944 113.364C374.034 113.364 372.228 113.084 372.228 110.718ZM376.462 109.766C376.462 107.512 377.988 106.056 380.004 106.056C382.006 106.056 383.07 107.54 383.07 109.374C383.07 109.556 383.028 109.962 383.028 109.962H377.862C377.932 111.516 379.038 112.3 380.298 112.3C381.516 112.3 382.398 111.474 382.398 111.474L382.958 112.468C382.958 112.468 381.908 113.476 380.214 113.476C377.988 113.476 376.462 111.866 376.462 109.766ZM377.904 108.94H381.684C381.642 107.722 380.886 107.134 379.976 107.134C378.94 107.134 378.1 107.778 377.904 108.94ZM384.717 113.308V106.224H386.033V107.456C386.033 107.75 386.005 107.988 386.005 107.988H386.033C386.355 106.952 387.181 106.14 388.273 106.14C388.455 106.14 388.623 106.168 388.623 106.168V107.512C388.623 107.512 388.441 107.47 388.231 107.47C387.363 107.47 386.565 108.086 386.243 109.136C386.117 109.542 386.075 109.976 386.075 110.41V113.308H384.717ZM389.967 113.308V106.224H391.283V107.162C391.283 107.442 391.255 107.68 391.255 107.68H391.283C391.619 106.854 392.613 106.056 393.719 106.056C394.909 106.056 395.609 106.602 395.847 107.666H395.875C396.267 106.812 397.247 106.056 398.395 106.056C399.991 106.056 400.733 106.966 400.733 108.772V113.308H399.375V109.066C399.375 108.072 399.179 107.288 398.115 107.288C397.121 107.288 396.379 108.128 396.127 109.094C396.057 109.388 396.029 109.71 396.029 110.074V113.308H394.671V109.066C394.671 108.142 394.531 107.288 393.439 107.288C392.403 107.288 391.675 108.142 391.409 109.15C391.339 109.43 391.325 109.752 391.325 110.074V113.308H389.967ZM402.19 112.44L402.848 111.474C402.848 111.474 403.646 112.3 404.878 112.3C405.466 112.3 406.054 111.992 406.054 111.418C406.054 110.116 402.414 110.382 402.414 108.072C402.414 106.784 403.562 106.056 404.976 106.056C406.53 106.056 407.258 106.84 407.258 106.84L406.712 107.862C406.712 107.862 406.082 107.232 404.962 107.232C404.374 107.232 403.8 107.484 403.8 108.1C403.8 109.374 407.44 109.094 407.44 111.418C407.44 112.594 406.432 113.476 404.878 113.476C403.142 113.476 402.19 112.44 402.19 112.44ZM412.117 109.752C412.117 107.61 413.825 106.056 415.939 106.056C418.053 106.056 419.761 107.61 419.761 109.752C419.761 111.908 418.053 113.476 415.939 113.476C413.825 113.476 412.117 111.908 412.117 109.752ZM413.503 109.752C413.503 111.236 414.609 112.3 415.939 112.3C417.283 112.3 418.375 111.236 418.375 109.752C418.375 108.282 417.283 107.232 415.939 107.232C414.609 107.232 413.503 108.282 413.503 109.752ZM421.708 113.308V107.414H420.826V106.322H421.708V105.986C421.708 103.648 423.472 103.354 424.368 103.354C424.676 103.354 424.886 103.396 424.886 103.396V104.558C424.886 104.558 424.746 104.53 424.536 104.53C424.018 104.53 423.052 104.698 423.052 106.014V106.322H424.732V107.414H423.052V113.308H421.708ZM429.531 110.76V106.224H430.889V110.452C430.889 111.432 431.085 112.216 432.219 112.216C433.661 112.216 434.515 110.942 434.515 109.542V106.224H435.873V113.308H434.557V112.37C434.557 112.076 434.585 111.852 434.585 111.852H434.557C434.263 112.552 433.339 113.476 431.953 113.476C430.357 113.476 429.531 112.636 429.531 110.76ZM437.422 112.44L438.08 111.474C438.08 111.474 438.878 112.3 440.11 112.3C440.698 112.3 441.286 111.992 441.286 111.418C441.286 110.116 437.646 110.382 437.646 108.072C437.646 106.784 438.794 106.056 440.208 106.056C441.762 106.056 442.49 106.84 442.49 106.84L441.944 107.862C441.944 107.862 441.314 107.232 440.194 107.232C439.606 107.232 439.032 107.484 439.032 108.1C439.032 109.374 442.672 109.094 442.672 111.418C442.672 112.594 441.664 113.476 440.11 113.476C438.374 113.476 437.422 112.44 437.422 112.44ZM443.782 109.766C443.782 107.512 445.308 106.056 447.324 106.056C449.326 106.056 450.39 107.54 450.39 109.374C450.39 109.556 450.348 109.962 450.348 109.962H445.182C445.252 111.516 446.358 112.3 447.618 112.3C448.836 112.3 449.718 111.474 449.718 111.474L450.278 112.468C450.278 112.468 449.228 113.476 447.534 113.476C445.308 113.476 443.782 111.866 443.782 109.766ZM445.224 108.94H449.004C448.962 107.722 448.206 107.134 447.296 107.134C446.26 107.134 445.42 107.778 445.224 108.94ZM456.011 113.308V107.414H455.129V106.322H456.011V105.986C456.011 103.648 457.775 103.354 458.671 103.354C458.979 103.354 459.189 103.396 459.189 103.396V104.558C459.189 104.558 459.049 104.53 458.839 104.53C458.321 104.53 457.355 104.698 457.355 106.014V106.322H459.035V107.414H457.355V113.308H456.011ZM459.818 109.752C459.818 107.61 461.526 106.056 463.64 106.056C465.754 106.056 467.462 107.61 467.462 109.752C467.462 111.908 465.754 113.476 463.64 113.476C461.526 113.476 459.818 111.908 459.818 109.752ZM461.204 109.752C461.204 111.236 462.31 112.3 463.64 112.3C464.984 112.3 466.076 111.236 466.076 109.752C466.076 108.282 464.984 107.232 463.64 107.232C462.31 107.232 461.204 108.282 461.204 109.752ZM469.073 113.308V106.224H470.389V107.456C470.389 107.75 470.361 107.988 470.361 107.988H470.389C470.711 106.952 471.537 106.14 472.629 106.14C472.811 106.14 472.979 106.168 472.979 106.168V107.512C472.979 107.512 472.797 107.47 472.587 107.47C471.719 107.47 470.921 108.086 470.599 109.136C470.473 109.542 470.431 109.976 470.431 110.41V113.308H469.073ZM322.483 127.44L323.141 126.474C323.141 126.474 323.939 127.3 325.171 127.3C325.759 127.3 326.347 126.992 326.347 126.418C326.347 125.116 322.707 125.382 322.707 123.072C322.707 121.784 323.855 121.056 325.269 121.056C326.823 121.056 327.551 121.84 327.551 121.84L327.005 122.862C327.005 122.862 326.375 122.232 325.255 122.232C324.667 122.232 324.093 122.484 324.093 123.1C324.093 124.374 327.733 124.094 327.733 126.418C327.733 127.594 326.725 128.476 325.171 128.476C323.435 128.476 322.483 127.44 322.483 127.44ZM328.842 124.766C328.842 122.512 330.368 121.056 332.384 121.056C334.386 121.056 335.45 122.54 335.45 124.374C335.45 124.556 335.408 124.962 335.408 124.962H330.242C330.312 126.516 331.418 127.3 332.678 127.3C333.896 127.3 334.778 126.474 334.778 126.474L335.338 127.468C335.338 127.468 334.288 128.476 332.594 128.476C330.368 128.476 328.842 126.866 328.842 124.766ZM330.284 123.94H334.064C334.022 122.722 333.266 122.134 332.356 122.134C331.32 122.134 330.48 122.778 330.284 123.94ZM337.098 128.308V121.224H338.414V122.456C338.414 122.75 338.386 122.988 338.386 122.988H338.414C338.736 121.952 339.562 121.14 340.654 121.14C340.836 121.14 341.004 121.168 341.004 121.168V122.512C341.004 122.512 340.822 122.47 340.612 122.47C339.744 122.47 338.946 123.086 338.624 124.136C338.498 124.542 338.456 124.976 338.456 125.41V128.308H337.098ZM344.028 128.308L341.382 121.224H342.824L344.546 126.012C344.686 126.404 344.77 126.978 344.784 126.978H344.812C344.826 126.978 344.924 126.404 345.064 126.012L346.786 121.224H348.214L345.596 128.308H344.028ZM349.361 119.81V118.424H350.733V119.81H349.361ZM349.375 128.308V121.224H350.733V128.308H349.375ZM352.358 124.766C352.358 122.666 353.926 121.056 356.152 121.056C357.93 121.056 358.812 122.092 358.812 122.092L358.168 123.044C358.168 123.044 357.412 122.232 356.208 122.232C354.78 122.232 353.744 123.296 353.744 124.752C353.744 126.194 354.78 127.3 356.25 127.3C357.566 127.3 358.434 126.348 358.434 126.348L358.98 127.342C358.98 127.342 358 128.476 356.152 128.476C353.926 128.476 352.358 126.894 352.358 124.766ZM360.028 124.766C360.028 122.512 361.554 121.056 363.57 121.056C365.572 121.056 366.636 122.54 366.636 124.374C366.636 124.556 366.594 124.962 366.594 124.962H361.428C361.498 126.516 362.604 127.3 363.864 127.3C365.082 127.3 365.964 126.474 365.964 126.474L366.524 127.468C366.524 127.468 365.474 128.476 363.78 128.476C361.554 128.476 360.028 126.866 360.028 124.766ZM361.47 123.94H365.25C365.208 122.722 364.452 122.134 363.542 122.134C362.506 122.134 361.666 122.778 361.47 123.94ZM367.71 127.44L368.368 126.474C368.368 126.474 369.166 127.3 370.398 127.3C370.986 127.3 371.574 126.992 371.574 126.418C371.574 125.116 367.934 125.382 367.934 123.072C367.934 121.784 369.082 121.056 370.496 121.056C372.05 121.056 372.778 121.84 372.778 121.84L372.232 122.862C372.232 122.862 371.602 122.232 370.482 122.232C369.894 122.232 369.32 122.484 369.32 123.1C369.32 124.374 372.96 124.094 372.96 126.418C372.96 127.594 371.952 128.476 370.398 128.476C368.662 128.476 367.71 127.44 367.71 127.44ZM379.737 129.638C378.729 127.958 378.113 125.802 378.113 123.548C378.113 121.532 378.701 119.67 379.737 118.018H380.927C379.905 119.726 379.345 121.588 379.345 123.562C379.345 125.648 379.877 127.734 380.927 129.638H379.737ZM381.903 127.174L382.687 126.124C382.687 126.124 383.737 127.188 385.207 127.188C386.131 127.188 386.915 126.67 386.915 125.732C386.915 123.59 382.127 124.052 382.127 121.014C382.127 119.474 383.457 118.256 385.319 118.256C387.153 118.256 388.119 119.25 388.119 119.25L387.489 120.398C387.489 120.398 386.579 119.544 385.319 119.544C384.269 119.544 383.527 120.202 383.527 120.986C383.527 123.03 388.315 122.484 388.315 125.69C388.315 127.216 387.139 128.476 385.179 128.476C383.079 128.476 381.903 127.174 381.903 127.174ZM390.302 128.308V118.424H393.578C396.602 118.424 398.59 120.23 398.59 123.352C398.59 126.488 396.602 128.308 393.578 128.308H390.302ZM391.688 127.104H393.48C395.706 127.104 397.162 125.788 397.162 123.352C397.162 120.93 395.692 119.628 393.48 119.628H391.688V127.104ZM403.589 123.31C403.589 120.44 405.745 118.256 408.615 118.256C410.995 118.256 412.213 119.558 412.213 119.558L411.527 120.594C411.527 120.594 410.379 119.516 408.671 119.516C406.459 119.516 405.017 121.196 405.017 123.296C405.017 125.41 406.487 127.202 408.685 127.202C410.547 127.202 411.737 125.914 411.737 125.914L412.479 126.908C412.479 126.908 411.121 128.476 408.643 128.476C405.675 128.476 403.589 126.208 403.589 123.31ZM413.566 124.752C413.566 122.61 415.274 121.056 417.388 121.056C419.502 121.056 421.21 122.61 421.21 124.752C421.21 126.908 419.502 128.476 417.388 128.476C415.274 128.476 413.566 126.908 413.566 124.752ZM414.952 124.752C414.952 126.236 416.058 127.3 417.388 127.3C418.732 127.3 419.824 126.236 419.824 124.752C419.824 123.282 418.732 122.232 417.388 122.232C416.058 122.232 414.952 123.282 414.952 124.752ZM422.821 128.308V121.224H424.137V122.162C424.137 122.442 424.109 122.68 424.109 122.68H424.137C424.417 122.064 425.257 121.056 426.797 121.056C428.463 121.056 429.233 121.966 429.233 123.772V128.308H427.875V124.08C427.875 123.086 427.665 122.302 426.531 122.302C425.453 122.302 424.585 123.016 424.291 124.038C424.207 124.318 424.179 124.64 424.179 124.99V128.308H422.821ZM431.256 128.308V121.224H432.572V122.162C432.572 122.442 432.544 122.68 432.544 122.68H432.572C432.852 122.064 433.692 121.056 435.232 121.056C436.898 121.056 437.668 121.966 437.668 123.772V128.308H436.31V124.08C436.31 123.086 436.1 122.302 434.966 122.302C433.888 122.302 433.02 123.016 432.726 124.038C432.642 124.318 432.614 124.64 432.614 124.99V128.308H431.256ZM439.202 124.766C439.202 122.512 440.728 121.056 442.744 121.056C444.746 121.056 445.81 122.54 445.81 124.374C445.81 124.556 445.768 124.962 445.768 124.962H440.602C440.672 126.516 441.778 127.3 443.038 127.3C444.256 127.3 445.138 126.474 445.138 126.474L445.698 127.468C445.698 127.468 444.648 128.476 442.954 128.476C440.728 128.476 439.202 126.866 439.202 124.766ZM440.644 123.94H444.424C444.382 122.722 443.626 122.134 442.716 122.134C441.68 122.134 440.84 122.778 440.644 123.94ZM446.953 124.766C446.953 122.666 448.521 121.056 450.747 121.056C452.525 121.056 453.407 122.092 453.407 122.092L452.763 123.044C452.763 123.044 452.007 122.232 450.803 122.232C449.375 122.232 448.339 123.296 448.339 124.752C448.339 126.194 449.375 127.3 450.845 127.3C452.161 127.3 453.029 126.348 453.029 126.348L453.575 127.342C453.575 127.342 452.595 128.476 450.747 128.476C448.521 128.476 446.953 126.894 446.953 124.766ZM455.408 125.718V122.414H454.484V121.322H455.45V119.278H456.766V121.322H458.474V122.414H456.766V125.564C456.766 126.978 457.76 127.16 458.278 127.16C458.474 127.16 458.6 127.132 458.6 127.132V128.336C458.6 128.336 458.404 128.364 458.124 128.364C457.214 128.364 455.408 128.084 455.408 125.718ZM322.483 141.32C322.483 138.982 325.563 138.884 326.753 138.884H327.061V138.758C327.061 137.596 326.403 137.204 325.507 137.204C324.415 137.204 323.533 137.89 323.533 137.89L322.973 136.896C322.973 136.896 323.995 136.056 325.619 136.056C327.411 136.056 328.419 137.036 328.419 138.828V143.308H327.159V142.636C327.159 142.314 327.187 142.076 327.187 142.076H327.159C327.159 142.076 326.585 143.476 324.891 143.476C323.673 143.476 322.483 142.734 322.483 141.32ZM323.855 141.25C323.855 141.824 324.303 142.384 325.185 142.384C326.333 142.384 327.075 141.18 327.075 140.13V139.906H326.725C325.703 139.906 323.855 139.976 323.855 141.25ZM330.453 143.308V136.224H331.769V137.162C331.769 137.442 331.741 137.68 331.741 137.68H331.769C332.049 137.064 332.889 136.056 334.429 136.056C336.095 136.056 336.865 136.966 336.865 138.772V143.308H335.507V139.08C335.507 138.086 335.297 137.302 334.163 137.302C333.085 137.302 332.217 138.016 331.923 139.038C331.839 139.318 331.811 139.64 331.811 139.99V143.308H330.453ZM338.427 139.766C338.427 137.512 339.757 136.056 341.633 136.056C343.271 136.056 343.817 137.176 343.817 137.176H343.845C343.845 137.176 343.817 136.966 343.817 136.7V133.424H345.175V143.308H343.887V142.636C343.887 142.356 343.901 142.16 343.901 142.16H343.873C343.873 142.16 343.299 143.476 341.549 143.476C339.631 143.476 338.427 141.964 338.427 139.766ZM339.813 139.766C339.813 141.306 340.639 142.3 341.815 142.3C342.865 142.3 343.859 141.558 343.859 139.752C343.859 138.492 343.201 137.232 341.857 137.232C340.737 137.232 339.813 138.156 339.813 139.766ZM346.737 143.896L350.293 132.892H351.497L347.941 143.896H346.737ZM352.439 139.752C352.439 137.61 354.147 136.056 356.261 136.056C358.375 136.056 360.083 137.61 360.083 139.752C360.083 141.908 358.375 143.476 356.261 143.476C354.147 143.476 352.439 141.908 352.439 139.752ZM353.825 139.752C353.825 141.236 354.931 142.3 356.261 142.3C357.605 142.3 358.697 141.236 358.697 139.752C358.697 138.282 357.605 137.232 356.261 137.232C354.931 137.232 353.825 138.282 353.825 139.752ZM361.694 143.308V136.224H363.01V137.456C363.01 137.75 362.982 137.988 362.982 137.988H363.01C363.332 136.952 364.158 136.14 365.25 136.14C365.432 136.14 365.6 136.168 365.6 136.168V137.512C365.6 137.512 365.418 137.47 365.208 137.47C364.34 137.47 363.542 138.086 363.22 139.136C363.094 139.542 363.052 139.976 363.052 140.41V143.308H361.694ZM370.063 142.174L370.847 141.124C370.847 141.124 371.897 142.188 373.367 142.188C374.291 142.188 375.075 141.67 375.075 140.732C375.075 138.59 370.287 139.052 370.287 136.014C370.287 134.474 371.617 133.256 373.479 133.256C375.313 133.256 376.279 134.25 376.279 134.25L375.649 135.398C375.649 135.398 374.739 134.544 373.479 134.544C372.429 134.544 371.687 135.202 371.687 135.986C371.687 138.03 376.475 137.484 376.475 140.69C376.475 142.216 375.299 143.476 373.339 143.476C371.239 143.476 370.063 142.174 370.063 142.174ZM378.462 143.308V133.424H381.738C384.762 133.424 386.75 135.23 386.75 138.352C386.75 141.488 384.762 143.308 381.738 143.308H378.462ZM379.848 142.104H381.64C383.866 142.104 385.322 140.788 385.322 138.352C385.322 135.93 383.852 134.628 381.64 134.628H379.848V142.104ZM392.421 143.308V133.424H395.697C398.721 133.424 400.709 135.23 400.709 138.352C400.709 141.488 398.721 143.308 395.697 143.308H392.421ZM393.807 142.104H395.599C397.825 142.104 399.281 140.788 399.281 138.352C399.281 135.93 397.811 134.628 395.599 134.628H393.807V142.104ZM402.014 139.766C402.014 137.512 403.54 136.056 405.556 136.056C407.558 136.056 408.622 137.54 408.622 139.374C408.622 139.556 408.58 139.962 408.58 139.962H403.414C403.484 141.516 404.59 142.3 405.85 142.3C407.068 142.3 407.95 141.474 407.95 141.474L408.51 142.468C408.51 142.468 407.46 143.476 405.766 143.476C403.54 143.476 402.014 141.866 402.014 139.766ZM403.456 138.94H407.236C407.194 137.722 406.438 137.134 405.528 137.134C404.492 137.134 403.652 137.778 403.456 138.94ZM409.696 142.44L410.354 141.474C410.354 141.474 411.152 142.3 412.384 142.3C412.972 142.3 413.56 141.992 413.56 141.418C413.56 140.116 409.92 140.382 409.92 138.072C409.92 136.784 411.068 136.056 412.482 136.056C414.036 136.056 414.764 136.84 414.764 136.84L414.218 137.862C414.218 137.862 413.588 137.232 412.468 137.232C411.88 137.232 411.306 137.484 411.306 138.1C411.306 139.374 414.946 139.094 414.946 141.418C414.946 142.594 413.938 143.476 412.384 143.476C410.648 143.476 409.696 142.44 409.696 142.44ZM416.545 143.308V133.424H417.903V138.828H418.897L420.829 136.224H422.369L420.017 139.346V139.374L422.635 143.308H421.053L418.925 139.976H417.903V143.308H416.545ZM424.208 140.718V137.414H423.284V136.322H424.25V134.278H425.566V136.322H427.274V137.414H425.566V140.564C425.566 141.978 426.56 142.16 427.078 142.16C427.274 142.16 427.4 142.132 427.4 142.132V143.336C427.4 143.336 427.204 143.364 426.924 143.364C426.014 143.364 424.208 143.084 424.208 140.718ZM428.414 139.752C428.414 137.61 430.122 136.056 432.236 136.056C434.35 136.056 436.058 137.61 436.058 139.752C436.058 141.908 434.35 143.476 432.236 143.476C430.122 143.476 428.414 141.908 428.414 139.752ZM429.8 139.752C429.8 141.236 430.906 142.3 432.236 142.3C433.58 142.3 434.672 141.236 434.672 139.752C434.672 138.282 433.58 137.232 432.236 137.232C430.906 137.232 429.8 138.282 429.8 139.752ZM437.668 146.108V136.224H438.914V136.826C438.914 137.106 438.886 137.344 438.886 137.344H438.914C438.914 137.344 439.516 136.056 441.294 136.056C443.198 136.056 444.402 137.568 444.402 139.766C444.402 142.02 443.044 143.476 441.196 143.476C439.642 143.476 439.026 142.314 439.026 142.314H438.998C438.998 142.314 439.026 142.566 439.026 142.93V146.108H437.668ZM438.984 139.794C438.984 141.054 439.684 142.314 440.986 142.314C442.106 142.314 443.03 141.39 443.03 139.78C443.03 138.24 442.204 137.246 441.028 137.246C439.964 137.246 438.984 137.988 438.984 139.794Z" fill="#005260"/>
<rect x="271.531" y="152.308" width="42" height="42" rx="21" fill="#005260"/>
<path d="M281.912 179.308V167.089H286.804C287.703 167.089 288.453 167.223 289.053 167.489C289.654 167.756 290.105 168.126 290.408 168.599C290.71 169.068 290.861 169.609 290.861 170.222C290.861 170.699 290.766 171.118 290.575 171.48C290.384 171.838 290.121 172.133 289.787 172.363C289.457 172.59 289.079 172.751 288.654 172.847V172.966C289.119 172.986 289.555 173.117 289.96 173.36C290.37 173.602 290.702 173.942 290.956 174.38C291.211 174.813 291.338 175.33 291.338 175.931C291.338 176.579 291.177 177.158 290.855 177.667C290.537 178.172 290.066 178.572 289.441 178.866C288.817 179.16 288.047 179.308 287.132 179.308H281.912ZM284.495 177.196H286.601C287.321 177.196 287.846 177.058 288.176 176.784C288.506 176.506 288.672 176.136 288.672 175.674C288.672 175.336 288.59 175.038 288.427 174.779C288.264 174.521 288.031 174.318 287.729 174.171C287.431 174.024 287.075 173.95 286.661 173.95H284.495V177.196ZM284.495 172.202H286.41C286.764 172.202 287.079 172.141 287.353 172.017C287.631 171.89 287.85 171.711 288.009 171.48C288.172 171.25 288.254 170.973 288.254 170.651C288.254 170.21 288.097 169.854 287.783 169.583C287.472 169.313 287.031 169.178 286.458 169.178H284.495V172.202ZM300.566 167.089H303.149V175.024C303.149 175.915 302.937 176.695 302.511 177.363C302.089 178.031 301.499 178.552 300.739 178.926C299.979 179.296 299.094 179.481 298.084 179.481C297.07 179.481 296.183 179.296 295.423 178.926C294.664 178.552 294.073 178.031 293.652 177.363C293.23 176.695 293.019 175.915 293.019 175.024V167.089H295.602V174.803C295.602 175.269 295.704 175.682 295.907 176.044C296.114 176.406 296.404 176.691 296.778 176.897C297.152 177.104 297.587 177.208 298.084 177.208C298.585 177.208 299.021 177.104 299.391 176.897C299.765 176.691 300.053 176.406 300.256 176.044C300.463 175.682 300.566 175.269 300.566 174.803V167.089Z" fill="#E6F0F2"/>
<path d="M330.385 170.308L329.391 167.466H325.667L324.687 170.308H323.259L326.815 160.424H328.271L331.827 170.308H330.385ZM327.557 161.782H327.529C327.529 161.782 327.305 162.678 327.137 163.182L326.031 166.318H329.027L327.935 163.182C327.767 162.678 327.557 161.782 327.557 161.782ZM332.722 173.108V163.224H333.968V163.826C333.968 164.106 333.94 164.344 333.94 164.344H333.968C333.968 164.344 334.57 163.056 336.348 163.056C338.252 163.056 339.456 164.568 339.456 166.766C339.456 169.02 338.098 170.476 336.25 170.476C334.696 170.476 334.08 169.314 334.08 169.314H334.052C334.052 169.314 334.08 169.566 334.08 169.93V173.108H332.722ZM334.038 166.794C334.038 168.054 334.738 169.314 336.04 169.314C337.16 169.314 338.084 168.39 338.084 166.78C338.084 165.24 337.258 164.246 336.082 164.246C335.018 164.246 334.038 164.988 334.038 166.794ZM340.836 173.108V163.224H342.082V163.826C342.082 164.106 342.054 164.344 342.054 164.344H342.082C342.082 164.344 342.684 163.056 344.462 163.056C346.366 163.056 347.57 164.568 347.57 166.766C347.57 169.02 346.212 170.476 344.364 170.476C342.81 170.476 342.194 169.314 342.194 169.314H342.166C342.166 169.314 342.194 169.566 342.194 169.93V173.108H340.836ZM342.152 166.794C342.152 168.054 342.852 169.314 344.154 169.314C345.274 169.314 346.198 168.39 346.198 166.78C346.198 165.24 345.372 164.246 344.196 164.246C343.132 164.246 342.152 164.988 342.152 166.794ZM348.867 168.376V160.424H350.225V168.138C350.225 168.992 350.561 169.146 350.981 169.146C351.107 169.146 351.219 169.132 351.219 169.132V170.336C351.219 170.336 351.009 170.364 350.771 170.364C350.001 170.364 348.867 170.154 348.867 168.376ZM351.382 172.814L351.858 171.778C351.858 171.778 352.25 172.072 352.684 172.072C353.23 172.072 353.692 171.68 353.958 171.036L354.308 170.224L351.34 163.224H352.866L354.644 167.858C354.784 168.222 354.91 168.712 354.91 168.712H354.938C354.938 168.712 355.05 168.236 355.176 167.872L356.898 163.224H358.368L355.05 171.582C354.616 172.674 353.748 173.248 352.754 173.248C351.956 173.248 351.382 172.814 351.382 172.814ZM362.548 170.308V160.424H363.906V163.658C363.906 164.008 363.878 164.26 363.878 164.26H363.906C363.906 164.26 364.508 163.056 366.174 163.056C368.078 163.056 369.282 164.568 369.282 166.766C369.282 169.02 367.924 170.476 366.062 170.476C364.48 170.476 363.836 169.258 363.836 169.258H363.808C363.808 169.258 363.836 169.482 363.836 169.79V170.308H362.548ZM363.864 166.794C363.864 168.054 364.522 169.314 365.866 169.314C366.986 169.314 367.91 168.39 367.91 166.78C367.91 165.24 367.084 164.246 365.908 164.246C364.844 164.246 363.864 164.988 363.864 166.794ZM370.649 161.81V160.424H372.021V161.81H370.649ZM370.663 170.308V163.224H372.021V170.308H370.663ZM373.785 168.376V160.424H375.143V168.138C375.143 168.992 375.479 169.146 375.899 169.146C376.025 169.146 376.137 169.132 376.137 169.132V170.336C376.137 170.336 375.927 170.364 375.689 170.364C374.919 170.364 373.785 170.154 373.785 168.376ZM377.21 168.376V160.424H378.568V168.138C378.568 168.992 378.904 169.146 379.324 169.146C379.45 169.146 379.562 169.132 379.562 169.132V170.336C379.562 170.336 379.352 170.364 379.114 170.364C378.344 170.364 377.21 170.154 377.21 168.376ZM380.705 161.81V160.424H382.077V161.81H380.705ZM380.719 170.308V163.224H382.077V170.308H380.719ZM383.926 170.308V163.224H385.242V164.162C385.242 164.442 385.214 164.68 385.214 164.68H385.242C385.522 164.064 386.362 163.056 387.902 163.056C389.568 163.056 390.338 163.966 390.338 165.772V170.308H388.98V166.08C388.98 165.086 388.77 164.302 387.636 164.302C386.558 164.302 385.69 165.016 385.396 166.038C385.312 166.318 385.284 166.64 385.284 166.99V170.308H383.926ZM392.711 171.596C392.711 171.596 393.593 172.072 394.657 172.072C395.889 172.072 396.897 171.526 396.897 170.084V169.566C396.897 169.342 396.911 169.118 396.911 169.118H396.883C396.463 169.818 395.805 170.224 394.783 170.224C392.809 170.224 391.619 168.642 391.619 166.598C391.619 164.568 392.753 163.056 394.713 163.056C396.421 163.056 396.939 164.106 396.939 164.106H396.967C396.967 164.106 396.953 164.008 396.953 163.882V163.224H398.255V170.014C398.255 172.352 396.477 173.248 394.685 173.248C393.831 173.248 392.949 173.01 392.263 172.66L392.711 171.596ZM395.049 169.048C396.029 169.048 396.925 168.46 396.925 166.612C396.925 164.764 396.029 164.232 394.923 164.232C393.691 164.232 392.991 165.128 392.991 166.57C392.991 168.04 393.775 169.048 395.049 169.048ZM403.318 167.76V163.224H404.676V167.452C404.676 168.432 404.872 169.216 406.006 169.216C407.448 169.216 408.302 167.942 408.302 166.542V163.224H409.66V170.308H408.344V169.37C408.344 169.076 408.372 168.852 408.372 168.852H408.344C408.05 169.552 407.126 170.476 405.74 170.476C404.144 170.476 403.318 169.636 403.318 167.76ZM411.503 170.308V163.224H412.819V164.162C412.819 164.442 412.791 164.68 412.791 164.68H412.819C413.099 164.064 413.939 163.056 415.479 163.056C417.145 163.056 417.915 163.966 417.915 165.772V170.308H416.557V166.08C416.557 165.086 416.347 164.302 415.213 164.302C414.135 164.302 413.267 165.016 412.973 166.038C412.889 166.318 412.861 166.64 412.861 166.99V170.308H411.503ZM419.645 161.81V160.424H421.017V161.81H419.645ZM419.659 170.308V163.224H421.017V170.308H419.659ZM423.159 167.718V164.414H422.235V163.322H423.201V161.278H424.517V163.322H426.225V164.414H424.517V167.564C424.517 168.978 425.511 169.16 426.029 169.16C426.225 169.16 426.351 169.132 426.351 169.132V170.336C426.351 170.336 426.155 170.364 425.875 170.364C424.965 170.364 423.159 170.084 423.159 167.718ZM427.028 169.44L427.686 168.474C427.686 168.474 428.484 169.3 429.716 169.3C430.304 169.3 430.892 168.992 430.892 168.418C430.892 167.116 427.252 167.382 427.252 165.072C427.252 163.784 428.4 163.056 429.814 163.056C431.368 163.056 432.096 163.84 432.096 163.84L431.55 164.862C431.55 164.862 430.92 164.232 429.8 164.232C429.212 164.232 428.638 164.484 428.638 165.1C428.638 166.374 432.278 166.094 432.278 168.418C432.278 169.594 431.27 170.476 429.716 170.476C427.98 170.476 427.028 169.44 427.028 169.44ZM325.793 186.638C324.785 184.958 324.169 182.802 324.169 180.548C324.169 178.532 324.757 176.67 325.793 175.018H326.983C325.961 176.726 325.401 178.588 325.401 180.562C325.401 182.648 325.933 184.734 326.983 186.638H325.793ZM327.637 181.752C327.637 179.61 329.345 178.056 331.459 178.056C333.573 178.056 335.281 179.61 335.281 181.752C335.281 183.908 333.573 185.476 331.459 185.476C329.345 185.476 327.637 183.908 327.637 181.752ZM329.023 181.752C329.023 183.236 330.129 184.3 331.459 184.3C332.803 184.3 333.895 183.236 333.895 181.752C333.895 180.282 332.803 179.232 331.459 179.232C330.129 179.232 329.023 180.282 329.023 181.752ZM336.612 188.108V178.224H337.858V178.826C337.858 179.106 337.83 179.344 337.83 179.344H337.858C337.858 179.344 338.46 178.056 340.238 178.056C342.142 178.056 343.346 179.568 343.346 181.766C343.346 184.02 341.988 185.476 340.14 185.476C338.586 185.476 337.97 184.314 337.97 184.314H337.942C337.942 184.314 337.97 184.566 337.97 184.93V188.108H336.612ZM337.928 181.794C337.928 183.054 338.628 184.314 339.93 184.314C341.05 184.314 341.974 183.39 341.974 181.78C341.974 180.24 341.148 179.246 339.972 179.246C338.908 179.246 337.928 179.988 337.928 181.794ZM345.02 182.718V179.414H344.096V178.322H345.062V176.278H346.378V178.322H348.086V179.414H346.378V182.564C346.378 183.978 347.372 184.16 347.89 184.16C348.086 184.16 348.212 184.132 348.212 184.132V185.336C348.212 185.336 348.016 185.364 347.736 185.364C346.826 185.364 345.02 185.084 345.02 182.718ZM349.45 176.81V175.424H350.822V176.81H349.45ZM349.464 185.308V178.224H350.822V185.308H349.464ZM352.152 181.752C352.152 179.61 353.86 178.056 355.974 178.056C358.088 178.056 359.796 179.61 359.796 181.752C359.796 183.908 358.088 185.476 355.974 185.476C353.86 185.476 352.152 183.908 352.152 181.752ZM353.538 181.752C353.538 183.236 354.644 184.3 355.974 184.3C357.318 184.3 358.41 183.236 358.41 181.752C358.41 180.282 357.318 179.232 355.974 179.232C354.644 179.232 353.538 180.282 353.538 181.752ZM361.127 185.308V178.224H362.443V179.162C362.443 179.442 362.415 179.68 362.415 179.68H362.443C362.723 179.064 363.563 178.056 365.103 178.056C366.769 178.056 367.539 178.966 367.539 180.772V185.308H366.181V181.08C366.181 180.086 365.971 179.302 364.837 179.302C363.759 179.302 362.891 180.016 362.597 181.038C362.513 181.318 362.485 181.64 362.485 181.99V185.308H361.127ZM368.708 183.32C368.708 180.982 371.788 180.884 372.978 180.884H373.286V180.758C373.286 179.596 372.628 179.204 371.732 179.204C370.64 179.204 369.758 179.89 369.758 179.89L369.198 178.896C369.198 178.896 370.22 178.056 371.844 178.056C373.636 178.056 374.644 179.036 374.644 180.828V185.308H373.384V184.636C373.384 184.314 373.412 184.076 373.412 184.076H373.384C373.384 184.076 372.81 185.476 371.116 185.476C369.898 185.476 368.708 184.734 368.708 183.32ZM370.08 183.25C370.08 183.824 370.528 184.384 371.41 184.384C372.558 184.384 373.3 183.18 373.3 182.13V181.906H372.95C371.928 181.906 370.08 181.976 370.08 183.25ZM376.315 183.376V175.424H377.673V183.138C377.673 183.992 378.009 184.146 378.429 184.146C378.555 184.146 378.667 184.132 378.667 184.132V185.336C378.667 185.336 378.457 185.364 378.219 185.364C377.449 185.364 376.315 185.154 376.315 183.376ZM380.342 186.638H379.152C380.202 184.734 380.734 182.648 380.734 180.562C380.734 178.588 380.174 176.726 379.152 175.018H380.342C381.378 176.67 381.966 178.532 381.966 180.548C381.966 182.802 381.35 184.958 380.342 186.638Z" fill="#005260"/>
<rect x="271.531" y="200.308" width="42" height="42" rx="21" fill="#005260"/>
<g clip-path="url(#clip2_891_4771)">
<path d="M300.532 215.974H299.198V213.308C299.198 209.628 296.212 206.641 292.532 206.641C288.852 206.641 285.865 209.628 285.865 213.308V215.974H284.532C283.065 215.974 281.865 217.174 281.865 218.641V231.974C281.865 233.441 283.065 234.641 284.532 234.641H300.532C301.998 234.641 303.198 233.441 303.198 231.974V218.641C303.198 217.174 301.998 215.974 300.532 215.974ZM292.532 227.974C291.065 227.974 289.865 226.774 289.865 225.308C289.865 223.841 291.065 222.641 292.532 222.641C293.998 222.641 295.198 223.841 295.198 225.308C295.198 226.774 293.998 227.974 292.532 227.974ZM296.665 215.974H288.398V213.308C288.398 211.028 290.252 209.174 292.532 209.174C294.812 209.174 296.665 211.028 296.665 213.308V215.974Z" fill="#E6F0F2"/>
</g>
<path d="M324.491 218.308V208.424H330.231V209.628H325.877V212.722H329.419V213.926H325.877V217.104H330.469V218.308H324.491ZM331.956 218.308V211.224H333.272V212.162C333.272 212.442 333.244 212.68 333.244 212.68H333.272C333.552 212.064 334.392 211.056 335.932 211.056C337.598 211.056 338.368 211.966 338.368 213.772V218.308H337.01V214.08C337.01 213.086 336.8 212.302 335.666 212.302C334.588 212.302 333.72 213.016 333.426 214.038C333.342 214.318 333.314 214.64 333.314 214.99V218.308H331.956ZM339.538 216.32C339.538 213.982 342.618 213.884 343.808 213.884H344.116V213.758C344.116 212.596 343.458 212.204 342.562 212.204C341.47 212.204 340.588 212.89 340.588 212.89L340.028 211.896C340.028 211.896 341.05 211.056 342.674 211.056C344.466 211.056 345.474 212.036 345.474 213.828V218.308H344.214V217.636C344.214 217.314 344.242 217.076 344.242 217.076H344.214C344.214 217.076 343.64 218.476 341.946 218.476C340.728 218.476 339.538 217.734 339.538 216.32ZM340.91 216.25C340.91 216.824 341.358 217.384 342.24 217.384C343.388 217.384 344.13 216.18 344.13 215.13V214.906H343.78C342.758 214.906 340.91 214.976 340.91 216.25ZM347.228 218.308V208.424H348.586V211.658C348.586 212.008 348.558 212.26 348.558 212.26H348.586C348.586 212.26 349.188 211.056 350.854 211.056C352.758 211.056 353.962 212.568 353.962 214.766C353.962 217.02 352.604 218.476 350.742 218.476C349.16 218.476 348.516 217.258 348.516 217.258H348.488C348.488 217.258 348.516 217.482 348.516 217.79V218.308H347.228ZM348.544 214.794C348.544 216.054 349.202 217.314 350.546 217.314C351.666 217.314 352.59 216.39 352.59 214.78C352.59 213.24 351.764 212.246 350.588 212.246C349.524 212.246 348.544 212.988 348.544 214.794ZM355.259 216.376V208.424H356.617V216.138C356.617 216.992 356.953 217.146 357.373 217.146C357.499 217.146 357.611 217.132 357.611 217.132V218.336C357.611 218.336 357.401 218.364 357.163 218.364C356.393 218.364 355.259 218.154 355.259 216.376ZM358.278 214.766C358.278 212.512 359.804 211.056 361.82 211.056C363.822 211.056 364.886 212.54 364.886 214.374C364.886 214.556 364.844 214.962 364.844 214.962H359.678C359.748 216.516 360.854 217.3 362.114 217.3C363.332 217.3 364.214 216.474 364.214 216.474L364.774 217.468C364.774 217.468 363.724 218.476 362.03 218.476C359.804 218.476 358.278 216.866 358.278 214.766ZM359.72 213.94H363.5C363.458 212.722 362.702 212.134 361.792 212.134C360.756 212.134 359.916 212.778 359.72 213.94ZM369.863 215.718V212.414H368.939V211.322H369.905V209.278H371.221V211.322H372.929V212.414H371.221V215.564C371.221 216.978 372.215 217.16 372.733 217.16C372.929 217.16 373.055 217.132 373.055 217.132V218.336C373.055 218.336 372.859 218.364 372.579 218.364C371.669 218.364 369.863 218.084 369.863 215.718ZM375.763 218.308L373.481 211.224H374.923L376.393 216.194C376.505 216.558 376.561 216.95 376.575 216.95H376.603C376.603 216.95 376.673 216.558 376.785 216.194L378.325 211.238H379.571L381.097 216.194C381.209 216.558 381.293 216.95 381.293 216.95H381.321C381.321 216.95 381.377 216.558 381.489 216.194L382.973 211.224H384.401L382.119 218.308H380.621L379.151 213.758C379.039 213.394 378.955 212.988 378.955 212.988H378.927C378.927 212.988 378.843 213.394 378.731 213.758L377.275 218.308H375.763ZM384.911 214.752C384.911 212.61 386.619 211.056 388.733 211.056C390.847 211.056 392.555 212.61 392.555 214.752C392.555 216.908 390.847 218.476 388.733 218.476C386.619 218.476 384.911 216.908 384.911 214.752ZM386.297 214.752C386.297 216.236 387.403 217.3 388.733 217.3C390.077 217.3 391.169 216.236 391.169 214.752C391.169 213.282 390.077 212.232 388.733 212.232C387.403 212.232 386.297 213.282 386.297 214.752ZM394.081 214.92V213.716H398.169V214.92H394.081ZM399.635 217.44L400.293 216.474C400.293 216.474 401.091 217.3 402.323 217.3C402.911 217.3 403.499 216.992 403.499 216.418C403.499 215.116 399.859 215.382 399.859 213.072C399.859 211.784 401.007 211.056 402.421 211.056C403.975 211.056 404.703 211.84 404.703 211.84L404.157 212.862C404.157 212.862 403.527 212.232 402.407 212.232C401.819 212.232 401.245 212.484 401.245 213.1C401.245 214.374 404.885 214.094 404.885 216.418C404.885 217.594 403.877 218.476 402.323 218.476C400.587 218.476 399.635 217.44 399.635 217.44ZM406.498 215.718V212.414H405.574V211.322H406.54V209.278H407.856V211.322H409.564V212.414H407.856V215.564C407.856 216.978 408.85 217.16 409.368 217.16C409.564 217.16 409.69 217.132 409.69 217.132V218.336C409.69 218.336 409.494 218.364 409.214 218.364C408.304 218.364 406.498 218.084 406.498 215.718ZM410.452 214.766C410.452 212.512 411.978 211.056 413.994 211.056C415.996 211.056 417.06 212.54 417.06 214.374C417.06 214.556 417.018 214.962 417.018 214.962H411.852C411.922 216.516 413.028 217.3 414.288 217.3C415.506 217.3 416.388 216.474 416.388 216.474L416.948 217.468C416.948 217.468 415.898 218.476 414.204 218.476C411.978 218.476 410.452 216.866 410.452 214.766ZM411.894 213.94H415.674C415.632 212.722 414.876 212.134 413.966 212.134C412.93 212.134 412.09 212.778 411.894 213.94ZM417.91 214.752C417.91 212.61 419.618 211.056 421.732 211.056C423.846 211.056 425.554 212.61 425.554 214.752C425.554 216.908 423.846 218.476 421.732 218.476C419.618 218.476 417.91 216.908 417.91 214.752ZM419.296 214.752C419.296 216.236 420.402 217.3 421.732 217.3C423.076 217.3 424.168 216.236 424.168 214.752C424.168 213.282 423.076 212.232 421.732 212.232C420.402 212.232 419.296 213.282 419.296 214.752ZM323.637 231.32C323.637 228.982 326.717 228.884 327.907 228.884H328.215V228.758C328.215 227.596 327.557 227.204 326.661 227.204C325.569 227.204 324.687 227.89 324.687 227.89L324.127 226.896C324.127 226.896 325.149 226.056 326.773 226.056C328.565 226.056 329.573 227.036 329.573 228.828V233.308H328.313V232.636C328.313 232.314 328.341 232.076 328.341 232.076H328.313C328.313 232.076 327.739 233.476 326.045 233.476C324.827 233.476 323.637 232.734 323.637 231.32ZM325.009 231.25C325.009 231.824 325.457 232.384 326.339 232.384C327.487 232.384 328.229 231.18 328.229 230.13V229.906H327.879C326.857 229.906 325.009 229.976 325.009 231.25ZM331.229 230.76V226.224H332.587V230.452C332.587 231.432 332.783 232.216 333.917 232.216C335.359 232.216 336.213 230.942 336.213 229.542V226.224H337.571V233.308H336.255V232.37C336.255 232.076 336.283 231.852 336.283 231.852H336.255C335.961 232.552 335.037 233.476 333.651 233.476C332.055 233.476 331.229 232.636 331.229 230.76ZM339.708 230.718V227.414H338.784V226.322H339.75V224.278H341.066V226.322H342.774V227.414H341.066V230.564C341.066 231.978 342.06 232.16 342.578 232.16C342.774 232.16 342.9 232.132 342.9 232.132V233.336C342.9 233.336 342.704 233.364 342.424 233.364C341.514 233.364 339.708 233.084 339.708 230.718ZM344.152 233.308V223.424H345.51V227.05C345.51 227.386 345.482 227.638 345.482 227.638H345.51C345.818 226.952 346.714 226.056 348.128 226.056C349.794 226.056 350.564 226.966 350.564 228.772V233.308H349.206V229.08C349.206 228.086 348.996 227.302 347.862 227.302C346.798 227.302 345.916 228.03 345.622 229.052C345.538 229.332 345.51 229.654 345.51 229.99V233.308H344.152ZM351.818 229.766C351.818 227.512 353.344 226.056 355.36 226.056C357.362 226.056 358.426 227.54 358.426 229.374C358.426 229.556 358.384 229.962 358.384 229.962H353.218C353.288 231.516 354.394 232.3 355.654 232.3C356.872 232.3 357.754 231.474 357.754 231.474L358.314 232.468C358.314 232.468 357.264 233.476 355.57 233.476C353.344 233.476 351.818 231.866 351.818 229.766ZM353.26 228.94H357.04C356.998 227.722 356.242 227.134 355.332 227.134C354.296 227.134 353.456 227.778 353.26 228.94ZM359.793 233.308V226.224H361.109V227.162C361.109 227.442 361.081 227.68 361.081 227.68H361.109C361.389 227.064 362.229 226.056 363.769 226.056C365.435 226.056 366.205 226.966 366.205 228.772V233.308H364.847V229.08C364.847 228.086 364.637 227.302 363.503 227.302C362.425 227.302 361.557 228.016 361.263 229.038C361.179 229.318 361.151 229.64 361.151 229.99V233.308H359.793ZM368.243 230.718V227.414H367.319V226.322H368.285V224.278H369.601V226.322H371.309V227.414H369.601V230.564C369.601 231.978 370.595 232.16 371.113 232.16C371.309 232.16 371.435 232.132 371.435 232.132V233.336C371.435 233.336 371.239 233.364 370.959 233.364C370.049 233.364 368.243 233.084 368.243 230.718ZM372.672 224.81V223.424H374.044V224.81H372.672ZM372.686 233.308V226.224H374.044V233.308H372.686ZM375.389 229.766C375.389 227.666 376.957 226.056 379.183 226.056C380.961 226.056 381.843 227.092 381.843 227.092L381.199 228.044C381.199 228.044 380.443 227.232 379.239 227.232C377.811 227.232 376.775 228.296 376.775 229.752C376.775 231.194 377.811 232.3 379.281 232.3C380.597 232.3 381.465 231.348 381.465 231.348L382.011 232.342C382.011 232.342 381.031 233.476 379.183 233.476C376.957 233.476 375.389 231.894 375.389 229.766ZM382.695 231.32C382.695 228.982 385.775 228.884 386.965 228.884H387.273V228.758C387.273 227.596 386.615 227.204 385.719 227.204C384.627 227.204 383.745 227.89 383.745 227.89L383.185 226.896C383.185 226.896 384.207 226.056 385.831 226.056C387.623 226.056 388.631 227.036 388.631 228.828V233.308H387.371V232.636C387.371 232.314 387.399 232.076 387.399 232.076H387.371C387.371 232.076 386.797 233.476 385.103 233.476C383.885 233.476 382.695 232.734 382.695 231.32ZM384.067 231.25C384.067 231.824 384.515 232.384 385.397 232.384C386.545 232.384 387.287 231.18 387.287 230.13V229.906H386.937C385.915 229.906 384.067 229.976 384.067 231.25ZM390.638 230.718V227.414H389.714V226.322H390.68V224.278H391.996V226.322H393.704V227.414H391.996V230.564C391.996 231.978 392.99 232.16 393.508 232.16C393.704 232.16 393.83 232.132 393.83 232.132V233.336C393.83 233.336 393.634 233.364 393.354 233.364C392.444 233.364 390.638 233.084 390.638 230.718ZM395.068 224.81V223.424H396.44V224.81H395.068ZM395.082 233.308V226.224H396.44V233.308H395.082ZM397.77 229.752C397.77 227.61 399.478 226.056 401.592 226.056C403.706 226.056 405.414 227.61 405.414 229.752C405.414 231.908 403.706 233.476 401.592 233.476C399.478 233.476 397.77 231.908 397.77 229.752ZM399.156 229.752C399.156 231.236 400.262 232.3 401.592 232.3C402.936 232.3 404.028 231.236 404.028 229.752C404.028 228.282 402.936 227.232 401.592 227.232C400.262 227.232 399.156 228.282 399.156 229.752ZM406.745 233.308V226.224H408.061V227.162C408.061 227.442 408.033 227.68 408.033 227.68H408.061C408.341 227.064 409.181 226.056 410.721 226.056C412.387 226.056 413.157 226.966 413.157 228.772V233.308H411.799V229.08C411.799 228.086 411.589 227.302 410.455 227.302C409.377 227.302 408.509 228.016 408.215 229.038C408.131 229.318 408.103 229.64 408.103 229.99V233.308H406.745ZM419.798 234.638C418.79 232.958 418.174 230.802 418.174 228.548C418.174 226.532 418.762 224.67 419.798 223.018H420.988C419.966 224.726 419.406 226.588 419.406 228.562C419.406 230.648 419.938 232.734 420.988 234.638H419.798ZM422.133 233.308L422.931 223.424H424.387L426.655 228.772C426.879 229.318 427.145 230.102 427.145 230.102H427.173C427.173 230.102 427.439 229.318 427.663 228.772L429.931 223.424H431.387L432.185 233.308H430.813L430.323 227.078C430.281 226.476 430.309 225.622 430.309 225.622H430.281C430.281 225.622 429.987 226.532 429.749 227.078L427.775 231.53H426.543L424.583 227.078C424.359 226.546 424.051 225.594 424.051 225.594H424.023C424.023 225.594 424.037 226.476 423.995 227.078L423.519 233.308H422.133ZM434.287 233.308V223.424H439.733V224.628H435.673V227.876H439.131V229.08H435.673V233.308H434.287ZM446.819 233.308L445.825 230.466H442.101L441.121 233.308H439.693L443.249 223.424H444.705L448.261 233.308H446.819ZM443.991 224.782H443.963C443.963 224.782 443.739 225.678 443.571 226.182L442.465 229.318H445.461L444.369 226.182C444.201 225.678 443.991 224.782 443.991 224.782ZM449.674 234.638H448.484C449.534 232.734 450.066 230.648 450.066 228.562C450.066 226.588 449.506 224.726 448.484 223.018H449.674C450.71 224.67 451.298 226.532 451.298 228.548C451.298 230.802 450.682 232.958 449.674 234.638Z" fill="#005260"/>
<rect x="291" y="145.691" width="2.69229" height="22.6921" fill="#005260"/>
<rect x="291" y="192" width="2.69229" height="22.6921" fill="#005260"/>
<rect width="43.6509" height="24.33" transform="translate(540.531 154.262)" fill="#66A4AE"/>
<path d="M569.916 166.868L569.698 139.529L597.421 167.142L570.146 195.538L569.916 166.868Z" fill="#66A4AE"/>
<rect x="600.641" y="93.5779" width="147.844" height="147.844" rx="73.9221" fill="#E6F0F2"/>
<rect x="600.641" y="93.5779" width="147.844" height="147.844" rx="73.9221" stroke="#66A4AE" stroke-width="7.15589"/>
<path d="M644.862 131V119.64H646.926V129.224H651.838V131H644.862ZM652.559 126.92C652.559 124.424 654.559 122.648 657.039 122.648C659.535 122.648 661.535 124.424 661.535 126.92C661.535 129.432 659.535 131.192 657.055 131.192C654.559 131.192 652.559 129.432 652.559 126.92ZM654.623 126.92C654.623 128.44 655.727 129.464 657.055 129.464C658.367 129.464 659.471 128.44 659.471 126.92C659.471 125.416 658.367 124.376 657.055 124.376C655.727 124.376 654.623 125.416 654.623 126.92ZM663.999 132.104C663.999 132.104 665.023 132.632 666.255 132.632C667.503 132.632 668.559 132.104 668.559 130.648V130.168C668.559 129.976 668.591 129.736 668.591 129.736H668.559C668.079 130.456 667.375 130.84 666.287 130.84C663.951 130.84 662.623 128.952 662.623 126.712C662.623 124.472 663.887 122.648 666.239 122.648C668.015 122.648 668.655 123.688 668.655 123.688H668.703C668.703 123.688 668.687 123.592 668.687 123.464V122.84H670.591V130.504C670.591 133.304 668.415 134.36 666.287 134.36C665.263 134.36 664.175 134.072 663.391 133.656L663.999 132.104ZM666.719 129.128C667.695 129.128 668.607 128.568 668.607 126.728C668.607 124.872 667.695 124.376 666.591 124.376C665.359 124.376 664.671 125.272 664.671 126.648C664.671 128.072 665.407 129.128 666.719 129.128ZM676.714 121.448V119.64H678.73V121.448H676.714ZM676.714 131V122.84H678.746V131H676.714ZM680.98 131V122.84H682.932V123.784C682.932 124.088 682.9 124.344 682.9 124.344H682.932C683.284 123.656 684.18 122.648 685.828 122.648C687.636 122.648 688.66 123.592 688.66 125.752V131H686.644V126.168C686.644 125.176 686.388 124.504 685.348 124.504C684.26 124.504 683.46 125.192 683.156 126.168C683.044 126.504 683.012 126.872 683.012 127.256V131H680.98ZM691.144 128.008V124.584H690.088V122.968H691.192V120.616H693.176V122.968H695.032V124.584H693.176V127.752C693.176 129.096 694.232 129.288 694.792 129.288C695.016 129.288 695.16 129.256 695.16 129.256V131.032C695.16 131.032 694.92 131.08 694.536 131.08C693.4 131.08 691.144 130.744 691.144 128.008ZM696.216 126.92C696.216 124.424 698.216 122.648 700.696 122.648C703.192 122.648 705.192 124.424 705.192 126.92C705.192 129.432 703.192 131.192 700.712 131.192C698.216 131.192 696.216 129.432 696.216 126.92ZM698.28 126.92C698.28 128.44 699.384 129.464 700.712 129.464C702.024 129.464 703.128 128.44 703.128 126.92C703.128 125.416 702.024 124.376 700.712 124.376C699.384 124.376 698.28 125.416 698.28 126.92ZM612.545 145.64L613.665 144.088C613.665 144.088 614.897 145.288 616.497 145.288C617.361 145.288 618.145 144.84 618.145 143.912C618.145 141.88 612.785 142.232 612.785 138.744C612.785 136.856 614.417 135.448 616.593 135.448C618.833 135.448 619.985 136.664 619.985 136.664L619.089 138.344C619.089 138.344 618.001 137.352 616.577 137.352C615.617 137.352 614.865 137.912 614.865 138.712C614.865 140.728 620.209 140.232 620.209 143.864C620.209 145.672 618.833 147.192 616.465 147.192C613.937 147.192 612.545 145.64 612.545 145.64ZM622.269 147V135.64H626.141C629.645 135.64 631.933 137.72 631.933 141.304C631.933 144.888 629.645 147 626.141 147H622.269ZM624.333 145.224H626.029C628.333 145.224 629.805 143.864 629.805 141.304C629.805 138.776 628.301 137.416 626.029 137.416H624.333V145.224ZM637.203 141.272C637.203 137.976 639.699 135.448 643.043 135.448C645.811 135.448 647.235 137 647.235 137L646.243 138.536C646.243 138.536 644.947 137.336 643.139 137.336C640.739 137.336 639.331 139.128 639.331 141.24C639.331 143.4 640.787 145.304 643.155 145.304C645.123 145.304 646.451 143.864 646.451 143.864L647.539 145.352C647.539 145.352 645.971 147.192 643.075 147.192C639.603 147.192 637.203 144.616 637.203 141.272ZM648.512 142.92C648.512 140.424 650.512 138.648 652.992 138.648C655.488 138.648 657.488 140.424 657.488 142.92C657.488 145.432 655.488 147.192 653.008 147.192C650.512 147.192 648.512 145.432 648.512 142.92ZM650.576 142.92C650.576 144.44 651.68 145.464 653.008 145.464C654.32 145.464 655.424 144.44 655.424 142.92C655.424 141.416 654.32 140.376 653.008 140.376C651.68 140.376 650.576 141.416 650.576 142.92ZM659.12 147V138.84H661.072V139.784C661.072 140.088 661.04 140.344 661.04 140.344H661.072C661.424 139.656 662.32 138.648 663.968 138.648C665.776 138.648 666.8 139.592 666.8 141.752V147H664.784V142.168C664.784 141.176 664.528 140.504 663.488 140.504C662.4 140.504 661.6 141.192 661.296 142.168C661.184 142.504 661.152 142.872 661.152 143.256V147H659.12ZM668.933 147V138.84H670.885V139.784C670.885 140.088 670.853 140.344 670.853 140.344H670.885C671.237 139.656 672.133 138.648 673.781 138.648C675.589 138.648 676.613 139.592 676.613 141.752V147H674.597V142.168C674.597 141.176 674.341 140.504 673.301 140.504C672.213 140.504 671.413 141.192 671.109 142.168C670.997 142.504 670.965 142.872 670.965 143.256V147H668.933ZM678.169 142.92C678.169 140.408 679.881 138.648 682.313 138.648C684.665 138.648 685.929 140.36 685.929 142.52C685.929 142.76 685.881 143.304 685.881 143.304H680.249C680.377 144.728 681.481 145.464 682.697 145.464C684.009 145.464 685.049 144.568 685.049 144.568L685.833 146.024C685.833 146.024 684.585 147.192 682.553 147.192C679.849 147.192 678.169 145.24 678.169 142.92ZM680.313 141.912H683.881C683.849 140.808 683.161 140.216 682.265 140.216C681.225 140.216 680.505 140.856 680.313 141.912ZM687.013 142.92C687.013 140.6 688.741 138.648 691.445 138.648C693.573 138.648 694.581 139.864 694.581 139.864L693.685 141.256C693.685 141.256 692.837 140.376 691.557 140.376C690.053 140.376 689.077 141.512 689.077 142.904C689.077 144.28 690.069 145.464 691.621 145.464C692.997 145.464 694.021 144.424 694.021 144.424L694.805 145.864C694.805 145.864 693.637 147.192 691.445 147.192C688.741 147.192 687.013 145.288 687.013 142.92ZM696.676 144.008V140.584H695.62V138.968H696.724V136.616H698.708V138.968H700.564V140.584H698.708V143.752C698.708 145.096 699.764 145.288 700.324 145.288C700.548 145.288 700.692 145.256 700.692 145.256V147.032C700.692 147.032 700.452 147.08 700.068 147.08C698.932 147.08 696.676 146.744 696.676 144.008ZM705.557 144.648C705.557 142.056 709.061 141.88 710.389 141.88H710.661V141.768C710.661 140.696 709.989 140.328 709.093 140.328C707.925 140.328 706.853 141.112 706.853 141.112L706.085 139.656C706.085 139.656 707.349 138.648 709.285 138.648C711.429 138.648 712.677 139.832 712.677 141.896V147H710.805V146.328C710.805 146.008 710.837 145.752 710.837 145.752H710.805C710.821 145.752 710.181 147.192 708.325 147.192C706.869 147.192 705.557 146.28 705.557 144.648ZM707.605 144.552C707.605 145.096 708.005 145.608 708.837 145.608C709.909 145.608 710.677 144.456 710.677 143.464V143.272H710.325C709.285 143.272 707.605 143.416 707.605 144.552ZM714.792 147V138.84H716.744V139.784C716.744 140.088 716.712 140.344 716.712 140.344H716.744C717.096 139.656 717.992 138.648 719.64 138.648C721.448 138.648 722.472 139.592 722.472 141.752V147H720.456V142.168C720.456 141.176 720.2 140.504 719.16 140.504C718.072 140.504 717.272 141.192 716.968 142.168C716.856 142.504 716.824 142.872 716.824 143.256V147H714.792ZM724.045 142.92C724.045 140.328 725.581 138.648 727.741 138.648C729.533 138.648 730.093 139.688 730.093 139.688H730.125C730.125 139.688 730.109 139.48 730.109 139.224V135.64H732.141V147H730.221V146.328C730.221 146.024 730.253 145.8 730.253 145.8H730.221C730.221 145.8 729.533 147.192 727.661 147.192C725.453 147.192 724.045 145.448 724.045 142.92ZM726.093 142.92C726.093 144.472 726.925 145.48 728.125 145.48C729.181 145.48 730.173 144.712 730.173 142.904C730.173 141.64 729.501 140.392 728.141 140.392C727.021 140.392 726.093 141.304 726.093 142.92ZM631.569 161.64L632.689 160.088C632.689 160.088 633.921 161.288 635.521 161.288C636.385 161.288 637.169 160.84 637.169 159.912C637.169 157.88 631.809 158.232 631.809 154.744C631.809 152.856 633.441 151.448 635.617 151.448C637.857 151.448 639.009 152.664 639.009 152.664L638.113 154.344C638.113 154.344 637.025 153.352 635.601 153.352C634.641 153.352 633.889 153.912 633.889 154.712C633.889 156.728 639.233 156.232 639.233 159.864C639.233 161.672 637.857 163.192 635.489 163.192C632.961 163.192 631.569 161.64 631.569 161.64ZM641.292 163V151.64H645.164C648.668 151.64 650.956 153.72 650.956 157.304C650.956 160.888 648.668 163 645.164 163H641.292ZM643.356 161.224H645.052C647.356 161.224 648.828 159.864 648.828 157.304C648.828 154.776 647.324 153.416 645.052 153.416H643.356V161.224ZM657.011 163V151.64H660.883C664.387 151.64 666.675 153.72 666.675 157.304C666.675 160.888 664.387 163 660.883 163H657.011ZM659.075 161.224H660.771C663.075 161.224 664.547 159.864 664.547 157.304C664.547 154.776 663.043 153.416 660.771 153.416H659.075V161.224ZM667.943 158.92C667.943 156.408 669.655 154.648 672.087 154.648C674.439 154.648 675.703 156.36 675.703 158.52C675.703 158.76 675.655 159.304 675.655 159.304H670.023C670.151 160.728 671.255 161.464 672.471 161.464C673.783 161.464 674.823 160.568 674.823 160.568L675.607 162.024C675.607 162.024 674.359 163.192 672.327 163.192C669.623 163.192 667.943 161.24 667.943 158.92ZM670.087 157.912H673.655C673.623 156.808 672.935 156.216 672.039 156.216C670.999 156.216 670.279 156.856 670.087 157.912ZM676.69 161.992L677.618 160.568C677.618 160.568 678.514 161.464 679.842 161.464C680.418 161.464 680.914 161.208 680.914 160.728C680.914 159.512 676.946 159.672 676.946 157.048C676.946 155.528 678.306 154.648 680.066 154.648C681.906 154.648 682.802 155.576 682.802 155.576L682.05 157.08C682.05 157.08 681.298 156.376 680.05 156.376C679.522 156.376 679.01 156.6 679.01 157.112C679.01 158.264 682.978 158.12 682.978 160.744C682.978 162.104 681.794 163.192 679.858 163.192C677.826 163.192 676.69 161.992 676.69 161.992ZM684.613 163V151.64H686.645V157.72H687.653L689.621 154.84H691.877L689.301 158.488V158.52L692.197 163H689.861L687.701 159.432H686.645V163H684.613ZM693.793 160.008V156.584H692.737V154.968H693.841V152.616H695.825V154.968H697.681V156.584H695.825V159.752C695.825 161.096 696.881 161.288 697.441 161.288C697.665 161.288 697.809 161.256 697.809 161.256V163.032C697.809 163.032 697.569 163.08 697.185 163.08C696.049 163.08 693.793 162.744 693.793 160.008ZM698.864 158.92C698.864 156.424 700.864 154.648 703.344 154.648C705.84 154.648 707.84 156.424 707.84 158.92C707.84 161.432 705.84 163.192 703.36 163.192C700.864 163.192 698.864 161.432 698.864 158.92ZM700.928 158.92C700.928 160.44 702.032 161.464 703.36 161.464C704.672 161.464 705.776 160.44 705.776 158.92C705.776 157.416 704.672 156.376 703.36 156.376C702.032 156.376 700.928 157.416 700.928 158.92ZM709.472 166.2V154.84H711.328V155.432C711.328 155.736 711.296 155.992 711.296 155.992H711.328C711.328 155.992 712.032 154.648 713.952 154.648C716.16 154.648 717.568 156.392 717.568 158.92C717.568 161.512 715.984 163.192 713.84 163.192C712.224 163.192 711.504 162.072 711.504 162.072H711.472C711.472 162.072 711.504 162.36 711.504 162.776V166.2H709.472ZM711.44 158.968C711.44 160.232 712.128 161.48 713.472 161.48C714.592 161.48 715.52 160.568 715.52 158.952C715.52 157.4 714.688 156.392 713.488 156.392C712.432 156.392 711.44 157.16 711.44 158.968Z" fill="#005260"/>
<rect x="653.563" y="175" width="42" height="42" rx="21" fill="#005260"/>
<g clip-path="url(#clip3_891_4771)">
<path d="M684.705 203.607C686.1 203.607 687.228 202.466 687.228 201.071L687.241 188.393C687.241 186.999 686.1 185.858 684.705 185.858H664.421C663.026 185.858 661.885 186.999 661.885 188.393V201.071C661.885 202.466 663.026 203.607 664.421 203.607H659.35V206.142H689.776V203.607H684.705ZM664.421 188.393H684.705V201.071H664.421V188.393Z" fill="#E6F0F2"/>
</g>
<defs>
<clipPath id="clip0_891_4771">
<rect width="34.3742" height="34.3742" fill="white" transform="translate(60.3129 178.813)"/>
</clipPath>
<clipPath id="clip1_891_4771">
<rect width="33.6" height="33.6" fill="white" transform="translate(275.732 107.008)"/>
</clipPath>
<clipPath id="clip2_891_4771">
<rect width="32" height="32" fill="white" transform="translate(276.531 205.308)"/>
</clipPath>
<clipPath id="clip3_891_4771">
<rect width="30.4266" height="30.4266" fill="white" transform="translate(659.35 180.787)"/>
</clipPath>
</defs>
</svg>
