<svg width="754" height="335" viewBox="0 0 754 335" fill="none" xmlns="http://www.w3.org/2000/svg">
<rect width="754" height="335" fill="white"/>
<rect x="3.57794" y="93.5779" width="147.844" height="147.844" rx="73.9221" fill="#E6F0F2"/>
<rect x="3.57794" y="93.5779" width="147.844" height="147.844" rx="73.9221" stroke="#66A4AE" stroke-width="7.15589"/>
<path d="M51.2185 125.272C51.2185 121.976 53.7145 119.448 57.0585 119.448C59.8265 119.448 61.2505 121 61.2505 121L60.2585 122.536C60.2585 122.536 58.9625 121.336 57.1545 121.336C54.7545 121.336 53.3465 123.128 53.3465 125.24C53.3465 127.4 54.8025 129.304 57.1705 129.304C59.1385 129.304 60.4665 127.864 60.4665 127.864L61.5545 129.352C61.5545 129.352 59.9865 131.192 57.0905 131.192C53.6185 131.192 51.2185 128.616 51.2185 125.272ZM63.1356 131V122.84H65.0876V124.248C65.0876 124.552 65.0556 124.824 65.0556 124.824H65.0876C65.4556 123.656 66.4316 122.728 67.6796 122.728C67.8716 122.728 68.0476 122.76 68.0476 122.76V124.76C68.0476 124.76 67.8396 124.728 67.5676 124.728C66.7036 124.728 65.7276 125.224 65.3436 126.44C65.2156 126.84 65.1676 127.288 65.1676 127.768V131H63.1356ZM68.8409 126.92C68.8409 124.408 70.5529 122.648 72.9849 122.648C75.3369 122.648 76.6009 124.36 76.6009 126.52C76.6009 126.76 76.5529 127.304 76.5529 127.304H70.9209C71.0489 128.728 72.1529 129.464 73.3689 129.464C74.6809 129.464 75.7209 128.568 75.7209 128.568L76.5049 130.024C76.5049 130.024 75.2569 131.192 73.2249 131.192C70.5209 131.192 68.8409 129.24 68.8409 126.92ZM70.9849 125.912H74.5529C74.5209 124.808 73.8329 124.216 72.9369 124.216C71.8969 124.216 71.1769 124.856 70.9849 125.912ZM77.5883 128.648C77.5883 126.056 81.0923 125.88 82.4203 125.88H82.6923V125.768C82.6923 124.696 82.0203 124.328 81.1243 124.328C79.9563 124.328 78.8843 125.112 78.8843 125.112L78.1163 123.656C78.1163 123.656 79.3803 122.648 81.3163 122.648C83.4603 122.648 84.7083 123.832 84.7083 125.896V131H82.8363V130.328C82.8363 130.008 82.8683 129.752 82.8683 129.752H82.8363C82.8523 129.752 82.2123 131.192 80.3563 131.192C78.9003 131.192 77.5883 130.28 77.5883 128.648ZM79.6363 128.552C79.6363 129.096 80.0363 129.608 80.8683 129.608C81.9403 129.608 82.7083 128.456 82.7083 127.464V127.272H82.3563C81.3163 127.272 79.6363 127.416 79.6363 128.552ZM87.1283 128.008V124.584H86.0723V122.968H87.1763V120.616H89.1603V122.968H91.0163V124.584H89.1603V127.752C89.1603 129.096 90.2163 129.288 90.7763 129.288C91.0003 129.288 91.1443 129.256 91.1443 129.256V131.032C91.1443 131.032 90.9043 131.08 90.5203 131.08C89.3843 131.08 87.1283 130.744 87.1283 128.008ZM92.2315 126.92C92.2315 124.408 93.9435 122.648 96.3755 122.648C98.7275 122.648 99.9915 124.36 99.9915 126.52C99.9915 126.76 99.9435 127.304 99.9435 127.304H94.3115C94.4395 128.728 95.5435 129.464 96.7595 129.464C98.0715 129.464 99.1115 128.568 99.1115 128.568L99.8955 130.024C99.8955 130.024 98.6475 131.192 96.6155 131.192C93.9115 131.192 92.2315 129.24 92.2315 126.92ZM94.3755 125.912H97.9435C97.9115 124.808 97.2235 124.216 96.3275 124.216C95.2875 124.216 94.5675 124.856 94.3755 125.912ZM27.5935 141.272C27.5935 137.976 30.0895 135.448 33.4335 135.448C36.2015 135.448 37.6255 137 37.6255 137L36.6335 138.536C36.6335 138.536 35.3375 137.336 33.5295 137.336C31.1295 137.336 29.7215 139.128 29.7215 141.24C29.7215 143.4 31.1775 145.304 33.5455 145.304C35.5135 145.304 36.8415 143.864 36.8415 143.864L37.9295 145.352C37.9295 145.352 36.3615 147.192 33.4655 147.192C29.9935 147.192 27.5935 144.616 27.5935 141.272ZM38.9666 145.64L40.0866 144.088C40.0866 144.088 41.3186 145.288 42.9186 145.288C43.7826 145.288 44.5666 144.84 44.5666 143.912C44.5666 141.88 39.2066 142.232 39.2066 138.744C39.2066 136.856 40.8386 135.448 43.0146 135.448C45.2546 135.448 46.4066 136.664 46.4066 136.664L45.5106 138.344C45.5106 138.344 44.4226 137.352 42.9986 137.352C42.0386 137.352 41.2866 137.912 41.2866 138.712C41.2866 140.728 46.6306 140.232 46.6306 143.864C46.6306 145.672 45.2546 147.192 42.8866 147.192C40.3586 147.192 38.9666 145.64 38.9666 145.64ZM47.906 141.272C47.906 137.976 50.402 135.448 53.746 135.448C56.514 135.448 57.938 137 57.938 137L56.946 138.536C56.946 138.536 55.65 137.336 53.842 137.336C51.442 137.336 50.034 139.128 50.034 141.24C50.034 143.4 51.49 145.304 53.858 145.304C55.826 145.304 57.154 143.864 57.154 143.864L58.242 145.352C58.242 145.352 56.674 147.192 53.778 147.192C50.306 147.192 47.906 144.616 47.906 141.272ZM63.0258 144.648C63.0258 142.056 66.5298 141.88 67.8578 141.88H68.1298V141.768C68.1298 140.696 67.4578 140.328 66.5618 140.328C65.3938 140.328 64.3218 141.112 64.3218 141.112L63.5538 139.656C63.5538 139.656 64.8178 138.648 66.7538 138.648C68.8978 138.648 70.1458 139.832 70.1458 141.896V147H68.2738V146.328C68.2738 146.008 68.3058 145.752 68.3058 145.752H68.2738C68.2898 145.752 67.6498 147.192 65.7938 147.192C64.3378 147.192 63.0258 146.28 63.0258 144.648ZM65.0738 144.552C65.0738 145.096 65.4738 145.608 66.3058 145.608C67.3778 145.608 68.1458 144.456 68.1458 143.464V143.272H67.7938C66.7538 143.272 65.0738 143.416 65.0738 144.552ZM71.6686 142.92C71.6686 140.6 73.3966 138.648 76.1006 138.648C78.2286 138.648 79.2366 139.864 79.2366 139.864L78.3406 141.256C78.3406 141.256 77.4926 140.376 76.2126 140.376C74.7086 140.376 73.7326 141.512 73.7326 142.904C73.7326 144.28 74.7246 145.464 76.2766 145.464C77.6526 145.464 78.6766 144.424 78.6766 144.424L79.4606 145.864C79.4606 145.864 78.2926 147.192 76.1006 147.192C73.3966 147.192 71.6686 145.288 71.6686 142.92ZM80.3874 142.92C80.3874 140.6 82.1154 138.648 84.8194 138.648C86.9474 138.648 87.9554 139.864 87.9554 139.864L87.0594 141.256C87.0594 141.256 86.2114 140.376 84.9314 140.376C83.4274 140.376 82.4514 141.512 82.4514 142.904C82.4514 144.28 83.4434 145.464 84.9954 145.464C86.3714 145.464 87.3954 144.424 87.3954 144.424L88.1794 145.864C88.1794 145.864 87.0114 147.192 84.8194 147.192C82.1154 147.192 80.3874 145.288 80.3874 142.92ZM89.0901 142.92C89.0901 140.424 91.0901 138.648 93.5701 138.648C96.0661 138.648 98.0661 140.424 98.0661 142.92C98.0661 145.432 96.0661 147.192 93.5861 147.192C91.0901 147.192 89.0901 145.432 89.0901 142.92ZM91.1541 142.92C91.1541 144.44 92.2581 145.464 93.5861 145.464C94.8981 145.464 96.0021 144.44 96.0021 142.92C96.0021 141.416 94.8981 140.376 93.5861 140.376C92.2581 140.376 91.1541 141.416 91.1541 142.92ZM99.5861 144.088V138.84H101.618V143.672C101.618 144.664 101.874 145.336 102.882 145.336C104.354 145.336 105.17 144.04 105.17 142.584V138.84H107.202V147H105.25V146.072C105.25 145.752 105.282 145.496 105.282 145.496H105.25C104.85 146.344 103.81 147.192 102.418 147.192C100.674 147.192 99.5861 146.312 99.5861 144.088ZM109.448 147V138.84H111.4V139.784C111.4 140.088 111.368 140.344 111.368 140.344H111.4C111.752 139.656 112.648 138.648 114.296 138.648C116.104 138.648 117.128 139.592 117.128 141.752V147H115.112V142.168C115.112 141.176 114.856 140.504 113.816 140.504C112.728 140.504 111.928 141.192 111.624 142.168C111.512 142.504 111.48 142.872 111.48 143.256V147H109.448ZM119.613 144.008V140.584H118.557V138.968H119.661V136.616H121.645V138.968H123.501V140.584H121.645V143.752C121.645 145.096 122.701 145.288 123.261 145.288C123.485 145.288 123.629 145.256 123.629 145.256V147.032C123.629 147.032 123.389 147.08 123.005 147.08C121.869 147.08 119.613 146.744 119.613 144.008ZM40.8819 163L37.9219 154.84H40.0659L41.7619 159.896C41.9219 160.376 42.0339 161.128 42.0499 161.128H42.0819C42.0979 161.128 42.2099 160.376 42.3699 159.896L44.0659 154.84H46.2099L43.2819 163H40.8819ZM47.3388 153.448V151.64H49.3548V153.448H47.3388ZM47.3388 163V154.84H49.3708V163H47.3388ZM50.9164 160.648C50.9164 158.056 54.4204 157.88 55.7484 157.88H56.0204V157.768C56.0204 156.696 55.3484 156.328 54.4524 156.328C53.2844 156.328 52.2124 157.112 52.2124 157.112L51.4444 155.656C51.4444 155.656 52.7084 154.648 54.6444 154.648C56.7884 154.648 58.0364 155.832 58.0364 157.896V163H56.1644V162.328C56.1644 162.008 56.1964 161.752 56.1964 161.752H56.1644C56.1804 161.752 55.5404 163.192 53.6844 163.192C52.2284 163.192 50.9164 162.28 50.9164 160.648ZM52.9644 160.552C52.9644 161.096 53.3644 161.608 54.1964 161.608C55.2684 161.608 56.0364 160.456 56.0364 159.464V159.272H55.6844C54.6444 159.272 52.9644 159.416 52.9644 160.552ZM64.0099 163L64.9379 151.64H67.1459L69.3699 157.256C69.6259 157.928 69.9459 158.92 69.9459 158.92H69.9779C69.9779 158.92 70.2819 157.928 70.5379 157.256L72.7619 151.64H74.9699L75.8819 163H73.8339L73.3539 156.648C73.3059 155.896 73.3379 154.888 73.3379 154.888H73.3059C73.3059 154.888 72.9699 155.992 72.6979 156.648L70.8579 161.048H69.0499L67.2259 156.648C66.9539 155.992 66.6019 154.872 66.6019 154.872H66.5699C66.5699 154.872 66.6019 155.896 66.5539 156.648L66.0739 163H64.0099ZM76.9848 165.832L77.6568 164.312C77.6568 164.312 78.1048 164.648 78.5688 164.648C79.1288 164.648 79.6728 164.312 79.9768 163.592L80.2808 162.872L76.8407 154.84H79.1288L80.8408 159.544C81.0008 159.976 81.1448 160.648 81.1448 160.648H81.1768C81.1768 160.648 81.3048 160.008 81.4488 159.576L83.0488 154.84H85.2728L81.6248 164.232C81.0488 165.72 79.9128 166.36 78.6808 166.36C77.7048 166.36 76.9848 165.832 76.9848 165.832ZM85.9685 157.272C85.9685 153.976 88.4645 151.448 91.8085 151.448C94.5765 151.448 96.0005 153 96.0005 153L95.0085 154.536C95.0085 154.536 93.7125 153.336 91.9045 153.336C89.5045 153.336 88.0965 155.128 88.0965 157.24C88.0965 159.4 89.5525 161.304 91.9205 161.304C93.8885 161.304 95.2165 159.864 95.2165 159.864L96.3045 161.352C96.3045 161.352 94.7365 163.192 91.8405 163.192C88.3685 163.192 85.9685 160.616 85.9685 157.272ZM97.3416 161.64L98.4616 160.088C98.4616 160.088 99.6936 161.288 101.294 161.288C102.158 161.288 102.942 160.84 102.942 159.912C102.942 157.88 97.5816 158.232 97.5816 154.744C97.5816 152.856 99.2136 151.448 101.39 151.448C103.63 151.448 104.782 152.664 104.782 152.664L103.886 154.344C103.886 154.344 102.798 153.352 101.374 153.352C100.414 153.352 99.6616 153.912 99.6616 154.712C99.6616 156.728 105.006 156.232 105.006 159.864C105.006 161.672 103.63 163.192 101.262 163.192C98.7336 163.192 97.3416 161.64 97.3416 161.64ZM106.281 157.272C106.281 153.976 108.777 151.448 112.121 151.448C114.889 151.448 116.313 153 116.313 153L115.321 154.536C115.321 154.536 114.025 153.336 112.217 153.336C109.817 153.336 108.409 155.128 108.409 157.24C108.409 159.4 109.865 161.304 112.233 161.304C114.201 161.304 115.529 159.864 115.529 159.864L116.617 161.352C116.617 161.352 115.049 163.192 112.153 163.192C108.681 163.192 106.281 160.616 106.281 157.272Z" fill="#005260"/>
<rect x="56.5" y="175" width="42" height="42" rx="21" fill="#005260"/>
<g clip-path="url(#clip0_889_4650)">
<path d="M77.4999 196C80.6652 196 83.229 193.436 83.229 190.271C83.229 187.106 80.6652 184.542 77.4999 184.542C74.3347 184.542 71.7709 187.106 71.7709 190.271C71.7709 193.436 74.3347 196 77.4999 196ZM77.4999 198.865C73.6758 198.865 66.0419 200.784 66.0419 204.594V207.458H88.958V204.594C88.958 200.784 81.3241 198.865 77.4999 198.865Z" fill="#E6F0F2"/>
</g>
<rect width="43.6509" height="24.33" transform="translate(152 154.262)" fill="#66A4AE"/>
<path d="M181.384 166.868L181.166 139.529L208.889 167.142L181.614 195.538L181.384 166.868Z" fill="#66A4AE"/>
<rect x="212.531" y="4" width="327" height="327" rx="163.5" fill="#E6F0F2"/>
<rect x="212.531" y="4" width="327" height="327" rx="163.5" stroke="#66A4AE" stroke-width="7.69225"/>
<path d="M341.073 44.3076V32.9476H343.137V44.3076H341.073ZM345.691 44.3076V36.1476H347.643V37.0916C347.643 37.3956 347.611 37.6516 347.611 37.6516H347.643C347.995 36.9636 348.891 35.9556 350.539 35.9556C352.347 35.9556 353.371 36.8996 353.371 39.0596V44.3076H351.355V39.4756C351.355 38.4836 351.099 37.8116 350.059 37.8116C348.971 37.8116 348.171 38.4996 347.867 39.4756C347.755 39.8116 347.723 40.1796 347.723 40.5636V44.3076H345.691ZM359.362 44.3076L360.29 32.9476H362.498L364.722 38.5636C364.978 39.2356 365.298 40.2276 365.298 40.2276H365.33C365.33 40.2276 365.634 39.2356 365.89 38.5636L368.114 32.9476H370.322L371.234 44.3076H369.186L368.706 37.9556C368.658 37.2036 368.69 36.1956 368.69 36.1956H368.658C368.658 36.1956 368.322 37.2996 368.05 37.9556L366.21 42.3556H364.402L362.578 37.9556C362.306 37.2996 361.954 36.1796 361.954 36.1796H361.922C361.922 36.1796 361.954 37.2036 361.906 37.9556L361.426 44.3076H359.362ZM372.337 47.1396L373.009 45.6196C373.009 45.6196 373.457 45.9556 373.921 45.9556C374.481 45.9556 375.025 45.6196 375.329 44.8996L375.633 44.1796L372.193 36.1476H374.481L376.193 40.8516C376.353 41.2836 376.497 41.9556 376.497 41.9556H376.529C376.529 41.9556 376.657 41.3156 376.801 40.8836L378.401 36.1476H380.625L376.977 45.5396C376.401 47.0276 375.265 47.6676 374.033 47.6676C373.057 47.6676 372.337 47.1396 372.337 47.1396ZM381.32 38.5796C381.32 35.2836 383.816 32.7556 387.16 32.7556C389.928 32.7556 391.352 34.3076 391.352 34.3076L390.36 35.8436C390.36 35.8436 389.064 34.6436 387.256 34.6436C384.856 34.6436 383.448 36.4356 383.448 38.5476C383.448 40.7076 384.904 42.6116 387.272 42.6116C389.24 42.6116 390.568 41.1716 390.568 41.1716L391.656 42.6596C391.656 42.6596 390.088 44.4996 387.192 44.4996C383.72 44.4996 381.32 41.9236 381.32 38.5796ZM392.693 42.9476L393.813 41.3956C393.813 41.3956 395.045 42.5956 396.645 42.5956C397.509 42.5956 398.293 42.1476 398.293 41.2196C398.293 39.1876 392.933 39.5396 392.933 36.0516C392.933 34.1636 394.565 32.7556 396.741 32.7556C398.981 32.7556 400.133 33.9716 400.133 33.9716L399.237 35.6516C399.237 35.6516 398.149 34.6596 396.725 34.6596C395.765 34.6596 395.013 35.2196 395.013 36.0196C395.013 38.0356 400.357 37.5396 400.357 41.1716C400.357 42.9796 398.981 44.4996 396.613 44.4996C394.085 44.4996 392.693 42.9476 392.693 42.9476ZM401.633 38.5796C401.633 35.2836 404.129 32.7556 407.473 32.7556C410.241 32.7556 411.665 34.3076 411.665 34.3076L410.673 35.8436C410.673 35.8436 409.377 34.6436 407.569 34.6436C405.169 34.6436 403.761 36.4356 403.761 38.5476C403.761 40.7076 405.217 42.6116 407.585 42.6116C409.553 42.6116 410.881 41.1716 410.881 41.1716L411.969 42.6596C411.969 42.6596 410.401 44.4996 407.505 44.4996C404.033 44.4996 401.633 41.9236 401.633 38.5796Z" fill="#005260"/>
<rect x="271.531" y="53.3076" width="42" height="42" rx="21" fill="#005260"/>
<g clip-path="url(#clip1_889_4650)">
<path d="M302.331 61.708H282.731C281.177 61.708 279.931 62.968 279.931 64.508V84.108C279.931 85.648 281.177 86.908 282.731 86.908H302.331C303.871 86.908 305.131 85.648 305.131 84.108V64.508C305.131 62.968 303.871 61.708 302.331 61.708ZM299.531 75.708H293.931V81.308H291.131V75.708H285.531V72.908H291.131V67.308H293.931V72.908H299.531V75.708Z" fill="#E6F0F2"/>
</g>
<path d="M322.665 65.3096C322.665 62.4396 324.821 60.2556 327.691 60.2556C330.071 60.2556 331.289 61.5576 331.289 61.5576L330.603 62.5936C330.603 62.5936 329.455 61.5156 327.747 61.5156C325.535 61.5156 324.093 63.1956 324.093 65.2956C324.093 67.4096 325.563 69.2016 327.761 69.2016C329.623 69.2016 330.813 67.9136 330.813 67.9136L331.555 68.9076C331.555 68.9076 330.197 70.4756 327.719 70.4756C324.751 70.4756 322.665 68.2076 322.665 65.3096ZM332.88 70.3076V63.2236H334.196V64.4556C334.196 64.7496 334.168 64.9876 334.168 64.9876H334.196C334.518 63.9516 335.344 63.1396 336.436 63.1396C336.618 63.1396 336.786 63.1676 336.786 63.1676V64.5116C336.786 64.5116 336.604 64.4696 336.394 64.4696C335.526 64.4696 334.728 65.0856 334.406 66.1356C334.28 66.5416 334.238 66.9756 334.238 67.4096V70.3076H332.88ZM337.319 66.7656C337.319 64.5116 338.845 63.0556 340.861 63.0556C342.863 63.0556 343.927 64.5396 343.927 66.3736C343.927 66.5556 343.885 66.9616 343.885 66.9616H338.719C338.789 68.5156 339.895 69.2996 341.155 69.2996C342.373 69.2996 343.255 68.4736 343.255 68.4736L343.815 69.4676C343.815 69.4676 342.765 70.4756 341.071 70.4756C338.845 70.4756 337.319 68.8656 337.319 66.7656ZM338.761 65.9396H342.541C342.499 64.7216 341.743 64.1336 340.833 64.1336C339.797 64.1336 338.957 64.7776 338.761 65.9396ZM344.721 68.3196C344.721 65.9816 347.801 65.8836 348.991 65.8836H349.299V65.7576C349.299 64.5956 348.641 64.2036 347.745 64.2036C346.653 64.2036 345.771 64.8896 345.771 64.8896L345.211 63.8956C345.211 63.8956 346.233 63.0556 347.857 63.0556C349.649 63.0556 350.657 64.0356 350.657 65.8276V70.3076H349.397V69.6356C349.397 69.3136 349.425 69.0756 349.425 69.0756H349.397C349.397 69.0756 348.823 70.4756 347.129 70.4756C345.911 70.4756 344.721 69.7336 344.721 68.3196ZM346.093 68.2496C346.093 68.8236 346.541 69.3836 347.423 69.3836C348.571 69.3836 349.313 68.1796 349.313 67.1296V66.9056H348.963C347.941 66.9056 346.093 66.9756 346.093 68.2496ZM352.665 67.7176V64.4136H351.741V63.3216H352.707V61.2776H354.023V63.3216H355.731V64.4136H354.023V67.5636C354.023 68.9776 355.017 69.1596 355.535 69.1596C355.731 69.1596 355.857 69.1316 355.857 69.1316V70.3356C355.857 70.3356 355.661 70.3636 355.381 70.3636C354.471 70.3636 352.665 70.0836 352.665 67.7176ZM356.618 66.7656C356.618 64.5116 358.144 63.0556 360.16 63.0556C362.162 63.0556 363.226 64.5396 363.226 66.3736C363.226 66.5556 363.184 66.9616 363.184 66.9616H358.018C358.088 68.5156 359.194 69.2996 360.454 69.2996C361.672 69.2996 362.554 68.4736 362.554 68.4736L363.114 69.4676C363.114 69.4676 362.064 70.4756 360.37 70.4756C358.144 70.4756 356.618 68.8656 356.618 66.7656ZM358.06 65.9396H361.84C361.798 64.7216 361.042 64.1336 360.132 64.1336C359.096 64.1336 358.256 64.7776 358.06 65.9396ZM367.335 68.3196C367.335 65.9816 370.415 65.8836 371.605 65.8836H371.913V65.7576C371.913 64.5956 371.255 64.2036 370.359 64.2036C369.267 64.2036 368.385 64.8896 368.385 64.8896L367.825 63.8956C367.825 63.8956 368.847 63.0556 370.471 63.0556C372.263 63.0556 373.271 64.0356 373.271 65.8276V70.3076H372.011V69.6356C372.011 69.3136 372.039 69.0756 372.039 69.0756H372.011C372.011 69.0756 371.437 70.4756 369.743 70.4756C368.525 70.4756 367.335 69.7336 367.335 68.3196ZM368.707 68.2496C368.707 68.8236 369.155 69.3836 370.037 69.3836C371.185 69.3836 371.927 68.1796 371.927 67.1296V66.9056H371.577C370.555 66.9056 368.707 66.9756 368.707 68.2496ZM378.342 73.1076V63.2236H379.588V63.8256C379.588 64.1056 379.56 64.3436 379.56 64.3436H379.588C379.588 64.3436 380.19 63.0556 381.968 63.0556C383.872 63.0556 385.076 64.5676 385.076 66.7656C385.076 69.0196 383.718 70.4756 381.87 70.4756C380.316 70.4756 379.7 69.3136 379.7 69.3136H379.672C379.672 69.3136 379.7 69.5656 379.7 69.9296V73.1076H378.342ZM379.658 66.7936C379.658 68.0536 380.358 69.3136 381.66 69.3136C382.78 69.3136 383.704 68.3896 383.704 66.7796C383.704 65.2396 382.878 64.2456 381.702 64.2456C380.638 64.2456 379.658 64.9876 379.658 66.7936ZM386.456 70.3076V63.2236H387.772V64.4556C387.772 64.7496 387.744 64.9876 387.744 64.9876H387.772C388.094 63.9516 388.92 63.1396 390.012 63.1396C390.194 63.1396 390.362 63.1676 390.362 63.1676V64.5116C390.362 64.5116 390.18 64.4696 389.97 64.4696C389.102 64.4696 388.304 65.0856 387.982 66.1356C387.856 66.5416 387.814 66.9756 387.814 67.4096V70.3076H386.456ZM390.867 66.7516C390.867 64.6096 392.575 63.0556 394.689 63.0556C396.803 63.0556 398.511 64.6096 398.511 66.7516C398.511 68.9076 396.803 70.4756 394.689 70.4756C392.575 70.4756 390.867 68.9076 390.867 66.7516ZM392.253 66.7516C392.253 68.2356 393.359 69.2996 394.689 69.2996C396.033 69.2996 397.125 68.2356 397.125 66.7516C397.125 65.2816 396.033 64.2316 394.689 64.2316C393.359 64.2316 392.253 65.2816 392.253 66.7516ZM399.828 61.8096V60.4236H401.2V61.8096H399.828ZM399.842 63.2236H401.186V70.5456C401.186 72.9116 399.366 73.1916 398.484 73.1916C398.19 73.1916 398.008 73.1636 398.008 73.1636V72.0016C398.008 72.0016 398.134 72.0156 398.316 72.0156C398.834 72.0156 399.842 71.8476 399.842 70.4616V63.2236ZM402.544 66.7656C402.544 64.5116 404.07 63.0556 406.086 63.0556C408.088 63.0556 409.152 64.5396 409.152 66.3736C409.152 66.5556 409.11 66.9616 409.11 66.9616H403.944C404.014 68.5156 405.12 69.2996 406.38 69.2996C407.598 69.2996 408.48 68.4736 408.48 68.4736L409.04 69.4676C409.04 69.4676 407.99 70.4756 406.296 70.4756C404.07 70.4756 402.544 68.8656 402.544 66.7656ZM403.986 65.9396H407.766C407.724 64.7216 406.968 64.1336 406.058 64.1336C405.022 64.1336 404.182 64.7776 403.986 65.9396ZM410.016 66.7656C410.016 64.6656 411.584 63.0556 413.81 63.0556C415.588 63.0556 416.47 64.0916 416.47 64.0916L415.826 65.0436C415.826 65.0436 415.07 64.2316 413.866 64.2316C412.438 64.2316 411.402 65.2956 411.402 66.7516C411.402 68.1936 412.438 69.2996 413.908 69.2996C415.224 69.2996 416.092 68.3476 416.092 68.3476L416.638 69.3416C416.638 69.3416 415.658 70.4756 413.81 70.4756C411.584 70.4756 410.016 68.8936 410.016 66.7656ZM418.19 67.7176V64.4136H417.266V63.3216H418.232V61.2776H419.548V63.3216H421.256V64.4136H419.548V67.5636C419.548 68.9776 420.542 69.1596 421.06 69.1596C421.256 69.1596 421.382 69.1316 421.382 69.1316V70.3356C421.382 70.3356 421.186 70.3636 420.906 70.3636C419.996 70.3636 418.19 70.0836 418.19 67.7176ZM322.483 85.3196C322.483 82.9816 325.563 82.8836 326.753 82.8836H327.061V82.7576C327.061 81.5956 326.403 81.2036 325.507 81.2036C324.415 81.2036 323.533 81.8896 323.533 81.8896L322.973 80.8956C322.973 80.8956 323.995 80.0556 325.619 80.0556C327.411 80.0556 328.419 81.0356 328.419 82.8276V87.3076H327.159V86.6356C327.159 86.3136 327.187 86.0756 327.187 86.0756H327.159C327.159 86.0756 326.585 87.4756 324.891 87.4756C323.673 87.4756 322.483 86.7336 322.483 85.3196ZM323.855 85.2496C323.855 85.8236 324.303 86.3836 325.185 86.3836C326.333 86.3836 327.075 85.1796 327.075 84.1296V83.9056H326.725C325.703 83.9056 323.855 83.9756 323.855 85.2496ZM330.173 87.3076V80.2236H331.489V81.1616C331.489 81.4416 331.461 81.6796 331.461 81.6796H331.489C331.769 81.0636 332.609 80.0556 334.149 80.0556C335.815 80.0556 336.585 80.9656 336.585 82.7716V87.3076H335.227V83.0796C335.227 82.0856 335.017 81.3016 333.883 81.3016C332.805 81.3016 331.937 82.0156 331.643 83.0376C331.559 83.3176 331.531 83.6396 331.531 83.9896V87.3076H330.173ZM337.867 83.7656C337.867 81.5116 339.197 80.0556 341.073 80.0556C342.711 80.0556 343.257 81.1756 343.257 81.1756H343.285C343.285 81.1756 343.257 80.9656 343.257 80.6996V77.4236H344.615V87.3076H343.327V86.6356C343.327 86.3556 343.341 86.1596 343.341 86.1596H343.313C343.313 86.1596 342.739 87.4756 340.989 87.4756C339.071 87.4756 337.867 85.9636 337.867 83.7656ZM339.253 83.7656C339.253 85.3056 340.079 86.2996 341.255 86.2996C342.305 86.2996 343.299 85.5576 343.299 83.7516C343.299 82.4916 342.641 81.2316 341.297 81.2316C340.177 81.2316 339.253 82.1556 339.253 83.7656ZM354.477 87.3076V81.3156H351.495V87.3076H350.151V81.3156H349.269V80.2236H350.151V79.9856C350.151 77.6476 351.915 77.3536 352.811 77.3536C353.119 77.3536 353.329 77.3956 353.329 77.3956V78.5576C353.329 78.5576 353.189 78.5296 352.979 78.5296C352.461 78.5296 351.495 78.6976 351.495 80.0136V80.2236H355.835V87.3076H354.477ZM354.463 78.8096V77.4236H355.835V78.8096H354.463ZM357.598 85.3756V77.4236H358.956V85.1376C358.956 85.9916 359.292 86.1456 359.712 86.1456C359.838 86.1456 359.95 86.1316 359.95 86.1316V87.3356C359.95 87.3356 359.74 87.3636 359.502 87.3636C358.732 87.3636 357.598 87.1536 357.598 85.3756ZM361.023 85.3756V77.4236H362.381V85.1376C362.381 85.9916 362.717 86.1456 363.137 86.1456C363.263 86.1456 363.375 86.1316 363.375 86.1316V87.3356C363.375 87.3356 363.165 87.3636 362.927 87.3636C362.157 87.3636 361.023 87.1536 361.023 85.3756ZM367.47 82.3516C367.47 79.4956 369.626 77.2556 372.51 77.2556C374.876 77.2556 376.108 78.4456 376.108 78.4456L375.408 79.4816C375.408 79.4816 374.302 78.5156 372.622 78.5156C370.298 78.5156 368.898 80.2096 368.898 82.3236C368.898 84.6196 370.466 86.2016 372.538 86.2016C374.246 86.2016 375.338 84.9696 375.338 84.9696V83.5416H373.728V82.3376H376.598V87.3076H375.38V86.6916C375.38 86.4816 375.394 86.2716 375.394 86.2716H375.366C375.366 86.2716 374.288 87.4756 372.328 87.4756C369.668 87.4756 367.47 85.3756 367.47 82.3516ZM378.485 87.3076V77.4236H381.761C384.785 77.4236 386.773 79.2296 386.773 82.3516C386.773 85.4876 384.785 87.3076 381.761 87.3076H378.485ZM379.871 86.1036H381.663C383.889 86.1036 385.345 84.7876 385.345 82.3516C385.345 79.9296 383.875 78.6276 381.663 78.6276H379.871V86.1036ZM388.568 87.3076V77.4236H392.18C393.986 77.4236 395.288 78.6416 395.288 80.5176C395.288 82.3936 393.986 83.6536 392.18 83.6536H389.954V87.3076H388.568ZM389.954 82.4496H391.956C393.146 82.4496 393.874 81.7076 393.874 80.5176C393.874 79.3276 393.146 78.6276 391.97 78.6276H389.954V82.4496ZM396.792 87.3076V77.4236H399.816C400.852 77.4236 401.286 77.5076 401.664 77.6476C402.672 78.0256 403.33 79.0196 403.33 80.3216C403.33 81.5816 402.63 82.6456 401.552 82.9956V83.0236C401.552 83.0236 401.664 83.1496 401.846 83.4716L403.946 87.3076H402.378L400.292 83.3736H398.178V87.3076H396.792ZM398.178 82.1696H400.166C401.244 82.1696 401.916 81.4836 401.916 80.3776C401.916 79.6496 401.636 79.1316 401.132 78.8516C400.866 78.7116 400.544 78.6276 399.774 78.6276H398.178V82.1696ZM408.055 83.7656C408.055 81.5116 409.385 80.0556 411.261 80.0556C412.899 80.0556 413.445 81.1756 413.445 81.1756H413.473C413.473 81.1756 413.445 80.9656 413.445 80.6996V77.4236H414.803V87.3076H413.515V86.6356C413.515 86.3556 413.529 86.1596 413.529 86.1596H413.501C413.501 86.1596 412.927 87.4756 411.177 87.4756C409.259 87.4756 408.055 85.9636 408.055 83.7656ZM409.441 83.7656C409.441 85.3056 410.267 86.2996 411.443 86.2996C412.493 86.2996 413.487 85.5576 413.487 83.7516C413.487 82.4916 412.829 81.2316 411.485 81.2316C410.365 81.2316 409.441 82.1556 409.441 83.7656ZM416.127 83.7516C416.127 81.6096 417.835 80.0556 419.949 80.0556C422.063 80.0556 423.771 81.6096 423.771 83.7516C423.771 85.9076 422.063 87.4756 419.949 87.4756C417.835 87.4756 416.127 85.9076 416.127 83.7516ZM417.513 83.7516C417.513 85.2356 418.619 86.2996 419.949 86.2996C421.293 86.2996 422.385 85.2356 422.385 83.7516C422.385 82.2816 421.293 81.2316 419.949 81.2316C418.619 81.2316 417.513 82.2816 417.513 83.7516ZM424.597 83.7656C424.597 81.6656 426.165 80.0556 428.391 80.0556C430.169 80.0556 431.051 81.0916 431.051 81.0916L430.407 82.0436C430.407 82.0436 429.651 81.2316 428.447 81.2316C427.019 81.2316 425.983 82.2956 425.983 83.7516C425.983 85.1936 427.019 86.2996 428.489 86.2996C429.805 86.2996 430.673 85.3476 430.673 85.3476L431.219 86.3416C431.219 86.3416 430.239 87.4756 428.391 87.4756C426.165 87.4756 424.597 85.8936 424.597 83.7656ZM432.379 84.7596V80.2236H433.737V84.4516C433.737 85.4316 433.933 86.2156 435.067 86.2156C436.509 86.2156 437.363 84.9416 437.363 83.5416V80.2236H438.721V87.3076H437.405V86.3696C437.405 86.0756 437.433 85.8516 437.433 85.8516H437.405C437.111 86.5516 436.187 87.4756 434.801 87.4756C433.205 87.4756 432.379 86.6356 432.379 84.7596ZM440.565 87.3076V80.2236H441.881V81.1616C441.881 81.4416 441.853 81.6796 441.853 81.6796H441.881C442.217 80.8536 443.211 80.0556 444.317 80.0556C445.507 80.0556 446.207 80.6016 446.445 81.6656H446.473C446.865 80.8116 447.845 80.0556 448.993 80.0556C450.589 80.0556 451.331 80.9656 451.331 82.7716V87.3076H449.973V83.0656C449.973 82.0716 449.777 81.2876 448.713 81.2876C447.719 81.2876 446.977 82.1276 446.725 83.0936C446.655 83.3876 446.627 83.7096 446.627 84.0736V87.3076H445.269V83.0656C445.269 82.1416 445.129 81.2876 444.037 81.2876C443.001 81.2876 442.273 82.1416 442.007 83.1496C441.937 83.4296 441.923 83.7516 441.923 84.0736V87.3076H440.565ZM452.591 83.7656C452.591 81.5116 454.117 80.0556 456.133 80.0556C458.135 80.0556 459.199 81.5396 459.199 83.3736C459.199 83.5556 459.157 83.9616 459.157 83.9616H453.991C454.061 85.5156 455.167 86.2996 456.427 86.2996C457.645 86.2996 458.527 85.4736 458.527 85.4736L459.087 86.4676C459.087 86.4676 458.037 87.4756 456.343 87.4756C454.117 87.4756 452.591 85.8656 452.591 83.7656ZM454.033 82.9396H457.813C457.771 81.7216 457.015 81.1336 456.105 81.1336C455.069 81.1336 454.229 81.7776 454.033 82.9396ZM460.567 87.3076V80.2236H461.883V81.1616C461.883 81.4416 461.855 81.6796 461.855 81.6796H461.883C462.163 81.0636 463.003 80.0556 464.543 80.0556C466.209 80.0556 466.979 80.9656 466.979 82.7716V87.3076H465.621V83.0796C465.621 82.0856 465.411 81.3016 464.277 81.3016C463.199 81.3016 462.331 82.0156 462.037 83.0376C461.953 83.3176 461.925 83.6396 461.925 83.9896V87.3076H460.567ZM469.017 84.7176V81.4136H468.093V80.3216H469.059V78.2776H470.375V80.3216H472.083V81.4136H470.375V84.5636C470.375 85.9776 471.369 86.1596 471.887 86.1596C472.083 86.1596 472.209 86.1316 472.209 86.1316V87.3356C472.209 87.3356 472.013 87.3636 471.733 87.3636C470.823 87.3636 469.017 87.0836 469.017 84.7176Z" fill="#005260"/>
<rect x="271.531" y="102.808" width="42" height="42" rx="21" fill="#005260"/>
<g clip-path="url(#clip2_889_4650)">
<path d="M305.131 126.608C305.131 125.838 304.501 125.208 303.731 125.208H300.931V128.008H303.731C304.501 128.008 305.131 127.378 305.131 126.608Z" fill="#E6F0F2"/>
<path d="M303.731 130.808H300.931V133.608H303.731C304.501 133.608 305.131 132.978 305.131 132.208C305.131 131.438 304.501 130.808 303.731 130.808Z" fill="#E6F0F2"/>
<path d="M292.532 126.608H289.732V132.208H292.532C292.532 133.748 293.792 135.008 295.332 135.008H299.532V123.808H295.332C293.792 123.808 292.532 125.068 292.532 126.608Z" fill="#E6F0F2"/>
<path d="M282.731 125.208C282.731 123.668 283.991 122.408 285.531 122.408H287.631C290.333 122.408 292.531 120.21 292.531 117.508C292.531 114.806 290.333 112.608 287.631 112.608H282.731C281.961 112.608 281.331 113.238 281.331 114.008C281.331 114.778 281.961 115.408 282.731 115.408H287.631C288.793 115.408 289.731 116.346 289.731 117.508C289.731 118.67 288.793 119.608 287.631 119.608H285.531C282.437 119.608 279.931 122.114 279.931 125.208C279.931 128.302 282.437 130.808 285.531 130.808H288.331V128.008H285.531C283.991 128.008 282.731 126.748 282.731 125.208Z" fill="#E6F0F2"/>
</g>
<path d="M329.231 113.308L328.237 110.466H324.513L323.533 113.308H322.105L325.661 103.424H327.117L330.673 113.308H329.231ZM326.403 104.782H326.375C326.375 104.782 326.151 105.678 325.983 106.182L324.877 109.318H327.873L326.781 106.182C326.613 105.678 326.403 104.782 326.403 104.782ZM331.344 109.766C331.344 107.666 332.912 106.056 335.138 106.056C336.916 106.056 337.798 107.092 337.798 107.092L337.154 108.044C337.154 108.044 336.398 107.232 335.194 107.232C333.766 107.232 332.73 108.296 332.73 109.752C332.73 111.194 333.766 112.3 335.236 112.3C336.552 112.3 337.42 111.348 337.42 111.348L337.966 112.342C337.966 112.342 336.986 113.476 335.138 113.476C332.912 113.476 331.344 111.894 331.344 109.766ZM339.798 110.718V107.414H338.874V106.322H339.84V104.278H341.156V106.322H342.864V107.414H341.156V110.564C341.156 111.978 342.15 112.16 342.668 112.16C342.864 112.16 342.99 112.132 342.99 112.132V113.336C342.99 113.336 342.794 113.364 342.514 113.364C341.604 113.364 339.798 113.084 339.798 110.718ZM344.508 104.81V103.424H345.88V104.81H344.508ZM344.522 113.308V106.224H345.88V113.308H344.522ZM349.688 113.308L347.042 106.224H348.484L350.206 111.012C350.346 111.404 350.43 111.978 350.444 111.978H350.472C350.486 111.978 350.584 111.404 350.724 111.012L352.446 106.224H353.874L351.256 113.308H349.688ZM354.461 111.32C354.461 108.982 357.541 108.884 358.731 108.884H359.039V108.758C359.039 107.596 358.381 107.204 357.485 107.204C356.393 107.204 355.511 107.89 355.511 107.89L354.951 106.896C354.951 106.896 355.973 106.056 357.597 106.056C359.389 106.056 360.397 107.036 360.397 108.828V113.308H359.137V112.636C359.137 112.314 359.165 112.076 359.165 112.076H359.137C359.137 112.076 358.563 113.476 356.869 113.476C355.651 113.476 354.461 112.734 354.461 111.32ZM355.833 111.25C355.833 111.824 356.281 112.384 357.163 112.384C358.311 112.384 359.053 111.18 359.053 110.13V109.906H358.703C357.681 109.906 355.833 109.976 355.833 111.25ZM362.685 110.718V107.414H361.761V106.322H362.727V104.278H364.043V106.322H365.751V107.414H364.043V110.564C364.043 111.978 365.037 112.16 365.555 112.16C365.751 112.16 365.877 112.132 365.877 112.132V113.336C365.877 113.336 365.681 113.364 365.401 113.364C364.491 113.364 362.685 113.084 362.685 110.718ZM366.919 109.766C366.919 107.512 368.445 106.056 370.461 106.056C372.463 106.056 373.527 107.54 373.527 109.374C373.527 109.556 373.485 109.962 373.485 109.962H368.319C368.389 111.516 369.495 112.3 370.755 112.3C371.973 112.3 372.855 111.474 372.855 111.474L373.415 112.468C373.415 112.468 372.365 113.476 370.671 113.476C368.445 113.476 366.919 111.866 366.919 109.766ZM368.361 108.94H372.141C372.099 107.722 371.343 107.134 370.433 107.134C369.397 107.134 368.557 107.778 368.361 108.94ZM378.196 112.44L378.854 111.474C378.854 111.474 379.652 112.3 380.884 112.3C381.472 112.3 382.06 111.992 382.06 111.418C382.06 110.116 378.42 110.382 378.42 108.072C378.42 106.784 379.568 106.056 380.982 106.056C382.536 106.056 383.264 106.84 383.264 106.84L382.718 107.862C382.718 107.862 382.088 107.232 380.968 107.232C380.38 107.232 379.806 107.484 379.806 108.1C379.806 109.374 383.446 109.094 383.446 111.418C383.446 112.594 382.438 113.476 380.884 113.476C379.148 113.476 378.196 112.44 378.196 112.44ZM384.555 109.766C384.555 107.512 386.081 106.056 388.097 106.056C390.099 106.056 391.163 107.54 391.163 109.374C391.163 109.556 391.121 109.962 391.121 109.962H385.955C386.025 111.516 387.131 112.3 388.391 112.3C389.609 112.3 390.491 111.474 390.491 111.474L391.051 112.468C391.051 112.468 390.001 113.476 388.307 113.476C386.081 113.476 384.555 111.866 384.555 109.766ZM385.997 108.94H389.777C389.735 107.722 388.979 107.134 388.069 107.134C387.033 107.134 386.193 107.778 385.997 108.94ZM392.811 113.308V106.224H394.127V107.456C394.127 107.75 394.099 107.988 394.099 107.988H394.127C394.449 106.952 395.275 106.14 396.367 106.14C396.549 106.14 396.717 106.168 396.717 106.168V107.512C396.717 107.512 396.535 107.47 396.325 107.47C395.457 107.47 394.659 108.086 394.337 109.136C394.211 109.542 394.169 109.976 394.169 110.41V113.308H392.811ZM399.741 113.308L397.095 106.224H398.537L400.259 111.012C400.399 111.404 400.483 111.978 400.497 111.978H400.525C400.539 111.978 400.637 111.404 400.777 111.012L402.499 106.224H403.927L401.309 113.308H399.741ZM405.074 104.81V103.424H406.446V104.81H405.074ZM405.088 113.308V106.224H406.446V113.308H405.088ZM408.071 109.766C408.071 107.666 409.639 106.056 411.865 106.056C413.643 106.056 414.525 107.092 414.525 107.092L413.881 108.044C413.881 108.044 413.125 107.232 411.921 107.232C410.493 107.232 409.457 108.296 409.457 109.752C409.457 111.194 410.493 112.3 411.963 112.3C413.279 112.3 414.147 111.348 414.147 111.348L414.693 112.342C414.693 112.342 413.713 113.476 411.865 113.476C409.639 113.476 408.071 111.894 408.071 109.766ZM415.741 109.766C415.741 107.512 417.267 106.056 419.283 106.056C421.285 106.056 422.349 107.54 422.349 109.374C422.349 109.556 422.307 109.962 422.307 109.962H417.141C417.211 111.516 418.317 112.3 419.577 112.3C420.795 112.3 421.677 111.474 421.677 111.474L422.237 112.468C422.237 112.468 421.187 113.476 419.493 113.476C417.267 113.476 415.741 111.866 415.741 109.766ZM417.183 108.94H420.963C420.921 107.722 420.165 107.134 419.255 107.134C418.219 107.134 417.379 107.778 417.183 108.94ZM423.422 112.44L424.08 111.474C424.08 111.474 424.878 112.3 426.11 112.3C426.698 112.3 427.286 111.992 427.286 111.418C427.286 110.116 423.646 110.382 423.646 108.072C423.646 106.784 424.794 106.056 426.208 106.056C427.762 106.056 428.49 106.84 428.49 106.84L427.944 107.862C427.944 107.862 427.314 107.232 426.194 107.232C425.606 107.232 425.032 107.484 425.032 108.1C425.032 109.374 428.672 109.094 428.672 111.418C428.672 112.594 427.664 113.476 426.11 113.476C424.374 113.476 423.422 112.44 423.422 112.44ZM324.639 129.638C323.631 127.958 323.015 125.802 323.015 123.548C323.015 121.532 323.603 119.67 324.639 118.018H325.829C324.807 119.726 324.247 121.588 324.247 123.562C324.247 125.648 324.779 127.734 325.829 129.638H324.639ZM326.806 127.174L327.59 126.124C327.59 126.124 328.64 127.188 330.11 127.188C331.034 127.188 331.818 126.67 331.818 125.732C331.818 123.59 327.03 124.052 327.03 121.014C327.03 119.474 328.36 118.256 330.222 118.256C332.056 118.256 333.022 119.25 333.022 119.25L332.392 120.398C332.392 120.398 331.482 119.544 330.222 119.544C329.172 119.544 328.43 120.202 328.43 120.986C328.43 123.03 333.218 122.484 333.218 125.69C333.218 127.216 332.042 128.476 330.082 128.476C327.982 128.476 326.806 127.174 326.806 127.174ZM335.204 128.308V118.424H338.48C341.504 118.424 343.492 120.23 343.492 123.352C343.492 126.488 341.504 128.308 338.48 128.308H335.204ZM336.59 127.104H338.382C340.608 127.104 342.064 125.788 342.064 123.352C342.064 120.93 340.594 119.628 338.382 119.628H336.59V127.104ZM348.491 123.31C348.491 120.44 350.647 118.256 353.517 118.256C355.897 118.256 357.115 119.558 357.115 119.558L356.429 120.594C356.429 120.594 355.281 119.516 353.573 119.516C351.361 119.516 349.919 121.196 349.919 123.296C349.919 125.41 351.389 127.202 353.587 127.202C355.449 127.202 356.639 125.914 356.639 125.914L357.381 126.908C357.381 126.908 356.023 128.476 353.545 128.476C350.577 128.476 348.491 126.208 348.491 123.31ZM358.469 124.752C358.469 122.61 360.177 121.056 362.291 121.056C364.405 121.056 366.113 122.61 366.113 124.752C366.113 126.908 364.405 128.476 362.291 128.476C360.177 128.476 358.469 126.908 358.469 124.752ZM359.855 124.752C359.855 126.236 360.961 127.3 362.291 127.3C363.635 127.3 364.727 126.236 364.727 124.752C364.727 123.282 363.635 122.232 362.291 122.232C360.961 122.232 359.855 123.282 359.855 124.752ZM367.723 128.308V121.224H369.039V122.162C369.039 122.442 369.011 122.68 369.011 122.68H369.039C369.319 122.064 370.159 121.056 371.699 121.056C373.365 121.056 374.135 121.966 374.135 123.772V128.308H372.777V124.08C372.777 123.086 372.567 122.302 371.433 122.302C370.355 122.302 369.487 123.016 369.193 124.038C369.109 124.318 369.081 124.64 369.081 124.99V128.308H367.723ZM376.159 128.308V121.224H377.475V122.162C377.475 122.442 377.447 122.68 377.447 122.68H377.475C377.755 122.064 378.595 121.056 380.135 121.056C381.801 121.056 382.571 121.966 382.571 123.772V128.308H381.213V124.08C381.213 123.086 381.003 122.302 379.869 122.302C378.791 122.302 377.923 123.016 377.629 124.038C377.545 124.318 377.517 124.64 377.517 124.99V128.308H376.159ZM384.104 124.766C384.104 122.512 385.63 121.056 387.646 121.056C389.648 121.056 390.712 122.54 390.712 124.374C390.712 124.556 390.67 124.962 390.67 124.962H385.504C385.574 126.516 386.68 127.3 387.94 127.3C389.158 127.3 390.04 126.474 390.04 126.474L390.6 127.468C390.6 127.468 389.55 128.476 387.856 128.476C385.63 128.476 384.104 126.866 384.104 124.766ZM385.546 123.94H389.326C389.284 122.722 388.528 122.134 387.618 122.134C386.582 122.134 385.742 122.778 385.546 123.94ZM391.856 124.766C391.856 122.666 393.424 121.056 395.65 121.056C397.428 121.056 398.31 122.092 398.31 122.092L397.666 123.044C397.666 123.044 396.91 122.232 395.706 122.232C394.278 122.232 393.242 123.296 393.242 124.752C393.242 126.194 394.278 127.3 395.748 127.3C397.064 127.3 397.932 126.348 397.932 126.348L398.478 127.342C398.478 127.342 397.498 128.476 395.65 128.476C393.424 128.476 391.856 126.894 391.856 124.766ZM400.31 125.718V122.414H399.386V121.322H400.352V119.278H401.668V121.322H403.376V122.414H401.668V125.564C401.668 126.978 402.662 127.16 403.18 127.16C403.376 127.16 403.502 127.132 403.502 127.132V128.336C403.502 128.336 403.306 128.364 403.026 128.364C402.116 128.364 400.31 128.084 400.31 125.718ZM408.055 126.32C408.055 123.982 411.135 123.884 412.325 123.884H412.633V123.758C412.633 122.596 411.975 122.204 411.079 122.204C409.987 122.204 409.105 122.89 409.105 122.89L408.545 121.896C408.545 121.896 409.567 121.056 411.191 121.056C412.983 121.056 413.991 122.036 413.991 123.828V128.308H412.731V127.636C412.731 127.314 412.759 127.076 412.759 127.076H412.731C412.731 127.076 412.157 128.476 410.463 128.476C409.245 128.476 408.055 127.734 408.055 126.32ZM409.427 126.25C409.427 126.824 409.875 127.384 410.757 127.384C411.905 127.384 412.647 126.18 412.647 125.13V124.906H412.297C411.275 124.906 409.427 124.976 409.427 126.25ZM416.026 128.308V121.224H417.342V122.162C417.342 122.442 417.314 122.68 417.314 122.68H417.342C417.622 122.064 418.462 121.056 420.002 121.056C421.668 121.056 422.438 121.966 422.438 123.772V128.308H421.08V124.08C421.08 123.086 420.87 122.302 419.736 122.302C418.658 122.302 417.79 123.016 417.496 124.038C417.412 124.318 417.384 124.64 417.384 124.99V128.308H416.026ZM423.999 124.766C423.999 122.512 425.329 121.056 427.205 121.056C428.843 121.056 429.389 122.176 429.389 122.176H429.417C429.417 122.176 429.389 121.966 429.389 121.7V118.424H430.747V128.308H429.459V127.636C429.459 127.356 429.473 127.16 429.473 127.16H429.445C429.445 127.16 428.871 128.476 427.121 128.476C425.203 128.476 423.999 126.964 423.999 124.766ZM425.385 124.766C425.385 126.306 426.211 127.3 427.387 127.3C428.437 127.3 429.431 126.558 429.431 124.752C429.431 123.492 428.773 122.232 427.429 122.232C426.309 122.232 425.385 123.156 425.385 124.766ZM432.309 128.896L435.865 117.892H437.069L433.513 128.896H432.309ZM438.012 124.752C438.012 122.61 439.72 121.056 441.834 121.056C443.948 121.056 445.656 122.61 445.656 124.752C445.656 126.908 443.948 128.476 441.834 128.476C439.72 128.476 438.012 126.908 438.012 124.752ZM439.398 124.752C439.398 126.236 440.504 127.3 441.834 127.3C443.178 127.3 444.27 126.236 444.27 124.752C444.27 123.282 443.178 122.232 441.834 122.232C440.504 122.232 439.398 123.282 439.398 124.752ZM447.266 128.308V121.224H448.582V122.456C448.582 122.75 448.554 122.988 448.554 122.988H448.582C448.904 121.952 449.73 121.14 450.822 121.14C451.004 121.14 451.172 121.168 451.172 121.168V122.512C451.172 122.512 450.99 122.47 450.78 122.47C449.912 122.47 449.114 123.086 448.792 124.136C448.666 124.542 448.624 124.976 448.624 125.41V128.308H447.266ZM455.636 127.174L456.42 126.124C456.42 126.124 457.47 127.188 458.94 127.188C459.864 127.188 460.648 126.67 460.648 125.732C460.648 123.59 455.86 124.052 455.86 121.014C455.86 119.474 457.19 118.256 459.052 118.256C460.886 118.256 461.852 119.25 461.852 119.25L461.222 120.398C461.222 120.398 460.312 119.544 459.052 119.544C458.002 119.544 457.26 120.202 457.26 120.986C457.26 123.03 462.048 122.484 462.048 125.69C462.048 127.216 460.872 128.476 458.912 128.476C456.812 128.476 455.636 127.174 455.636 127.174ZM464.034 128.308V118.424H467.31C470.334 118.424 472.322 120.23 472.322 123.352C472.322 126.488 470.334 128.308 467.31 128.308H464.034ZM465.42 127.104H467.212C469.438 127.104 470.894 125.788 470.894 123.352C470.894 120.93 469.424 119.628 467.212 119.628H465.42V127.104ZM323.337 143.308V133.424H326.613C329.637 133.424 331.625 135.23 331.625 138.352C331.625 141.488 329.637 143.308 326.613 143.308H323.337ZM324.723 142.104H326.515C328.741 142.104 330.197 140.788 330.197 138.352C330.197 135.93 328.727 134.628 326.515 134.628H324.723V142.104ZM332.93 139.766C332.93 137.512 334.456 136.056 336.472 136.056C338.474 136.056 339.538 137.54 339.538 139.374C339.538 139.556 339.496 139.962 339.496 139.962H334.33C334.4 141.516 335.506 142.3 336.766 142.3C337.984 142.3 338.866 141.474 338.866 141.474L339.426 142.468C339.426 142.468 338.376 143.476 336.682 143.476C334.456 143.476 332.93 141.866 332.93 139.766ZM334.372 138.94H338.152C338.11 137.722 337.354 137.134 336.444 137.134C335.408 137.134 334.568 137.778 334.372 138.94ZM340.612 142.44L341.27 141.474C341.27 141.474 342.068 142.3 343.3 142.3C343.888 142.3 344.476 141.992 344.476 141.418C344.476 140.116 340.836 140.382 340.836 138.072C340.836 136.784 341.984 136.056 343.398 136.056C344.952 136.056 345.68 136.84 345.68 136.84L345.134 137.862C345.134 137.862 344.504 137.232 343.384 137.232C342.796 137.232 342.222 137.484 342.222 138.1C342.222 139.374 345.862 139.094 345.862 141.418C345.862 142.594 344.854 143.476 343.3 143.476C341.564 143.476 340.612 142.44 340.612 142.44ZM347.461 143.308V133.424H348.819V138.828H349.813L351.745 136.224H353.285L350.933 139.346V139.374L353.551 143.308H351.969L349.841 139.976H348.819V143.308H347.461ZM355.124 140.718V137.414H354.2V136.322H355.166V134.278H356.482V136.322H358.19V137.414H356.482V140.564C356.482 141.978 357.476 142.16 357.994 142.16C358.19 142.16 358.316 142.132 358.316 142.132V143.336C358.316 143.336 358.12 143.364 357.84 143.364C356.93 143.364 355.124 143.084 355.124 140.718ZM359.33 139.752C359.33 137.61 361.038 136.056 363.152 136.056C365.266 136.056 366.974 137.61 366.974 139.752C366.974 141.908 365.266 143.476 363.152 143.476C361.038 143.476 359.33 141.908 359.33 139.752ZM360.716 139.752C360.716 141.236 361.822 142.3 363.152 142.3C364.496 142.3 365.588 141.236 365.588 139.752C365.588 138.282 364.496 137.232 363.152 137.232C361.822 137.232 360.716 138.282 360.716 139.752ZM368.584 146.108V136.224H369.83V136.826C369.83 137.106 369.802 137.344 369.802 137.344H369.83C369.83 137.344 370.432 136.056 372.21 136.056C374.114 136.056 375.318 137.568 375.318 139.766C375.318 142.02 373.96 143.476 372.112 143.476C370.558 143.476 369.942 142.314 369.942 142.314H369.914C369.914 142.314 369.942 142.566 369.942 142.93V146.108H368.584ZM369.9 139.794C369.9 141.054 370.6 142.314 371.902 142.314C373.022 142.314 373.946 141.39 373.946 139.78C373.946 138.24 373.12 137.246 371.944 137.246C370.88 137.246 369.9 137.988 369.9 139.794ZM377.497 144.638H376.307C377.357 142.734 377.889 140.648 377.889 138.562C377.889 136.588 377.329 134.726 376.307 133.018H377.497C378.533 134.67 379.121 136.532 379.121 138.548C379.121 140.802 378.505 142.958 377.497 144.638Z" fill="#005260"/>
<rect x="271.531" y="152.308" width="42" height="42" rx="21" fill="#005260"/>
<path d="M281.912 179.308V167.089H286.804C287.703 167.089 288.453 167.223 289.053 167.489C289.654 167.756 290.105 168.126 290.408 168.599C290.71 169.068 290.861 169.609 290.861 170.222C290.861 170.699 290.766 171.118 290.575 171.48C290.384 171.838 290.121 172.133 289.787 172.363C289.457 172.59 289.079 172.751 288.654 172.847V172.966C289.119 172.986 289.555 173.117 289.96 173.36C290.37 173.602 290.702 173.942 290.956 174.38C291.211 174.813 291.338 175.33 291.338 175.931C291.338 176.579 291.177 177.158 290.855 177.667C290.537 178.172 290.066 178.572 289.441 178.866C288.817 179.16 288.047 179.308 287.132 179.308H281.912ZM284.495 177.196H286.601C287.321 177.196 287.846 177.058 288.176 176.784C288.506 176.506 288.672 176.136 288.672 175.674C288.672 175.336 288.59 175.038 288.427 174.779C288.264 174.521 288.031 174.318 287.729 174.171C287.431 174.024 287.075 173.95 286.661 173.95H284.495V177.196ZM284.495 172.202H286.41C286.764 172.202 287.079 172.141 287.353 172.017C287.631 171.89 287.85 171.711 288.009 171.48C288.172 171.25 288.254 170.973 288.254 170.651C288.254 170.21 288.097 169.854 287.783 169.583C287.472 169.313 287.031 169.178 286.458 169.178H284.495V172.202ZM300.566 167.089H303.149V175.024C303.149 175.915 302.937 176.695 302.511 177.363C302.089 178.031 301.499 178.552 300.739 178.926C299.979 179.296 299.094 179.481 298.084 179.481C297.07 179.481 296.183 179.296 295.423 178.926C294.664 178.552 294.073 178.031 293.652 177.363C293.23 176.695 293.019 175.915 293.019 175.024V167.089H295.602V174.803C295.602 175.269 295.704 175.682 295.907 176.044C296.114 176.406 296.404 176.691 296.778 176.897C297.152 177.104 297.587 177.208 298.084 177.208C298.585 177.208 299.021 177.104 299.391 176.897C299.765 176.691 300.053 176.406 300.256 176.044C300.463 175.682 300.566 175.269 300.566 174.803V167.089Z" fill="#E6F0F2"/>
<path d="M330.385 170.308L329.391 167.466H325.667L324.687 170.308H323.259L326.815 160.424H328.271L331.827 170.308H330.385ZM327.557 161.782H327.529C327.529 161.782 327.305 162.678 327.137 163.182L326.031 166.318H329.027L327.935 163.182C327.767 162.678 327.557 161.782 327.557 161.782ZM332.722 173.108V163.224H333.968V163.826C333.968 164.106 333.94 164.344 333.94 164.344H333.968C333.968 164.344 334.57 163.056 336.348 163.056C338.252 163.056 339.456 164.568 339.456 166.766C339.456 169.02 338.098 170.476 336.25 170.476C334.696 170.476 334.08 169.314 334.08 169.314H334.052C334.052 169.314 334.08 169.566 334.08 169.93V173.108H332.722ZM334.038 166.794C334.038 168.054 334.738 169.314 336.04 169.314C337.16 169.314 338.084 168.39 338.084 166.78C338.084 165.24 337.258 164.246 336.082 164.246C335.018 164.246 334.038 164.988 334.038 166.794ZM340.836 173.108V163.224H342.082V163.826C342.082 164.106 342.054 164.344 342.054 164.344H342.082C342.082 164.344 342.684 163.056 344.462 163.056C346.366 163.056 347.57 164.568 347.57 166.766C347.57 169.02 346.212 170.476 344.364 170.476C342.81 170.476 342.194 169.314 342.194 169.314H342.166C342.166 169.314 342.194 169.566 342.194 169.93V173.108H340.836ZM342.152 166.794C342.152 168.054 342.852 169.314 344.154 169.314C345.274 169.314 346.198 168.39 346.198 166.78C346.198 165.24 345.372 164.246 344.196 164.246C343.132 164.246 342.152 164.988 342.152 166.794ZM348.867 168.376V160.424H350.225V168.138C350.225 168.992 350.561 169.146 350.981 169.146C351.107 169.146 351.219 169.132 351.219 169.132V170.336C351.219 170.336 351.009 170.364 350.771 170.364C350.001 170.364 348.867 170.154 348.867 168.376ZM351.382 172.814L351.858 171.778C351.858 171.778 352.25 172.072 352.684 172.072C353.23 172.072 353.692 171.68 353.958 171.036L354.308 170.224L351.34 163.224H352.866L354.644 167.858C354.784 168.222 354.91 168.712 354.91 168.712H354.938C354.938 168.712 355.05 168.236 355.176 167.872L356.898 163.224H358.368L355.05 171.582C354.616 172.674 353.748 173.248 352.754 173.248C351.956 173.248 351.382 172.814 351.382 172.814ZM362.548 170.308V160.424H363.906V163.658C363.906 164.008 363.878 164.26 363.878 164.26H363.906C363.906 164.26 364.508 163.056 366.174 163.056C368.078 163.056 369.282 164.568 369.282 166.766C369.282 169.02 367.924 170.476 366.062 170.476C364.48 170.476 363.836 169.258 363.836 169.258H363.808C363.808 169.258 363.836 169.482 363.836 169.79V170.308H362.548ZM363.864 166.794C363.864 168.054 364.522 169.314 365.866 169.314C366.986 169.314 367.91 168.39 367.91 166.78C367.91 165.24 367.084 164.246 365.908 164.246C364.844 164.246 363.864 164.988 363.864 166.794ZM370.649 161.81V160.424H372.021V161.81H370.649ZM370.663 170.308V163.224H372.021V170.308H370.663ZM373.785 168.376V160.424H375.143V168.138C375.143 168.992 375.479 169.146 375.899 169.146C376.025 169.146 376.137 169.132 376.137 169.132V170.336C376.137 170.336 375.927 170.364 375.689 170.364C374.919 170.364 373.785 170.154 373.785 168.376ZM377.21 168.376V160.424H378.568V168.138C378.568 168.992 378.904 169.146 379.324 169.146C379.45 169.146 379.562 169.132 379.562 169.132V170.336C379.562 170.336 379.352 170.364 379.114 170.364C378.344 170.364 377.21 170.154 377.21 168.376ZM380.705 161.81V160.424H382.077V161.81H380.705ZM380.719 170.308V163.224H382.077V170.308H380.719ZM383.926 170.308V163.224H385.242V164.162C385.242 164.442 385.214 164.68 385.214 164.68H385.242C385.522 164.064 386.362 163.056 387.902 163.056C389.568 163.056 390.338 163.966 390.338 165.772V170.308H388.98V166.08C388.98 165.086 388.77 164.302 387.636 164.302C386.558 164.302 385.69 165.016 385.396 166.038C385.312 166.318 385.284 166.64 385.284 166.99V170.308H383.926ZM392.711 171.596C392.711 171.596 393.593 172.072 394.657 172.072C395.889 172.072 396.897 171.526 396.897 170.084V169.566C396.897 169.342 396.911 169.118 396.911 169.118H396.883C396.463 169.818 395.805 170.224 394.783 170.224C392.809 170.224 391.619 168.642 391.619 166.598C391.619 164.568 392.753 163.056 394.713 163.056C396.421 163.056 396.939 164.106 396.939 164.106H396.967C396.967 164.106 396.953 164.008 396.953 163.882V163.224H398.255V170.014C398.255 172.352 396.477 173.248 394.685 173.248C393.831 173.248 392.949 173.01 392.263 172.66L392.711 171.596ZM395.049 169.048C396.029 169.048 396.925 168.46 396.925 166.612C396.925 164.764 396.029 164.232 394.923 164.232C393.691 164.232 392.991 165.128 392.991 166.57C392.991 168.04 393.775 169.048 395.049 169.048ZM403.318 167.76V163.224H404.676V167.452C404.676 168.432 404.872 169.216 406.006 169.216C407.448 169.216 408.302 167.942 408.302 166.542V163.224H409.66V170.308H408.344V169.37C408.344 169.076 408.372 168.852 408.372 168.852H408.344C408.05 169.552 407.126 170.476 405.74 170.476C404.144 170.476 403.318 169.636 403.318 167.76ZM411.503 170.308V163.224H412.819V164.162C412.819 164.442 412.791 164.68 412.791 164.68H412.819C413.099 164.064 413.939 163.056 415.479 163.056C417.145 163.056 417.915 163.966 417.915 165.772V170.308H416.557V166.08C416.557 165.086 416.347 164.302 415.213 164.302C414.135 164.302 413.267 165.016 412.973 166.038C412.889 166.318 412.861 166.64 412.861 166.99V170.308H411.503ZM419.645 161.81V160.424H421.017V161.81H419.645ZM419.659 170.308V163.224H421.017V170.308H419.659ZM423.159 167.718V164.414H422.235V163.322H423.201V161.278H424.517V163.322H426.225V164.414H424.517V167.564C424.517 168.978 425.511 169.16 426.029 169.16C426.225 169.16 426.351 169.132 426.351 169.132V170.336C426.351 170.336 426.155 170.364 425.875 170.364C424.965 170.364 423.159 170.084 423.159 167.718ZM427.028 169.44L427.686 168.474C427.686 168.474 428.484 169.3 429.716 169.3C430.304 169.3 430.892 168.992 430.892 168.418C430.892 167.116 427.252 167.382 427.252 165.072C427.252 163.784 428.4 163.056 429.814 163.056C431.368 163.056 432.096 163.84 432.096 163.84L431.55 164.862C431.55 164.862 430.92 164.232 429.8 164.232C429.212 164.232 428.638 164.484 428.638 165.1C428.638 166.374 432.278 166.094 432.278 168.418C432.278 169.594 431.27 170.476 429.716 170.476C427.98 170.476 427.028 169.44 427.028 169.44ZM325.793 186.638C324.785 184.958 324.169 182.802 324.169 180.548C324.169 178.532 324.757 176.67 325.793 175.018H326.983C325.961 176.726 325.401 178.588 325.401 180.562C325.401 182.648 325.933 184.734 326.983 186.638H325.793ZM327.637 181.752C327.637 179.61 329.345 178.056 331.459 178.056C333.573 178.056 335.281 179.61 335.281 181.752C335.281 183.908 333.573 185.476 331.459 185.476C329.345 185.476 327.637 183.908 327.637 181.752ZM329.023 181.752C329.023 183.236 330.129 184.3 331.459 184.3C332.803 184.3 333.895 183.236 333.895 181.752C333.895 180.282 332.803 179.232 331.459 179.232C330.129 179.232 329.023 180.282 329.023 181.752ZM336.612 188.108V178.224H337.858V178.826C337.858 179.106 337.83 179.344 337.83 179.344H337.858C337.858 179.344 338.46 178.056 340.238 178.056C342.142 178.056 343.346 179.568 343.346 181.766C343.346 184.02 341.988 185.476 340.14 185.476C338.586 185.476 337.97 184.314 337.97 184.314H337.942C337.942 184.314 337.97 184.566 337.97 184.93V188.108H336.612ZM337.928 181.794C337.928 183.054 338.628 184.314 339.93 184.314C341.05 184.314 341.974 183.39 341.974 181.78C341.974 180.24 341.148 179.246 339.972 179.246C338.908 179.246 337.928 179.988 337.928 181.794ZM345.02 182.718V179.414H344.096V178.322H345.062V176.278H346.378V178.322H348.086V179.414H346.378V182.564C346.378 183.978 347.372 184.16 347.89 184.16C348.086 184.16 348.212 184.132 348.212 184.132V185.336C348.212 185.336 348.016 185.364 347.736 185.364C346.826 185.364 345.02 185.084 345.02 182.718ZM349.45 176.81V175.424H350.822V176.81H349.45ZM349.464 185.308V178.224H350.822V185.308H349.464ZM352.152 181.752C352.152 179.61 353.86 178.056 355.974 178.056C358.088 178.056 359.796 179.61 359.796 181.752C359.796 183.908 358.088 185.476 355.974 185.476C353.86 185.476 352.152 183.908 352.152 181.752ZM353.538 181.752C353.538 183.236 354.644 184.3 355.974 184.3C357.318 184.3 358.41 183.236 358.41 181.752C358.41 180.282 357.318 179.232 355.974 179.232C354.644 179.232 353.538 180.282 353.538 181.752ZM361.127 185.308V178.224H362.443V179.162C362.443 179.442 362.415 179.68 362.415 179.68H362.443C362.723 179.064 363.563 178.056 365.103 178.056C366.769 178.056 367.539 178.966 367.539 180.772V185.308H366.181V181.08C366.181 180.086 365.971 179.302 364.837 179.302C363.759 179.302 362.891 180.016 362.597 181.038C362.513 181.318 362.485 181.64 362.485 181.99V185.308H361.127ZM368.708 183.32C368.708 180.982 371.788 180.884 372.978 180.884H373.286V180.758C373.286 179.596 372.628 179.204 371.732 179.204C370.64 179.204 369.758 179.89 369.758 179.89L369.198 178.896C369.198 178.896 370.22 178.056 371.844 178.056C373.636 178.056 374.644 179.036 374.644 180.828V185.308H373.384V184.636C373.384 184.314 373.412 184.076 373.412 184.076H373.384C373.384 184.076 372.81 185.476 371.116 185.476C369.898 185.476 368.708 184.734 368.708 183.32ZM370.08 183.25C370.08 183.824 370.528 184.384 371.41 184.384C372.558 184.384 373.3 183.18 373.3 182.13V181.906H372.95C371.928 181.906 370.08 181.976 370.08 183.25ZM376.315 183.376V175.424H377.673V183.138C377.673 183.992 378.009 184.146 378.429 184.146C378.555 184.146 378.667 184.132 378.667 184.132V185.336C378.667 185.336 378.457 185.364 378.219 185.364C377.449 185.364 376.315 185.154 376.315 183.376ZM380.342 186.638H379.152C380.202 184.734 380.734 182.648 380.734 180.562C380.734 178.588 380.174 176.726 379.152 175.018H380.342C381.378 176.67 381.966 178.532 381.966 180.548C381.966 182.802 381.35 184.958 380.342 186.638Z" fill="#005260"/>
<rect x="271.531" y="200.308" width="42" height="42" rx="21" fill="#005260"/>
<g clip-path="url(#clip3_889_4650)">
<path d="M300.532 215.974H299.198V213.308C299.198 209.628 296.212 206.641 292.532 206.641C288.852 206.641 285.865 209.628 285.865 213.308V215.974H284.532C283.065 215.974 281.865 217.174 281.865 218.641V231.974C281.865 233.441 283.065 234.641 284.532 234.641H300.532C301.998 234.641 303.198 233.441 303.198 231.974V218.641C303.198 217.174 301.998 215.974 300.532 215.974ZM292.532 227.974C291.065 227.974 289.865 226.774 289.865 225.308C289.865 223.841 291.065 222.641 292.532 222.641C293.998 222.641 295.198 223.841 295.198 225.308C295.198 226.774 293.998 227.974 292.532 227.974ZM296.665 215.974H288.398V213.308C288.398 211.028 290.252 209.174 292.532 209.174C294.812 209.174 296.665 211.028 296.665 213.308V215.974Z" fill="#E6F0F2"/>
</g>
<path d="M324.491 218.308V208.424H330.231V209.628H325.877V212.722H329.419V213.926H325.877V217.104H330.469V218.308H324.491ZM331.956 218.308V211.224H333.272V212.162C333.272 212.442 333.244 212.68 333.244 212.68H333.272C333.552 212.064 334.392 211.056 335.932 211.056C337.598 211.056 338.368 211.966 338.368 213.772V218.308H337.01V214.08C337.01 213.086 336.8 212.302 335.666 212.302C334.588 212.302 333.72 213.016 333.426 214.038C333.342 214.318 333.314 214.64 333.314 214.99V218.308H331.956ZM339.538 216.32C339.538 213.982 342.618 213.884 343.808 213.884H344.116V213.758C344.116 212.596 343.458 212.204 342.562 212.204C341.47 212.204 340.588 212.89 340.588 212.89L340.028 211.896C340.028 211.896 341.05 211.056 342.674 211.056C344.466 211.056 345.474 212.036 345.474 213.828V218.308H344.214V217.636C344.214 217.314 344.242 217.076 344.242 217.076H344.214C344.214 217.076 343.64 218.476 341.946 218.476C340.728 218.476 339.538 217.734 339.538 216.32ZM340.91 216.25C340.91 216.824 341.358 217.384 342.24 217.384C343.388 217.384 344.13 216.18 344.13 215.13V214.906H343.78C342.758 214.906 340.91 214.976 340.91 216.25ZM347.228 218.308V208.424H348.586V211.658C348.586 212.008 348.558 212.26 348.558 212.26H348.586C348.586 212.26 349.188 211.056 350.854 211.056C352.758 211.056 353.962 212.568 353.962 214.766C353.962 217.02 352.604 218.476 350.742 218.476C349.16 218.476 348.516 217.258 348.516 217.258H348.488C348.488 217.258 348.516 217.482 348.516 217.79V218.308H347.228ZM348.544 214.794C348.544 216.054 349.202 217.314 350.546 217.314C351.666 217.314 352.59 216.39 352.59 214.78C352.59 213.24 351.764 212.246 350.588 212.246C349.524 212.246 348.544 212.988 348.544 214.794ZM355.259 216.376V208.424H356.617V216.138C356.617 216.992 356.953 217.146 357.373 217.146C357.499 217.146 357.611 217.132 357.611 217.132V218.336C357.611 218.336 357.401 218.364 357.163 218.364C356.393 218.364 355.259 218.154 355.259 216.376ZM358.278 214.766C358.278 212.512 359.804 211.056 361.82 211.056C363.822 211.056 364.886 212.54 364.886 214.374C364.886 214.556 364.844 214.962 364.844 214.962H359.678C359.748 216.516 360.854 217.3 362.114 217.3C363.332 217.3 364.214 216.474 364.214 216.474L364.774 217.468C364.774 217.468 363.724 218.476 362.03 218.476C359.804 218.476 358.278 216.866 358.278 214.766ZM359.72 213.94H363.5C363.458 212.722 362.702 212.134 361.792 212.134C360.756 212.134 359.916 212.778 359.72 213.94ZM369.863 215.718V212.414H368.939V211.322H369.905V209.278H371.221V211.322H372.929V212.414H371.221V215.564C371.221 216.978 372.215 217.16 372.733 217.16C372.929 217.16 373.055 217.132 373.055 217.132V218.336C373.055 218.336 372.859 218.364 372.579 218.364C371.669 218.364 369.863 218.084 369.863 215.718ZM375.763 218.308L373.481 211.224H374.923L376.393 216.194C376.505 216.558 376.561 216.95 376.575 216.95H376.603C376.603 216.95 376.673 216.558 376.785 216.194L378.325 211.238H379.571L381.097 216.194C381.209 216.558 381.293 216.95 381.293 216.95H381.321C381.321 216.95 381.377 216.558 381.489 216.194L382.973 211.224H384.401L382.119 218.308H380.621L379.151 213.758C379.039 213.394 378.955 212.988 378.955 212.988H378.927C378.927 212.988 378.843 213.394 378.731 213.758L377.275 218.308H375.763ZM384.911 214.752C384.911 212.61 386.619 211.056 388.733 211.056C390.847 211.056 392.555 212.61 392.555 214.752C392.555 216.908 390.847 218.476 388.733 218.476C386.619 218.476 384.911 216.908 384.911 214.752ZM386.297 214.752C386.297 216.236 387.403 217.3 388.733 217.3C390.077 217.3 391.169 216.236 391.169 214.752C391.169 213.282 390.077 212.232 388.733 212.232C387.403 212.232 386.297 213.282 386.297 214.752ZM394.081 214.92V213.716H398.169V214.92H394.081ZM399.635 217.44L400.293 216.474C400.293 216.474 401.091 217.3 402.323 217.3C402.911 217.3 403.499 216.992 403.499 216.418C403.499 215.116 399.859 215.382 399.859 213.072C399.859 211.784 401.007 211.056 402.421 211.056C403.975 211.056 404.703 211.84 404.703 211.84L404.157 212.862C404.157 212.862 403.527 212.232 402.407 212.232C401.819 212.232 401.245 212.484 401.245 213.1C401.245 214.374 404.885 214.094 404.885 216.418C404.885 217.594 403.877 218.476 402.323 218.476C400.587 218.476 399.635 217.44 399.635 217.44ZM406.498 215.718V212.414H405.574V211.322H406.54V209.278H407.856V211.322H409.564V212.414H407.856V215.564C407.856 216.978 408.85 217.16 409.368 217.16C409.564 217.16 409.69 217.132 409.69 217.132V218.336C409.69 218.336 409.494 218.364 409.214 218.364C408.304 218.364 406.498 218.084 406.498 215.718ZM410.452 214.766C410.452 212.512 411.978 211.056 413.994 211.056C415.996 211.056 417.06 212.54 417.06 214.374C417.06 214.556 417.018 214.962 417.018 214.962H411.852C411.922 216.516 413.028 217.3 414.288 217.3C415.506 217.3 416.388 216.474 416.388 216.474L416.948 217.468C416.948 217.468 415.898 218.476 414.204 218.476C411.978 218.476 410.452 216.866 410.452 214.766ZM411.894 213.94H415.674C415.632 212.722 414.876 212.134 413.966 212.134C412.93 212.134 412.09 212.778 411.894 213.94ZM418.428 221.108V211.224H419.674V211.826C419.674 212.106 419.646 212.344 419.646 212.344H419.674C419.674 212.344 420.276 211.056 422.054 211.056C423.958 211.056 425.162 212.568 425.162 214.766C425.162 217.02 423.804 218.476 421.956 218.476C420.402 218.476 419.786 217.314 419.786 217.314H419.758C419.758 217.314 419.786 217.566 419.786 217.93V221.108H418.428ZM419.744 214.794C419.744 216.054 420.444 217.314 421.746 217.314C422.866 217.314 423.79 216.39 423.79 214.78C423.79 213.24 422.964 212.246 421.788 212.246C420.724 212.246 419.744 212.988 419.744 214.794ZM323.637 231.32C323.637 228.982 326.717 228.884 327.907 228.884H328.215V228.758C328.215 227.596 327.557 227.204 326.661 227.204C325.569 227.204 324.687 227.89 324.687 227.89L324.127 226.896C324.127 226.896 325.149 226.056 326.773 226.056C328.565 226.056 329.573 227.036 329.573 228.828V233.308H328.313V232.636C328.313 232.314 328.341 232.076 328.341 232.076H328.313C328.313 232.076 327.739 233.476 326.045 233.476C324.827 233.476 323.637 232.734 323.637 231.32ZM325.009 231.25C325.009 231.824 325.457 232.384 326.339 232.384C327.487 232.384 328.229 231.18 328.229 230.13V229.906H327.879C326.857 229.906 325.009 229.976 325.009 231.25ZM331.229 230.76V226.224H332.587V230.452C332.587 231.432 332.783 232.216 333.917 232.216C335.359 232.216 336.213 230.942 336.213 229.542V226.224H337.571V233.308H336.255V232.37C336.255 232.076 336.283 231.852 336.283 231.852H336.255C335.961 232.552 335.037 233.476 333.651 233.476C332.055 233.476 331.229 232.636 331.229 230.76ZM339.708 230.718V227.414H338.784V226.322H339.75V224.278H341.066V226.322H342.774V227.414H341.066V230.564C341.066 231.978 342.06 232.16 342.578 232.16C342.774 232.16 342.9 232.132 342.9 232.132V233.336C342.9 233.336 342.704 233.364 342.424 233.364C341.514 233.364 339.708 233.084 339.708 230.718ZM344.152 233.308V223.424H345.51V227.05C345.51 227.386 345.482 227.638 345.482 227.638H345.51C345.818 226.952 346.714 226.056 348.128 226.056C349.794 226.056 350.564 226.966 350.564 228.772V233.308H349.206V229.08C349.206 228.086 348.996 227.302 347.862 227.302C346.798 227.302 345.916 228.03 345.622 229.052C345.538 229.332 345.51 229.654 345.51 229.99V233.308H344.152ZM351.818 229.766C351.818 227.512 353.344 226.056 355.36 226.056C357.362 226.056 358.426 227.54 358.426 229.374C358.426 229.556 358.384 229.962 358.384 229.962H353.218C353.288 231.516 354.394 232.3 355.654 232.3C356.872 232.3 357.754 231.474 357.754 231.474L358.314 232.468C358.314 232.468 357.264 233.476 355.57 233.476C353.344 233.476 351.818 231.866 351.818 229.766ZM353.26 228.94H357.04C356.998 227.722 356.242 227.134 355.332 227.134C354.296 227.134 353.456 227.778 353.26 228.94ZM359.793 233.308V226.224H361.109V227.162C361.109 227.442 361.081 227.68 361.081 227.68H361.109C361.389 227.064 362.229 226.056 363.769 226.056C365.435 226.056 366.205 226.966 366.205 228.772V233.308H364.847V229.08C364.847 228.086 364.637 227.302 363.503 227.302C362.425 227.302 361.557 228.016 361.263 229.038C361.179 229.318 361.151 229.64 361.151 229.99V233.308H359.793ZM368.243 230.718V227.414H367.319V226.322H368.285V224.278H369.601V226.322H371.309V227.414H369.601V230.564C369.601 231.978 370.595 232.16 371.113 232.16C371.309 232.16 371.435 232.132 371.435 232.132V233.336C371.435 233.336 371.239 233.364 370.959 233.364C370.049 233.364 368.243 233.084 368.243 230.718ZM372.672 224.81V223.424H374.044V224.81H372.672ZM372.686 233.308V226.224H374.044V233.308H372.686ZM375.389 229.766C375.389 227.666 376.957 226.056 379.183 226.056C380.961 226.056 381.843 227.092 381.843 227.092L381.199 228.044C381.199 228.044 380.443 227.232 379.239 227.232C377.811 227.232 376.775 228.296 376.775 229.752C376.775 231.194 377.811 232.3 379.281 232.3C380.597 232.3 381.465 231.348 381.465 231.348L382.011 232.342C382.011 232.342 381.031 233.476 379.183 233.476C376.957 233.476 375.389 231.894 375.389 229.766ZM382.695 231.32C382.695 228.982 385.775 228.884 386.965 228.884H387.273V228.758C387.273 227.596 386.615 227.204 385.719 227.204C384.627 227.204 383.745 227.89 383.745 227.89L383.185 226.896C383.185 226.896 384.207 226.056 385.831 226.056C387.623 226.056 388.631 227.036 388.631 228.828V233.308H387.371V232.636C387.371 232.314 387.399 232.076 387.399 232.076H387.371C387.371 232.076 386.797 233.476 385.103 233.476C383.885 233.476 382.695 232.734 382.695 231.32ZM384.067 231.25C384.067 231.824 384.515 232.384 385.397 232.384C386.545 232.384 387.287 231.18 387.287 230.13V229.906H386.937C385.915 229.906 384.067 229.976 384.067 231.25ZM390.638 230.718V227.414H389.714V226.322H390.68V224.278H391.996V226.322H393.704V227.414H391.996V230.564C391.996 231.978 392.99 232.16 393.508 232.16C393.704 232.16 393.83 232.132 393.83 232.132V233.336C393.83 233.336 393.634 233.364 393.354 233.364C392.444 233.364 390.638 233.084 390.638 230.718ZM395.068 224.81V223.424H396.44V224.81H395.068ZM395.082 233.308V226.224H396.44V233.308H395.082ZM397.77 229.752C397.77 227.61 399.478 226.056 401.592 226.056C403.706 226.056 405.414 227.61 405.414 229.752C405.414 231.908 403.706 233.476 401.592 233.476C399.478 233.476 397.77 231.908 397.77 229.752ZM399.156 229.752C399.156 231.236 400.262 232.3 401.592 232.3C402.936 232.3 404.028 231.236 404.028 229.752C404.028 228.282 402.936 227.232 401.592 227.232C400.262 227.232 399.156 228.282 399.156 229.752ZM406.745 233.308V226.224H408.061V227.162C408.061 227.442 408.033 227.68 408.033 227.68H408.061C408.341 227.064 409.181 226.056 410.721 226.056C412.387 226.056 413.157 226.966 413.157 228.772V233.308H411.799V229.08C411.799 228.086 411.589 227.302 410.455 227.302C409.377 227.302 408.509 228.016 408.215 229.038C408.131 229.318 408.103 229.64 408.103 229.99V233.308H406.745ZM419.798 234.638C418.79 232.958 418.174 230.802 418.174 228.548C418.174 226.532 418.762 224.67 419.798 223.018H420.988C419.966 224.726 419.406 226.588 419.406 228.562C419.406 230.648 419.938 232.734 420.988 234.638H419.798ZM422.133 233.308L422.931 223.424H424.387L426.655 228.772C426.879 229.318 427.145 230.102 427.145 230.102H427.173C427.173 230.102 427.439 229.318 427.663 228.772L429.931 223.424H431.387L432.185 233.308H430.813L430.323 227.078C430.281 226.476 430.309 225.622 430.309 225.622H430.281C430.281 225.622 429.987 226.532 429.749 227.078L427.775 231.53H426.543L424.583 227.078C424.359 226.546 424.051 225.594 424.051 225.594H424.023C424.023 225.594 424.037 226.476 423.995 227.078L423.519 233.308H422.133ZM434.287 233.308V223.424H439.733V224.628H435.673V227.876H439.131V229.08H435.673V233.308H434.287ZM446.819 233.308L445.825 230.466H442.101L441.121 233.308H439.693L443.249 223.424H444.705L448.261 233.308H446.819ZM443.991 224.782H443.963C443.963 224.782 443.739 225.678 443.571 226.182L442.465 229.318H445.461L444.369 226.182C444.201 225.678 443.991 224.782 443.991 224.782ZM449.674 234.638H448.484C449.534 232.734 450.066 230.648 450.066 228.562C450.066 226.588 449.506 224.726 448.484 223.018H449.674C450.71 224.67 451.298 226.532 451.298 228.548C451.298 230.802 450.682 232.958 449.674 234.638Z" fill="#005260"/>
<rect x="271.531" y="248.308" width="42" height="42" rx="21" fill="#005260"/>
<g clip-path="url(#clip4_889_4650)">
<path d="M298.031 267.933C300.314 267.933 302.143 266.09 302.143 263.808C302.143 261.525 300.314 259.683 298.031 259.683C295.749 259.683 293.906 261.525 293.906 263.808C293.906 266.09 295.749 267.933 298.031 267.933ZM287.031 267.933C289.314 267.933 291.143 266.09 291.143 263.808C291.143 261.525 289.314 259.683 287.031 259.683C284.749 259.683 282.906 261.525 282.906 263.808C282.906 266.09 284.749 267.933 287.031 267.933ZM287.031 270.683C283.828 270.683 277.406 272.291 277.406 275.495V278.933H296.656V275.495C296.656 272.291 290.235 270.683 287.031 270.683ZM298.031 270.683C297.633 270.683 297.179 270.71 296.698 270.751C298.293 271.906 299.406 273.46 299.406 275.495V278.933H307.656V275.495C307.656 272.291 301.235 270.683 298.031 270.683Z" fill="#E6F0F2"/>
</g>
<path d="M324.491 266.308V256.424H325.877V266.308H324.491ZM328.005 266.308V259.224H329.321V260.162C329.321 260.442 329.293 260.68 329.293 260.68H329.321C329.601 260.064 330.441 259.056 331.981 259.056C333.647 259.056 334.417 259.966 334.417 261.772V266.308H333.059V262.08C333.059 261.086 332.849 260.302 331.715 260.302C330.637 260.302 329.769 261.016 329.475 262.038C329.391 262.318 329.363 262.64 329.363 262.99V266.308H328.005ZM337.841 266.308L335.195 259.224H336.637L338.359 264.012C338.499 264.404 338.583 264.978 338.597 264.978H338.625C338.639 264.978 338.737 264.404 338.877 264.012L340.599 259.224H342.027L339.409 266.308H337.841ZM342.894 257.81V256.424H344.266V257.81H342.894ZM342.908 266.308V259.224H344.266V266.308H342.908ZM346.408 263.718V260.414H345.484V259.322H346.45V257.278H347.766V259.322H349.474V260.414H347.766V263.564C347.766 264.978 348.76 265.16 349.278 265.16C349.474 265.16 349.6 265.132 349.6 265.132V266.336C349.6 266.336 349.404 266.364 349.124 266.364C348.214 266.364 346.408 266.084 346.408 263.718ZM350.362 262.766C350.362 260.512 351.888 259.056 353.904 259.056C355.906 259.056 356.97 260.54 356.97 262.374C356.97 262.556 356.928 262.962 356.928 262.962H351.762C351.832 264.516 352.938 265.3 354.198 265.3C355.416 265.3 356.298 264.474 356.298 264.474L356.858 265.468C356.858 265.468 355.808 266.476 354.114 266.476C351.888 266.476 350.362 264.866 350.362 262.766ZM351.804 261.94H355.584C355.542 260.722 354.786 260.134 353.876 260.134C352.84 260.134 352 260.778 351.804 261.94ZM361.653 266.308V259.224H362.969V260.162C362.969 260.442 362.941 260.68 362.941 260.68H362.969C363.305 259.854 364.299 259.056 365.405 259.056C366.595 259.056 367.295 259.602 367.533 260.666H367.561C367.953 259.812 368.933 259.056 370.081 259.056C371.677 259.056 372.419 259.966 372.419 261.772V266.308H371.061V262.066C371.061 261.072 370.865 260.288 369.801 260.288C368.807 260.288 368.065 261.128 367.813 262.094C367.743 262.388 367.715 262.71 367.715 263.074V266.308H366.357V262.066C366.357 261.142 366.217 260.288 365.125 260.288C364.089 260.288 363.361 261.142 363.095 262.15C363.025 262.43 363.011 262.752 363.011 263.074V266.308H361.653ZM373.68 262.766C373.68 260.512 375.206 259.056 377.222 259.056C379.224 259.056 380.288 260.54 380.288 262.374C380.288 262.556 380.246 262.962 380.246 262.962H375.08C375.15 264.516 376.256 265.3 377.516 265.3C378.734 265.3 379.616 264.474 379.616 264.474L380.176 265.468C380.176 265.468 379.126 266.476 377.432 266.476C375.206 266.476 373.68 264.866 373.68 262.766ZM375.122 261.94H378.902C378.86 260.722 378.104 260.134 377.194 260.134C376.158 260.134 375.318 260.778 375.122 261.94ZM381.656 266.308V259.224H382.972V260.162C382.972 260.442 382.944 260.68 382.944 260.68H382.972C383.308 259.854 384.302 259.056 385.408 259.056C386.598 259.056 387.298 259.602 387.536 260.666H387.564C387.956 259.812 388.936 259.056 390.084 259.056C391.68 259.056 392.422 259.966 392.422 261.772V266.308H391.064V262.066C391.064 261.072 390.868 260.288 389.804 260.288C388.81 260.288 388.068 261.128 387.816 262.094C387.746 262.388 387.718 262.71 387.718 263.074V266.308H386.36V262.066C386.36 261.142 386.22 260.288 385.128 260.288C384.092 260.288 383.364 261.142 383.098 262.15C383.028 262.43 383.014 262.752 383.014 263.074V266.308H381.656ZM394.173 266.308V256.424H395.531V259.658C395.531 260.008 395.503 260.26 395.503 260.26H395.531C395.531 260.26 396.133 259.056 397.799 259.056C399.703 259.056 400.907 260.568 400.907 262.766C400.907 265.02 399.549 266.476 397.687 266.476C396.105 266.476 395.461 265.258 395.461 265.258H395.433C395.433 265.258 395.461 265.482 395.461 265.79V266.308H394.173ZM395.489 262.794C395.489 264.054 396.147 265.314 397.491 265.314C398.611 265.314 399.535 264.39 399.535 262.78C399.535 261.24 398.709 260.246 397.533 260.246C396.469 260.246 395.489 260.988 395.489 262.794ZM401.797 262.766C401.797 260.512 403.323 259.056 405.339 259.056C407.341 259.056 408.405 260.54 408.405 262.374C408.405 262.556 408.363 262.962 408.363 262.962H403.197C403.267 264.516 404.373 265.3 405.633 265.3C406.851 265.3 407.733 264.474 407.733 264.474L408.293 265.468C408.293 265.468 407.243 266.476 405.549 266.476C403.323 266.476 401.797 264.866 401.797 262.766ZM403.239 261.94H407.019C406.977 260.722 406.221 260.134 405.311 260.134C404.275 260.134 403.435 260.778 403.239 261.94ZM409.773 266.308V259.224H411.089V260.456C411.089 260.75 411.061 260.988 411.061 260.988H411.089C411.411 259.952 412.237 259.14 413.329 259.14C413.511 259.14 413.679 259.168 413.679 259.168V260.512C413.679 260.512 413.497 260.47 413.287 260.47C412.419 260.47 411.621 261.086 411.299 262.136C411.173 262.542 411.131 262.976 411.131 263.41V266.308H409.773ZM414.169 265.44L414.827 264.474C414.827 264.474 415.625 265.3 416.857 265.3C417.445 265.3 418.033 264.992 418.033 264.418C418.033 263.116 414.393 263.382 414.393 261.072C414.393 259.784 415.541 259.056 416.955 259.056C418.509 259.056 419.237 259.84 419.237 259.84L418.691 260.862C418.691 260.862 418.061 260.232 416.941 260.232C416.353 260.232 415.779 260.484 415.779 261.1C415.779 262.374 419.419 262.094 419.419 264.418C419.419 265.594 418.411 266.476 416.857 266.476C415.121 266.476 414.169 265.44 414.169 265.44ZM424.348 263.718V260.414H423.424V259.322H424.39V257.278H425.706V259.322H427.414V260.414H425.706V263.564C425.706 264.978 426.7 265.16 427.218 265.16C427.414 265.16 427.54 265.132 427.54 265.132V266.336C427.54 266.336 427.344 266.364 427.064 266.364C426.154 266.364 424.348 266.084 424.348 263.718ZM428.273 262.752C428.273 260.61 429.981 259.056 432.095 259.056C434.209 259.056 435.917 260.61 435.917 262.752C435.917 264.908 434.209 266.476 432.095 266.476C429.981 266.476 428.273 264.908 428.273 262.752ZM429.659 262.752C429.659 264.236 430.765 265.3 432.095 265.3C433.439 265.3 434.531 264.236 434.531 262.752C434.531 261.282 433.439 260.232 432.095 260.232C430.765 260.232 429.659 261.282 429.659 262.752ZM324.211 284.108V274.224H325.457V274.826C325.457 275.106 325.429 275.344 325.429 275.344H325.457C325.457 275.344 326.059 274.056 327.837 274.056C329.741 274.056 330.945 275.568 330.945 277.766C330.945 280.02 329.587 281.476 327.739 281.476C326.185 281.476 325.569 280.314 325.569 280.314H325.541C325.541 280.314 325.569 280.566 325.569 280.93V284.108H324.211ZM325.527 277.794C325.527 279.054 326.227 280.314 327.529 280.314C328.649 280.314 329.573 279.39 329.573 277.78C329.573 276.24 328.747 275.246 327.571 275.246C326.507 275.246 325.527 275.988 325.527 277.794ZM332.325 281.308V274.224H333.641V275.456C333.641 275.75 333.613 275.988 333.613 275.988H333.641C333.963 274.952 334.789 274.14 335.881 274.14C336.063 274.14 336.231 274.168 336.231 274.168V275.512C336.231 275.512 336.049 275.47 335.839 275.47C334.971 275.47 334.173 276.086 333.851 277.136C333.725 277.542 333.683 277.976 333.683 278.41V281.308H332.325ZM336.736 277.752C336.736 275.61 338.444 274.056 340.558 274.056C342.672 274.056 344.38 275.61 344.38 277.752C344.38 279.908 342.672 281.476 340.558 281.476C338.444 281.476 336.736 279.908 336.736 277.752ZM338.122 277.752C338.122 279.236 339.228 280.3 340.558 280.3C341.902 280.3 342.994 279.236 342.994 277.752C342.994 276.282 341.902 275.232 340.558 275.232C339.228 275.232 338.122 276.282 338.122 277.752ZM345.697 272.81V271.424H347.069V272.81H345.697ZM345.711 274.224H347.055V281.546C347.055 283.912 345.235 284.192 344.353 284.192C344.059 284.192 343.877 284.164 343.877 284.164V283.002C343.877 283.002 344.003 283.016 344.185 283.016C344.703 283.016 345.711 282.848 345.711 281.462V274.224ZM348.413 277.766C348.413 275.512 349.939 274.056 351.955 274.056C353.957 274.056 355.021 275.54 355.021 277.374C355.021 277.556 354.979 277.962 354.979 277.962H349.813C349.883 279.516 350.989 280.3 352.249 280.3C353.467 280.3 354.349 279.474 354.349 279.474L354.909 280.468C354.909 280.468 353.859 281.476 352.165 281.476C349.939 281.476 348.413 279.866 348.413 277.766ZM349.855 276.94H353.635C353.593 275.722 352.837 275.134 351.927 275.134C350.891 275.134 350.051 275.778 349.855 276.94ZM355.885 277.766C355.885 275.666 357.453 274.056 359.679 274.056C361.457 274.056 362.339 275.092 362.339 275.092L361.695 276.044C361.695 276.044 360.939 275.232 359.735 275.232C358.307 275.232 357.271 276.296 357.271 277.752C357.271 279.194 358.307 280.3 359.777 280.3C361.093 280.3 361.961 279.348 361.961 279.348L362.507 280.342C362.507 280.342 361.527 281.476 359.679 281.476C357.453 281.476 355.885 279.894 355.885 277.766ZM364.059 278.718V275.414H363.135V274.322H364.101V272.278H365.417V274.322H367.125V275.414H365.417V278.564C365.417 279.978 366.411 280.16 366.929 280.16C367.125 280.16 367.251 280.132 367.251 280.132V281.336C367.251 281.336 367.055 281.364 366.775 281.364C365.865 281.364 364.059 281.084 364.059 278.718ZM373.4 282.638C372.392 280.958 371.776 278.802 371.776 276.548C371.776 274.532 372.364 272.67 373.4 271.018H374.59C373.568 272.726 373.008 274.588 373.008 276.562C373.008 278.648 373.54 280.734 374.59 282.638H373.4ZM375.245 277.752C375.245 275.61 376.953 274.056 379.067 274.056C381.181 274.056 382.889 275.61 382.889 277.752C382.889 279.908 381.181 281.476 379.067 281.476C376.953 281.476 375.245 279.908 375.245 277.752ZM376.631 277.752C376.631 279.236 377.737 280.3 379.067 280.3C380.411 280.3 381.503 279.236 381.503 277.752C381.503 276.282 380.411 275.232 379.067 275.232C377.737 275.232 376.631 276.282 376.631 277.752ZM384.219 284.108V274.224H385.465V274.826C385.465 275.106 385.437 275.344 385.437 275.344H385.465C385.465 275.344 386.067 274.056 387.845 274.056C389.749 274.056 390.953 275.568 390.953 277.766C390.953 280.02 389.595 281.476 387.747 281.476C386.193 281.476 385.577 280.314 385.577 280.314H385.549C385.549 280.314 385.577 280.566 385.577 280.93V284.108H384.219ZM385.535 277.794C385.535 279.054 386.235 280.314 387.537 280.314C388.657 280.314 389.581 279.39 389.581 277.78C389.581 276.24 388.755 275.246 387.579 275.246C386.515 275.246 385.535 275.988 385.535 277.794ZM392.628 278.718V275.414H391.704V274.322H392.67V272.278H393.986V274.322H395.694V275.414H393.986V278.564C393.986 279.978 394.98 280.16 395.498 280.16C395.694 280.16 395.82 280.132 395.82 280.132V281.336C395.82 281.336 395.624 281.364 395.344 281.364C394.434 281.364 392.628 281.084 392.628 278.718ZM397.058 272.81V271.424H398.43V272.81H397.058ZM397.072 281.308V274.224H398.43V281.308H397.072ZM399.76 277.752C399.76 275.61 401.468 274.056 403.582 274.056C405.696 274.056 407.404 275.61 407.404 277.752C407.404 279.908 405.696 281.476 403.582 281.476C401.468 281.476 399.76 279.908 399.76 277.752ZM401.146 277.752C401.146 279.236 402.252 280.3 403.582 280.3C404.926 280.3 406.018 279.236 406.018 277.752C406.018 276.282 404.926 275.232 403.582 275.232C402.252 275.232 401.146 276.282 401.146 277.752ZM408.734 281.308V274.224H410.05V275.162C410.05 275.442 410.022 275.68 410.022 275.68H410.05C410.33 275.064 411.17 274.056 412.71 274.056C414.376 274.056 415.146 274.966 415.146 276.772V281.308H413.788V277.08C413.788 276.086 413.578 275.302 412.444 275.302C411.366 275.302 410.498 276.016 410.204 277.038C410.12 277.318 410.092 277.64 410.092 277.99V281.308H408.734ZM416.316 279.32C416.316 276.982 419.396 276.884 420.586 276.884H420.894V276.758C420.894 275.596 420.236 275.204 419.34 275.204C418.248 275.204 417.366 275.89 417.366 275.89L416.806 274.896C416.806 274.896 417.828 274.056 419.452 274.056C421.244 274.056 422.252 275.036 422.252 276.828V281.308H420.992V280.636C420.992 280.314 421.02 280.076 421.02 280.076H420.992C420.992 280.076 420.418 281.476 418.724 281.476C417.506 281.476 416.316 280.734 416.316 279.32ZM417.688 279.25C417.688 279.824 418.136 280.384 419.018 280.384C420.166 280.384 420.908 279.18 420.908 278.13V277.906H420.558C419.536 277.906 417.688 277.976 417.688 279.25ZM423.922 279.376V271.424H425.28V279.138C425.28 279.992 425.616 280.146 426.036 280.146C426.162 280.146 426.274 280.132 426.274 280.132V281.336C426.274 281.336 426.064 281.364 425.826 281.364C425.056 281.364 423.922 281.154 423.922 279.376ZM427.949 282.638H426.759C427.809 280.734 428.341 278.648 428.341 276.562C428.341 274.588 427.781 272.726 426.759 271.018H427.949C428.985 272.67 429.573 274.532 429.573 276.548C429.573 278.802 428.957 280.958 427.949 282.638Z" fill="#005260"/>
<rect x="291" y="137.691" width="2.69229" height="22.6921" fill="#005260"/>
<rect x="291" y="88" width="2.69229" height="22.6921" fill="#005260"/>
<rect x="291" y="181" width="2.69229" height="22.6921" fill="#005260"/>
<rect x="291" y="240" width="2.69" height="14" fill="#005260"/>
<rect width="43.6509" height="24.33" transform="translate(540.531 154.262)" fill="#66A4AE"/>
<path d="M569.916 166.868L569.698 139.529L597.421 167.142L570.146 195.538L569.916 166.868Z" fill="#66A4AE"/>
<rect x="600.641" y="93.5779" width="147.844" height="147.844" rx="73.9221" fill="#E6F0F2"/>
<rect x="600.641" y="93.5779" width="147.844" height="147.844" rx="73.9221" stroke="#66A4AE" stroke-width="7.15589"/>
<path d="M644.862 131V119.64H646.926V129.224H651.838V131H644.862ZM652.559 126.92C652.559 124.424 654.559 122.648 657.039 122.648C659.535 122.648 661.535 124.424 661.535 126.92C661.535 129.432 659.535 131.192 657.055 131.192C654.559 131.192 652.559 129.432 652.559 126.92ZM654.623 126.92C654.623 128.44 655.727 129.464 657.055 129.464C658.367 129.464 659.471 128.44 659.471 126.92C659.471 125.416 658.367 124.376 657.055 124.376C655.727 124.376 654.623 125.416 654.623 126.92ZM663.999 132.104C663.999 132.104 665.023 132.632 666.255 132.632C667.503 132.632 668.559 132.104 668.559 130.648V130.168C668.559 129.976 668.591 129.736 668.591 129.736H668.559C668.079 130.456 667.375 130.84 666.287 130.84C663.951 130.84 662.623 128.952 662.623 126.712C662.623 124.472 663.887 122.648 666.239 122.648C668.015 122.648 668.655 123.688 668.655 123.688H668.703C668.703 123.688 668.687 123.592 668.687 123.464V122.84H670.591V130.504C670.591 133.304 668.415 134.36 666.287 134.36C665.263 134.36 664.175 134.072 663.391 133.656L663.999 132.104ZM666.719 129.128C667.695 129.128 668.607 128.568 668.607 126.728C668.607 124.872 667.695 124.376 666.591 124.376C665.359 124.376 664.671 125.272 664.671 126.648C664.671 128.072 665.407 129.128 666.719 129.128ZM676.714 121.448V119.64H678.73V121.448H676.714ZM676.714 131V122.84H678.746V131H676.714ZM680.98 131V122.84H682.932V123.784C682.932 124.088 682.9 124.344 682.9 124.344H682.932C683.284 123.656 684.18 122.648 685.828 122.648C687.636 122.648 688.66 123.592 688.66 125.752V131H686.644V126.168C686.644 125.176 686.388 124.504 685.348 124.504C684.26 124.504 683.46 125.192 683.156 126.168C683.044 126.504 683.012 126.872 683.012 127.256V131H680.98ZM691.144 128.008V124.584H690.088V122.968H691.192V120.616H693.176V122.968H695.032V124.584H693.176V127.752C693.176 129.096 694.232 129.288 694.792 129.288C695.016 129.288 695.16 129.256 695.16 129.256V131.032C695.16 131.032 694.92 131.08 694.536 131.08C693.4 131.08 691.144 130.744 691.144 128.008ZM696.216 126.92C696.216 124.424 698.216 122.648 700.696 122.648C703.192 122.648 705.192 124.424 705.192 126.92C705.192 129.432 703.192 131.192 700.712 131.192C698.216 131.192 696.216 129.432 696.216 126.92ZM698.28 126.92C698.28 128.44 699.384 129.464 700.712 129.464C702.024 129.464 703.128 128.44 703.128 126.92C703.128 125.416 702.024 124.376 700.712 124.376C699.384 124.376 698.28 125.416 698.28 126.92ZM612.545 145.64L613.665 144.088C613.665 144.088 614.897 145.288 616.497 145.288C617.361 145.288 618.145 144.84 618.145 143.912C618.145 141.88 612.785 142.232 612.785 138.744C612.785 136.856 614.417 135.448 616.593 135.448C618.833 135.448 619.985 136.664 619.985 136.664L619.089 138.344C619.089 138.344 618.001 137.352 616.577 137.352C615.617 137.352 614.865 137.912 614.865 138.712C614.865 140.728 620.209 140.232 620.209 143.864C620.209 145.672 618.833 147.192 616.465 147.192C613.937 147.192 612.545 145.64 612.545 145.64ZM622.269 147V135.64H626.141C629.645 135.64 631.933 137.72 631.933 141.304C631.933 144.888 629.645 147 626.141 147H622.269ZM624.333 145.224H626.029C628.333 145.224 629.805 143.864 629.805 141.304C629.805 138.776 628.301 137.416 626.029 137.416H624.333V145.224ZM637.203 141.272C637.203 137.976 639.699 135.448 643.043 135.448C645.811 135.448 647.235 137 647.235 137L646.243 138.536C646.243 138.536 644.947 137.336 643.139 137.336C640.739 137.336 639.331 139.128 639.331 141.24C639.331 143.4 640.787 145.304 643.155 145.304C645.123 145.304 646.451 143.864 646.451 143.864L647.539 145.352C647.539 145.352 645.971 147.192 643.075 147.192C639.603 147.192 637.203 144.616 637.203 141.272ZM648.512 142.92C648.512 140.424 650.512 138.648 652.992 138.648C655.488 138.648 657.488 140.424 657.488 142.92C657.488 145.432 655.488 147.192 653.008 147.192C650.512 147.192 648.512 145.432 648.512 142.92ZM650.576 142.92C650.576 144.44 651.68 145.464 653.008 145.464C654.32 145.464 655.424 144.44 655.424 142.92C655.424 141.416 654.32 140.376 653.008 140.376C651.68 140.376 650.576 141.416 650.576 142.92ZM659.12 147V138.84H661.072V139.784C661.072 140.088 661.04 140.344 661.04 140.344H661.072C661.424 139.656 662.32 138.648 663.968 138.648C665.776 138.648 666.8 139.592 666.8 141.752V147H664.784V142.168C664.784 141.176 664.528 140.504 663.488 140.504C662.4 140.504 661.6 141.192 661.296 142.168C661.184 142.504 661.152 142.872 661.152 143.256V147H659.12ZM668.933 147V138.84H670.885V139.784C670.885 140.088 670.853 140.344 670.853 140.344H670.885C671.237 139.656 672.133 138.648 673.781 138.648C675.589 138.648 676.613 139.592 676.613 141.752V147H674.597V142.168C674.597 141.176 674.341 140.504 673.301 140.504C672.213 140.504 671.413 141.192 671.109 142.168C670.997 142.504 670.965 142.872 670.965 143.256V147H668.933ZM678.169 142.92C678.169 140.408 679.881 138.648 682.313 138.648C684.665 138.648 685.929 140.36 685.929 142.52C685.929 142.76 685.881 143.304 685.881 143.304H680.249C680.377 144.728 681.481 145.464 682.697 145.464C684.009 145.464 685.049 144.568 685.049 144.568L685.833 146.024C685.833 146.024 684.585 147.192 682.553 147.192C679.849 147.192 678.169 145.24 678.169 142.92ZM680.313 141.912H683.881C683.849 140.808 683.161 140.216 682.265 140.216C681.225 140.216 680.505 140.856 680.313 141.912ZM687.013 142.92C687.013 140.6 688.741 138.648 691.445 138.648C693.573 138.648 694.581 139.864 694.581 139.864L693.685 141.256C693.685 141.256 692.837 140.376 691.557 140.376C690.053 140.376 689.077 141.512 689.077 142.904C689.077 144.28 690.069 145.464 691.621 145.464C692.997 145.464 694.021 144.424 694.021 144.424L694.805 145.864C694.805 145.864 693.637 147.192 691.445 147.192C688.741 147.192 687.013 145.288 687.013 142.92ZM696.676 144.008V140.584H695.62V138.968H696.724V136.616H698.708V138.968H700.564V140.584H698.708V143.752C698.708 145.096 699.764 145.288 700.324 145.288C700.548 145.288 700.692 145.256 700.692 145.256V147.032C700.692 147.032 700.452 147.08 700.068 147.08C698.932 147.08 696.676 146.744 696.676 144.008ZM705.557 144.648C705.557 142.056 709.061 141.88 710.389 141.88H710.661V141.768C710.661 140.696 709.989 140.328 709.093 140.328C707.925 140.328 706.853 141.112 706.853 141.112L706.085 139.656C706.085 139.656 707.349 138.648 709.285 138.648C711.429 138.648 712.677 139.832 712.677 141.896V147H710.805V146.328C710.805 146.008 710.837 145.752 710.837 145.752H710.805C710.821 145.752 710.181 147.192 708.325 147.192C706.869 147.192 705.557 146.28 705.557 144.648ZM707.605 144.552C707.605 145.096 708.005 145.608 708.837 145.608C709.909 145.608 710.677 144.456 710.677 143.464V143.272H710.325C709.285 143.272 707.605 143.416 707.605 144.552ZM714.792 147V138.84H716.744V139.784C716.744 140.088 716.712 140.344 716.712 140.344H716.744C717.096 139.656 717.992 138.648 719.64 138.648C721.448 138.648 722.472 139.592 722.472 141.752V147H720.456V142.168C720.456 141.176 720.2 140.504 719.16 140.504C718.072 140.504 717.272 141.192 716.968 142.168C716.856 142.504 716.824 142.872 716.824 143.256V147H714.792ZM724.045 142.92C724.045 140.328 725.581 138.648 727.741 138.648C729.533 138.648 730.093 139.688 730.093 139.688H730.125C730.125 139.688 730.109 139.48 730.109 139.224V135.64H732.141V147H730.221V146.328C730.221 146.024 730.253 145.8 730.253 145.8H730.221C730.221 145.8 729.533 147.192 727.661 147.192C725.453 147.192 724.045 145.448 724.045 142.92ZM726.093 142.92C726.093 144.472 726.925 145.48 728.125 145.48C729.181 145.48 730.173 144.712 730.173 142.904C730.173 141.64 729.501 140.392 728.141 140.392C727.021 140.392 726.093 141.304 726.093 142.92ZM631.569 161.64L632.689 160.088C632.689 160.088 633.921 161.288 635.521 161.288C636.385 161.288 637.169 160.84 637.169 159.912C637.169 157.88 631.809 158.232 631.809 154.744C631.809 152.856 633.441 151.448 635.617 151.448C637.857 151.448 639.009 152.664 639.009 152.664L638.113 154.344C638.113 154.344 637.025 153.352 635.601 153.352C634.641 153.352 633.889 153.912 633.889 154.712C633.889 156.728 639.233 156.232 639.233 159.864C639.233 161.672 637.857 163.192 635.489 163.192C632.961 163.192 631.569 161.64 631.569 161.64ZM641.292 163V151.64H645.164C648.668 151.64 650.956 153.72 650.956 157.304C650.956 160.888 648.668 163 645.164 163H641.292ZM643.356 161.224H645.052C647.356 161.224 648.828 159.864 648.828 157.304C648.828 154.776 647.324 153.416 645.052 153.416H643.356V161.224ZM657.011 163V151.64H660.883C664.387 151.64 666.675 153.72 666.675 157.304C666.675 160.888 664.387 163 660.883 163H657.011ZM659.075 161.224H660.771C663.075 161.224 664.547 159.864 664.547 157.304C664.547 154.776 663.043 153.416 660.771 153.416H659.075V161.224ZM667.943 158.92C667.943 156.408 669.655 154.648 672.087 154.648C674.439 154.648 675.703 156.36 675.703 158.52C675.703 158.76 675.655 159.304 675.655 159.304H670.023C670.151 160.728 671.255 161.464 672.471 161.464C673.783 161.464 674.823 160.568 674.823 160.568L675.607 162.024C675.607 162.024 674.359 163.192 672.327 163.192C669.623 163.192 667.943 161.24 667.943 158.92ZM670.087 157.912H673.655C673.623 156.808 672.935 156.216 672.039 156.216C670.999 156.216 670.279 156.856 670.087 157.912ZM676.69 161.992L677.618 160.568C677.618 160.568 678.514 161.464 679.842 161.464C680.418 161.464 680.914 161.208 680.914 160.728C680.914 159.512 676.946 159.672 676.946 157.048C676.946 155.528 678.306 154.648 680.066 154.648C681.906 154.648 682.802 155.576 682.802 155.576L682.05 157.08C682.05 157.08 681.298 156.376 680.05 156.376C679.522 156.376 679.01 156.6 679.01 157.112C679.01 158.264 682.978 158.12 682.978 160.744C682.978 162.104 681.794 163.192 679.858 163.192C677.826 163.192 676.69 161.992 676.69 161.992ZM684.613 163V151.64H686.645V157.72H687.653L689.621 154.84H691.877L689.301 158.488V158.52L692.197 163H689.861L687.701 159.432H686.645V163H684.613ZM693.793 160.008V156.584H692.737V154.968H693.841V152.616H695.825V154.968H697.681V156.584H695.825V159.752C695.825 161.096 696.881 161.288 697.441 161.288C697.665 161.288 697.809 161.256 697.809 161.256V163.032C697.809 163.032 697.569 163.08 697.185 163.08C696.049 163.08 693.793 162.744 693.793 160.008ZM698.864 158.92C698.864 156.424 700.864 154.648 703.344 154.648C705.84 154.648 707.84 156.424 707.84 158.92C707.84 161.432 705.84 163.192 703.36 163.192C700.864 163.192 698.864 161.432 698.864 158.92ZM700.928 158.92C700.928 160.44 702.032 161.464 703.36 161.464C704.672 161.464 705.776 160.44 705.776 158.92C705.776 157.416 704.672 156.376 703.36 156.376C702.032 156.376 700.928 157.416 700.928 158.92ZM709.472 166.2V154.84H711.328V155.432C711.328 155.736 711.296 155.992 711.296 155.992H711.328C711.328 155.992 712.032 154.648 713.952 154.648C716.16 154.648 717.568 156.392 717.568 158.92C717.568 161.512 715.984 163.192 713.84 163.192C712.224 163.192 711.504 162.072 711.504 162.072H711.472C711.472 162.072 711.504 162.36 711.504 162.776V166.2H709.472ZM711.44 158.968C711.44 160.232 712.128 161.48 713.472 161.48C714.592 161.48 715.52 160.568 715.52 158.952C715.52 157.4 714.688 156.392 713.488 156.392C712.432 156.392 711.44 157.16 711.44 158.968Z" fill="#005260"/>
<rect x="653.563" y="175" width="42" height="42" rx="21" fill="#005260"/>
<g clip-path="url(#clip5_889_4650)">
<path d="M684.705 203.607C686.1 203.607 687.228 202.466 687.228 201.071L687.241 188.393C687.241 186.999 686.1 185.858 684.705 185.858H664.421C663.026 185.858 661.885 186.999 661.885 188.393V201.071C661.885 202.466 663.026 203.607 664.421 203.607H659.35V206.142H689.776V203.607H684.705ZM664.421 188.393H684.705V201.071H664.421V188.393Z" fill="#E6F0F2"/>
</g>
<defs>
<clipPath id="clip0_889_4650">
<rect width="34.3742" height="34.3742" fill="white" transform="translate(60.3129 178.813)"/>
</clipPath>
<clipPath id="clip1_889_4650">
<rect width="33.6" height="33.6" fill="white" transform="translate(275.732 57.5078)"/>
</clipPath>
<clipPath id="clip2_889_4650">
<rect width="33.6" height="33.6" fill="white" transform="translate(275.732 107.008)"/>
</clipPath>
<clipPath id="clip3_889_4650">
<rect width="32" height="32" fill="white" transform="translate(276.531 205.308)"/>
</clipPath>
<clipPath id="clip4_889_4650">
<rect width="33" height="33" fill="white" transform="translate(276.031 252.808)"/>
</clipPath>
<clipPath id="clip5_889_4650">
<rect width="30.4266" height="30.4266" fill="white" transform="translate(659.35 180.787)"/>
</clipPath>
</defs>
</svg>
