<svg id="Layer_1" data-name="Layer 1" xmlns="http://www.w3.org/2000/svg" xmlns:xlink="http://www.w3.org/1999/xlink" viewBox="0 0 371.06 82.32"><defs><style>.cls-1{fill:none;}.cls-2{clip-path:url(#clip-path);}.cls-3{fill:#fff;}.cls-4{clip-path:url(#clip-path-2);}</style><clipPath id="clip-path" transform="translate(-43.87 -14.5)"><rect class="cls-1" x="36" y="6.96" width="142.56" height="102.08"/></clipPath><clipPath id="clip-path-2" transform="translate(-43.87 -14.5)"><rect class="cls-1" x="43.87" y="14.5" width="122.96" height="90.67"/></clipPath></defs><g class="cls-2"><path class="cls-3" d="M95.05,87.14l-.14-.08a.41.41,0,0,1-.24.1,8.58,8.58,0,0,1-1-.57A4.93,4.93,0,0,0,91.34,86c-3.14,0-4.85,2.6-4.85,5.4s1.71,5.39,4.79,5.39c2.43,0,3.11-1.35,3.71-1.35a.86.86,0,0,1,.13,0l.12-.06L94,93.68l-.14.09a1.52,1.52,0,0,1,0,.21c0,.71-1.24,1.43-2.44,1.4-2.28,0-3.2-2-3.2-4s1-3.92,3.16-3.92c1.15,0,2.33.6,2.33,1.16,0,.13,0,.22,0,.28l.18.07Zm5.64,8.46.17.07a.44.44,0,0,1,.22-.12,6.61,6.61,0,0,0,4,1.27c2.28,0,3.84-1.31,3.84-3.26,0-4.28-6.25-2.19-6.25-4.53,0-.89.53-1.55,2.16-1.55,1.27,0,2.77.54,2.77,1.31a.81.81,0,0,1,0,.16l.19.08,1-2.17-.15-.06a.43.43,0,0,1-.33.16,5.75,5.75,0,0,1-1-.47,5.84,5.84,0,0,0-2.37-.46c-2.28,0-3.89,1.1-3.89,3.06,0,4.11,6.19,1.93,6.19,4.56,0,1.2-.87,1.73-2.13,1.73-1.45,0-3.21-.81-3.21-1.57a1.7,1.7,0,0,1,0-.22l-.16-.08Zm22.4-8.46-.14-.08a.35.35,0,0,1-.23.1,7.74,7.74,0,0,1-1-.57,5,5,0,0,0-2.35-.56c-3.15,0-4.85,2.6-4.85,5.4s1.7,5.39,4.79,5.39c2.42,0,3.1-1.35,3.71-1.35a1.3,1.3,0,0,1,.13,0l.11-.06L122,93.68l-.15.09a.76.76,0,0,1,0,.21c0,.71-1.24,1.43-2.44,1.4-2.28,0-3.2-2-3.2-4s1-3.92,3.16-3.92c1.16,0,2.34.6,2.34,1.16a1.26,1.26,0,0,1,0,.28l.17.07Z" transform="translate(-43.87 -14.5)"/></g><g class="cls-4"><path class="cls-3" d="M105.59,76.46s-1.4-.22-1.43-.88C102.89,47,100.27,48.1,45.3,47c-1,0-1.43-1.51-1.43-1.51h61.72Z" transform="translate(-43.87 -14.5)"/><path class="cls-3" d="M105.11,14.5s1.4.22,1.43.87C107.81,44,110.43,42.86,165.4,44c1,0,1.43,1.51,1.43,1.51H105.11Z" transform="translate(-43.87 -14.5)"/></g><path class="cls-3" d="M200.32,42.79h11.62c10.51,0,17.37,6.24,17.37,17s-6.86,17.09-17.37,17.09H200.32ZM211.6,71.55c6.91,0,11.33-4.09,11.33-11.77s-4.51-11.66-11.33-11.66h-5.09V71.55Z" transform="translate(-43.87 -14.5)"/><path class="cls-3" d="M246.45,51.81c7.49,0,13.49,5.33,13.49,12.82s-6,12.82-13.44,12.82S233,72.17,233,64.63,239,51.81,246.45,51.81Zm.05,20.45a7.28,7.28,0,0,0,7.25-7.63,7.28,7.28,0,1,0-14.55,0A7.28,7.28,0,0,0,246.5,72.26Z" transform="translate(-43.87 -14.5)"/><path class="cls-3" d="M276.35,51.81c6.39,0,9.41,3.65,9.41,3.65l-2.69,4.18A9.58,9.58,0,0,0,276.69,57a7.28,7.28,0,0,0-7.44,7.58,7.45,7.45,0,0,0,7.63,7.68,11.26,11.26,0,0,0,7.2-3.12l2.35,4.33a13.94,13.94,0,0,1-10.08,4c-8.11,0-13.29-5.71-13.29-12.82C263.06,57.67,268.24,51.81,276.35,51.81Z" transform="translate(-43.87 -14.5)"/><path class="cls-3" d="M291.71,69.58a10.26,10.26,0,0,0,6.67,2.68c1.73,0,3.22-.76,3.22-2.2,0-3.65-11.9-3.17-11.9-11,0-4.56,4.08-7.21,9.36-7.21,5.52,0,8.21,2.79,8.21,2.79L305,59.11A9.31,9.31,0,0,0,299,57c-1.59,0-3.12.67-3.12,2.21,0,3.45,11.9,3,11.9,10.89,0,4.08-3.55,7.35-9.36,7.35a13.7,13.7,0,0,1-9.5-3.6Z" transform="translate(-43.87 -14.5)"/><path class="cls-3" d="M340.48,42.21c8.31,0,12.58,4.66,12.58,4.66l-3,4.61a15,15,0,0,0-9.31-3.6c-7.2,0-11.43,5.38-11.43,11.71s4.37,12.19,11.48,12.19a14.7,14.7,0,0,0,9.89-4.32L354,71.93a18.33,18.33,0,0,1-13.39,5.52c-10.42,0-17.62-7.73-17.62-17.76A17.14,17.14,0,0,1,340.48,42.21Z" transform="translate(-43.87 -14.5)"/><path class="cls-3" d="M360.45,68.14s3.69,3.6,8.49,3.6c2.6,0,4.95-1.35,4.95-4.13,0-6.1-16.08-5-16.08-15.51,0-5.66,4.89-9.89,11.42-9.89,6.72,0,10.18,3.65,10.18,3.65l-2.69,5a12.44,12.44,0,0,0-7.54-3c-2.88,0-5.13,1.68-5.13,4.08,0,6.05,16,4.56,16,15.45,0,5.43-4.13,10-11.23,10a16.48,16.48,0,0,1-11.76-4.66Z" transform="translate(-43.87 -14.5)"/><path class="cls-3" d="M401.44,42.21c8.3,0,12.58,4.66,12.58,4.66l-3,4.61a15,15,0,0,0-9.31-3.6c-7.2,0-11.43,5.38-11.43,11.71s4.37,12.19,11.48,12.19a14.7,14.7,0,0,0,9.89-4.32l3.26,4.47a18.35,18.35,0,0,1-13.39,5.52c-10.42,0-17.62-7.73-17.62-17.76A17.14,17.14,0,0,1,401.44,42.21Z" transform="translate(-43.87 -14.5)"/></svg>