<svg xmlns="http://www.w3.org/2000/svg" xmlns:xlink="http://www.w3.org/1999/xlink" viewBox="0 0 371.06 62.95"><defs><style>.cls-1{fill:none;}.cls-2{clip-path:url(#clip-path);}.cls-3{fill:#fff;}</style><clipPath id="clip-path" transform="translate(0 0)"><rect class="cls-1" width="122.96" height="90.67"/></clipPath></defs><title>Docs_CSC_logo</title><g id="Layer_2" data-name="Layer 2"><g id="Layer_1-2" data-name="Layer 1"><g class="cls-2"><path class="cls-3" d="M61.72,62s-1.4-.22-1.43-.87C59,32.49,56.4,33.6,1.43,32.49.4,32.47,0,31,0,31H61.72Z" transform="translate(0 0)"/><path class="cls-3" d="M61.24,0s1.41.22,1.43.87c1.28,28.6,3.9,27.49,58.86,28.6,1,0,1.43,1.51,1.43,1.51H61.24Z" transform="translate(0 0)"/></g><path class="cls-3" d="M156.45,28.29h11.62c10.51,0,17.38,6.24,17.38,17s-6.87,17.09-17.38,17.09H156.45Zm11.29,28.76c6.91,0,11.32-4.08,11.32-11.76s-4.51-11.67-11.32-11.67h-5.09V57.05Z" transform="translate(0 0)"/><path class="cls-3" d="M202.58,37.32c7.49,0,13.49,5.33,13.49,12.82S210.07,63,202.63,63s-13.49-5.28-13.49-12.81S195.14,37.32,202.58,37.32Zm0,20.45a7.27,7.27,0,0,0,7.25-7.63,7.28,7.28,0,1,0-14.55,0A7.29,7.29,0,0,0,202.63,57.77Z" transform="translate(0 0)"/><path class="cls-3" d="M232.49,37.32c6.38,0,9.41,3.65,9.41,3.65l-2.69,4.17a9.62,9.62,0,0,0-6.39-2.64,7.28,7.28,0,0,0-7.44,7.59A7.45,7.45,0,0,0,233,57.77a11.3,11.3,0,0,0,7.21-3.12L242.57,59a14,14,0,0,1-10.08,4c-8.12,0-13.3-5.71-13.3-12.81S224.37,37.32,232.49,37.32Z" transform="translate(0 0)"/><path class="cls-3" d="M247.85,55.08a10.21,10.21,0,0,0,6.67,2.69c1.73,0,3.21-.77,3.21-2.21,0-3.65-11.9-3.17-11.9-11,0-4.56,4.08-7.2,9.36-7.2,5.52,0,8.21,2.78,8.21,2.78l-2.26,4.51a9.28,9.28,0,0,0-6-2.11c-1.58,0-3.12.68-3.12,2.21,0,3.46,11.91,3,11.91,10.9,0,4.08-3.55,7.34-9.36,7.34a13.71,13.71,0,0,1-9.51-3.6Z" transform="translate(0 0)"/><path class="cls-3" d="M296.61,27.72c8.31,0,12.58,4.65,12.58,4.65l-3,4.61a15,15,0,0,0-9.32-3.6c-7.2,0-11.42,5.38-11.42,11.72S289.85,57.29,297,57.29A14.67,14.67,0,0,0,306.84,53l3.26,4.46A18.33,18.33,0,0,1,296.71,63c-10.42,0-17.62-7.73-17.62-17.76A17.13,17.13,0,0,1,296.61,27.72Z" transform="translate(0 0)"/><path class="cls-3" d="M316.58,53.64s3.7,3.6,8.5,3.6c2.59,0,4.94-1.34,4.94-4.13,0-6.09-16.08-5-16.08-15.5,0-5.67,4.9-9.89,11.43-9.89,6.72,0,10.17,3.65,10.17,3.65l-2.68,5a12.46,12.46,0,0,0-7.54-3c-2.88,0-5.14,1.68-5.14,4.08,0,6.05,16,4.56,16,15.46,0,5.42-4.13,10-11.24,10a16.52,16.52,0,0,1-11.76-4.65Z" transform="translate(0 0)"/><path class="cls-3" d="M357.57,27.72c8.31,0,12.58,4.65,12.58,4.65l-3,4.61a15,15,0,0,0-9.32-3.6c-7.2,0-11.42,5.38-11.42,11.72s4.36,12.19,11.47,12.19A14.7,14.7,0,0,0,367.8,53l3.26,4.46A18.33,18.33,0,0,1,357.67,63c-10.42,0-17.62-7.73-17.62-17.76A17.13,17.13,0,0,1,357.57,27.72Z" transform="translate(0 0)"/></g></g></svg>