<svg width="131" height="159" viewBox="0 0 131 159" fill="none" xmlns="http://www.w3.org/2000/svg">
<path d="M71.8182 5.65454H7C4.23858 5.65454 2 7.89311 2 10.6545V122.836C2 125.598 4.23857 127.836 6.99999 127.836H105.218C107.98 127.836 110.218 125.598 110.218 122.836V45.2182" stroke="#003E48" stroke-width="4" stroke-linecap="round"/>
<rect x="11" y="25" width="49" height="10" rx="5" fill="#006778"/>
<rect x="45.0546" y="85" width="45.3818" height="10" rx="5" fill="#006778"/>
<rect x="45" y="45" width="50" height="10" rx="5" fill="#830051"/>
<rect x="18" y="105" width="51" height="10" rx="5" fill="#830051"/>
<rect x="24" y="65" width="36" height="10" rx="5" fill="#5E6A71"/>
<path d="M70.6545 18.8909H99.3709V34.7454C99.3709 34.7454 99.6294 22.9849 95.0266 21.1631C90.4239 19.3414 70.6545 18.8909 70.6545 18.8909Z" fill="#003E48" stroke="#003E48" stroke-width="2"/>
<path d="M130 16.8545H101.284V1C101.284 1 101.086 12.7849 105.627 14.5823C110.168 16.3797 130 16.8545 130 16.8545Z" fill="#003E48" stroke="#003E48" stroke-width="2"/>
<path d="M3.943 144.766C3.943 149.573 7.393 153.276 12.384 153.276C16.547 153.276 18.801 150.631 18.801 150.631L17.237 148.492C17.237 148.492 15.328 150.562 12.499 150.562C9.095 150.562 7.002 147.825 7.002 144.72C7.002 141.684 9.026 139.108 12.476 139.108C15.075 139.108 16.938 140.833 16.938 140.833L18.364 138.625C18.364 138.625 16.317 136.394 12.338 136.394C7.531 136.394 3.943 140.028 3.943 144.766ZM20.2919 151.045C20.2919 151.045 22.2929 153.276 25.9269 153.276C29.3309 153.276 31.3089 151.091 31.3089 148.492C31.3089 143.271 23.6269 143.984 23.6269 141.086C23.6269 139.936 24.7079 139.131 26.0879 139.131C28.1349 139.131 29.6989 140.557 29.6989 140.557L30.9869 138.142C30.9869 138.142 29.3309 136.394 26.1109 136.394C22.9829 136.394 20.6369 138.418 20.6369 141.132C20.6369 146.146 28.3419 145.64 28.3419 148.561C28.3419 149.895 27.2149 150.539 25.9729 150.539C23.6729 150.539 21.9019 148.814 21.9019 148.814L20.2919 151.045ZM33.1422 144.766C33.1422 149.573 36.5922 153.276 41.5832 153.276C45.7462 153.276 48.0002 150.631 48.0002 150.631L46.4362 148.492C46.4362 148.492 44.5272 150.562 41.6982 150.562C38.2942 150.562 36.2012 147.825 36.2012 144.72C36.2012 141.684 38.2252 139.108 41.6752 139.108C44.2742 139.108 46.1372 140.833 46.1372 140.833L47.5632 138.625C47.5632 138.625 45.5162 136.394 41.5372 136.394C36.7302 136.394 33.1422 140.028 33.1422 144.766ZM56.3259 153H61.8919C66.9289 153 70.2179 149.964 70.2179 144.812C70.2179 139.66 66.9289 136.67 61.8919 136.67H56.3259V153ZM59.2929 150.447V139.223H61.7309C64.9969 139.223 67.1589 141.178 67.1589 144.812C67.1589 148.492 65.0429 150.447 61.7309 150.447H59.2929ZM71.9948 147.135C71.9948 150.746 74.8698 153.276 78.4578 153.276C82.0228 153.276 84.8978 150.746 84.8978 147.135C84.8978 143.547 82.0228 140.994 78.4348 140.994C74.8698 140.994 71.9948 143.547 71.9948 147.135ZM74.9618 147.135C74.9618 144.973 76.5488 143.478 78.4578 143.478C80.3438 143.478 81.9308 144.973 81.9308 147.135C81.9308 149.32 80.3438 150.792 78.4578 150.792C76.5488 150.792 74.9618 149.32 74.9618 147.135ZM86.3928 147.135C86.3928 150.539 88.8768 153.276 92.7638 153.276C95.9148 153.276 97.5938 151.367 97.5938 151.367L96.4668 149.297C96.4668 149.297 94.9948 150.792 93.0168 150.792C90.7858 150.792 89.3598 149.09 89.3598 147.112C89.3598 145.111 90.7628 143.478 92.9248 143.478C94.7648 143.478 95.9838 144.743 95.9838 144.743L97.2718 142.742C97.2718 142.742 95.8228 140.994 92.7638 140.994C88.8768 140.994 86.3928 143.8 86.3928 147.135ZM98.788 151.551C98.788 151.551 100.421 153.276 103.342 153.276C106.125 153.276 107.827 151.712 107.827 149.757C107.827 145.985 102.123 146.192 102.123 144.536C102.123 143.8 102.859 143.478 103.618 143.478C105.412 143.478 106.493 144.49 106.493 144.49L107.574 142.328C107.574 142.328 106.286 140.994 103.641 140.994C101.111 140.994 99.156 142.259 99.156 144.444C99.156 148.216 104.86 147.986 104.86 149.734C104.86 150.424 104.147 150.792 103.319 150.792C101.41 150.792 100.122 149.504 100.122 149.504L98.788 151.551Z" fill="#003E48"/>
</svg>
