<svg width="17" height="18" viewBox="0 0 17 18" fill="none" xmlns="http://www.w3.org/2000/svg">
<path d="M9.42928 1.61536H3C1.89543 1.61536 1 2.51079 1 3.61536V14.5487C1 15.6533 1.89543 16.5487 3 16.5487H12.2308C13.3353 16.5487 14.2308 15.6533 14.2308 14.5487V6.5" stroke="#003E48" stroke-linecap="round"/>
<rect x="2.06665" y="4.20001" width="7.46667" height="1.6" rx="0.8" fill="#006778"/>
<rect x="6.33331" y="12.9" width="5.33333" height="1.6" rx="0.8" fill="#006778"/>
<rect x="6.33331" y="7.39999" width="6.4" height="1.6" rx="0.8" fill="#830051"/>
<rect x="3.1333" y="10.0667" width="5.33333" height="1.6" rx="0.8" fill="#5E6A71"/>
<path d="M9.30768 3.10526H12.5456V5C12.5456 5 12.5747 3.59451 12.0558 3.3768C11.5368 3.15909 9.30768 3.10526 9.30768 3.10526Z" fill="#003E48" stroke="#003E48" stroke-width="0.3"/>
<path d="M16.0001 2.89474H12.762V1C12.762 1 12.7397 2.40839 13.2518 2.6232C13.7638 2.838 16.0001 2.89474 16.0001 2.89474Z" fill="#003E48" stroke="#003E48" stroke-width="0.3"/>
</svg>
