<svg width="34" height="46" viewBox="0 0 34 46" fill="none" xmlns="http://www.w3.org/2000/svg">
<path d="M19.0777 1.5675H4C2.34315 1.5675 1 2.91065 1 4.5675V32.6177C1 34.2745 2.34315 35.6177 4 35.6177H26.3751C28.032 35.6177 29.3751 34.2745 29.3751 32.6177V11.5" stroke="#003E48" stroke-width="1.5" stroke-linecap="round"/>
<rect x="3.66663" y="7.66663" width="14.6667" height="2.66667" rx="1.33333" fill="#006778"/>
<rect x="13.485" y="23.6666" width="11.3501" height="2.83751" rx="1.41876" fill="#006778"/>
<rect x="12.9176" y="13" width="13.0526" height="2.66667" rx="1.33333" fill="#830051"/>
<rect x="6.10748" y="29" width="13.0526" height="2.66667" rx="1.33333" fill="#830051"/>
<rect x="7.24249" y="18.3334" width="10.2151" height="2.66667" rx="1.33333" fill="#5E6A71"/>
<path d="M19.16 5.21057H25.8561V9.00005C25.8561 9.00005 25.9164 6.18909 24.8431 5.75367C23.7699 5.31824 19.16 5.21057 19.16 5.21057Z" fill="#003E48" stroke="#003E48" stroke-width="0.6"/>
<path d="M32.9999 4.78948H26.3035V1C26.3035 1 26.2575 3.81679 27.3164 4.24639C28.3753 4.67599 32.9999 4.78948 32.9999 4.78948Z" fill="#003E48" stroke="#003E48" stroke-width="0.6"/>
<path d="M1.246 42.852C1.246 44.106 2.146 45.072 3.448 45.072C4.534 45.072 5.122 44.382 5.122 44.382L4.714 43.824C4.714 43.824 4.216 44.364 3.478 44.364C2.59 44.364 2.044 43.65 2.044 42.84C2.044 42.048 2.572 41.376 3.472 41.376C4.15 41.376 4.636 41.826 4.636 41.826L5.008 41.25C5.008 41.25 4.474 40.668 3.436 40.668C2.182 40.668 1.246 41.616 1.246 42.852ZM5.51092 44.49C5.51092 44.49 6.03292 45.072 6.98092 45.072C7.86892 45.072 8.38492 44.502 8.38492 43.824C8.38492 42.462 6.38092 42.648 6.38092 41.892C6.38092 41.592 6.66292 41.382 7.02292 41.382C7.55692 41.382 7.96492 41.754 7.96492 41.754L8.30092 41.124C8.30092 41.124 7.86892 40.668 7.02892 40.668C6.21292 40.668 5.60092 41.196 5.60092 41.904C5.60092 43.212 7.61092 43.08 7.61092 43.842C7.61092 44.19 7.31692 44.358 6.99292 44.358C6.39292 44.358 5.93092 43.908 5.93092 43.908L5.51092 44.49ZM8.86319 42.852C8.86319 44.106 9.76319 45.072 11.0652 45.072C12.1512 45.072 12.7392 44.382 12.7392 44.382L12.3312 43.824C12.3312 43.824 11.8332 44.364 11.0952 44.364C10.2072 44.364 9.66119 43.65 9.66119 42.84C9.66119 42.048 10.1892 41.376 11.0892 41.376C11.7672 41.376 12.2532 41.826 12.2532 41.826L12.6252 41.25C12.6252 41.25 12.0912 40.668 11.0532 40.668C9.79919 40.668 8.86319 41.616 8.86319 42.852ZM14.9111 45H16.3631C17.6771 45 18.5351 44.208 18.5351 42.864C18.5351 41.52 17.6771 40.74 16.3631 40.74H14.9111V45ZM15.6851 44.334V41.406H16.3211C17.1731 41.406 17.7371 41.916 17.7371 42.864C17.7371 43.824 17.1851 44.334 16.3211 44.334H15.6851ZM18.9986 43.47C18.9986 44.412 19.7486 45.072 20.6846 45.072C21.6146 45.072 22.3646 44.412 22.3646 43.47C22.3646 42.534 21.6146 41.868 20.6786 41.868C19.7486 41.868 18.9986 42.534 18.9986 43.47ZM19.7726 43.47C19.7726 42.906 20.1866 42.516 20.6846 42.516C21.1766 42.516 21.5906 42.906 21.5906 43.47C21.5906 44.04 21.1766 44.424 20.6846 44.424C20.1866 44.424 19.7726 44.04 19.7726 43.47ZM22.7546 43.47C22.7546 44.358 23.4026 45.072 24.4166 45.072C25.2386 45.072 25.6766 44.574 25.6766 44.574L25.3826 44.034C25.3826 44.034 24.9986 44.424 24.4826 44.424C23.9006 44.424 23.5286 43.98 23.5286 43.464C23.5286 42.942 23.8946 42.516 24.4586 42.516C24.9386 42.516 25.2566 42.846 25.2566 42.846L25.5926 42.324C25.5926 42.324 25.2146 41.868 24.4166 41.868C23.4026 41.868 22.7546 42.6 22.7546 43.47ZM25.9882 44.622C25.9882 44.622 26.4142 45.072 27.1762 45.072C27.9022 45.072 28.3462 44.664 28.3462 44.154C28.3462 43.17 26.8582 43.224 26.8582 42.792C26.8582 42.6 27.0502 42.516 27.2482 42.516C27.7162 42.516 27.9982 42.78 27.9982 42.78L28.2802 42.216C28.2802 42.216 27.9442 41.868 27.2542 41.868C26.5942 41.868 26.0842 42.198 26.0842 42.768C26.0842 43.752 27.5722 43.692 27.5722 44.148C27.5722 44.328 27.3862 44.424 27.1702 44.424C26.6722 44.424 26.3362 44.088 26.3362 44.088L25.9882 44.622Z" fill="#003E48"/>
</svg>
