<svg width="67" height="85" viewBox="0 0 67 85" fill="none" xmlns="http://www.w3.org/2000/svg">
<path d="M4.451 78.062C4.451 80.361 6.101 82.132 8.488 82.132C10.479 82.132 11.557 80.867 11.557 80.867L10.809 79.844C10.809 79.844 9.896 80.834 8.543 80.834C6.915 80.834 5.914 79.525 5.914 78.04C5.914 76.588 6.882 75.356 8.532 75.356C9.775 75.356 10.666 76.181 10.666 76.181L11.348 75.125C11.348 75.125 10.369 74.058 8.466 74.058C6.167 74.058 4.451 75.796 4.451 78.062ZM12.27 81.065C12.27 81.065 13.227 82.132 14.965 82.132C16.593 82.132 17.539 81.087 17.539 79.844C17.539 77.347 13.865 77.688 13.865 76.302C13.865 75.752 14.382 75.367 15.042 75.367C16.021 75.367 16.769 76.049 16.769 76.049L17.385 74.894C17.385 74.894 16.593 74.058 15.053 74.058C13.557 74.058 12.435 75.026 12.435 76.324C12.435 78.722 16.12 78.48 16.12 79.877C16.12 80.515 15.581 80.823 14.987 80.823C13.887 80.823 13.04 79.998 13.04 79.998L12.27 81.065ZM18.4158 78.062C18.4158 80.361 20.0658 82.132 22.4528 82.132C24.4438 82.132 25.5218 80.867 25.5218 80.867L24.7738 79.844C24.7738 79.844 23.8608 80.834 22.5078 80.834C20.8798 80.834 19.8788 79.525 19.8788 78.04C19.8788 76.588 20.8468 75.356 22.4968 75.356C23.7398 75.356 24.6308 76.181 24.6308 76.181L25.3128 75.125C25.3128 75.125 24.3338 74.058 22.4308 74.058C20.1318 74.058 18.4158 75.796 18.4158 78.062ZM29.5037 82H32.1657C34.5747 82 36.1477 80.548 36.1477 78.084C36.1477 75.62 34.5747 74.19 32.1657 74.19H29.5037V82ZM30.9227 80.779V75.411H32.0887C33.6507 75.411 34.6847 76.346 34.6847 78.084C34.6847 79.844 33.6727 80.779 32.0887 80.779H30.9227ZM36.9975 79.195C36.9975 80.922 38.3725 82.132 40.0885 82.132C41.7935 82.132 43.1685 80.922 43.1685 79.195C43.1685 77.479 41.7935 76.258 40.0775 76.258C38.3725 76.258 36.9975 77.479 36.9975 79.195ZM38.4165 79.195C38.4165 78.161 39.1755 77.446 40.0885 77.446C40.9905 77.446 41.7495 78.161 41.7495 79.195C41.7495 80.24 40.9905 80.944 40.0885 80.944C39.1755 80.944 38.4165 80.24 38.4165 79.195ZM43.8835 79.195C43.8835 80.823 45.0715 82.132 46.9305 82.132C48.4375 82.132 49.2405 81.219 49.2405 81.219L48.7015 80.229C48.7015 80.229 47.9975 80.944 47.0515 80.944C45.9845 80.944 45.3025 80.13 45.3025 79.184C45.3025 78.227 45.9735 77.446 47.0075 77.446C47.8875 77.446 48.4705 78.051 48.4705 78.051L49.0865 77.094C49.0865 77.094 48.3935 76.258 46.9305 76.258C45.0715 76.258 43.8835 77.6 43.8835 79.195ZM49.8116 81.307C49.8116 81.307 50.5926 82.132 51.9896 82.132C53.3206 82.132 54.1346 81.384 54.1346 80.449C54.1346 78.645 51.4066 78.744 51.4066 77.952C51.4066 77.6 51.7586 77.446 52.1216 77.446C52.9796 77.446 53.4966 77.93 53.4966 77.93L54.0136 76.896C54.0136 76.896 53.3976 76.258 52.1326 76.258C50.9226 76.258 49.9876 76.863 49.9876 77.908C49.9876 79.712 52.7156 79.602 52.7156 80.438C52.7156 80.768 52.3746 80.944 51.9786 80.944C51.0656 80.944 50.4496 80.328 50.4496 80.328L49.8116 81.307Z" fill="#003E48"/>
<path d="M36.7092 2.08197H7C4.23858 2.08197 2 4.32055 2 7.08198V62C2 64.7614 4.23858 67 7.00001 67H51.4803C54.2417 67 56.4803 64.7614 56.4803 62V24.8033" stroke="#003E48" stroke-width="3" stroke-linecap="round"/>
<rect x="7.448" y="12.9016" width="23.9713" height="5.40984" rx="2.70492" fill="#006778"/>
<rect x="25.9713" y="45.3607" width="21.7921" height="5.40984" rx="2.70492" fill="#006778"/>
<rect x="24.8817" y="23.7213" width="25.0609" height="5.40984" rx="2.70492" fill="#830051"/>
<rect x="11.8065" y="55.0984" width="25.0609" height="5.40984" rx="2.70492" fill="#830051"/>
<rect x="13.9857" y="34.541" width="19.6129" height="5.40984" rx="2.70492" fill="#5E6A71"/>
<path d="M36.8674 10.1113H50.9625V18.3115C50.9625 18.3115 51.0894 12.2287 48.8302 11.2865C46.571 10.3443 36.8674 10.1113 36.8674 10.1113Z" fill="#003E48" stroke="#003E48"/>
<path d="M66 9.20019H51.9042V1C51.9042 1 51.8073 7.09534 54.0363 8.02497C56.2652 8.9546 66 9.20019 66 9.20019Z" fill="#003E48" stroke="#003E48"/>
</svg>
