<?xml version="1.0" encoding="utf-8" standalone="no"?>
<!DOCTYPE svg PUBLIC "-//W3C//DTD SVG 1.1//EN"
  "http://www.w3.org/Graphics/SVG/1.1/DTD/svg11.dtd">
<svg height="216pt" version="1.1" viewBox="0 0 252 216" width="252pt" xmlns="http://www.w3.org/2000/svg" xmlns:xlink="http://www.w3.org/1999/xlink">
 <metadata>
  <rdf:RDF xmlns:cc="http://creativecommons.org/ns#" xmlns:dc="http://purl.org/dc/elements/1.1/" xmlns:rdf="http://www.w3.org/1999/02/22-rdf-syntax-ns#">
   <cc:Work>
    <dc:type rdf:resource="http://purl.org/dc/dcmitype/StillImage"/>
    <dc:date>2022-02-24T08:38:18.772752</dc:date>
    <dc:format>image/svg+xml</dc:format>
    <dc:creator>
     <cc:Agent>
      <dc:title>Matplotlib v3.4.2, https://matplotlib.org/</dc:title>
     </cc:Agent>
    </dc:creator>
   </cc:Work>
  </rdf:RDF>
 </metadata>
 <defs>
  <style type="text/css">*{stroke-linecap:butt;stroke-linejoin:round;}</style>
 </defs>
 <g id="figure_1">
  <g id="patch_1">
   <path d="M 0 216 
L 252 216 
L 252 0 
L 0 0 
z
" style="fill:#ffffff;"/>
  </g>
  <g id="axes_1">
   <g id="patch_2">
    <path d="M 50.7 177.54 
L 241.2 177.54 
L 241.2 10.8 
L 50.7 10.8 
z
" style="fill:#ffffff;"/>
   </g>
   <g id="matplotlib.axis_1">
    <g id="xtick_1">
     <g id="line2d_1">
      <defs>
       <path d="M 0 0 
L 0 -3.5 
" id="med594ff058" style="stroke:#000000;stroke-width:0.8;"/>
      </defs>
      <g>
       <use style="stroke:#000000;stroke-width:0.8;" x="59.359091" xlink:href="#med594ff058" y="177.54"/>
      </g>
     </g>
     <g id="line2d_2">
      <defs>
       <path d="M 0 0 
L 0 3.5 
" id="m646451392a" style="stroke:#000000;stroke-width:0.8;"/>
      </defs>
      <g>
       <use style="stroke:#000000;stroke-width:0.8;" x="59.359091" xlink:href="#m646451392a" y="10.8"/>
      </g>
     </g>
     <g id="text_1">
      <!-- 0.0 -->
      <g transform="translate(51.407528 188.638437)scale(0.1 -0.1)">
       <defs>
        <path d="M 2034 4250 
Q 1547 4250 1301 3770 
Q 1056 3291 1056 2328 
Q 1056 1369 1301 889 
Q 1547 409 2034 409 
Q 2525 409 2770 889 
Q 3016 1369 3016 2328 
Q 3016 3291 2770 3770 
Q 2525 4250 2034 4250 
z
M 2034 4750 
Q 2819 4750 3233 4129 
Q 3647 3509 3647 2328 
Q 3647 1150 3233 529 
Q 2819 -91 2034 -91 
Q 1250 -91 836 529 
Q 422 1150 422 2328 
Q 422 3509 836 4129 
Q 1250 4750 2034 4750 
z
" id="DejaVuSans-30" transform="scale(0.015625)"/>
        <path d="M 684 794 
L 1344 794 
L 1344 0 
L 684 0 
L 684 794 
z
" id="DejaVuSans-2e" transform="scale(0.015625)"/>
       </defs>
       <use xlink:href="#DejaVuSans-30"/>
       <use x="63.623047" xlink:href="#DejaVuSans-2e"/>
       <use x="95.410156" xlink:href="#DejaVuSans-30"/>
      </g>
     </g>
    </g>
    <g id="xtick_2">
     <g id="line2d_3">
      <g>
       <use style="stroke:#000000;stroke-width:0.8;" x="93.995455" xlink:href="#med594ff058" y="177.54"/>
      </g>
     </g>
     <g id="line2d_4">
      <g>
       <use style="stroke:#000000;stroke-width:0.8;" x="93.995455" xlink:href="#m646451392a" y="10.8"/>
      </g>
     </g>
     <g id="text_2">
      <!-- 0.2 -->
      <g transform="translate(86.043892 188.638437)scale(0.1 -0.1)">
       <defs>
        <path d="M 1228 531 
L 3431 531 
L 3431 0 
L 469 0 
L 469 531 
Q 828 903 1448 1529 
Q 2069 2156 2228 2338 
Q 2531 2678 2651 2914 
Q 2772 3150 2772 3378 
Q 2772 3750 2511 3984 
Q 2250 4219 1831 4219 
Q 1534 4219 1204 4116 
Q 875 4013 500 3803 
L 500 4441 
Q 881 4594 1212 4672 
Q 1544 4750 1819 4750 
Q 2544 4750 2975 4387 
Q 3406 4025 3406 3419 
Q 3406 3131 3298 2873 
Q 3191 2616 2906 2266 
Q 2828 2175 2409 1742 
Q 1991 1309 1228 531 
z
" id="DejaVuSans-32" transform="scale(0.015625)"/>
       </defs>
       <use xlink:href="#DejaVuSans-30"/>
       <use x="63.623047" xlink:href="#DejaVuSans-2e"/>
       <use x="95.410156" xlink:href="#DejaVuSans-32"/>
      </g>
     </g>
    </g>
    <g id="xtick_3">
     <g id="line2d_5">
      <g>
       <use style="stroke:#000000;stroke-width:0.8;" x="128.631818" xlink:href="#med594ff058" y="177.54"/>
      </g>
     </g>
     <g id="line2d_6">
      <g>
       <use style="stroke:#000000;stroke-width:0.8;" x="128.631818" xlink:href="#m646451392a" y="10.8"/>
      </g>
     </g>
     <g id="text_3">
      <!-- 0.4 -->
      <g transform="translate(120.680256 188.638437)scale(0.1 -0.1)">
       <defs>
        <path d="M 2419 4116 
L 825 1625 
L 2419 1625 
L 2419 4116 
z
M 2253 4666 
L 3047 4666 
L 3047 1625 
L 3713 1625 
L 3713 1100 
L 3047 1100 
L 3047 0 
L 2419 0 
L 2419 1100 
L 313 1100 
L 313 1709 
L 2253 4666 
z
" id="DejaVuSans-34" transform="scale(0.015625)"/>
       </defs>
       <use xlink:href="#DejaVuSans-30"/>
       <use x="63.623047" xlink:href="#DejaVuSans-2e"/>
       <use x="95.410156" xlink:href="#DejaVuSans-34"/>
      </g>
     </g>
    </g>
    <g id="xtick_4">
     <g id="line2d_7">
      <g>
       <use style="stroke:#000000;stroke-width:0.8;" x="163.268182" xlink:href="#med594ff058" y="177.54"/>
      </g>
     </g>
     <g id="line2d_8">
      <g>
       <use style="stroke:#000000;stroke-width:0.8;" x="163.268182" xlink:href="#m646451392a" y="10.8"/>
      </g>
     </g>
     <g id="text_4">
      <!-- 0.6 -->
      <g transform="translate(155.316619 188.638437)scale(0.1 -0.1)">
       <defs>
        <path d="M 2113 2584 
Q 1688 2584 1439 2293 
Q 1191 2003 1191 1497 
Q 1191 994 1439 701 
Q 1688 409 2113 409 
Q 2538 409 2786 701 
Q 3034 994 3034 1497 
Q 3034 2003 2786 2293 
Q 2538 2584 2113 2584 
z
M 3366 4563 
L 3366 3988 
Q 3128 4100 2886 4159 
Q 2644 4219 2406 4219 
Q 1781 4219 1451 3797 
Q 1122 3375 1075 2522 
Q 1259 2794 1537 2939 
Q 1816 3084 2150 3084 
Q 2853 3084 3261 2657 
Q 3669 2231 3669 1497 
Q 3669 778 3244 343 
Q 2819 -91 2113 -91 
Q 1303 -91 875 529 
Q 447 1150 447 2328 
Q 447 3434 972 4092 
Q 1497 4750 2381 4750 
Q 2619 4750 2861 4703 
Q 3103 4656 3366 4563 
z
" id="DejaVuSans-36" transform="scale(0.015625)"/>
       </defs>
       <use xlink:href="#DejaVuSans-30"/>
       <use x="63.623047" xlink:href="#DejaVuSans-2e"/>
       <use x="95.410156" xlink:href="#DejaVuSans-36"/>
      </g>
     </g>
    </g>
    <g id="xtick_5">
     <g id="line2d_9">
      <g>
       <use style="stroke:#000000;stroke-width:0.8;" x="197.904545" xlink:href="#med594ff058" y="177.54"/>
      </g>
     </g>
     <g id="line2d_10">
      <g>
       <use style="stroke:#000000;stroke-width:0.8;" x="197.904545" xlink:href="#m646451392a" y="10.8"/>
      </g>
     </g>
     <g id="text_5">
      <!-- 0.8 -->
      <g transform="translate(189.952983 188.638437)scale(0.1 -0.1)">
       <defs>
        <path d="M 2034 2216 
Q 1584 2216 1326 1975 
Q 1069 1734 1069 1313 
Q 1069 891 1326 650 
Q 1584 409 2034 409 
Q 2484 409 2743 651 
Q 3003 894 3003 1313 
Q 3003 1734 2745 1975 
Q 2488 2216 2034 2216 
z
M 1403 2484 
Q 997 2584 770 2862 
Q 544 3141 544 3541 
Q 544 4100 942 4425 
Q 1341 4750 2034 4750 
Q 2731 4750 3128 4425 
Q 3525 4100 3525 3541 
Q 3525 3141 3298 2862 
Q 3072 2584 2669 2484 
Q 3125 2378 3379 2068 
Q 3634 1759 3634 1313 
Q 3634 634 3220 271 
Q 2806 -91 2034 -91 
Q 1263 -91 848 271 
Q 434 634 434 1313 
Q 434 1759 690 2068 
Q 947 2378 1403 2484 
z
M 1172 3481 
Q 1172 3119 1398 2916 
Q 1625 2713 2034 2713 
Q 2441 2713 2670 2916 
Q 2900 3119 2900 3481 
Q 2900 3844 2670 4047 
Q 2441 4250 2034 4250 
Q 1625 4250 1398 4047 
Q 1172 3844 1172 3481 
z
" id="DejaVuSans-38" transform="scale(0.015625)"/>
       </defs>
       <use xlink:href="#DejaVuSans-30"/>
       <use x="63.623047" xlink:href="#DejaVuSans-2e"/>
       <use x="95.410156" xlink:href="#DejaVuSans-38"/>
      </g>
     </g>
    </g>
    <g id="xtick_6">
     <g id="line2d_11">
      <g>
       <use style="stroke:#000000;stroke-width:0.8;" x="232.540909" xlink:href="#med594ff058" y="177.54"/>
      </g>
     </g>
     <g id="line2d_12">
      <g>
       <use style="stroke:#000000;stroke-width:0.8;" x="232.540909" xlink:href="#m646451392a" y="10.8"/>
      </g>
     </g>
     <g id="text_6">
      <!-- 1.0 -->
      <g transform="translate(224.589347 188.638437)scale(0.1 -0.1)">
       <defs>
        <path d="M 794 531 
L 1825 531 
L 1825 4091 
L 703 3866 
L 703 4441 
L 1819 4666 
L 2450 4666 
L 2450 531 
L 3481 531 
L 3481 0 
L 794 0 
L 794 531 
z
" id="DejaVuSans-31" transform="scale(0.015625)"/>
       </defs>
       <use xlink:href="#DejaVuSans-31"/>
       <use x="63.623047" xlink:href="#DejaVuSans-2e"/>
       <use x="95.410156" xlink:href="#DejaVuSans-30"/>
      </g>
     </g>
    </g>
    <g id="text_7">
     <!-- Time (ns) -->
     <g transform="translate(122.452344 202.316562)scale(0.1 -0.1)">
      <defs>
       <path d="M -19 4666 
L 3928 4666 
L 3928 4134 
L 2272 4134 
L 2272 0 
L 1638 0 
L 1638 4134 
L -19 4134 
L -19 4666 
z
" id="DejaVuSans-54" transform="scale(0.015625)"/>
       <path d="M 603 3500 
L 1178 3500 
L 1178 0 
L 603 0 
L 603 3500 
z
M 603 4863 
L 1178 4863 
L 1178 4134 
L 603 4134 
L 603 4863 
z
" id="DejaVuSans-69" transform="scale(0.015625)"/>
       <path d="M 3328 2828 
Q 3544 3216 3844 3400 
Q 4144 3584 4550 3584 
Q 5097 3584 5394 3201 
Q 5691 2819 5691 2113 
L 5691 0 
L 5113 0 
L 5113 2094 
Q 5113 2597 4934 2840 
Q 4756 3084 4391 3084 
Q 3944 3084 3684 2787 
Q 3425 2491 3425 1978 
L 3425 0 
L 2847 0 
L 2847 2094 
Q 2847 2600 2669 2842 
Q 2491 3084 2119 3084 
Q 1678 3084 1418 2786 
Q 1159 2488 1159 1978 
L 1159 0 
L 581 0 
L 581 3500 
L 1159 3500 
L 1159 2956 
Q 1356 3278 1631 3431 
Q 1906 3584 2284 3584 
Q 2666 3584 2933 3390 
Q 3200 3197 3328 2828 
z
" id="DejaVuSans-6d" transform="scale(0.015625)"/>
       <path d="M 3597 1894 
L 3597 1613 
L 953 1613 
Q 991 1019 1311 708 
Q 1631 397 2203 397 
Q 2534 397 2845 478 
Q 3156 559 3463 722 
L 3463 178 
Q 3153 47 2828 -22 
Q 2503 -91 2169 -91 
Q 1331 -91 842 396 
Q 353 884 353 1716 
Q 353 2575 817 3079 
Q 1281 3584 2069 3584 
Q 2775 3584 3186 3129 
Q 3597 2675 3597 1894 
z
M 3022 2063 
Q 3016 2534 2758 2815 
Q 2500 3097 2075 3097 
Q 1594 3097 1305 2825 
Q 1016 2553 972 2059 
L 3022 2063 
z
" id="DejaVuSans-65" transform="scale(0.015625)"/>
       <path id="DejaVuSans-20" transform="scale(0.015625)"/>
       <path d="M 1984 4856 
Q 1566 4138 1362 3434 
Q 1159 2731 1159 2009 
Q 1159 1288 1364 580 
Q 1569 -128 1984 -844 
L 1484 -844 
Q 1016 -109 783 600 
Q 550 1309 550 2009 
Q 550 2706 781 3412 
Q 1013 4119 1484 4856 
L 1984 4856 
z
" id="DejaVuSans-28" transform="scale(0.015625)"/>
       <path d="M 3513 2113 
L 3513 0 
L 2938 0 
L 2938 2094 
Q 2938 2591 2744 2837 
Q 2550 3084 2163 3084 
Q 1697 3084 1428 2787 
Q 1159 2491 1159 1978 
L 1159 0 
L 581 0 
L 581 3500 
L 1159 3500 
L 1159 2956 
Q 1366 3272 1645 3428 
Q 1925 3584 2291 3584 
Q 2894 3584 3203 3211 
Q 3513 2838 3513 2113 
z
" id="DejaVuSans-6e" transform="scale(0.015625)"/>
       <path d="M 2834 3397 
L 2834 2853 
Q 2591 2978 2328 3040 
Q 2066 3103 1784 3103 
Q 1356 3103 1142 2972 
Q 928 2841 928 2578 
Q 928 2378 1081 2264 
Q 1234 2150 1697 2047 
L 1894 2003 
Q 2506 1872 2764 1633 
Q 3022 1394 3022 966 
Q 3022 478 2636 193 
Q 2250 -91 1575 -91 
Q 1294 -91 989 -36 
Q 684 19 347 128 
L 347 722 
Q 666 556 975 473 
Q 1284 391 1588 391 
Q 1994 391 2212 530 
Q 2431 669 2431 922 
Q 2431 1156 2273 1281 
Q 2116 1406 1581 1522 
L 1381 1569 
Q 847 1681 609 1914 
Q 372 2147 372 2553 
Q 372 3047 722 3315 
Q 1072 3584 1716 3584 
Q 2034 3584 2315 3537 
Q 2597 3491 2834 3397 
z
" id="DejaVuSans-73" transform="scale(0.015625)"/>
       <path d="M 513 4856 
L 1013 4856 
Q 1481 4119 1714 3412 
Q 1947 2706 1947 2009 
Q 1947 1309 1714 600 
Q 1481 -109 1013 -844 
L 513 -844 
Q 928 -128 1133 580 
Q 1338 1288 1338 2009 
Q 1338 2731 1133 3434 
Q 928 4138 513 4856 
z
" id="DejaVuSans-29" transform="scale(0.015625)"/>
      </defs>
      <use xlink:href="#DejaVuSans-54"/>
      <use x="57.958984" xlink:href="#DejaVuSans-69"/>
      <use x="85.742188" xlink:href="#DejaVuSans-6d"/>
      <use x="183.154297" xlink:href="#DejaVuSans-65"/>
      <use x="244.677734" xlink:href="#DejaVuSans-20"/>
      <use x="276.464844" xlink:href="#DejaVuSans-28"/>
      <use x="315.478516" xlink:href="#DejaVuSans-6e"/>
      <use x="378.857422" xlink:href="#DejaVuSans-73"/>
      <use x="430.957031" xlink:href="#DejaVuSans-29"/>
     </g>
    </g>
   </g>
   <g id="matplotlib.axis_2">
    <g id="ytick_1">
     <g id="line2d_13">
      <defs>
       <path d="M 0 0 
L 3.5 0 
" id="md70a516387" style="stroke:#000000;stroke-width:0.8;"/>
      </defs>
      <g>
       <use style="stroke:#000000;stroke-width:0.8;" x="50.7" xlink:href="#md70a516387" y="170.507802"/>
      </g>
     </g>
     <g id="line2d_14">
      <defs>
       <path d="M 0 0 
L -3.5 0 
" id="m1f93bc424e" style="stroke:#000000;stroke-width:0.8;"/>
      </defs>
      <g>
       <use style="stroke:#000000;stroke-width:0.8;" x="241.2" xlink:href="#m1f93bc424e" y="170.507802"/>
      </g>
     </g>
     <g id="text_8">
      <!-- 0.00 -->
      <g transform="translate(24.934375 174.307021)scale(0.1 -0.1)">
       <use xlink:href="#DejaVuSans-30"/>
       <use x="63.623047" xlink:href="#DejaVuSans-2e"/>
       <use x="95.410156" xlink:href="#DejaVuSans-30"/>
       <use x="159.033203" xlink:href="#DejaVuSans-30"/>
      </g>
     </g>
    </g>
    <g id="ytick_2">
     <g id="line2d_15">
      <g>
       <use style="stroke:#000000;stroke-width:0.8;" x="50.7" xlink:href="#md70a516387" y="148.280898"/>
      </g>
     </g>
     <g id="line2d_16">
      <g>
       <use style="stroke:#000000;stroke-width:0.8;" x="241.2" xlink:href="#m1f93bc424e" y="148.280898"/>
      </g>
     </g>
     <g id="text_9">
      <!-- 0.02 -->
      <g transform="translate(24.934375 152.080117)scale(0.1 -0.1)">
       <use xlink:href="#DejaVuSans-30"/>
       <use x="63.623047" xlink:href="#DejaVuSans-2e"/>
       <use x="95.410156" xlink:href="#DejaVuSans-30"/>
       <use x="159.033203" xlink:href="#DejaVuSans-32"/>
      </g>
     </g>
    </g>
    <g id="ytick_3">
     <g id="line2d_17">
      <g>
       <use style="stroke:#000000;stroke-width:0.8;" x="50.7" xlink:href="#md70a516387" y="126.053994"/>
      </g>
     </g>
     <g id="line2d_18">
      <g>
       <use style="stroke:#000000;stroke-width:0.8;" x="241.2" xlink:href="#m1f93bc424e" y="126.053994"/>
      </g>
     </g>
     <g id="text_10">
      <!-- 0.04 -->
      <g transform="translate(24.934375 129.853213)scale(0.1 -0.1)">
       <use xlink:href="#DejaVuSans-30"/>
       <use x="63.623047" xlink:href="#DejaVuSans-2e"/>
       <use x="95.410156" xlink:href="#DejaVuSans-30"/>
       <use x="159.033203" xlink:href="#DejaVuSans-34"/>
      </g>
     </g>
    </g>
    <g id="ytick_4">
     <g id="line2d_19">
      <g>
       <use style="stroke:#000000;stroke-width:0.8;" x="50.7" xlink:href="#md70a516387" y="103.82709"/>
      </g>
     </g>
     <g id="line2d_20">
      <g>
       <use style="stroke:#000000;stroke-width:0.8;" x="241.2" xlink:href="#m1f93bc424e" y="103.82709"/>
      </g>
     </g>
     <g id="text_11">
      <!-- 0.06 -->
      <g transform="translate(24.934375 107.626308)scale(0.1 -0.1)">
       <use xlink:href="#DejaVuSans-30"/>
       <use x="63.623047" xlink:href="#DejaVuSans-2e"/>
       <use x="95.410156" xlink:href="#DejaVuSans-30"/>
       <use x="159.033203" xlink:href="#DejaVuSans-36"/>
      </g>
     </g>
    </g>
    <g id="ytick_5">
     <g id="line2d_21">
      <g>
       <use style="stroke:#000000;stroke-width:0.8;" x="50.7" xlink:href="#md70a516387" y="81.600186"/>
      </g>
     </g>
     <g id="line2d_22">
      <g>
       <use style="stroke:#000000;stroke-width:0.8;" x="241.2" xlink:href="#m1f93bc424e" y="81.600186"/>
      </g>
     </g>
     <g id="text_12">
      <!-- 0.08 -->
      <g transform="translate(24.934375 85.399404)scale(0.1 -0.1)">
       <use xlink:href="#DejaVuSans-30"/>
       <use x="63.623047" xlink:href="#DejaVuSans-2e"/>
       <use x="95.410156" xlink:href="#DejaVuSans-30"/>
       <use x="159.033203" xlink:href="#DejaVuSans-38"/>
      </g>
     </g>
    </g>
    <g id="ytick_6">
     <g id="line2d_23">
      <g>
       <use style="stroke:#000000;stroke-width:0.8;" x="50.7" xlink:href="#md70a516387" y="59.373282"/>
      </g>
     </g>
     <g id="line2d_24">
      <g>
       <use style="stroke:#000000;stroke-width:0.8;" x="241.2" xlink:href="#m1f93bc424e" y="59.373282"/>
      </g>
     </g>
     <g id="text_13">
      <!-- 0.10 -->
      <g transform="translate(24.934375 63.1725)scale(0.1 -0.1)">
       <use xlink:href="#DejaVuSans-30"/>
       <use x="63.623047" xlink:href="#DejaVuSans-2e"/>
       <use x="95.410156" xlink:href="#DejaVuSans-31"/>
       <use x="159.033203" xlink:href="#DejaVuSans-30"/>
      </g>
     </g>
    </g>
    <g id="ytick_7">
     <g id="line2d_25">
      <g>
       <use style="stroke:#000000;stroke-width:0.8;" x="50.7" xlink:href="#md70a516387" y="37.146377"/>
      </g>
     </g>
     <g id="line2d_26">
      <g>
       <use style="stroke:#000000;stroke-width:0.8;" x="241.2" xlink:href="#m1f93bc424e" y="37.146377"/>
      </g>
     </g>
     <g id="text_14">
      <!-- 0.12 -->
      <g transform="translate(24.934375 40.945596)scale(0.1 -0.1)">
       <use xlink:href="#DejaVuSans-30"/>
       <use x="63.623047" xlink:href="#DejaVuSans-2e"/>
       <use x="95.410156" xlink:href="#DejaVuSans-31"/>
       <use x="159.033203" xlink:href="#DejaVuSans-32"/>
      </g>
     </g>
    </g>
    <g id="ytick_8">
     <g id="line2d_27">
      <g>
       <use style="stroke:#000000;stroke-width:0.8;" x="50.7" xlink:href="#md70a516387" y="14.919473"/>
      </g>
     </g>
     <g id="line2d_28">
      <g>
       <use style="stroke:#000000;stroke-width:0.8;" x="241.2" xlink:href="#m1f93bc424e" y="14.919473"/>
      </g>
     </g>
     <g id="text_15">
      <!-- 0.14 -->
      <g transform="translate(24.934375 18.718692)scale(0.1 -0.1)">
       <use xlink:href="#DejaVuSans-30"/>
       <use x="63.623047" xlink:href="#DejaVuSans-2e"/>
       <use x="95.410156" xlink:href="#DejaVuSans-31"/>
       <use x="159.033203" xlink:href="#DejaVuSans-34"/>
      </g>
     </g>
    </g>
    <g id="text_16">
     <!-- RMSD (nm) -->
     <g transform="translate(18.854688 122.512187)rotate(-90)scale(0.1 -0.1)">
      <defs>
       <path d="M 2841 2188 
Q 3044 2119 3236 1894 
Q 3428 1669 3622 1275 
L 4263 0 
L 3584 0 
L 2988 1197 
Q 2756 1666 2539 1819 
Q 2322 1972 1947 1972 
L 1259 1972 
L 1259 0 
L 628 0 
L 628 4666 
L 2053 4666 
Q 2853 4666 3247 4331 
Q 3641 3997 3641 3322 
Q 3641 2881 3436 2590 
Q 3231 2300 2841 2188 
z
M 1259 4147 
L 1259 2491 
L 2053 2491 
Q 2509 2491 2742 2702 
Q 2975 2913 2975 3322 
Q 2975 3731 2742 3939 
Q 2509 4147 2053 4147 
L 1259 4147 
z
" id="DejaVuSans-52" transform="scale(0.015625)"/>
       <path d="M 628 4666 
L 1569 4666 
L 2759 1491 
L 3956 4666 
L 4897 4666 
L 4897 0 
L 4281 0 
L 4281 4097 
L 3078 897 
L 2444 897 
L 1241 4097 
L 1241 0 
L 628 0 
L 628 4666 
z
" id="DejaVuSans-4d" transform="scale(0.015625)"/>
       <path d="M 3425 4513 
L 3425 3897 
Q 3066 4069 2747 4153 
Q 2428 4238 2131 4238 
Q 1616 4238 1336 4038 
Q 1056 3838 1056 3469 
Q 1056 3159 1242 3001 
Q 1428 2844 1947 2747 
L 2328 2669 
Q 3034 2534 3370 2195 
Q 3706 1856 3706 1288 
Q 3706 609 3251 259 
Q 2797 -91 1919 -91 
Q 1588 -91 1214 -16 
Q 841 59 441 206 
L 441 856 
Q 825 641 1194 531 
Q 1563 422 1919 422 
Q 2459 422 2753 634 
Q 3047 847 3047 1241 
Q 3047 1584 2836 1778 
Q 2625 1972 2144 2069 
L 1759 2144 
Q 1053 2284 737 2584 
Q 422 2884 422 3419 
Q 422 4038 858 4394 
Q 1294 4750 2059 4750 
Q 2388 4750 2728 4690 
Q 3069 4631 3425 4513 
z
" id="DejaVuSans-53" transform="scale(0.015625)"/>
       <path d="M 1259 4147 
L 1259 519 
L 2022 519 
Q 2988 519 3436 956 
Q 3884 1394 3884 2338 
Q 3884 3275 3436 3711 
Q 2988 4147 2022 4147 
L 1259 4147 
z
M 628 4666 
L 1925 4666 
Q 3281 4666 3915 4102 
Q 4550 3538 4550 2338 
Q 4550 1131 3912 565 
Q 3275 0 1925 0 
L 628 0 
L 628 4666 
z
" id="DejaVuSans-44" transform="scale(0.015625)"/>
      </defs>
      <use xlink:href="#DejaVuSans-52"/>
      <use x="69.482422" xlink:href="#DejaVuSans-4d"/>
      <use x="155.761719" xlink:href="#DejaVuSans-53"/>
      <use x="219.238281" xlink:href="#DejaVuSans-44"/>
      <use x="296.240234" xlink:href="#DejaVuSans-20"/>
      <use x="328.027344" xlink:href="#DejaVuSans-28"/>
      <use x="367.041016" xlink:href="#DejaVuSans-6e"/>
      <use x="430.419922" xlink:href="#DejaVuSans-6d"/>
      <use x="527.832031" xlink:href="#DejaVuSans-29"/>
     </g>
    </g>
   </g>
   <g id="line2d_29">
    <path clip-path="url(#pf16c86d556)" d="M 59.359091 169.94824 
L 61.090909 113.869538 
L 62.822727 116.063667 
L 64.554545 97.340057 
L 66.286364 86.934087 
L 68.018182 97.024546 
L 69.75 95.420208 
L 71.481818 98.886271 
L 73.213636 82.165305 
L 74.945455 76.199715 
L 76.677273 71.293126 
L 78.409091 83.039044 
L 80.140909 85.323859 
L 81.872727 95.49589 
L 83.604545 79.90894 
L 85.336364 69.904055 
L 87.068182 59.669677 
L 88.8 72.977703 
L 90.531818 74.893884 
L 92.263636 77.119575 
L 93.995455 67.043008 
L 95.727273 75.952663 
L 97.459091 83.616499 
L 99.190909 84.375326 
L 100.922727 73.461138 
L 102.654545 79.861597 
L 104.386364 83.933233 
L 106.118182 79.346822 
L 107.85 90.043742 
L 109.581818 77.753709 
L 111.313636 77.508435 
L 113.045455 86.004002 
L 114.777273 77.580005 
L 116.509091 67.261832 
L 118.240909 78.991858 
L 119.972727 81.722656 
L 121.704545 88.628555 
L 123.436364 84.394774 
L 125.168182 84.981231 
L 126.9 74.629717 
L 128.631818 70.574641 
L 130.363636 51.882593 
L 132.095455 68.284825 
L 133.827273 65.270635 
L 135.559091 64.836321 
L 137.290909 79.835481 
L 139.022727 76.800286 
L 140.754545 82.503376 
L 142.486364 77.835504 
L 144.218182 64.370223 
L 145.95 64.627388 
L 147.681836 80.985501 
L 149.413636 79.837036 
L 151.145455 71.820681 
L 152.877273 63.552273 
L 154.609091 57.415202 
L 156.340909 67.559006 
L 158.072745 62.982042 
L 159.804545 63.31489 
L 161.536364 74.442567 
L 163.268182 81.567845 
L 165 59.437073 
L 166.731818 76.653144 
L 168.463654 78.928401 
L 170.195455 83.953459 
L 171.927273 75.591698 
L 173.659091 88.197353 
L 175.390909 82.904905 
L 177.122727 79.279363 
L 178.854563 81.263337 
L 180.586364 75.794629 
L 182.318182 77.854619 
L 184.05 56.534906 
L 185.781818 53.369795 
L 187.513636 72.420808 
L 189.245472 63.178527 
L 190.97729 74.2323 
L 192.709091 69.388836 
L 194.440909 61.54685 
L 196.172727 51.63154 
L 197.904545 61.759117 
L 199.636381 64.368889 
L 201.368199 67.745601 
L 203.1 57.430983 
L 204.831818 52.964376 
L 206.563636 48.036338 
L 208.295455 53.070398 
L 210.02729 65.491793 
L 211.759108 57.537339 
L 213.490909 52.597188 
L 215.222727 45.935006 
L 216.954545 74.956897 
L 218.686364 73.825215 
L 220.418199 76.57246 
L 222.150017 77.61868 
L 223.881818 83.207413 
L 225.613636 81.957705 
L 227.345455 70.655769 
L 229.077273 68.297161 
L 230.809108 84.789746 
L 232.540909 83.255979 
" style="fill:none;stroke:#1f77b4;stroke-linecap:square;stroke-opacity:0.5;stroke-width:0.5;"/>
   </g>
   <g id="line2d_30">
    <path clip-path="url(#pf16c86d556)" d="M 59.359091 169.960909 
L 61.090909 114.029128 
L 62.822727 104.94188 
L 64.554545 105.987545 
L 66.286364 98.722126 
L 68.018182 81.017618 
L 69.75 90.840021 
L 71.481818 98.023756 
L 73.213636 86.310289 
L 74.945455 85.79318 
L 76.677273 79.192345 
L 78.409091 67.042453 
L 80.140909 75.434998 
L 81.872727 60.652106 
L 83.604545 63.814328 
L 85.336364 71.9616 
L 87.068182 54.036491 
L 88.8 33.838792 
L 90.531818 65.830419 
L 92.263636 51.882593 
L 93.995455 61.986276 
L 95.727273 66.300852 
L 97.459091 55.760854 
L 99.190909 43.806891 
L 100.922727 58.776156 
L 102.654545 54.686183 
L 104.386364 70.257463 
L 106.118182 69.531866 
L 107.85 63.071283 
L 109.581818 66.04202 
L 111.313636 52.565959 
L 113.045455 69.539201 
L 114.777273 63.778765 
L 116.509091 81.891803 
L 118.240909 73.92468 
L 119.972727 74.954564 
L 121.704545 67.903967 
L 123.436364 64.412676 
L 125.168182 63.392573 
L 126.9 63.655628 
L 128.631818 60.176228 
L 130.363636 62.262335 
L 132.095455 77.42375 
L 133.827273 80.048303 
L 135.559091 78.197691 
L 137.290909 76.435542 
L 139.022727 70.218899 
L 140.754545 71.406038 
L 142.486364 66.44077 
L 144.218182 67.213711 
L 145.95 58.38474 
L 147.681836 55.310092 
L 149.413636 58.999536 
L 151.145455 63.208978 
L 152.877273 68.880062 
L 154.609091 70.533743 
L 156.340909 72.784551 
L 158.072745 61.829577 
L 159.804545 65.166391 
L 161.536364 80.96194 
L 163.268182 79.136111 
L 165 85.815296 
L 166.731818 67.961757 
L 168.463654 72.93825 
L 170.195455 68.092451 
L 171.927273 71.603413 
L 173.659091 64.415344 
L 175.390909 62.751882 
L 177.122727 76.115252 
L 178.854563 71.5913 
L 180.586364 71.268232 
L 182.318182 72.572173 
L 184.05 70.513739 
L 185.781818 55.955673 
L 187.513636 59.253145 
L 189.245472 56.608144 
L 190.97729 62.127528 
L 192.709091 54.542708 
L 194.440909 18.379091 
L 196.172727 42.534179 
L 197.904545 52.923145 
L 199.636381 46.784296 
L 201.368199 41.805248 
L 203.1 39.990532 
L 204.831818 58.491207 
L 206.563636 35.84677 
L 208.295455 39.095232 
L 210.02729 47.102586 
L 211.759108 52.759111 
L 213.490909 42.031518 
L 215.222727 49.739808 
L 216.954545 51.157551 
L 218.686364 49.491422 
L 220.418199 55.484685 
L 222.150017 57.630025 
L 223.881818 55.167396 
L 225.613636 63.744424 
L 227.345455 65.74129 
L 229.077273 56.886535 
L 230.809108 59.386062 
L 232.540909 48.442757 
" style="fill:none;stroke:#ff7f0e;stroke-linecap:square;stroke-opacity:0.5;stroke-width:0.5;"/>
   </g>
   <g id="line2d_31">
    <path clip-path="url(#pf16c86d556)" d="M 59.359091 169.935793 
L 61.090909 100.219552 
L 62.822727 101.982146 
L 64.554545 99.739451 
L 66.286364 100.304125 
L 68.018182 88.198242 
L 69.75 85.715164 
L 71.481818 76.822068 
L 73.213636 71.643199 
L 74.945455 81.096302 
L 76.677273 75.508569 
L 78.409091 85.082141 
L 80.140909 76.702932 
L 81.872727 68.704358 
L 83.604545 69.145896 
L 85.336364 74.441122 
L 87.068182 51.800909 
L 88.8 61.616754 
L 90.531818 56.824967 
L 92.263636 58.815831 
L 93.995455 65.228181 
L 95.727273 75.871868 
L 97.459091 69.534088 
L 99.190909 73.746309 
L 100.922727 61.312801 
L 102.654545 61.899147 
L 104.386364 89.582311 
L 106.118182 69.560427 
L 107.85 79.498743 
L 109.581818 69.654225 
L 111.313636 68.257375 
L 113.045455 64.103945 
L 114.777273 71.37581 
L 116.509091 62.223326 
L 118.240909 55.629048 
L 119.972727 53.185645 
L 121.704545 53.153527 
L 123.436364 61.896702 
L 125.168182 57.250946 
L 126.9 65.363432 
L 128.631818 64.437904 
L 130.363636 63.192753 
L 132.095455 38.365745 
L 133.827273 48.645355 
L 135.559091 45.777862 
L 137.290909 61.575523 
L 139.022727 65.026139 
L 140.754545 68.297717 
L 142.486364 67.385191 
L 144.218182 65.106489 
L 145.95 52.135424 
L 147.681836 47.348971 
L 149.413636 60.268803 
L 151.145455 66.207721 
L 152.877273 69.476521 
L 154.609091 53.802664 
L 156.340909 35.610054 
L 158.072745 55.107383 
L 159.804545 59.445852 
L 161.536364 60.173117 
L 163.268182 52.121976 
L 165 35.904449 
L 166.731818 33.127864 
L 168.463654 41.49785 
L 170.195455 50.307594 
L 171.927273 47.638254 
L 173.659091 48.841174 
L 175.390909 51.588642 
L 177.122727 45.172735 
L 178.854563 50.579763 
L 180.586364 56.239399 
L 182.318182 43.014169 
L 184.05 62.220437 
L 185.781818 48.491212 
L 187.513636 51.435498 
L 189.245472 57.45221 
L 190.97729 60.151779 
L 192.709091 60.668443 
L 194.440909 55.756631 
L 196.172727 67.29495 
L 197.904545 56.870088 
L 199.636381 66.076694 
L 201.368199 67.055233 
L 203.1 67.430868 
L 204.831818 55.476794 
L 206.563636 54.521371 
L 208.295455 65.039031 
L 210.02729 61.011293 
L 211.759108 61.166659 
L 213.490909 54.86022 
L 215.222727 61.240008 
L 216.954545 55.027366 
L 218.686364 56.558244 
L 220.418199 51.819357 
L 222.150017 55.010251 
L 223.881818 42.609195 
L 225.613636 33.76911 
L 227.345455 42.863248 
L 229.077273 33.137311 
L 230.809108 48.20604 
L 232.540909 59.698795 
" style="fill:none;stroke:#2ca02c;stroke-linecap:square;stroke-opacity:0.5;stroke-width:0.5;"/>
   </g>
   <g id="line2d_32">
    <path clip-path="url(#pf16c86d556)" d="M 59.359091 169.940127 
L 61.090909 103.095047 
L 62.822727 96.766491 
L 64.554545 95.585576 
L 66.286364 93.315209 
L 68.018182 98.76958 
L 69.75 90.984607 
L 71.481818 91.587956 
L 73.213636 98.776359 
L 74.945455 74.126056 
L 76.677273 75.194392 
L 78.409091 79.733792 
L 80.140909 64.974017 
L 81.872727 79.042425 
L 83.604545 91.554727 
L 85.336364 82.562611 
L 87.068182 79.533639 
L 88.8 76.534007 
L 90.531818 78.787149 
L 92.263636 73.766202 
L 93.995455 80.700107 
L 95.727273 70.85859 
L 97.459091 78.828268 
L 99.190909 78.092558 
L 100.922727 68.532655 
L 102.654545 71.932927 
L 104.386364 84.91544 
L 106.118182 81.969263 
L 107.85 83.525702 
L 109.581818 83.96335 
L 111.313636 88.51931 
L 113.045455 90.659538 
L 114.777273 79.132666 
L 116.509091 66.38487 
L 118.240909 78.954517 
L 119.972727 55.09827 
L 121.704545 76.797063 
L 123.436364 66.269512 
L 125.168182 90.440826 
L 126.9 74.049151 
L 128.631818 66.606583 
L 130.363636 74.094605 
L 132.095455 88.21269 
L 133.827273 94.158053 
L 135.559091 96.401081 
L 137.290909 83.709408 
L 139.022727 78.475416 
L 140.754545 64.735633 
L 142.486364 69.445403 
L 144.218182 81.199879 
L 145.95 82.533938 
L 147.681836 74.679394 
L 149.413636 80.196557 
L 151.145455 80.011962 
L 152.877273 73.390456 
L 154.609091 75.4969 
L 156.340909 61.307578 
L 158.072745 67.349295 
L 159.804545 54.942015 
L 161.536364 51.725893 
L 163.268182 69.308597 
L 165 71.177546 
L 166.731818 69.600991 
L 168.463654 74.412561 
L 170.195455 78.687016 
L 171.927273 75.978335 
L 173.659091 78.77948 
L 175.390909 57.126919 
L 177.122727 63.342229 
L 178.854563 66.143263 
L 180.586364 65.360876 
L 182.318182 71.455493 
L 184.05 61.458721 
L 185.781818 56.694273 
L 187.513636 56.578026 
L 189.245472 45.430122 
L 190.97729 31.254025 
L 192.709091 38.61302 
L 194.440909 37.525235 
L 196.172727 41.66144 
L 197.904545 59.335829 
L 199.636381 50.887272 
L 201.368199 59.220805 
L 203.1 71.098418 
L 204.831818 60.367824 
L 206.563636 43.510273 
L 208.295455 58.321727 
L 210.02729 83.677068 
L 211.759108 69.946064 
L 213.490909 65.767962 
L 215.222727 60.453065 
L 216.954545 72.724538 
L 218.686364 61.501285 
L 220.418199 64.053267 
L 222.150017 61.978719 
L 223.881818 48.520884 
L 225.613636 51.230789 
L 227.345455 55.674614 
L 229.077273 64.874774 
L 230.809108 58.913073 
L 232.540909 44.455584 
" style="fill:none;stroke:#d62728;stroke-linecap:square;stroke-opacity:0.5;stroke-width:0.5;"/>
   </g>
   <g id="line2d_33">
    <path clip-path="url(#pf16c86d556)" d="M 59.359091 169.949685 
L 61.090909 96.489433 
L 62.822727 92.79121 
L 64.554545 97.69402 
L 66.286364 99.505402 
L 68.018182 96.820614 
L 69.75 87.290495 
L 71.481818 94.074146 
L 73.213636 97.027769 
L 74.945455 91.702758 
L 76.677273 95.709269 
L 78.409091 93.644056 
L 80.140909 91.971704 
L 81.872727 87.88062 
L 83.604545 87.50943 
L 85.336364 79.12822 
L 87.068182 72.450481 
L 88.8 72.922358 
L 90.531818 74.523473 
L 92.263636 82.08451 
L 93.995455 77.514992 
L 95.727273 64.470355 
L 97.459091 73.013599 
L 99.190909 78.478084 
L 100.922727 87.438082 
L 102.654545 72.022502 
L 104.386364 79.302146 
L 106.118182 89.380936 
L 107.85 83.140955 
L 109.581818 91.174758 
L 111.313636 96.467762 
L 113.045455 95.992884 
L 114.777273 92.306774 
L 116.509091 96.35396 
L 118.240909 95.109476 
L 119.972727 79.707565 
L 121.704545 97.945406 
L 123.436364 82.6174 
L 125.168182 70.658214 
L 126.9 91.189872 
L 128.631818 78.947293 
L 130.363636 81.971264 
L 132.095455 74.312762 
L 133.827273 88.900168 
L 135.559091 69.310041 
L 137.290909 85.686046 
L 139.022727 78.516425 
L 140.754545 93.100497 
L 142.486364 85.588581 
L 144.218182 85.007237 
L 145.95 91.25133 
L 147.681836 80.766121 
L 149.413636 79.867598 
L 151.145455 76.59691 
L 152.877273 67.581788 
L 154.609091 69.682342 
L 156.340909 85.846191 
L 158.072745 71.55607 
L 159.804545 66.149375 
L 161.536364 55.420115 
L 163.268182 66.025016 
L 165 67.142807 
L 166.731818 82.833112 
L 168.463654 72.47982 
L 170.195455 74.410449 
L 171.927273 77.855397 
L 173.659091 58.635459 
L 175.390909 75.010575 
L 177.122727 51.887927 
L 178.854563 56.843304 
L 180.586364 61.416156 
L 182.318182 64.573933 
L 184.05 78.7128 
L 185.781818 80.393932 
L 187.513636 81.236887 
L 189.245472 73.873558 
L 190.97729 84.561698 
L 192.709091 90.858469 
L 194.440909 75.917655 
L 196.172727 78.32294 
L 197.904545 58.681914 
L 199.636381 78.260927 
L 201.368199 70.967168 
L 203.1 81.536394 
L 204.831818 85.71972 
L 206.563636 89.120992 
L 208.295455 81.16376 
L 210.02729 85.996667 
L 211.759108 81.234442 
L 213.490909 76.845851 
L 215.222727 72.720204 
L 216.954545 79.486296 
L 218.686364 79.131332 
L 220.418199 81.23233 
L 222.150017 75.505013 
L 223.881818 69.32171 
L 225.613636 55.728625 
L 227.345455 67.529555 
L 229.077273 56.183721 
L 230.809108 66.878751 
L 232.540909 71.042295 
" style="fill:none;stroke:#9467bd;stroke-linecap:square;stroke-opacity:0.5;stroke-width:0.5;"/>
   </g>
   <g id="line2d_34">
    <path clip-path="url(#pf16c86d556)" d="M 59.359091 169.958353 
L 61.090909 110.200877 
L 62.822727 103.840759 
L 64.554545 88.604439 
L 66.286364 83.788202 
L 68.018182 101.456479 
L 69.75 81.602742 
L 71.481818 82.825333 
L 73.213636 83.98291 
L 74.945455 75.212285 
L 76.677273 70.194005 
L 78.409091 87.966082 
L 80.140909 79.213461 
L 81.872727 86.355854 
L 83.604545 76.432319 
L 85.336364 65.861537 
L 87.068182 61.449163 
L 88.8 66.093586 
L 90.531818 60.728456 
L 92.263636 62.94659 
L 93.995455 77.456535 
L 95.727273 79.214905 
L 97.459091 66.662817 
L 99.190909 57.896748 
L 100.922727 71.254895 
L 102.654545 79.952061 
L 104.386364 61.025296 
L 106.118182 62.192097 
L 107.85 64.013592 
L 109.581818 74.234856 
L 111.313636 65.607484 
L 113.045455 75.174832 
L 114.777273 72.054619 
L 116.509091 78.640451 
L 118.240909 90.030406 
L 119.972727 75.463782 
L 121.704545 69.492746 
L 123.436364 77.54422 
L 125.168182 76.715935 
L 126.9 73.771537 
L 128.631818 65.854424 
L 130.363636 57.352411 
L 132.095455 67.782497 
L 133.827273 66.184049 
L 135.559091 64.236862 
L 137.290909 80.187444 
L 139.022727 76.534007 
L 140.754545 73.304883 
L 142.486364 82.503042 
L 144.218182 75.345757 
L 145.95 70.163777 
L 147.681836 70.252017 
L 149.413636 69.98385 
L 151.145455 73.869113 
L 152.877273 88.261367 
L 154.609091 89.344039 
L 156.340909 77.93697 
L 158.072745 82.112849 
L 159.804545 82.09529 
L 161.536364 89.69878 
L 163.268182 78.702242 
L 165 87.108235 
L 166.731818 68.797378 
L 168.463654 71.195438 
L 170.195455 64.895556 
L 171.927273 83.796315 
L 173.659091 76.976545 
L 175.390909 88.286816 
L 177.122727 77.570781 
L 178.854563 69.850711 
L 180.586364 56.587806 
L 182.318182 70.029082 
L 184.05 69.997853 
L 185.781818 62.87024 
L 187.513636 71.117644 
L 189.245472 75.081368 
L 190.97729 80.228119 
L 192.709091 78.157794 
L 194.440909 83.929121 
L 196.172727 75.334421 
L 197.904545 67.893187 
L 199.636381 66.728164 
L 201.368199 80.762787 
L 203.1 64.464798 
L 204.831818 68.53799 
L 206.563636 64.227749 
L 208.295455 71.097307 
L 210.02729 66.013791 
L 211.759108 60.721232 
L 213.490909 64.385782 
L 215.222727 67.214378 
L 216.954545 76.102361 
L 218.686364 73.402792 
L 220.418199 74.995017 
L 222.150017 79.886602 
L 223.881818 77.577783 
L 225.613636 63.467033 
L 227.345455 67.394304 
L 229.077273 74.744075 
L 230.809108 59.670122 
L 232.540909 65.123826 
" style="fill:none;stroke:#8c564b;stroke-linecap:square;stroke-opacity:0.5;stroke-width:0.5;"/>
   </g>
   <g id="line2d_35">
    <path clip-path="url(#pf16c86d556)" d="M 59.359091 169.951129 
L 61.090909 90.075526 
L 62.822727 92.096619 
L 64.554545 83.488028 
L 66.286364 90.962713 
L 68.018182 90.165323 
L 69.75 75.995561 
L 71.481818 89.785243 
L 73.213636 78.851607 
L 74.945455 67.261832 
L 76.677273 70.410273 
L 78.409091 70.76757 
L 80.140909 60.725233 
L 81.872727 65.425112 
L 83.604545 75.331865 
L 85.336364 87.468422 
L 87.068182 79.342266 
L 88.8 69.116556 
L 90.531818 67.152809 
L 92.263636 62.427592 
L 93.995455 76.588574 
L 95.727273 74.05004 
L 97.459091 79.6091 
L 99.190909 74.395112 
L 100.922727 68.517541 
L 102.654545 86.705372 
L 104.386364 84.044589 
L 106.118182 85.964994 
L 107.85 95.960433 
L 109.581818 96.896185 
L 111.313636 87.747592 
L 113.045455 68.07078 
L 114.777273 60.776466 
L 116.509091 87.177916 
L 118.240909 85.413211 
L 119.972727 88.4184 
L 121.704545 87.247375 
L 123.436364 76.551122 
L 125.168182 81.697317 
L 126.9 87.270491 
L 128.631818 71.41404 
L 130.363636 69.319488 
L 132.095455 62.326126 
L 133.827273 64.682955 
L 135.559091 54.625281 
L 137.290909 63.436582 
L 139.022727 63.626733 
L 140.754545 59.45152 
L 142.486364 73.682851 
L 144.218182 72.72565 
L 145.95 72.891351 
L 147.681836 77.443977 
L 149.413636 66.302741 
L 151.145455 71.531509 
L 152.877273 55.302424 
L 154.609091 66.508896 
L 156.340909 68.70458 
L 158.072745 81.590072 
L 159.804545 61.788457 
L 161.536364 73.213641 
L 163.268182 76.397312 
L 165 82.464479 
L 166.731818 76.95843 
L 168.463654 81.469158 
L 170.195455 76.049239 
L 171.927273 73.58183 
L 173.659091 74.289312 
L 175.390909 81.118529 
L 177.122727 76.825291 
L 178.854563 88.845823 
L 180.586364 86.53867 
L 182.318182 71.61875 
L 184.05 79.315704 
L 185.781818 63.651294 
L 187.513636 67.806169 
L 189.245472 74.182512 
L 190.97729 78.881391 
L 192.709091 73.29677 
L 194.440909 81.885579 
L 196.172727 90.119313 
L 197.904545 82.4617 
L 199.636381 74.977457 
L 201.368199 88.356387 
L 203.1 83.558487 
L 204.831818 76.202493 
L 206.563636 75.357093 
L 208.295455 74.17151 
L 210.02729 66.311743 
L 211.759108 72.651523 
L 213.490909 87.209923 
L 215.222727 86.519889 
L 216.954545 85.860972 
L 218.686364 77.570448 
L 220.418199 94.65927 
L 222.150017 83.891113 
L 223.881818 88.029095 
L 225.613636 87.775264 
L 227.345455 68.997198 
L 229.077273 90.272012 
L 230.809108 80.378262 
L 232.540909 80.275907 
" style="fill:none;stroke:#e377c2;stroke-linecap:square;stroke-opacity:0.5;stroke-width:0.5;"/>
   </g>
   <g id="line2d_36">
    <path clip-path="url(#pf16c86d556)" d="M 59.359091 169.939238 
L 61.090909 101.316894 
L 62.822727 93.644834 
L 64.554545 104.761064 
L 66.286364 97.500646 
L 68.018182 84.696727 
L 69.75 79.959507 
L 71.481818 78.316938 
L 73.213636 59.539316 
L 74.945455 64.989242 
L 76.677273 75.710612 
L 78.409091 76.627694 
L 80.140909 78.307603 
L 81.872727 64.069048 
L 83.604545 74.239191 
L 85.336364 89.805692 
L 87.068182 89.201676 
L 88.8 72.623739 
L 90.531818 59.204579 
L 92.263636 57.27095 
L 93.995455 52.843684 
L 95.727273 60.709341 
L 97.459091 56.547353 
L 99.190909 53.405135 
L 100.922727 58.643239 
L 102.654545 78.111562 
L 104.386364 71.530842 
L 106.118182 68.07367 
L 107.85 72.851787 
L 109.581818 68.238149 
L 111.313636 68.585444 
L 113.045455 62.321791 
L 114.777273 63.424468 
L 116.509091 52.206216 
L 118.240909 66.056356 
L 119.972727 55.38722 
L 121.704545 60.68278 
L 123.436364 65.567697 
L 125.168182 52.742107 
L 126.9 58.556443 
L 128.631818 68.128459 
L 130.363636 61.955048 
L 132.095455 55.248079 
L 133.827273 57.02212 
L 135.559091 56.350756 
L 137.290909 45.346327 
L 139.022727 42.990942 
L 140.754545 45.635054 
L 142.486364 57.014785 
L 144.218182 69.007089 
L 145.95 50.021089 
L 147.681836 43.584289 
L 149.413636 54.021599 
L 151.145455 56.928544 
L 152.877273 74.318541 
L 154.609091 65.162834 
L 156.340909 62.105635 
L 158.072745 67.213822 
L 159.804545 67.076682 
L 161.536364 74.240413 
L 163.268182 54.276097 
L 165 59.437184 
L 166.731818 53.128966 
L 168.463654 68.339615 
L 170.195455 63.894234 
L 171.927273 56.372983 
L 173.659091 57.391753 
L 175.390909 53.378019 
L 177.122727 37.423213 
L 178.854563 55.523248 
L 180.586364 46.474676 
L 182.318182 56.874755 
L 184.05 61.005736 
L 185.781818 54.569158 
L 187.513636 47.806401 
L 189.245472 51.033747 
L 190.97729 63.107513 
L 192.709091 46.879316 
L 194.440909 47.116366 
L 196.172727 35.545373 
L 197.904545 44.739755 
L 199.636381 53.133412 
L 201.368199 52.572516 
L 203.1 56.106927 
L 204.831818 45.515251 
L 206.563636 54.688295 
L 208.295455 49.692353 
L 210.02729 40.261478 
L 211.759108 53.387465 
L 213.490909 47.139371 
L 215.222727 48.271499 
L 216.954545 47.749944 
L 218.686364 44.653848 
L 220.418199 44.921571 
L 222.150017 55.509245 
L 223.881818 59.290486 
L 225.613636 42.005734 
L 227.345455 55.390331 
L 229.077273 58.629903 
L 230.809108 71.539511 
L 232.540909 66.480334 
" style="fill:none;stroke:#7f7f7f;stroke-linecap:square;stroke-opacity:0.5;stroke-width:0.5;"/>
   </g>
   <g id="line2d_37">
    <path clip-path="url(#pf16c86d556)" d="M 59.359091 169.947934 
L 61.090909 103.661999 
L 62.822727 100.265951 
L 64.554545 96.650022 
L 66.286364 93.879064 
L 68.018182 92.268641 
L 69.75 85.976038 
L 71.481818 88.790214 
L 73.213636 82.287094 
L 74.945455 77.047671 
L 76.677273 76.651574 
L 78.409091 80.487854 
L 80.140909 76.581726 
L 81.872727 75.953177 
L 83.604545 77.242087 
L 85.336364 77.641657 
L 87.068182 68.435538 
L 88.8 65.715437 
L 90.531818 67.243217 
L 92.263636 65.78923 
L 93.995455 69.92017 
L 95.727273 70.928577 
L 97.459091 70.446572 
L 99.190909 68.02452 
L 100.922727 68.492063 
L 102.654545 73.146419 
L 104.386364 78.073915 
L 106.118182 75.752509 
L 107.85 79.01328 
L 109.581818 78.494656 
L 111.313636 75.65742 
L 113.045455 76.483372 
L 114.777273 72.553697 
L 116.509091 74.017547 
L 118.240909 78.013694 
L 119.972727 70.492263 
L 121.704545 75.231427 
L 123.436364 72.406763 
L 125.168182 72.234893 
L 126.9 73.560784 
L 128.631818 68.267447 
L 130.363636 65.253812 
L 132.095455 66.494559 
L 133.827273 70.613955 
L 135.559091 66.216987 
L 137.290909 72.026544 
L 139.022727 69.023606 
L 140.754545 69.80434 
L 142.486364 72.487016 
L 144.218182 72.497004 
L 145.95 67.75113 
L 147.681836 66.296295 
L 149.413636 68.684715 
L 151.145455 70.021927 
L 152.877273 70.095429 
L 154.609091 68.493328 
L 156.340909 66.481821 
L 158.072745 68.717639 
L 159.804545 64.997369 
L 161.536364 69.984558 
L 163.268182 69.691899 
L 165 68.560883 
L 166.731818 66.132705 
L 168.463654 70.157636 
L 170.195455 70.03625 
L 171.927273 70.302278 
L 173.659091 68.440803 
L 175.390909 69.020786 
L 177.122727 63.452099 
L 178.854563 67.580094 
L 180.586364 64.960056 
L 182.318182 65.999122 
L 184.05 67.469987 
L 185.781818 59.499447 
L 187.513636 63.456822 
L 189.245472 62.105024 
L 190.97729 66.818044 
L 192.709091 64.05067 
L 194.440909 57.757066 
L 196.172727 60.30552 
L 197.904545 60.583092 
L 199.636381 62.652139 
L 201.368199 66.060718 
L 203.1 65.202176 
L 204.831818 62.909457 
L 206.563636 58.16361 
L 208.295455 61.456415 
L 210.02729 64.483302 
L 211.759108 63.675479 
L 213.490909 61.354727 
L 215.222727 61.511732 
L 216.954545 67.883241 
L 218.686364 64.516823 
L 220.418199 67.967245 
L 222.150017 68.378706 
L 223.881818 65.465495 
L 225.613636 59.959836 
L 227.345455 61.780789 
L 229.077273 62.878186 
L 230.809108 66.220196 
L 232.540909 64.846934 
" style="fill:none;stroke:#000000;stroke-linecap:square;stroke-width:1.5;"/>
   </g>
   <g id="patch_3">
    <path d="M 50.7 177.54 
L 50.7 10.8 
" style="fill:none;stroke:#000000;stroke-linecap:square;stroke-linejoin:miter;stroke-width:0.8;"/>
   </g>
   <g id="patch_4">
    <path d="M 241.2 177.54 
L 241.2 10.8 
" style="fill:none;stroke:#000000;stroke-linecap:square;stroke-linejoin:miter;stroke-width:0.8;"/>
   </g>
   <g id="patch_5">
    <path d="M 50.7 177.54 
L 241.2 177.54 
" style="fill:none;stroke:#000000;stroke-linecap:square;stroke-linejoin:miter;stroke-width:0.8;"/>
   </g>
   <g id="patch_6">
    <path d="M 50.7 10.8 
L 241.2 10.8 
" style="fill:none;stroke:#000000;stroke-linecap:square;stroke-linejoin:miter;stroke-width:0.8;"/>
   </g>
   <g id="legend_1">
    <g id="line2d_38">
     <path d="M 112.6375 162.960312 
L 132.6375 162.960312 
" style="fill:none;stroke:#000000;stroke-linecap:square;stroke-width:1.5;"/>
    </g>
    <g id="line2d_39"/>
    <g id="text_17">
     <!-- Mean of 8 replicas -->
     <g transform="translate(140.6375 166.460312)scale(0.1 -0.1)">
      <defs>
       <path d="M 2194 1759 
Q 1497 1759 1228 1600 
Q 959 1441 959 1056 
Q 959 750 1161 570 
Q 1363 391 1709 391 
Q 2188 391 2477 730 
Q 2766 1069 2766 1631 
L 2766 1759 
L 2194 1759 
z
M 3341 1997 
L 3341 0 
L 2766 0 
L 2766 531 
Q 2569 213 2275 61 
Q 1981 -91 1556 -91 
Q 1019 -91 701 211 
Q 384 513 384 1019 
Q 384 1609 779 1909 
Q 1175 2209 1959 2209 
L 2766 2209 
L 2766 2266 
Q 2766 2663 2505 2880 
Q 2244 3097 1772 3097 
Q 1472 3097 1187 3025 
Q 903 2953 641 2809 
L 641 3341 
Q 956 3463 1253 3523 
Q 1550 3584 1831 3584 
Q 2591 3584 2966 3190 
Q 3341 2797 3341 1997 
z
" id="DejaVuSans-61" transform="scale(0.015625)"/>
       <path d="M 1959 3097 
Q 1497 3097 1228 2736 
Q 959 2375 959 1747 
Q 959 1119 1226 758 
Q 1494 397 1959 397 
Q 2419 397 2687 759 
Q 2956 1122 2956 1747 
Q 2956 2369 2687 2733 
Q 2419 3097 1959 3097 
z
M 1959 3584 
Q 2709 3584 3137 3096 
Q 3566 2609 3566 1747 
Q 3566 888 3137 398 
Q 2709 -91 1959 -91 
Q 1206 -91 779 398 
Q 353 888 353 1747 
Q 353 2609 779 3096 
Q 1206 3584 1959 3584 
z
" id="DejaVuSans-6f" transform="scale(0.015625)"/>
       <path d="M 2375 4863 
L 2375 4384 
L 1825 4384 
Q 1516 4384 1395 4259 
Q 1275 4134 1275 3809 
L 1275 3500 
L 2222 3500 
L 2222 3053 
L 1275 3053 
L 1275 0 
L 697 0 
L 697 3053 
L 147 3053 
L 147 3500 
L 697 3500 
L 697 3744 
Q 697 4328 969 4595 
Q 1241 4863 1831 4863 
L 2375 4863 
z
" id="DejaVuSans-66" transform="scale(0.015625)"/>
       <path d="M 2631 2963 
Q 2534 3019 2420 3045 
Q 2306 3072 2169 3072 
Q 1681 3072 1420 2755 
Q 1159 2438 1159 1844 
L 1159 0 
L 581 0 
L 581 3500 
L 1159 3500 
L 1159 2956 
Q 1341 3275 1631 3429 
Q 1922 3584 2338 3584 
Q 2397 3584 2469 3576 
Q 2541 3569 2628 3553 
L 2631 2963 
z
" id="DejaVuSans-72" transform="scale(0.015625)"/>
       <path d="M 1159 525 
L 1159 -1331 
L 581 -1331 
L 581 3500 
L 1159 3500 
L 1159 2969 
Q 1341 3281 1617 3432 
Q 1894 3584 2278 3584 
Q 2916 3584 3314 3078 
Q 3713 2572 3713 1747 
Q 3713 922 3314 415 
Q 2916 -91 2278 -91 
Q 1894 -91 1617 61 
Q 1341 213 1159 525 
z
M 3116 1747 
Q 3116 2381 2855 2742 
Q 2594 3103 2138 3103 
Q 1681 3103 1420 2742 
Q 1159 2381 1159 1747 
Q 1159 1113 1420 752 
Q 1681 391 2138 391 
Q 2594 391 2855 752 
Q 3116 1113 3116 1747 
z
" id="DejaVuSans-70" transform="scale(0.015625)"/>
       <path d="M 603 4863 
L 1178 4863 
L 1178 0 
L 603 0 
L 603 4863 
z
" id="DejaVuSans-6c" transform="scale(0.015625)"/>
       <path d="M 3122 3366 
L 3122 2828 
Q 2878 2963 2633 3030 
Q 2388 3097 2138 3097 
Q 1578 3097 1268 2742 
Q 959 2388 959 1747 
Q 959 1106 1268 751 
Q 1578 397 2138 397 
Q 2388 397 2633 464 
Q 2878 531 3122 666 
L 3122 134 
Q 2881 22 2623 -34 
Q 2366 -91 2075 -91 
Q 1284 -91 818 406 
Q 353 903 353 1747 
Q 353 2603 823 3093 
Q 1294 3584 2113 3584 
Q 2378 3584 2631 3529 
Q 2884 3475 3122 3366 
z
" id="DejaVuSans-63" transform="scale(0.015625)"/>
      </defs>
      <use xlink:href="#DejaVuSans-4d"/>
      <use x="86.279297" xlink:href="#DejaVuSans-65"/>
      <use x="147.802734" xlink:href="#DejaVuSans-61"/>
      <use x="209.082031" xlink:href="#DejaVuSans-6e"/>
      <use x="272.460938" xlink:href="#DejaVuSans-20"/>
      <use x="304.248047" xlink:href="#DejaVuSans-6f"/>
      <use x="365.429688" xlink:href="#DejaVuSans-66"/>
      <use x="400.634766" xlink:href="#DejaVuSans-20"/>
      <use x="432.421875" xlink:href="#DejaVuSans-38"/>
      <use x="496.044922" xlink:href="#DejaVuSans-20"/>
      <use x="527.832031" xlink:href="#DejaVuSans-72"/>
      <use x="566.695312" xlink:href="#DejaVuSans-65"/>
      <use x="628.21875" xlink:href="#DejaVuSans-70"/>
      <use x="691.695312" xlink:href="#DejaVuSans-6c"/>
      <use x="719.478516" xlink:href="#DejaVuSans-69"/>
      <use x="747.261719" xlink:href="#DejaVuSans-63"/>
      <use x="802.242188" xlink:href="#DejaVuSans-61"/>
      <use x="863.521484" xlink:href="#DejaVuSans-73"/>
     </g>
    </g>
   </g>
  </g>
 </g>
 <defs>
  <clipPath id="pf16c86d556">
   <rect height="166.74" width="190.5" x="50.7" y="10.8"/>
  </clipPath>
 </defs>
</svg>
