<?xml version="1.0" encoding="UTF-8" standalone="no"?>
<!-- Created with Inkscape (http://www.inkscape.org/) -->

<svg
   xmlns:dc="http://purl.org/dc/elements/1.1/"
   xmlns:cc="http://creativecommons.org/ns#"
   xmlns:rdf="http://www.w3.org/1999/02/22-rdf-syntax-ns#"
   xmlns:svg="http://www.w3.org/2000/svg"
   xmlns="http://www.w3.org/2000/svg"
   xmlns:sodipodi="http://sodipodi.sourceforge.net/DTD/sodipodi-0.dtd"
   xmlns:inkscape="http://www.inkscape.org/namespaces/inkscape"
   version="1.1"
   id="svg10"
   xml:space="preserve"
   width="1122.5601"
   height="793.76001"
   viewBox="0 0 1122.5601 793.76001"
   sodipodi:docname="namd_on_mahti_d.svg"
   inkscape:version="0.92.5 (2060ec1f9f, 2020-04-08)"><metadata
     id="metadata16"><rdf:RDF><cc:Work
         rdf:about=""><dc:format>image/svg+xml</dc:format><dc:type
           rdf:resource="http://purl.org/dc/dcmitype/StillImage" /><dc:title></dc:title></cc:Work></rdf:RDF></metadata><defs
     id="defs14"><clipPath
       clipPathUnits="userSpaceOnUse"
       id="clipPath144"><path
         d="m 58.68,54.84 h 724.8 V 540.36 H 58.68 Z"
         id="path142"
         inkscape:connector-curvature="0"
         style="clip-rule:evenodd" /></clipPath><clipPath
       clipPathUnits="userSpaceOnUse"
       id="clipPath156"><path
         d="m 58.68,54.84 h 724.8 V 540.36 H 58.68 Z"
         id="path154"
         inkscape:connector-curvature="0"
         style="clip-rule:evenodd" /></clipPath><clipPath
       clipPathUnits="userSpaceOnUse"
       id="clipPath168"><path
         d="m 58.68,54.84 h 724.8 V 540.36 H 58.68 Z"
         id="path166"
         inkscape:connector-curvature="0"
         style="clip-rule:evenodd" /></clipPath><clipPath
       clipPathUnits="userSpaceOnUse"
       id="clipPath180"><path
         d="m 58.68,54.84 h 724.8 V 540.36 H 58.68 Z"
         id="path178"
         inkscape:connector-curvature="0"
         style="clip-rule:evenodd" /></clipPath><clipPath
       clipPathUnits="userSpaceOnUse"
       id="clipPath192"><path
         d="m 58.68,54.84 h 724.8 V 540.36 H 58.68 Z"
         id="path190"
         inkscape:connector-curvature="0"
         style="clip-rule:evenodd" /></clipPath><clipPath
       clipPathUnits="userSpaceOnUse"
       id="clipPath204"><path
         d="m 58.68,54.84 h 724.8 V 540.36 H 58.68 Z"
         id="path202"
         inkscape:connector-curvature="0"
         style="clip-rule:evenodd" /></clipPath><clipPath
       clipPathUnits="userSpaceOnUse"
       id="clipPath216"><path
         d="m 58.68,54.84 h 724.8 V 540.36 H 58.68 Z"
         id="path214"
         inkscape:connector-curvature="0"
         style="clip-rule:evenodd" /></clipPath><clipPath
       clipPathUnits="userSpaceOnUse"
       id="clipPath228"><path
         d="m 58.68,54.84 h 724.8 V 540.36 H 58.68 Z"
         id="path226"
         inkscape:connector-curvature="0"
         style="clip-rule:evenodd" /></clipPath><clipPath
       clipPathUnits="userSpaceOnUse"
       id="clipPath240"><path
         d="m 58.68,54.84 h 724.8 V 540.36 H 58.68 Z"
         id="path238"
         inkscape:connector-curvature="0"
         style="clip-rule:evenodd" /></clipPath><clipPath
       clipPathUnits="userSpaceOnUse"
       id="clipPath252"><path
         d="m 58.68,54.84 h 724.8 V 540.36 H 58.68 Z"
         id="path250"
         inkscape:connector-curvature="0"
         style="clip-rule:evenodd" /></clipPath><clipPath
       clipPathUnits="userSpaceOnUse"
       id="clipPath264"><path
         d="m 58.68,54.84 h 724.8 V 540.36 H 58.68 Z"
         id="path262"
         inkscape:connector-curvature="0"
         style="clip-rule:evenodd" /></clipPath><clipPath
       clipPathUnits="userSpaceOnUse"
       id="clipPath276"><path
         d="m 58.68,54.84 h 724.8 V 540.36 H 58.68 Z"
         id="path274"
         inkscape:connector-curvature="0"
         style="clip-rule:evenodd" /></clipPath><clipPath
       clipPathUnits="userSpaceOnUse"
       id="clipPath288"><path
         d="m 58.68,54.84 h 724.8 V 540.36 H 58.68 Z"
         id="path286"
         inkscape:connector-curvature="0"
         style="clip-rule:evenodd" /></clipPath><clipPath
       clipPathUnits="userSpaceOnUse"
       id="clipPath300"><path
         d="m 58.68,54.84 h 724.8 V 540.36 H 58.68 Z"
         id="path298"
         inkscape:connector-curvature="0"
         style="clip-rule:evenodd" /></clipPath><clipPath
       clipPathUnits="userSpaceOnUse"
       id="clipPath312"><path
         d="m 58.68,54.84 h 724.8 V 540.36 H 58.68 Z"
         id="path310"
         inkscape:connector-curvature="0"
         style="clip-rule:evenodd" /></clipPath><clipPath
       clipPathUnits="userSpaceOnUse"
       id="clipPath324"><path
         d="m 58.68,54.84 h 724.8 V 540.36 H 58.68 Z"
         id="path322"
         inkscape:connector-curvature="0"
         style="clip-rule:evenodd" /></clipPath><clipPath
       clipPathUnits="userSpaceOnUse"
       id="clipPath336"><path
         d="m 58.68,54.84 h 724.8 V 540.36 H 58.68 Z"
         id="path334"
         inkscape:connector-curvature="0"
         style="clip-rule:evenodd" /></clipPath><clipPath
       clipPathUnits="userSpaceOnUse"
       id="clipPath356"><path
         d="m 58.68,54.84 h 724.8 V 540.36 H 58.68 Z"
         id="path354"
         inkscape:connector-curvature="0"
         style="clip-rule:evenodd" /></clipPath><clipPath
       clipPathUnits="userSpaceOnUse"
       id="clipPath374"><path
         d="m 58.68,54.84 h 724.8 V 540.36 H 58.68 Z"
         id="path372"
         inkscape:connector-curvature="0"
         style="clip-rule:evenodd" /></clipPath><clipPath
       clipPathUnits="userSpaceOnUse"
       id="clipPath392"><path
         d="m 58.68,54.84 h 724.8 V 540.36 H 58.68 Z"
         id="path390"
         inkscape:connector-curvature="0"
         style="clip-rule:evenodd" /></clipPath><clipPath
       clipPathUnits="userSpaceOnUse"
       id="clipPath410"><path
         d="m 58.68,54.84 h 724.8 V 540.36 H 58.68 Z"
         id="path408"
         inkscape:connector-curvature="0"
         style="clip-rule:evenodd" /></clipPath><clipPath
       clipPathUnits="userSpaceOnUse"
       id="clipPath424"><path
         d="m 58.68,54.84 h 724.8 V 540.36 H 58.68 Z"
         id="path422"
         inkscape:connector-curvature="0"
         style="clip-rule:evenodd" /></clipPath></defs><sodipodi:namedview
     pagecolor="#ffffff"
     bordercolor="#666666"
     borderopacity="1"
     objecttolerance="10"
     gridtolerance="10"
     guidetolerance="10"
     inkscape:pageopacity="0"
     inkscape:pageshadow="2"
     inkscape:window-width="1328"
     inkscape:window-height="855"
     id="namedview12"
     showgrid="false"
     inkscape:zoom="1.0179399"
     inkscape:cx="561.28003"
     inkscape:cy="396.88"
     inkscape:window-x="225"
     inkscape:window-y="89"
     inkscape:window-maximized="0"
     inkscape:current-layer="g18" /><g
     id="g18"
     inkscape:groupmode="layer"
     inkscape:label="namd_on_mahti_d"
     transform="matrix(1.3333333,0,0,-1.3333333,0,793.76)"><path
       d="m 58.572,54.851 h 724.79 v 485.55 H 58.572 Z"
       style="fill:#ffffff;fill-opacity:1;fill-rule:evenodd;stroke:none"
       id="path20"
       inkscape:connector-curvature="0" /><path
       d="M 154.24,179 H 739.98 M 154.24,220.75 H 739.98 M 154.24,262.72 H 739.98 M 154.24,304.48 H 739.98 M 154.24,346.23 H 739.98 M 154.24,387.98 H 739.98 M 154.24,429.73 H 739.98 M 154.24,471.56 H 739.98"
       style="fill:none;stroke:#d9d9d9;stroke-width:1.38069999;stroke-linecap:butt;stroke-linejoin:round;stroke-miterlimit:10;stroke-dasharray:none;stroke-opacity:1"
       id="path22"
       inkscape:connector-curvature="0" /><path
       d="M 154.24,137.27 V 471.56"
       style="fill:none;stroke:#bfbfbf;stroke-width:1.38069999;stroke-linecap:butt;stroke-linejoin:round;stroke-miterlimit:10;stroke-dasharray:none;stroke-opacity:1"
       id="path24"
       inkscape:connector-curvature="0" /><path
       d="M 154.24,137.27 H 739.98"
       style="fill:none;stroke:#bfbfbf;stroke-width:1.38069999;stroke-linecap:butt;stroke-linejoin:round;stroke-miterlimit:10;stroke-dasharray:none;stroke-opacity:1"
       id="path26"
       inkscape:connector-curvature="0" /><path
       d="m 188.69,161.74 34.46,23 34.46,18.12 34.46,22.75 68.92,38.22 137.85,66.05 206.69,84.82"
       style="fill:none;stroke:#4f81bd;stroke-width:2.76130009;stroke-linecap:round;stroke-linejoin:round;stroke-miterlimit:10;stroke-dasharray:none;stroke-opacity:1"
       id="path28"
       inkscape:connector-curvature="0" /><path
       d="m 193.33,161.77 c 0,-2.56 -2.08,-4.64 -4.64,-4.64 -2.57,0 -4.64,2.08 -4.64,4.64 0,2.56 2.07,4.64 4.64,4.64 2.56,0 4.64,-2.08 4.64,-4.64 z"
       style="fill:#4f81bd;fill-opacity:1;fill-rule:nonzero;stroke:none"
       id="path30"
       inkscape:connector-curvature="0" /><path
       d="m 193.33,161.77 c 0,-2.56 -2.08,-4.64 -4.64,-4.64 -2.57,0 -4.64,2.08 -4.64,4.64 0,2.56 2.07,4.64 4.64,4.64 2.56,0 4.64,-2.08 4.64,-4.64 z"
       style="fill:none;stroke:#4f81bd;stroke-width:1.32539999;stroke-linecap:butt;stroke-linejoin:round;stroke-miterlimit:10;stroke-dasharray:none;stroke-opacity:1"
       id="path32"
       inkscape:connector-curvature="0" /><path
       d="m 227.79,184.74 c 0,-2.56 -2.08,-4.63 -4.64,-4.63 -2.56,0 -4.64,2.07 -4.64,4.63 0,2.57 2.08,4.64 4.64,4.64 2.56,0 4.64,-2.07 4.64,-4.64 z"
       style="fill:#4f81bd;fill-opacity:1;fill-rule:nonzero;stroke:none"
       id="path34"
       inkscape:connector-curvature="0" /><path
       d="m 227.79,184.74 c 0,-2.56 -2.08,-4.63 -4.64,-4.63 -2.56,0 -4.64,2.07 -4.64,4.63 0,2.57 2.08,4.64 4.64,4.64 2.56,0 4.64,-2.07 4.64,-4.64 z"
       style="fill:none;stroke:#4f81bd;stroke-width:1.32539999;stroke-linecap:butt;stroke-linejoin:round;stroke-miterlimit:10;stroke-dasharray:none;stroke-opacity:1"
       id="path36"
       inkscape:connector-curvature="0" /><path
       d="m 262.25,202.86 c 0,-2.56 -2.08,-4.64 -4.64,-4.64 -2.56,0 -4.64,2.08 -4.64,4.64 0,2.56 2.08,4.64 4.64,4.64 2.56,0 4.64,-2.08 4.64,-4.64 z"
       style="fill:#4f81bd;fill-opacity:1;fill-rule:nonzero;stroke:none"
       id="path38"
       inkscape:connector-curvature="0" /><path
       d="m 262.25,202.86 c 0,-2.56 -2.08,-4.64 -4.64,-4.64 -2.56,0 -4.64,2.08 -4.64,4.64 0,2.56 2.08,4.64 4.64,4.64 2.56,0 4.64,-2.08 4.64,-4.64 z"
       style="fill:none;stroke:#4f81bd;stroke-width:1.32539999;stroke-linecap:butt;stroke-linejoin:round;stroke-miterlimit:10;stroke-dasharray:none;stroke-opacity:1"
       id="path40"
       inkscape:connector-curvature="0" /><path
       d="m 296.71,225.61 c 0,-2.56 -2.08,-4.64 -4.64,-4.64 -2.56,0 -4.64,2.08 -4.64,4.64 0,2.56 2.08,4.64 4.64,4.64 2.56,0 4.64,-2.08 4.64,-4.64 z"
       style="fill:#4f81bd;fill-opacity:1;fill-rule:nonzero;stroke:none"
       id="path42"
       inkscape:connector-curvature="0" /><path
       d="m 296.71,225.61 c 0,-2.56 -2.08,-4.64 -4.64,-4.64 -2.56,0 -4.64,2.08 -4.64,4.64 0,2.56 2.08,4.64 4.64,4.64 2.56,0 4.64,-2.08 4.64,-4.64 z"
       style="fill:none;stroke:#4f81bd;stroke-width:1.32539999;stroke-linecap:butt;stroke-linejoin:round;stroke-miterlimit:10;stroke-dasharray:none;stroke-opacity:1"
       id="path44"
       inkscape:connector-curvature="0" /><path
       d="m 365.63,263.83 c 0,-2.56 -2.07,-4.64 -4.64,-4.64 -2.56,0 -4.64,2.08 -4.64,4.64 0,2.56 2.08,4.64 4.64,4.64 2.57,0 4.64,-2.08 4.64,-4.64 z"
       style="fill:#4f81bd;fill-opacity:1;fill-rule:nonzero;stroke:none"
       id="path46"
       inkscape:connector-curvature="0" /><path
       d="m 365.63,263.83 c 0,-2.56 -2.07,-4.64 -4.64,-4.64 -2.56,0 -4.64,2.08 -4.64,4.64 0,2.56 2.08,4.64 4.64,4.64 2.57,0 4.64,-2.08 4.64,-4.64 z"
       style="fill:none;stroke:#4f81bd;stroke-width:1.32539999;stroke-linecap:butt;stroke-linejoin:round;stroke-miterlimit:10;stroke-dasharray:none;stroke-opacity:1"
       id="path48"
       inkscape:connector-curvature="0" /><path
       d="m 503.48,329.88 c 0,-2.56 -2.08,-4.64 -4.64,-4.64 -2.56,0 -4.64,2.08 -4.64,4.64 0,2.56 2.08,4.64 4.64,4.64 2.56,0 4.64,-2.08 4.64,-4.64 z"
       style="fill:#4f81bd;fill-opacity:1;fill-rule:nonzero;stroke:none"
       id="path50"
       inkscape:connector-curvature="0" /><path
       d="m 503.48,329.88 c 0,-2.56 -2.08,-4.64 -4.64,-4.64 -2.56,0 -4.64,2.08 -4.64,4.64 0,2.56 2.08,4.64 4.64,4.64 2.56,0 4.64,-2.08 4.64,-4.64 z"
       style="fill:none;stroke:#4f81bd;stroke-width:1.32539999;stroke-linecap:butt;stroke-linejoin:round;stroke-miterlimit:10;stroke-dasharray:none;stroke-opacity:1"
       id="path52"
       inkscape:connector-curvature="0" /><path
       d="m 710.25,414.71 c 0,-2.56 -2.08,-4.64 -4.64,-4.64 -2.56,0 -4.64,2.08 -4.64,4.64 0,2.56 2.08,4.64 4.64,4.64 2.56,0 4.64,-2.08 4.64,-4.64 z"
       style="fill:#4f81bd;fill-opacity:1;fill-rule:nonzero;stroke:none"
       id="path54"
       inkscape:connector-curvature="0" /><path
       d="m 710.25,414.71 c 0,-2.56 -2.08,-4.64 -4.64,-4.64 -2.56,0 -4.64,2.08 -4.64,4.64 0,2.56 2.08,4.64 4.64,4.64 2.56,0 4.64,-2.08 4.64,-4.64 z"
       style="fill:none;stroke:#4f81bd;stroke-width:1.32539999;stroke-linecap:butt;stroke-linejoin:round;stroke-miterlimit:10;stroke-dasharray:none;stroke-opacity:1"
       id="path56"
       inkscape:connector-curvature="0" /><path
       d="m 188.69,165.42 34.46,25.73 34.46,22.53 34.46,22.54 68.92,13.03 137.8,73.62"
       style="fill:none;stroke:#9bbb59;stroke-width:2.76130009;stroke-linecap:round;stroke-linejoin:round;stroke-miterlimit:10;stroke-dasharray:none;stroke-opacity:1"
       id="path58"
       inkscape:connector-curvature="0" /><path
       d="m 193.33,165.53 c 0,-2.57 -2.08,-4.64 -4.64,-4.64 -2.57,0 -4.64,2.07 -4.64,4.64 0,2.56 2.07,4.63 4.64,4.63 2.56,0 4.64,-2.07 4.64,-4.63 z"
       style="fill:#9bbb59;fill-opacity:1;fill-rule:nonzero;stroke:none"
       id="path60"
       inkscape:connector-curvature="0" /><path
       d="m 193.33,165.53 c 0,-2.57 -2.08,-4.64 -4.64,-4.64 -2.57,0 -4.64,2.07 -4.64,4.64 0,2.56 2.07,4.63 4.64,4.63 2.56,0 4.64,-2.07 4.64,-4.63 z"
       style="fill:none;stroke:#9bbb59;stroke-width:1.32539999;stroke-linecap:butt;stroke-linejoin:round;stroke-miterlimit:10;stroke-dasharray:none;stroke-opacity:1"
       id="path62"
       inkscape:connector-curvature="0" /><path
       d="m 227.79,191.15 c 0,-2.56 -2.08,-4.64 -4.64,-4.64 -2.56,0 -4.64,2.08 -4.64,4.64 0,2.56 2.08,4.64 4.64,4.64 2.56,0 4.64,-2.08 4.64,-4.64 z"
       style="fill:#9bbb59;fill-opacity:1;fill-rule:nonzero;stroke:none"
       id="path64"
       inkscape:connector-curvature="0" /><path
       d="m 227.79,191.15 c 0,-2.56 -2.08,-4.64 -4.64,-4.64 -2.56,0 -4.64,2.08 -4.64,4.64 0,2.56 2.08,4.64 4.64,4.64 2.56,0 4.64,-2.08 4.64,-4.64 z"
       style="fill:none;stroke:#9bbb59;stroke-width:1.32539999;stroke-linecap:butt;stroke-linejoin:round;stroke-miterlimit:10;stroke-dasharray:none;stroke-opacity:1"
       id="path66"
       inkscape:connector-curvature="0" /><path
       d="m 262.25,213.68 c 0,-2.56 -2.08,-4.64 -4.64,-4.64 -2.56,0 -4.64,2.08 -4.64,4.64 0,2.56 2.08,4.64 4.64,4.64 2.56,0 4.64,-2.08 4.64,-4.64 z"
       style="fill:#9bbb59;fill-opacity:1;fill-rule:nonzero;stroke:none"
       id="path68"
       inkscape:connector-curvature="0" /><path
       d="m 262.25,213.68 c 0,-2.56 -2.08,-4.64 -4.64,-4.64 -2.56,0 -4.64,2.08 -4.64,4.64 0,2.56 2.08,4.64 4.64,4.64 2.56,0 4.64,-2.08 4.64,-4.64 z"
       style="fill:none;stroke:#9bbb59;stroke-width:1.32539999;stroke-linecap:butt;stroke-linejoin:round;stroke-miterlimit:10;stroke-dasharray:none;stroke-opacity:1"
       id="path70"
       inkscape:connector-curvature="0" /><path
       d="m 296.71,236.22 c 0,-2.57 -2.08,-4.64 -4.64,-4.64 -2.56,0 -4.64,2.07 -4.64,4.64 0,2.56 2.08,4.63 4.64,4.63 2.56,0 4.64,-2.07 4.64,-4.63 z"
       style="fill:#9bbb59;fill-opacity:1;fill-rule:nonzero;stroke:none"
       id="path72"
       inkscape:connector-curvature="0" /><path
       d="m 296.71,236.22 c 0,-2.57 -2.08,-4.64 -4.64,-4.64 -2.56,0 -4.64,2.07 -4.64,4.64 0,2.56 2.08,4.63 4.64,4.63 2.56,0 4.64,-2.07 4.64,-4.63 z"
       style="fill:none;stroke:#9bbb59;stroke-width:1.32539999;stroke-linecap:butt;stroke-linejoin:round;stroke-miterlimit:10;stroke-dasharray:none;stroke-opacity:1"
       id="path74"
       inkscape:connector-curvature="0" /><path
       d="m 365.63,249.25 c 0,-2.56 -2.07,-4.64 -4.64,-4.64 -2.56,0 -4.64,2.08 -4.64,4.64 0,2.56 2.08,4.64 4.64,4.64 2.57,0 4.64,-2.08 4.64,-4.64 z"
       style="fill:#9bbb59;fill-opacity:1;fill-rule:nonzero;stroke:none"
       id="path76"
       inkscape:connector-curvature="0" /><path
       d="m 365.63,249.25 c 0,-2.56 -2.07,-4.64 -4.64,-4.64 -2.56,0 -4.64,2.08 -4.64,4.64 0,2.56 2.08,4.64 4.64,4.64 2.57,0 4.64,-2.08 4.64,-4.64 z"
       style="fill:none;stroke:#9bbb59;stroke-width:1.32539999;stroke-linecap:butt;stroke-linejoin:round;stroke-miterlimit:10;stroke-dasharray:none;stroke-opacity:1"
       id="path78"
       inkscape:connector-curvature="0" /><path
       d="m 503.48,322.81 c 0,-2.56 -2.08,-4.64 -4.64,-4.64 -2.56,0 -4.64,2.08 -4.64,4.64 0,2.56 2.08,4.64 4.64,4.64 2.56,0 4.64,-2.08 4.64,-4.64 z"
       style="fill:#9bbb59;fill-opacity:1;fill-rule:nonzero;stroke:none"
       id="path80"
       inkscape:connector-curvature="0" /><path
       d="m 503.48,322.81 c 0,-2.56 -2.08,-4.64 -4.64,-4.64 -2.56,0 -4.64,2.08 -4.64,4.64 0,2.56 2.08,4.64 4.64,4.64 2.56,0 4.64,-2.08 4.64,-4.64 z"
       style="fill:none;stroke:#9bbb59;stroke-width:1.32539999;stroke-linecap:butt;stroke-linejoin:round;stroke-miterlimit:10;stroke-dasharray:none;stroke-opacity:1"
       id="path82"
       inkscape:connector-curvature="0" /><path
       d="m 188.69,167.28 34.46,27.18 34.46,22.32 34.46,20.32 68.92,34.76 137.8,-34.1"
       style="fill:none;stroke:#4bacc6;stroke-width:2.76130009;stroke-linecap:round;stroke-linejoin:round;stroke-miterlimit:10;stroke-dasharray:none;stroke-opacity:1"
       id="path84"
       inkscape:connector-curvature="0" /><path
       d="m 193.33,167.29 c 0,-2.56 -2.08,-4.64 -4.64,-4.64 -2.57,0 -4.64,2.08 -4.64,4.64 0,2.56 2.07,4.64 4.64,4.64 2.56,0 4.64,-2.08 4.64,-4.64 z"
       style="fill:#4bacc6;fill-opacity:1;fill-rule:nonzero;stroke:none"
       id="path86"
       inkscape:connector-curvature="0" /><path
       d="m 193.33,167.29 c 0,-2.56 -2.08,-4.64 -4.64,-4.64 -2.57,0 -4.64,2.08 -4.64,4.64 0,2.56 2.07,4.64 4.64,4.64 2.56,0 4.64,-2.08 4.64,-4.64 z"
       style="fill:none;stroke:#4bacc6;stroke-width:1.32539999;stroke-linecap:butt;stroke-linejoin:round;stroke-miterlimit:10;stroke-dasharray:none;stroke-opacity:1"
       id="path88"
       inkscape:connector-curvature="0" /><path
       d="m 227.79,194.46 c 0,-2.56 -2.08,-4.64 -4.64,-4.64 -2.56,0 -4.64,2.08 -4.64,4.64 0,2.57 2.08,4.64 4.64,4.64 2.56,0 4.64,-2.07 4.64,-4.64 z"
       style="fill:#4bacc6;fill-opacity:1;fill-rule:nonzero;stroke:none"
       id="path90"
       inkscape:connector-curvature="0" /><path
       d="m 227.79,194.46 c 0,-2.56 -2.08,-4.64 -4.64,-4.64 -2.56,0 -4.64,2.08 -4.64,4.64 0,2.57 2.08,4.64 4.64,4.64 2.56,0 4.64,-2.07 4.64,-4.64 z"
       style="fill:none;stroke:#4bacc6;stroke-width:1.32539999;stroke-linecap:butt;stroke-linejoin:round;stroke-miterlimit:10;stroke-dasharray:none;stroke-opacity:1"
       id="path92"
       inkscape:connector-curvature="0" /><path
       d="m 262.25,216.78 c 0,-2.57 -2.08,-4.64 -4.64,-4.64 -2.56,0 -4.64,2.07 -4.64,4.64 0,2.56 2.08,4.63 4.64,4.63 2.56,0 4.64,-2.07 4.64,-4.63 z"
       style="fill:#4bacc6;fill-opacity:1;fill-rule:nonzero;stroke:none"
       id="path94"
       inkscape:connector-curvature="0" /><path
       d="m 262.25,216.78 c 0,-2.57 -2.08,-4.64 -4.64,-4.64 -2.56,0 -4.64,2.07 -4.64,4.64 0,2.56 2.08,4.63 4.64,4.63 2.56,0 4.64,-2.07 4.64,-4.63 z"
       style="fill:none;stroke:#4bacc6;stroke-width:1.32539999;stroke-linecap:butt;stroke-linejoin:round;stroke-miterlimit:10;stroke-dasharray:none;stroke-opacity:1"
       id="path96"
       inkscape:connector-curvature="0" /><path
       d="m 296.71,237.1 c 0,-2.56 -2.08,-4.64 -4.64,-4.64 -2.56,0 -4.64,2.08 -4.64,4.64 0,2.56 2.08,4.64 4.64,4.64 2.56,0 4.64,-2.08 4.64,-4.64 z"
       style="fill:#4bacc6;fill-opacity:1;fill-rule:nonzero;stroke:none"
       id="path98"
       inkscape:connector-curvature="0" /><path
       d="m 296.71,237.1 c 0,-2.56 -2.08,-4.64 -4.64,-4.64 -2.56,0 -4.64,2.08 -4.64,4.64 0,2.56 2.08,4.64 4.64,4.64 2.56,0 4.64,-2.08 4.64,-4.64 z"
       style="fill:none;stroke:#4bacc6;stroke-width:1.32539999;stroke-linecap:butt;stroke-linejoin:round;stroke-miterlimit:10;stroke-dasharray:none;stroke-opacity:1"
       id="path100"
       inkscape:connector-curvature="0" /><path
       d="m 365.63,271.78 c 0,-2.56 -2.07,-4.64 -4.64,-4.64 -2.56,0 -4.64,2.08 -4.64,4.64 0,2.56 2.08,4.64 4.64,4.64 2.57,0 4.64,-2.08 4.64,-4.64 z"
       style="fill:#4bacc6;fill-opacity:1;fill-rule:nonzero;stroke:none"
       id="path102"
       inkscape:connector-curvature="0" /><path
       d="m 365.63,271.78 c 0,-2.56 -2.07,-4.64 -4.64,-4.64 -2.56,0 -4.64,2.08 -4.64,4.64 0,2.56 2.08,4.64 4.64,4.64 2.57,0 4.64,-2.08 4.64,-4.64 z"
       style="fill:none;stroke:#4bacc6;stroke-width:1.32539999;stroke-linecap:butt;stroke-linejoin:round;stroke-miterlimit:10;stroke-dasharray:none;stroke-opacity:1"
       id="path104"
       inkscape:connector-curvature="0" /><path
       d="m 503.48,237.76 c 0,-2.56 -2.08,-4.64 -4.64,-4.64 -2.56,0 -4.64,2.08 -4.64,4.64 0,2.56 2.08,4.64 4.64,4.64 2.56,0 4.64,-2.08 4.64,-4.64 z"
       style="fill:#4bacc6;fill-opacity:1;fill-rule:nonzero;stroke:none"
       id="path106"
       inkscape:connector-curvature="0" /><path
       d="m 503.48,237.76 c 0,-2.56 -2.08,-4.64 -4.64,-4.64 -2.56,0 -4.64,2.08 -4.64,4.64 0,2.56 2.08,4.64 4.64,4.64 2.56,0 4.64,-2.08 4.64,-4.64 z"
       style="fill:none;stroke:#4bacc6;stroke-width:1.32539999;stroke-linecap:butt;stroke-linejoin:round;stroke-miterlimit:10;stroke-dasharray:none;stroke-opacity:1"
       id="path108"
       inkscape:connector-curvature="0" /><path
       d="m 188.69,167.28 34.46,30.06 34.46,30.04 34.46,30.04 68.92,59.87 137.8,120.12"
       style="fill:none;stroke:#2c4d75;stroke-width:2.76130009;stroke-linecap:round;stroke-linejoin:round;stroke-miterlimit:10;stroke-dasharray:none;stroke-opacity:1"
       id="path110"
       inkscape:connector-curvature="0" /><path
       d="m 193.33,167.29 c 0,-2.56 -2.08,-4.64 -4.64,-4.64 -2.57,0 -4.64,2.08 -4.64,4.64 0,2.56 2.07,4.64 4.64,4.64 2.56,0 4.64,-2.08 4.64,-4.64 z"
       style="fill:#2c4d75;fill-opacity:1;fill-rule:nonzero;stroke:none"
       id="path112"
       inkscape:connector-curvature="0" /><path
       d="m 193.33,167.29 c 0,-2.56 -2.08,-4.64 -4.64,-4.64 -2.57,0 -4.64,2.08 -4.64,4.64 0,2.56 2.07,4.64 4.64,4.64 2.56,0 4.64,-2.08 4.64,-4.64 z"
       style="fill:none;stroke:#2c4d75;stroke-width:1.32539999;stroke-linecap:butt;stroke-linejoin:round;stroke-miterlimit:10;stroke-dasharray:none;stroke-opacity:1"
       id="path114"
       inkscape:connector-curvature="0" /><path
       d="m 227.79,197.34 c 0,-2.57 -2.08,-4.64 -4.64,-4.64 -2.56,0 -4.64,2.07 -4.64,4.64 0,2.56 2.08,4.63 4.64,4.63 2.56,0 4.64,-2.07 4.64,-4.63 z"
       style="fill:#2c4d75;fill-opacity:1;fill-rule:nonzero;stroke:none"
       id="path116"
       inkscape:connector-curvature="0" /><path
       d="m 227.79,197.34 c 0,-2.57 -2.08,-4.64 -4.64,-4.64 -2.56,0 -4.64,2.07 -4.64,4.64 0,2.56 2.08,4.63 4.64,4.63 2.56,0 4.64,-2.07 4.64,-4.63 z"
       style="fill:none;stroke:#2c4d75;stroke-width:1.32539999;stroke-linecap:butt;stroke-linejoin:round;stroke-miterlimit:10;stroke-dasharray:none;stroke-opacity:1"
       id="path118"
       inkscape:connector-curvature="0" /><path
       d="m 262.25,227.38 c 0,-2.56 -2.08,-4.64 -4.64,-4.64 -2.56,0 -4.64,2.08 -4.64,4.64 0,2.56 2.08,4.64 4.64,4.64 2.56,0 4.64,-2.08 4.64,-4.64 z"
       style="fill:#2c4d75;fill-opacity:1;fill-rule:nonzero;stroke:none"
       id="path120"
       inkscape:connector-curvature="0" /><path
       d="m 262.25,227.38 c 0,-2.56 -2.08,-4.64 -4.64,-4.64 -2.56,0 -4.64,2.08 -4.64,4.64 0,2.56 2.08,4.64 4.64,4.64 2.56,0 4.64,-2.08 4.64,-4.64 z"
       style="fill:none;stroke:#2c4d75;stroke-width:1.32539999;stroke-linecap:butt;stroke-linejoin:round;stroke-miterlimit:10;stroke-dasharray:none;stroke-opacity:1"
       id="path122"
       inkscape:connector-curvature="0" /><path
       d="m 296.71,257.42 c 0,-2.56 -2.08,-4.64 -4.64,-4.64 -2.56,0 -4.64,2.08 -4.64,4.64 0,2.56 2.08,4.64 4.64,4.64 2.56,0 4.64,-2.08 4.64,-4.64 z"
       style="fill:#2c4d75;fill-opacity:1;fill-rule:nonzero;stroke:none"
       id="path124"
       inkscape:connector-curvature="0" /><path
       d="m 296.71,257.42 c 0,-2.56 -2.08,-4.64 -4.64,-4.64 -2.56,0 -4.64,2.08 -4.64,4.64 0,2.56 2.08,4.64 4.64,4.64 2.56,0 4.64,-2.08 4.64,-4.64 z"
       style="fill:none;stroke:#2c4d75;stroke-width:1.32539999;stroke-linecap:butt;stroke-linejoin:round;stroke-miterlimit:10;stroke-dasharray:none;stroke-opacity:1"
       id="path126"
       inkscape:connector-curvature="0" /><path
       d="m 365.63,317.29 c 0,-2.56 -2.07,-4.64 -4.64,-4.64 -2.56,0 -4.64,2.08 -4.64,4.64 0,2.56 2.08,4.64 4.64,4.64 2.57,0 4.64,-2.08 4.64,-4.64 z"
       style="fill:#2c4d75;fill-opacity:1;fill-rule:nonzero;stroke:none"
       id="path128"
       inkscape:connector-curvature="0" /><path
       d="m 365.63,317.29 c 0,-2.56 -2.07,-4.64 -4.64,-4.64 -2.56,0 -4.64,2.08 -4.64,4.64 0,2.56 2.08,4.64 4.64,4.64 2.57,0 4.64,-2.08 4.64,-4.64 z"
       style="fill:none;stroke:#2c4d75;stroke-width:1.32539999;stroke-linecap:butt;stroke-linejoin:round;stroke-miterlimit:10;stroke-dasharray:none;stroke-opacity:1"
       id="path130"
       inkscape:connector-curvature="0" /><path
       d="m 503.48,437.46 c 0,-2.56 -2.08,-4.64 -4.64,-4.64 -2.56,0 -4.64,2.08 -4.64,4.64 0,2.56 2.08,4.64 4.64,4.64 2.56,0 4.64,-2.08 4.64,-4.64 z"
       style="fill:#2c4d75;fill-opacity:1;fill-rule:nonzero;stroke:none"
       id="path132"
       inkscape:connector-curvature="0" /><path
       d="m 503.48,437.46 c 0,-2.56 -2.08,-4.64 -4.64,-4.64 -2.56,0 -4.64,2.08 -4.64,4.64 0,2.56 2.08,4.64 4.64,4.64 2.56,0 4.64,-2.08 4.64,-4.64 z"
       style="fill:none;stroke:#2c4d75;stroke-width:1.32539999;stroke-linecap:butt;stroke-linejoin:round;stroke-miterlimit:10;stroke-dasharray:none;stroke-opacity:1"
       id="path134"
       inkscape:connector-curvature="0" /><path
       d="m 182.39,184.63 h 12.592 v 12.592 H 182.39 Z"
       style="fill:none;stroke:#7030a0;stroke-width:2.87179995;stroke-linecap:butt;stroke-linejoin:round;stroke-miterlimit:10;stroke-dasharray:none;stroke-opacity:1"
       id="path136"
       inkscape:connector-curvature="0" /><g
       id="g138"><g
         id="g140"
         clip-path="url(#clipPath144)"><text
           transform="matrix(1,0,0,-1,130.49,132.53)"
           style="font-variant:normal;font-weight:normal;font-size:16.58399963px;font-family:Calibri;-inkscape-font-specification:Calibri;writing-mode:lr-tb;fill:#595959;fill-opacity:1;fill-rule:nonzero;stroke:none"
           id="text148"><tspan
             x="0"
             y="0"
             id="tspan146">0</tspan></text>
</g></g><g
       id="g150"><g
         id="g152"
         clip-path="url(#clipPath156)"><text
           transform="matrix(1,0,0,-1,122.09,174.31)"
           style="font-variant:normal;font-weight:normal;font-size:16.55999947px;font-family:Calibri;-inkscape-font-specification:Calibri;writing-mode:lr-tb;fill:#595959;fill-opacity:1;fill-rule:nonzero;stroke:none"
           id="text160"><tspan
             x="0 8.3999996"
             y="0"
             sodipodi:role="line"
             id="tspan158">20</tspan></text>
</g></g><g
       id="g162"><g
         id="g164"
         clip-path="url(#clipPath168)"><text
           transform="matrix(1,0,0,-1,122.09,216.12)"
           style="font-variant:normal;font-weight:normal;font-size:16.58399963px;font-family:Calibri;-inkscape-font-specification:Calibri;writing-mode:lr-tb;fill:#595959;fill-opacity:1;fill-rule:nonzero;stroke:none"
           id="text172"><tspan
             x="0 8.3999977"
             y="0"
             sodipodi:role="line"
             id="tspan170">40</tspan></text>
</g></g><g
       id="g174"><g
         id="g176"
         clip-path="url(#clipPath180)"><text
           transform="matrix(1,0,0,-1,122.09,257.9)"
           style="font-variant:normal;font-weight:normal;font-size:16.55999947px;font-family:Calibri;-inkscape-font-specification:Calibri;writing-mode:lr-tb;fill:#595959;fill-opacity:1;fill-rule:nonzero;stroke:none"
           id="text184"><tspan
             x="0 8.3999996"
             y="0"
             sodipodi:role="line"
             id="tspan182">60</tspan></text>
</g></g><g
       id="g186"><g
         id="g188"
         clip-path="url(#clipPath192)"><text
           transform="matrix(1,0,0,-1,122.09,299.69)"
           style="font-variant:normal;font-weight:normal;font-size:16.55999947px;font-family:Calibri;-inkscape-font-specification:Calibri;writing-mode:lr-tb;fill:#595959;fill-opacity:1;fill-rule:nonzero;stroke:none"
           id="text196"><tspan
             x="0 8.3999996"
             y="0"
             sodipodi:role="line"
             id="tspan194">80</tspan></text>
</g></g><g
       id="g198"><g
         id="g200"
         clip-path="url(#clipPath204)"><text
           transform="matrix(1,0,0,-1,113.71,341.5)"
           style="font-variant:normal;font-weight:normal;font-size:16.58399963px;font-family:Calibri;-inkscape-font-specification:Calibri;writing-mode:lr-tb;fill:#595959;fill-opacity:1;fill-rule:nonzero;stroke:none"
           id="text208"><tspan
             x="0 8.375988 16.751976"
             y="0"
             sodipodi:role="line"
             id="tspan206">100</tspan></text>
</g></g><g
       id="g210"><g
         id="g212"
         clip-path="url(#clipPath216)"><text
           transform="matrix(1,0,0,-1,113.71,383.28)"
           style="font-variant:normal;font-weight:normal;font-size:16.55999947px;font-family:Calibri;-inkscape-font-specification:Calibri;writing-mode:lr-tb;fill:#595959;fill-opacity:1;fill-rule:nonzero;stroke:none"
           id="text220"><tspan
             x="0 8.3760204 16.752041"
             y="0"
             sodipodi:role="line"
             id="tspan218">120</tspan></text>
</g></g><g
       id="g222"><g
         id="g224"
         clip-path="url(#clipPath228)"><text
           transform="matrix(1,0,0,-1,113.71,425.09)"
           style="font-variant:normal;font-weight:normal;font-size:16.58399963px;font-family:Calibri;-inkscape-font-specification:Calibri;writing-mode:lr-tb;fill:#595959;fill-opacity:1;fill-rule:nonzero;stroke:none"
           id="text232"><tspan
             x="0 8.375988 16.751976"
             y="0"
             sodipodi:role="line"
             id="tspan230">140</tspan></text>
</g></g><g
       id="g234"><g
         id="g236"
         clip-path="url(#clipPath240)"><text
           transform="matrix(1,0,0,-1,113.71,466.87)"
           style="font-variant:normal;font-weight:normal;font-size:16.55999947px;font-family:Calibri;-inkscape-font-specification:Calibri;writing-mode:lr-tb;fill:#595959;fill-opacity:1;fill-rule:nonzero;stroke:none"
           id="text244"><tspan
             x="0 8.3760204 16.752041"
             y="0"
             sodipodi:role="line"
             id="tspan242">160</tspan></text>
</g></g><g
       id="g246"><g
         id="g248"
         clip-path="url(#clipPath252)"><text
           transform="matrix(1,0,0,-1,150.07,110.98)"
           style="font-variant:normal;font-weight:normal;font-size:16.58399963px;font-family:Calibri;-inkscape-font-specification:Calibri;writing-mode:lr-tb;fill:#595959;fill-opacity:1;fill-rule:nonzero;stroke:none"
           id="text256"><tspan
             x="0"
             y="0"
             id="tspan254">0</tspan></text>
</g></g><g
       id="g258"><g
         id="g260"
         clip-path="url(#clipPath264)"><text
           transform="matrix(1,0,0,-1,287.9,110.98)"
           style="font-variant:normal;font-weight:normal;font-size:16.58399963px;font-family:Calibri;-inkscape-font-specification:Calibri;writing-mode:lr-tb;fill:#595959;fill-opacity:1;fill-rule:nonzero;stroke:none"
           id="text268"><tspan
             x="0"
             y="0"
             id="tspan266">4</tspan></text>
</g></g><g
       id="g270"><g
         id="g272"
         clip-path="url(#clipPath276)"><text
           transform="matrix(1,0,0,-1,425.74,110.98)"
           style="font-variant:normal;font-weight:normal;font-size:16.58399963px;font-family:Calibri;-inkscape-font-specification:Calibri;writing-mode:lr-tb;fill:#595959;fill-opacity:1;fill-rule:nonzero;stroke:none"
           id="text280"><tspan
             x="0"
             y="0"
             id="tspan278">8</tspan></text>
</g></g><g
       id="g282"><g
         id="g284"
         clip-path="url(#clipPath288)"><text
           transform="matrix(1,0,0,-1,559.39,110.98)"
           style="font-variant:normal;font-weight:normal;font-size:16.58399963px;font-family:Calibri;-inkscape-font-specification:Calibri;writing-mode:lr-tb;fill:#595959;fill-opacity:1;fill-rule:nonzero;stroke:none"
           id="text292"><tspan
             x="0 8.3999977"
             y="0"
             sodipodi:role="line"
             id="tspan290">12</tspan></text>
</g></g><g
       id="g294"><g
         id="g296"
         clip-path="url(#clipPath300)"><text
           transform="matrix(1,0,0,-1,697.22,110.98)"
           style="font-variant:normal;font-weight:normal;font-size:16.58399963px;font-family:Calibri;-inkscape-font-specification:Calibri;writing-mode:lr-tb;fill:#595959;fill-opacity:1;fill-rule:nonzero;stroke:none"
           id="text304"><tspan
             x="0 8.3999977"
             y="0"
             sodipodi:role="line"
             id="tspan302">16</tspan></text>
</g></g><g
       id="g306"><g
         id="g308"
         clip-path="url(#clipPath312)"><text
           transform="matrix(-4.4e-8,1,1,4.4e-8,103.15,278.9)"
           style="font-variant:normal;font-weight:normal;font-size:18.33600044px;font-family:Calibri;-inkscape-font-specification:Calibri;writing-mode:lr-tb;fill:#595959;fill-opacity:1;fill-rule:nonzero;stroke:none"
           id="text316"><tspan
             x="0 9.6997442 16.777439 23.855137 33.554878 42.337826"
             y="0"
             sodipodi:role="line"
             id="tspan314">ns/day</tspan></text>
</g></g><g
       id="g318"><g
         id="g320"
         clip-path="url(#clipPath324)"><text
           transform="matrix(1,0,0,-1,424.56,83.448)"
           style="font-variant:normal;font-weight:normal;font-size:18.33600044px;font-family:Calibri;-inkscape-font-specification:Calibri;writing-mode:lr-tb;fill:#595959;fill-opacity:1;fill-rule:nonzero;stroke:none"
           id="text328"><tspan
             x="0 9.6997442 19.399488 29.099232 38.138882"
             y="0"
             sodipodi:role="line"
             id="tspan326">nodes</tspan></text>
</g></g><g
       id="g330"><g
         id="g332"
         clip-path="url(#clipPath336)"><text
           transform="matrix(1,0,0,-1,236.45,502.06)"
           style="font-variant:normal;font-weight:normal;font-size:25.84799957px;font-family:Calibri;-inkscape-font-specification:Calibri;writing-mode:lr-tb;fill:#595959;fill-opacity:1;fill-rule:nonzero;stroke:none"
           id="text340"><tspan
             x="0 16.775352 31.741344 53.841385 69.737907 75.346916 88.451859 95.01725 108.12218 121.12373 126.88783 139.26903 152.76167 166.43527 178.81647 191.9214 197.6338 207.74037 218.4156 230.7968 236.74184 242.68687 256.25708 268.43149 274.16974 287.84332 301.336 307.1001 329.20013 341.58133 354.86719 363.52628"
             y="0"
             sodipodi:role="line"
             id="tspan338">NAMD 2.14 apoa1 scaling on Mahti</tspan></text>
</g></g><path
       d="M 619.68,183.97 H 738.57 V 340.58 H 619.68 Z"
       style="fill:#ffffff;fill-opacity:1;fill-rule:evenodd;stroke:none"
       id="path342"
       inkscape:connector-curvature="0" /><path
       d="m 625.48,324.92 h 35.35"
       style="fill:none;stroke:#4f81bd;stroke-width:2.76130009;stroke-linecap:round;stroke-linejoin:round;stroke-miterlimit:10;stroke-dasharray:none;stroke-opacity:1"
       id="path344"
       inkscape:connector-curvature="0" /><path
       d="m 647.73,325.02 c 0,-2.56 -2.08,-4.64 -4.64,-4.64 -2.56,0 -4.64,2.08 -4.64,4.64 0,2.56 2.08,4.64 4.64,4.64 2.56,0 4.64,-2.08 4.64,-4.64 z"
       style="fill:#4f81bd;fill-opacity:1;fill-rule:nonzero;stroke:none"
       id="path346"
       inkscape:connector-curvature="0" /><path
       d="m 647.73,325.02 c 0,-2.56 -2.08,-4.64 -4.64,-4.64 -2.56,0 -4.64,2.08 -4.64,4.64 0,2.56 2.08,4.64 4.64,4.64 2.56,0 4.64,-2.08 4.64,-4.64 z"
       style="fill:none;stroke:#4f81bd;stroke-width:1.38069999;stroke-linecap:butt;stroke-linejoin:round;stroke-miterlimit:10;stroke-dasharray:none;stroke-opacity:1"
       id="path348"
       inkscape:connector-curvature="0" /><g
       id="g350"><g
         id="g352"
         clip-path="url(#clipPath356)"><text
           transform="matrix(1,0,0,-1,664.63,320.21)"
           style="font-variant:normal;font-weight:normal;font-size:16.55999947px;font-family:Calibri;-inkscape-font-specification:Calibri;writing-mode:lr-tb;fill:#595959;fill-opacity:1;fill-rule:nonzero;stroke:none"
           id="text360"><tspan
             x="0 8.6160002"
             y="0"
             sodipodi:role="line"
             id="tspan358">d3</tspan></text>
</g></g><path
       d="m 625.48,293.6 h 35.35"
       style="fill:none;stroke:#9bbb59;stroke-width:2.76130009;stroke-linecap:round;stroke-linejoin:round;stroke-miterlimit:10;stroke-dasharray:none;stroke-opacity:1"
       id="path362"
       inkscape:connector-curvature="0" /><path
       d="m 647.73,293.65 c 0,-2.56 -2.08,-4.64 -4.64,-4.64 -2.56,0 -4.64,2.08 -4.64,4.64 0,2.56 2.08,4.64 4.64,4.64 2.56,0 4.64,-2.08 4.64,-4.64 z"
       style="fill:#9bbb59;fill-opacity:1;fill-rule:nonzero;stroke:none"
       id="path364"
       inkscape:connector-curvature="0" /><path
       d="m 647.73,293.65 c 0,-2.56 -2.08,-4.64 -4.64,-4.64 -2.56,0 -4.64,2.08 -4.64,4.64 0,2.56 2.08,4.64 4.64,4.64 2.56,0 4.64,-2.08 4.64,-4.64 z"
       style="fill:none;stroke:#9bbb59;stroke-width:1.38069999;stroke-linecap:butt;stroke-linejoin:round;stroke-miterlimit:10;stroke-dasharray:none;stroke-opacity:1"
       id="path366"
       inkscape:connector-curvature="0" /><g
       id="g368"><g
         id="g370"
         clip-path="url(#clipPath374)"><text
           transform="matrix(1,0,0,-1,664.63,288.89)"
           style="font-variant:normal;font-weight:normal;font-size:16.58399963px;font-family:Calibri;-inkscape-font-specification:Calibri;writing-mode:lr-tb;fill:#595959;fill-opacity:1;fill-rule:nonzero;stroke:none"
           id="text378"><tspan
             x="0 8.6160002"
             y="0"
             sodipodi:role="line"
             id="tspan376">d7</tspan></text>
</g></g><path
       d="m 625.48,262.28 h 35.35"
       style="fill:none;stroke:#4bacc6;stroke-width:2.76130009;stroke-linecap:round;stroke-linejoin:round;stroke-miterlimit:10;stroke-dasharray:none;stroke-opacity:1"
       id="path380"
       inkscape:connector-curvature="0" /><path
       d="m 647.73,262.28 c 0,-2.56 -2.08,-4.64 -4.64,-4.64 -2.56,0 -4.64,2.08 -4.64,4.64 0,2.56 2.08,4.64 4.64,4.64 2.56,0 4.64,-2.08 4.64,-4.64 z"
       style="fill:#4bacc6;fill-opacity:1;fill-rule:nonzero;stroke:none"
       id="path382"
       inkscape:connector-curvature="0" /><path
       d="m 647.73,262.28 c 0,-2.56 -2.08,-4.64 -4.64,-4.64 -2.56,0 -4.64,2.08 -4.64,4.64 0,2.56 2.08,4.64 4.64,4.64 2.56,0 4.64,-2.08 4.64,-4.64 z"
       style="fill:none;stroke:#4bacc6;stroke-width:1.38069999;stroke-linecap:butt;stroke-linejoin:round;stroke-miterlimit:10;stroke-dasharray:none;stroke-opacity:1"
       id="path384"
       inkscape:connector-curvature="0" /><g
       id="g386"><g
         id="g388"
         clip-path="url(#clipPath392)"><text
           transform="matrix(1,0,0,-1,664.63,257.54)"
           style="font-variant:normal;font-weight:normal;font-size:16.55999947px;font-family:Calibri;-inkscape-font-specification:Calibri;writing-mode:lr-tb;fill:#595959;fill-opacity:1;fill-rule:nonzero;stroke:none"
           id="text396"><tspan
             x="0 8.6112003 17.00712"
             y="0"
             sodipodi:role="line"
             id="tspan394">d15</tspan></text>
</g></g><path
       d="m 625.48,230.96 h 35.35"
       style="fill:none;stroke:#2c4d75;stroke-width:2.76130009;stroke-linecap:round;stroke-linejoin:round;stroke-miterlimit:10;stroke-dasharray:none;stroke-opacity:1"
       id="path398"
       inkscape:connector-curvature="0" /><path
       d="m 647.73,231.13 c 0,-2.56 -2.08,-4.63 -4.64,-4.63 -2.56,0 -4.64,2.07 -4.64,4.63 0,2.57 2.08,4.64 4.64,4.64 2.56,0 4.64,-2.07 4.64,-4.64 z"
       style="fill:#2c4d75;fill-opacity:1;fill-rule:nonzero;stroke:none"
       id="path400"
       inkscape:connector-curvature="0" /><path
       d="m 647.73,231.13 c 0,-2.56 -2.08,-4.63 -4.64,-4.63 -2.56,0 -4.64,2.07 -4.64,4.63 0,2.57 2.08,4.64 4.64,4.64 2.56,0 4.64,-2.07 4.64,-4.64 z"
       style="fill:none;stroke:#2c4d75;stroke-width:1.38069999;stroke-linecap:butt;stroke-linejoin:round;stroke-miterlimit:10;stroke-dasharray:none;stroke-opacity:1"
       id="path402"
       inkscape:connector-curvature="0" /><g
       id="g404"><g
         id="g406"
         clip-path="url(#clipPath410)"><text
           transform="matrix(1,0,0,-1,664.63,226.22)"
           style="font-variant:normal;font-weight:normal;font-size:16.55999947px;font-family:Calibri;-inkscape-font-specification:Calibri;writing-mode:lr-tb;fill:#595959;fill-opacity:1;fill-rule:nonzero;stroke:none"
           id="text414"><tspan
             x="0 3.8088 12.60216 20.782801 28.71504"
             y="0"
             sodipodi:role="line"
             id="tspan412">ideal</tspan></text>
</g></g><path
       d="m 638.67,195.13 h 9.0572 v 9.0572 H 638.67 Z"
       style="fill:none;stroke:#7030a0;stroke-width:2.76130009;stroke-linecap:butt;stroke-linejoin:round;stroke-miterlimit:10;stroke-dasharray:none;stroke-opacity:1"
       id="path416"
       inkscape:connector-curvature="0" /><g
       id="g418"><g
         id="g420"
         clip-path="url(#clipPath424)"><text
           transform="matrix(1,0,0,-1,664.63,194.9)"
           style="font-variant:normal;font-weight:normal;font-size:16.58399963px;font-family:Calibri;-inkscape-font-specification:Calibri;writing-mode:lr-tb;fill:#595959;fill-opacity:1;fill-rule:nonzero;stroke:none"
           id="text428"><tspan
             x="0 8.4080877 18.789673 27.3636 38.010529 46.402031 55.025711 63.4338"
             y="0"
             sodipodi:role="line"
             id="tspan426">1GPU+d10</tspan></text>
</g></g><path
       d="m 58.572,54.851 h 724.79 v 485.55 H 58.572 Z"
       style="fill:none;stroke:#d9d9d9;stroke-width:1.38069999;stroke-linecap:butt;stroke-linejoin:round;stroke-miterlimit:10;stroke-dasharray:none;stroke-opacity:1"
       id="path430"
       inkscape:connector-curvature="0" /></g></svg>