<?xml version="1.0" encoding="UTF-8" standalone="no"?>
<svg
   id="Layer_1"
   data-name="Layer 1"
   viewBox="0 0 23.000001 20.827385"
   version="1.1"
   sodipodi:docname="risk-icon.svg"
   inkscape:version="1.1.2 (0a00cf5339, 2022-02-04)"
   width="23"
   height="20.827385"
   xmlns:inkscape="http://www.inkscape.org/namespaces/inkscape"
   xmlns:sodipodi="http://sodipodi.sourceforge.net/DTD/sodipodi-0.dtd"
   xmlns="http://www.w3.org/2000/svg"
   xmlns:svg="http://www.w3.org/2000/svg">
  <sodipodi:namedview
     id="namedview15"
     pagecolor="#ffffff"
     bordercolor="#666666"
     borderopacity="1.0"
     inkscape:pageshadow="2"
     inkscape:pageopacity="0.0"
     inkscape:pagecheckerboard="0"
     showgrid="false"
     inkscape:zoom="7.8478966"
     inkscape:cx="61.481442"
     inkscape:cy="46.318143"
     inkscape:window-width="3370"
     inkscape:window-height="1376"
     inkscape:window-x="0"
     inkscape:window-y="0"
     inkscape:window-maximized="1"
     inkscape:current-layer="Layer_1" />
  <defs
     id="defs4">
    <style
       id="style2">.cls-1{fill:#fec901;fill-rule:evenodd;}.cls-2{fill:#010101;}</style>
  </defs>
  <title
     id="title6">risk</title>
  <path
     d="M 0.46851897,15.918156 8.5261745,1.9746646 v 0 a 4.2330801,4.2330801 0 0 1 1.4990985,-1.56468431 2.945729,2.945729 0 0 1 2.998198,0 4.219963,4.219963 0 0 1 1.485981,1.57030591 l 0.0431,0.08245 7.885261,13.6923928 a 3.9182693,3.9182693 0 0 1 0.56216,2.031279 3.0806479,3.0806479 0 0 1 -0.326054,1.392288 2.8951344,2.8951344 0 0 1 -1.075602,1.124324 3.9351342,3.9351342 0 0 1 -2.126848,0.520937 v 0 H 3.3168066 c -0.039351,0 -0.080577,0 -0.1199279,0 A 3.5603595,3.5603595 0 0 1 1.7296358,20.497903 2.9663416,2.9663416 0 0 1 0.48350998,19.426047 3.0469182,3.0469182 0 0 1 5.063195e-5,17.825759 4.0588098,4.0588098 0 0 1 0.41230279,16.023093 c 0.0187387,-0.03748 0.0374775,-0.07495 0.0580901,-0.110558 z"
     id="path8"
     style="stroke-width:0.187387" />
  <path
     class="cls-1"
     d="M 1.7034016,16.62648 9.7610573,2.6886102 c 0.9781617,-1.6752428 2.5278547,-1.72396346 3.5247557,0 l 7.930232,13.7710958 c 0.772036,1.27236 0.451604,2.979458 -1.744576,2.945729 H 3.3168066 c -1.4841078,0.03373 -2.37981925,-1.15618 -1.613405,-2.778955 z"
     id="path10"
     style="stroke-width:0.187387" />
  <path
     class="cls-2"
     d="m 10.784192,15.57149 a 1.0250088,1.0250088 0 0 1 1.096216,-0.228613 1.0587385,1.0587385 0 0 1 0.374775,0.243604 1.0287565,1.0287565 0 0 1 0.299819,0.663351 0.95942319,0.95942319 0 0 1 -0.01499,0.262342 0.97816193,0.97816193 0 0 1 -0.0787,0.251099 1.0325043,1.0325043 0 0 1 -0.974414,0.609009 1.0549907,1.0549907 0 0 1 -0.423496,-0.09931 1.0325043,1.0325043 0 0 1 -0.526558,-0.547171 1.1243241,1.1243241 0 0 1 -0.06184,-0.245478 0.98940517,0.98940517 0 0 1 0,-0.245477 v 0 a 1.1243241,1.1243241 0 0 1 0.104937,-0.374775 0.86198178,0.86198178 0 0 1 0.213621,-0.292324 z m 1.521585,-1.913225 c -0.0356,0.895711 -1.551567,0.895711 -1.585297,0 -0.153657,-1.534702 -0.547171,-5.177512 -0.534054,-6.6185207 0.01312,-0.444108 0.374775,-0.7083242 0.852613,-0.8076394 a 2.1830625,2.1830625 0 0 1 0.46472,-0.046847 2.3498373,2.3498373 0 0 1 0.468469,0.046847 c 0.485333,0.1049369 0.867603,0.3747746 0.867603,0.8301259 v 0.048721 l -0.53218,6.5585562 z"
     id="path12"
     style="stroke-width:0.187387" />
</svg>
