<svg width="180" height="577" viewBox="0 0 180 577" fill="none" xmlns="http://www.w3.org/2000/svg">
<rect x="12.5" y="5" width="155" height="155" rx="77.5" fill="white"/>
<rect x="12.5" y="5" width="155" height="155" rx="77.5" stroke="#66A4AE" stroke-width="8.80572"/>
<path d="M56.566 49.855L57.6996 48.2841C57.6996 48.2841 58.9465 49.4987 60.5659 49.4987C61.4404 49.4987 62.2339 49.0453 62.2339 48.106C62.2339 46.0494 56.8089 46.4056 56.8089 42.8753C56.8089 40.9644 58.4607 39.5394 60.6631 39.5394C62.9303 39.5394 64.0962 40.7701 64.0962 40.7701L63.1894 42.4705C63.1894 42.4705 62.0882 41.4664 60.6469 41.4664C59.6753 41.4664 58.9141 42.0332 58.9141 42.8429C58.9141 44.8834 64.3229 44.3814 64.3229 48.0574C64.3229 49.8873 62.9303 51.4258 60.5335 51.4258C57.9749 51.4258 56.566 49.855 56.566 49.855ZM66.4073 51.2314V39.7337H70.3262C73.8727 39.7337 76.1885 41.8389 76.1885 45.4664C76.1885 49.0938 73.8727 51.2314 70.3262 51.2314H66.4073ZM68.4963 49.4339H70.2129C72.5448 49.4339 74.0347 48.0574 74.0347 45.4664C74.0347 42.9077 72.5124 41.5312 70.2129 41.5312H68.4963V49.4339ZM89.0048 51.2314L88.0332 48.2841H84.0008L83.0292 51.2314H80.8754L84.9239 39.7337H87.1101L91.1586 51.2314H89.0048ZM86.0413 41.7255H86.0089C86.0089 41.7255 85.7498 42.8591 85.5231 43.5069L84.5029 46.5838H87.5149L86.4947 43.5069C86.2842 42.8591 86.0413 41.7255 86.0413 41.7255ZM92.3038 54.4703V42.9725H94.1823V43.5717C94.1823 43.8794 94.1499 44.1385 94.1499 44.1385H94.1823C94.1823 44.1385 94.8949 42.7782 96.8382 42.7782C99.0729 42.7782 100.498 44.5433 100.498 47.102C100.498 49.7254 98.8948 51.4258 96.7248 51.4258C95.0892 51.4258 94.3605 50.2922 94.3605 50.2922H94.3281C94.3281 50.2922 94.3605 50.5837 94.3605 51.0047V54.4703H92.3038ZM94.2957 47.1505C94.2957 48.4299 94.992 49.693 96.3523 49.693C97.4859 49.693 98.4252 48.77 98.4252 47.1344C98.4252 45.5635 97.5831 44.5433 96.3685 44.5433C95.2997 44.5433 94.2957 45.3206 94.2957 47.1505ZM102.204 54.4703V42.9725H104.082V43.5717C104.082 43.8794 104.05 44.1385 104.05 44.1385H104.082C104.082 44.1385 104.795 42.7782 106.738 42.7782C108.973 42.7782 110.398 44.5433 110.398 47.102C110.398 49.7254 108.795 51.4258 106.625 51.4258C104.989 51.4258 104.26 50.2922 104.26 50.2922H104.228C104.228 50.2922 104.26 50.5837 104.26 51.0047V54.4703H102.204ZM104.196 47.1505C104.196 48.4299 104.892 49.693 106.252 49.693C107.386 49.693 108.325 48.77 108.325 47.1344C108.325 45.5635 107.483 44.5433 106.268 44.5433C105.2 44.5433 104.196 45.3206 104.196 47.1505ZM111.99 48.6566V39.7337H114.031V48.3489C114.031 49.2558 114.338 49.4825 114.873 49.4825C115.035 49.4825 115.18 49.4663 115.18 49.4663V51.2638C115.18 51.2638 114.873 51.3124 114.533 51.3124C113.399 51.3124 111.99 51.0209 111.99 48.6566ZM115.588 54.0978L116.268 52.5594C116.268 52.5594 116.722 52.8994 117.191 52.8994C117.758 52.8994 118.309 52.5594 118.616 51.8306L118.924 51.1019L115.442 42.9725H117.758L119.491 47.7335C119.653 48.1708 119.799 48.8509 119.799 48.8509H119.831C119.831 48.8509 119.961 48.2032 120.106 47.7659L121.726 42.9725H123.977L120.284 52.4784C119.701 53.9844 118.552 54.6322 117.305 54.6322C116.317 54.6322 115.588 54.0978 115.588 54.0978Z" fill="#006778"/>
<path d="M69.2664 70.2314V58.847H72.6347C73.8007 58.847 74.3189 58.9604 74.7723 59.1547C75.8411 59.6244 76.4889 60.7094 76.4889 62.0858C76.4889 63.6243 75.6144 64.8064 74.3351 65.1627V65.1951C74.3351 65.1951 74.4485 65.3408 74.6266 65.6485L77.1043 70.2314H75.8249L73.2501 65.438H70.3837V70.2314H69.2664ZM70.3837 64.434H73.0882C74.4646 64.434 75.3391 63.5433 75.3391 62.1182C75.3391 61.179 74.9667 60.4826 74.3027 60.1264C73.9626 59.9482 73.5578 59.8511 72.6833 59.8511H70.3837V64.434ZM78.5444 66.1667C78.5444 63.4947 80.3581 61.8915 82.5605 61.8915C84.8115 61.8915 85.9613 63.6243 85.9613 65.6485C85.9613 65.8429 85.9289 66.2153 85.9289 66.2153H79.678C79.7266 68.3044 81.1516 69.4379 82.8358 69.4379C84.3257 69.4379 85.3135 68.4501 85.3135 68.4501L85.8155 69.2922C85.8155 69.2922 84.6334 70.4258 82.8034 70.4258C80.3743 70.4258 78.5444 68.6768 78.5444 66.1667ZM79.7266 65.3085H84.8439C84.7791 63.6081 83.7427 62.8146 82.5281 62.8146C81.1678 62.8146 79.9857 63.6729 79.7266 65.3085ZM87.9488 67.2679V62.0858H89.05V66.9764C89.05 68.2558 89.2444 69.3894 90.8152 69.3894C92.6775 69.3894 93.8273 67.7538 93.8273 65.9886V62.0858H94.9285V70.2314H93.8597V69.0169C93.8597 68.6606 93.892 68.3691 93.892 68.3691H93.8597C93.5358 69.1626 92.467 70.4258 90.6694 70.4258C88.7585 70.4258 87.9488 69.3894 87.9488 67.2679ZM96.9186 69.2436L97.5177 68.4501C97.5177 68.4501 98.4246 69.4379 99.9468 69.4379C100.821 69.4379 101.582 69.0007 101.582 68.1424C101.582 66.3611 97.1939 66.7983 97.1939 64.1425C97.1939 62.685 98.5056 61.8915 99.9792 61.8915C101.696 61.8915 102.489 62.7822 102.489 62.7822L101.987 63.6243C101.987 63.6243 101.291 62.8794 99.9468 62.8794C99.1209 62.8794 98.3274 63.2356 98.3274 64.1425C98.3274 65.94 102.716 65.4542 102.716 68.1424C102.716 69.4703 101.566 70.4258 99.9306 70.4258C97.955 70.4258 96.9186 69.2436 96.9186 69.2436ZM104.195 66.1667C104.195 63.4947 106.009 61.8915 108.212 61.8915C110.463 61.8915 111.612 63.6243 111.612 65.6485C111.612 65.8429 111.58 66.2153 111.58 66.2153H105.329C105.378 68.3044 106.803 69.4379 108.487 69.4379C109.977 69.4379 110.965 68.4501 110.965 68.4501L111.467 69.2922C111.467 69.2922 110.284 70.4258 108.455 70.4258C106.025 70.4258 104.195 68.6768 104.195 66.1667ZM105.378 65.3085H110.495C110.43 63.6081 109.394 62.8146 108.179 62.8146C106.819 62.8146 105.637 63.6729 105.378 65.3085Z" fill="#006778"/>
<g clip-path="url(#clip0_488_7836)">
<path d="M106.217 101.659C106.309 101.659 106.4 101.659 106.492 101.659" stroke="#006778" stroke-width="0.654479" stroke-miterlimit="10"/>
<path d="M95.955 102.463C95.955 105.952 93.1277 108.773 89.6459 108.773C86.164 108.773 83.3367 105.945 83.3367 102.463C83.3367 98.9816 86.164 96.1543 89.6459 96.1543C93.1277 96.1543 95.955 98.9816 95.955 102.463Z" fill="#006778" stroke="#006778" stroke-width="0.654479" stroke-miterlimit="10"/>
<path d="M77.2828 122.406C77.6297 119.251 78.9844 110.69 89.3645 110.69C99.7511 110.69 101.649 119.251 101.996 122.406C102.061 123.021 101.584 123.551 100.962 123.551H78.3169" fill="#006778"/>
<path d="M78.3169 123.551C77.7017 123.551 77.2173 123.014 77.2828 122.406C77.6297 119.251 78.9844 110.69 89.3645 110.69C99.7511 110.69 101.649 119.251 101.996 122.406C102.061 123.021 101.584 123.551 100.962 123.551H78.3169Z" stroke="#006778" stroke-width="0.654479" stroke-miterlimit="10"/>
<path d="M77.5903 93.1188C77.5903 96.6071 74.7629 99.4279 71.2811 99.4279C67.7993 99.4279 64.9719 96.6006 64.9719 93.1188C64.9719 89.6369 67.7927 86.8096 71.2746 86.8096C74.7564 86.8096 77.5837 89.6369 77.5837 93.1188H77.5903Z" fill="#006778" stroke="#006778" stroke-width="0.654479" stroke-miterlimit="10"/>
<path d="M71 101.346C71.0785 101.346 71.1505 101.352 71.229 101.352C71.3337 101.352 71.4385 101.346 71.5432 101.346H70.9934H71Z" fill="#006778"/>
<path d="M71.2352 101.353C61.13 101.529 59.2647 109.939 58.9179 113.061C58.8524 113.676 59.3302 114.207 59.9519 114.207H76.5626C78.3363 111.17 80.4961 109.965 82.6231 108.886C81.2552 105.384 78.1727 101.444 71.2417 101.353H71.2352Z" fill="#006778" stroke="#006778" stroke-width="0.654479" stroke-miterlimit="10"/>
<path d="M101.662 93.1188C101.662 96.6071 104.489 99.4279 107.971 99.4279C111.453 99.4279 114.28 96.6006 114.28 93.1188C114.28 89.6369 111.46 86.8096 107.971 86.8096C104.483 86.8096 101.662 89.6369 101.662 93.1188Z" fill="#006778" stroke="#006778" stroke-width="0.654479" stroke-miterlimit="10"/>
<path d="M107.703 101.346C107.814 101.346 107.912 101.346 108.017 101.352C108.095 101.352 108.167 101.346 108.246 101.346H107.696H107.703Z" fill="#006778" stroke="#006778" stroke-width="0.654479" stroke-miterlimit="10"/>
<path d="M120.334 113.061C119.988 109.939 118.122 101.529 108.017 101.353C101.086 101.438 98.0036 105.384 96.6357 108.886C98.7628 109.972 100.923 111.176 102.696 114.207H119.307C119.922 114.207 120.406 113.67 120.341 113.061H120.334Z" fill="#006778" stroke="#006778" stroke-width="0.654479" stroke-miterlimit="10"/>
</g>
<rect width="180" height="354" transform="translate(0 181)" fill="#E6F0F2"/>
<path d="M10.72 218.3L12.12 216.36C12.12 216.36 13.66 217.86 15.66 217.86C16.74 217.86 17.72 217.3 17.72 216.14C17.72 213.6 11.02 214.04 11.02 209.68C11.02 207.32 13.06 205.56 15.78 205.56C18.58 205.56 20.02 207.08 20.02 207.08L18.9 209.18C18.9 209.18 17.54 207.94 15.76 207.94C14.56 207.94 13.62 208.64 13.62 209.64C13.62 212.16 20.3 211.54 20.3 216.08C20.3 218.34 18.58 220.24 15.62 220.24C12.46 220.24 10.72 218.3 10.72 218.3ZM22.4742 220V205.8H27.3142C31.6942 205.8 34.5542 208.4 34.5542 212.88C34.5542 217.36 31.6942 220 27.3142 220H22.4742ZM25.0542 217.78H27.1742C30.0542 217.78 31.8942 216.08 31.8942 212.88C31.8942 209.72 30.0142 208.02 27.1742 208.02H25.0542V217.78ZM49.5827 220L48.3827 216.36H43.4027L42.2027 220H39.5427L44.5427 205.8H47.2427L52.2427 220H49.5827ZM45.9227 208.26H45.8827C45.8827 208.26 45.5627 209.66 45.2827 210.46L44.0227 214.26H47.7427L46.4827 210.46C46.2227 209.66 45.9227 208.26 45.9227 208.26ZM53.257 224V209.8H55.577V210.54C55.577 210.92 55.537 211.24 55.537 211.24H55.577C55.577 211.24 56.457 209.56 58.857 209.56C61.617 209.56 63.377 211.74 63.377 214.9C63.377 218.14 61.397 220.24 58.717 220.24C56.697 220.24 55.797 218.84 55.797 218.84H55.757C55.757 218.84 55.797 219.2 55.797 219.72V224H53.257ZM55.717 214.96C55.717 216.54 56.577 218.1 58.257 218.1C59.657 218.1 60.817 216.96 60.817 214.94C60.817 213 59.777 211.74 58.277 211.74C56.957 211.74 55.717 212.7 55.717 214.96ZM65.0836 224V209.8H67.4036V210.54C67.4036 210.92 67.3636 211.24 67.3636 211.24H67.4036C67.4036 211.24 68.2836 209.56 70.6836 209.56C73.4436 209.56 75.2036 211.74 75.2036 214.9C75.2036 218.14 73.2236 220.24 70.5436 220.24C68.5236 220.24 67.6236 218.84 67.6236 218.84H67.5836C67.5836 218.84 67.6236 219.2 67.6236 219.72V224H65.0836ZM67.5436 214.96C67.5436 216.54 68.4036 218.1 70.0836 218.1C71.4836 218.1 72.6436 216.96 72.6436 214.94C72.6436 213 71.6036 211.74 70.1036 211.74C68.7836 211.74 67.5436 212.7 67.5436 214.96ZM76.7702 216.82V205.8H79.2902V216.44C79.2902 217.56 79.6702 217.84 80.3302 217.84C80.5302 217.84 80.7102 217.82 80.7102 217.82V220.04C80.7102 220.04 80.3302 220.1 79.9102 220.1C78.5102 220.1 76.7702 219.74 76.7702 216.82ZM80.8137 223.54L81.6537 221.64C81.6537 221.64 82.2137 222.06 82.7937 222.06C83.4937 222.06 84.1737 221.64 84.5537 220.74L84.9337 219.84L80.6337 209.8H83.4937L85.6337 215.68C85.8337 216.22 86.0137 217.06 86.0137 217.06H86.0537C86.0537 217.06 86.2137 216.26 86.3937 215.72L88.3937 209.8H91.1737L86.6137 221.54C85.8937 223.4 84.4737 224.2 82.9337 224.2C81.7137 224.2 80.8137 223.54 80.8137 223.54Z" fill="#006778"/>
<path d="M11.176 253V242.99H17.308V245.09H13.626V247.19H16.678V249.29H13.626V253H11.176ZM18.0476 249.416C18.0476 247.148 19.8676 245.622 22.1216 245.622C24.4036 245.622 26.2236 247.148 26.2236 249.416C26.2236 251.67 24.4036 253.168 22.1356 253.168C19.8676 253.168 18.0476 251.67 18.0476 249.416ZM20.4976 249.416C20.4976 250.494 21.2536 251.152 22.1356 251.152C23.0176 251.152 23.7736 250.494 23.7736 249.416C23.7736 248.324 23.0176 247.638 22.1356 247.638C21.2536 247.638 20.4976 248.324 20.4976 249.416ZM27.48 253V245.79H29.804V247.008C29.804 247.246 29.776 247.456 29.776 247.456H29.804C30.112 246.476 31.022 245.664 32.1 245.664C32.24 245.664 32.38 245.692 32.38 245.692V248.072C32.38 248.072 32.184 248.03 31.89 248.03C31.316 248.03 30.378 248.212 30.028 249.29C29.944 249.556 29.902 249.878 29.902 250.27V253H27.48ZM36.6948 253V245.79H39.0188V247.008C39.0188 247.246 38.9908 247.456 38.9908 247.456H39.0188C39.3268 246.476 40.2368 245.664 41.3148 245.664C41.4548 245.664 41.5948 245.692 41.5948 245.692V248.072C41.5948 248.072 41.3988 248.03 41.1048 248.03C40.5308 248.03 39.5928 248.212 39.2428 249.29C39.1588 249.556 39.1168 249.878 39.1168 250.27V253H36.6948ZM42.1925 249.388C42.1925 247.274 43.6205 245.622 45.9445 245.622C48.0725 245.622 49.2765 247.106 49.2765 249.108C49.2765 249.346 49.2205 249.864 49.2205 249.864H44.6705C44.8525 250.746 45.5805 251.152 46.3505 251.152C47.3865 251.152 48.3385 250.424 48.3385 250.424L49.2345 252.118C49.2345 252.118 48.0725 253.168 46.1545 253.168C43.5785 253.168 42.1925 251.306 42.1925 249.388ZM44.7265 248.478H46.8405C46.8405 247.932 46.4625 247.442 45.8885 247.442C45.1885 247.442 44.8525 247.946 44.7265 248.478ZM50.0391 252.104L51.0751 250.48C51.0751 250.48 51.8731 251.208 52.9091 251.208C53.2731 251.208 53.6231 251.11 53.6231 250.872C53.6231 250.242 50.2491 250.172 50.2491 247.82C50.2491 246.462 51.5511 245.622 53.2171 245.622C54.8971 245.622 55.7511 246.448 55.7511 246.448L54.9251 248.17C54.9251 248.17 54.2251 247.582 53.2171 247.582C52.8531 247.582 52.5031 247.68 52.5031 247.932C52.5031 248.478 55.8771 248.562 55.8771 250.886C55.8771 252.118 54.7851 253.168 52.9231 253.168C51.1171 253.168 50.0391 252.104 50.0391 252.104ZM56.671 249.388C56.671 247.274 58.099 245.622 60.423 245.622C62.551 245.622 63.755 247.106 63.755 249.108C63.755 249.346 63.699 249.864 63.699 249.864H59.149C59.331 250.746 60.059 251.152 60.829 251.152C61.865 251.152 62.817 250.424 62.817 250.424L63.713 252.118C63.713 252.118 62.551 253.168 60.633 253.168C58.057 253.168 56.671 251.306 56.671 249.388ZM59.205 248.478H61.319C61.319 247.932 60.941 247.442 60.367 247.442C59.667 247.442 59.331 247.946 59.205 248.478ZM64.5316 250.844C64.5316 248.744 67.5976 248.506 68.7176 248.506H68.8156V248.38C68.8156 247.778 68.3536 247.582 67.7516 247.582C66.8416 247.582 65.8056 248.268 65.8056 248.268L64.9656 246.56C64.9656 246.56 66.2116 245.622 67.9896 245.622C70.0196 245.622 71.2376 246.728 71.2376 248.562V253H69.0256V252.566C69.0256 252.328 69.0536 252.118 69.0536 252.118H69.0256C69.0256 252.118 68.4936 253.168 66.9816 253.168C65.6376 253.168 64.5316 252.272 64.5316 250.844ZM66.9676 250.718C66.9676 251.054 67.1776 251.32 67.6536 251.32C68.2836 251.32 68.8436 250.634 68.8436 250.046V249.892H68.6196C67.8496 249.892 66.9676 250.116 66.9676 250.718ZM72.9116 253V245.79H75.2356V247.008C75.2356 247.246 75.2076 247.456 75.2076 247.456H75.2356C75.5436 246.476 76.4536 245.664 77.5316 245.664C77.6716 245.664 77.8116 245.692 77.8116 245.692V248.072C77.8116 248.072 77.6156 248.03 77.3216 248.03C76.7476 248.03 75.8096 248.212 75.4596 249.29C75.3756 249.556 75.3336 249.878 75.3336 250.27V253H72.9116ZM78.3953 249.388C78.3953 247.456 79.8233 245.622 82.4133 245.622C84.3733 245.622 85.2833 246.714 85.2833 246.714L84.2613 248.338C84.2613 248.338 83.5613 247.638 82.5673 247.638C81.4193 247.638 80.8453 248.506 80.8453 249.36C80.8453 250.214 81.4333 251.152 82.6513 251.152C83.6593 251.152 84.6253 250.284 84.6253 250.284L85.5073 251.978C85.5073 251.978 84.4293 253.168 82.4133 253.168C79.8373 253.168 78.3953 251.376 78.3953 249.388ZM86.6382 253V242.99H89.0602V246.154C89.0602 246.518 89.0322 246.77 89.0322 246.77H89.0602C89.4662 246.056 90.3062 245.622 91.2582 245.622C92.7142 245.622 93.8482 246.294 93.8482 248.324V253H91.4262V248.772C91.4262 248.1 91.1602 247.82 90.6282 247.82C89.8862 247.82 89.3962 248.254 89.1862 248.884C89.0882 249.164 89.0602 249.472 89.0602 249.808V253H86.6382ZM95.0206 249.388C95.0206 247.274 96.4486 245.622 98.7726 245.622C100.901 245.622 102.105 247.106 102.105 249.108C102.105 249.346 102.049 249.864 102.049 249.864H97.4986C97.6806 250.746 98.4086 251.152 99.1786 251.152C100.215 251.152 101.167 250.424 101.167 250.424L102.063 252.118C102.063 252.118 100.901 253.168 98.9826 253.168C96.4066 253.168 95.0206 251.306 95.0206 249.388ZM97.5546 248.478H99.6686C99.6686 247.932 99.2906 247.442 98.7166 247.442C98.0166 247.442 97.6806 247.946 97.5546 248.478ZM103.427 253V245.79H105.751V247.008C105.751 247.246 105.723 247.456 105.723 247.456H105.751C106.059 246.476 106.969 245.664 108.047 245.664C108.187 245.664 108.327 245.692 108.327 245.692V248.072C108.327 248.072 108.131 248.03 107.837 248.03C107.263 248.03 106.325 248.212 105.975 249.29C105.891 249.556 105.849 249.878 105.849 250.27V253H103.427ZM109.499 248.086V245.79H111.795V248.086H109.499ZM109.499 253V250.704H111.795V253H109.499ZM20.5061 271.096C19.3021 271.096 18.3361 270.13 18.3361 268.926C18.3361 267.722 19.3021 266.756 20.5061 266.756C21.6961 266.756 22.6621 267.722 22.6621 268.926C22.6621 270.13 21.6961 271.096 20.5061 271.096ZM38.238 273L37.244 270.158H33.52L32.54 273H31.112L34.668 263.116H36.124L39.68 273H38.238ZM35.41 264.474H35.382C35.382 264.474 35.158 265.37 34.99 265.874L33.884 269.01H36.88L35.788 265.874C35.62 265.37 35.41 264.474 35.41 264.474ZM40.855 275.8V265.916H42.101V266.518C42.101 266.798 42.073 267.036 42.073 267.036H42.101C42.101 267.036 42.703 265.748 44.481 265.748C46.385 265.748 47.589 267.26 47.589 269.458C47.589 271.712 46.231 273.168 44.383 273.168C42.829 273.168 42.213 272.006 42.213 272.006H42.185C42.185 272.006 42.213 272.258 42.213 272.622V275.8H40.855ZM42.171 269.486C42.171 270.746 42.871 272.006 44.173 272.006C45.293 272.006 46.217 271.082 46.217 269.472C46.217 267.932 45.391 266.938 44.215 266.938C43.151 266.938 42.171 267.68 42.171 269.486ZM49.2495 275.8V265.916H50.4955V266.518C50.4955 266.798 50.4675 267.036 50.4675 267.036H50.4955C50.4955 267.036 51.0975 265.748 52.8755 265.748C54.7795 265.748 55.9835 267.26 55.9835 269.458C55.9835 271.712 54.6255 273.168 52.7775 273.168C51.2235 273.168 50.6075 272.006 50.6075 272.006H50.5795C50.5795 272.006 50.6075 272.258 50.6075 272.622V275.8H49.2495ZM50.5655 269.486C50.5655 270.746 51.2655 272.006 52.5675 272.006C53.6875 272.006 54.6115 271.082 54.6115 269.472C54.6115 267.932 53.7855 266.938 52.6095 266.938C51.5455 266.938 50.5655 267.68 50.5655 269.486ZM57.5601 271.068V263.116H58.9181V270.83C58.9181 271.684 59.2541 271.838 59.6741 271.838C59.8001 271.838 59.9121 271.824 59.9121 271.824V273.028C59.9121 273.028 59.7021 273.056 59.4641 273.056C58.6941 273.056 57.5601 272.846 57.5601 271.068ZM60.3552 275.506L60.8312 274.47C60.8312 274.47 61.2232 274.764 61.6572 274.764C62.2032 274.764 62.6652 274.372 62.9312 273.728L63.2812 272.916L60.3132 265.916H61.8392L63.6172 270.55C63.7572 270.914 63.8832 271.404 63.8832 271.404H63.9112C63.9112 271.404 64.0232 270.928 64.1492 270.564L65.8712 265.916H67.3412L64.0232 274.274C63.5892 275.366 62.7212 275.94 61.7272 275.94C60.9292 275.94 60.3552 275.506 60.3552 275.506ZM72.4596 273V267.106H71.5776V266.014H72.4596V265.678C72.4596 263.34 74.2236 263.046 75.1196 263.046C75.4276 263.046 75.6376 263.088 75.6376 263.088V264.25C75.6376 264.25 75.4976 264.222 75.2876 264.222C74.7696 264.222 73.8036 264.39 73.8036 265.706V266.014H75.4836V267.106H73.8036V273H72.4596ZM76.2667 269.444C76.2667 267.302 77.9747 265.748 80.0887 265.748C82.2027 265.748 83.9107 267.302 83.9107 269.444C83.9107 271.6 82.2027 273.168 80.0887 273.168C77.9747 273.168 76.2667 271.6 76.2667 269.444ZM77.6527 269.444C77.6527 270.928 78.7587 271.992 80.0887 271.992C81.4327 271.992 82.5247 270.928 82.5247 269.444C82.5247 267.974 81.4327 266.924 80.0887 266.924C78.7587 266.924 77.6527 267.974 77.6527 269.444ZM85.521 273V265.916H86.837V267.148C86.837 267.442 86.809 267.68 86.809 267.68H86.837C87.159 266.644 87.985 265.832 89.077 265.832C89.259 265.832 89.427 265.86 89.427 265.86V267.204C89.427 267.204 89.245 267.162 89.035 267.162C88.167 267.162 87.369 267.778 87.047 268.828C86.921 269.234 86.879 269.668 86.879 270.102V273H85.521ZM93.7927 271.012C93.7927 268.674 96.8727 268.576 98.0627 268.576H98.3707V268.45C98.3707 267.288 97.7127 266.896 96.8167 266.896C95.7247 266.896 94.8427 267.582 94.8427 267.582L94.2827 266.588C94.2827 266.588 95.3047 265.748 96.9287 265.748C98.7207 265.748 99.7287 266.728 99.7287 268.52V273H98.4687V272.328C98.4687 272.006 98.4967 271.768 98.4967 271.768H98.4687C98.4687 271.768 97.8947 273.168 96.2007 273.168C94.9827 273.168 93.7927 272.426 93.7927 271.012ZM95.1647 270.942C95.1647 271.516 95.6127 272.076 96.4947 272.076C97.6427 272.076 98.3847 270.872 98.3847 269.822V269.598H98.0347C97.0127 269.598 95.1647 269.668 95.1647 270.942ZM101.259 269.458C101.259 267.358 102.827 265.748 105.053 265.748C106.831 265.748 107.713 266.784 107.713 266.784L107.069 267.736C107.069 267.736 106.313 266.924 105.109 266.924C103.681 266.924 102.645 267.988 102.645 269.444C102.645 270.886 103.681 271.992 105.151 271.992C106.467 271.992 107.335 271.04 107.335 271.04L107.881 272.034C107.881 272.034 106.901 273.168 105.053 273.168C102.827 273.168 101.259 271.586 101.259 269.458ZM108.915 269.458C108.915 267.358 110.483 265.748 112.709 265.748C114.487 265.748 115.369 266.784 115.369 266.784L114.725 267.736C114.725 267.736 113.969 266.924 112.765 266.924C111.337 266.924 110.301 267.988 110.301 269.444C110.301 270.886 111.337 271.992 112.807 271.992C114.123 271.992 114.991 271.04 114.991 271.04L115.537 272.034C115.537 272.034 114.557 273.168 112.709 273.168C110.483 273.168 108.915 271.586 108.915 269.458ZM116.586 269.458C116.586 267.204 118.112 265.748 120.128 265.748C122.13 265.748 123.194 267.232 123.194 269.066C123.194 269.248 123.152 269.654 123.152 269.654H117.986C118.056 271.208 119.162 271.992 120.422 271.992C121.64 271.992 122.522 271.166 122.522 271.166L123.082 272.16C123.082 272.16 122.032 273.168 120.338 273.168C118.112 273.168 116.586 271.558 116.586 269.458ZM118.028 268.632H121.808C121.766 267.414 121.01 266.826 120.1 266.826C119.064 266.826 118.224 267.47 118.028 268.632ZM124.267 272.132L124.925 271.166C124.925 271.166 125.723 271.992 126.955 271.992C127.543 271.992 128.131 271.684 128.131 271.11C128.131 269.808 124.491 270.074 124.491 267.764C124.491 266.476 125.639 265.748 127.053 265.748C128.607 265.748 129.335 266.532 129.335 266.532L128.789 267.554C128.789 267.554 128.159 266.924 127.039 266.924C126.451 266.924 125.877 267.176 125.877 267.792C125.877 269.066 129.517 268.786 129.517 271.11C129.517 272.286 128.509 273.168 126.955 273.168C125.219 273.168 124.267 272.132 124.267 272.132ZM130.543 272.132L131.201 271.166C131.201 271.166 131.999 271.992 133.231 271.992C133.819 271.992 134.407 271.684 134.407 271.11C134.407 269.808 130.767 270.074 130.767 267.764C130.767 266.476 131.915 265.748 133.329 265.748C134.883 265.748 135.611 266.532 135.611 266.532L135.065 267.554C135.065 267.554 134.435 266.924 133.315 266.924C132.727 266.924 132.153 267.176 132.153 267.792C132.153 269.066 135.793 268.786 135.793 271.11C135.793 272.286 134.785 273.168 133.231 273.168C131.495 273.168 130.543 272.132 130.543 272.132ZM32.064 287V279.916H33.38V281.148C33.38 281.442 33.352 281.68 33.352 281.68H33.38C33.702 280.644 34.528 279.832 35.62 279.832C35.802 279.832 35.97 279.86 35.97 279.86V281.204C35.97 281.204 35.788 281.162 35.578 281.162C34.71 281.162 33.912 281.778 33.59 282.828C33.464 283.234 33.422 283.668 33.422 284.102V287H32.064ZM37.3 278.502V277.116H38.672V278.502H37.3ZM37.314 287V279.916H38.672V287H37.314ZM41.4303 288.288C41.4303 288.288 42.3123 288.764 43.3763 288.764C44.6083 288.764 45.6163 288.218 45.6163 286.776V286.258C45.6163 286.034 45.6303 285.81 45.6303 285.81H45.6023C45.1823 286.51 44.5243 286.916 43.5023 286.916C41.5283 286.916 40.3383 285.334 40.3383 283.29C40.3383 281.26 41.4723 279.748 43.4323 279.748C45.1403 279.748 45.6583 280.798 45.6583 280.798H45.6863C45.6863 280.798 45.6723 280.7 45.6723 280.574V279.916H46.9743V286.706C46.9743 289.044 45.1963 289.94 43.4043 289.94C42.5503 289.94 41.6683 289.702 40.9823 289.352L41.4303 288.288ZM43.7683 285.74C44.7483 285.74 45.6443 285.152 45.6443 283.304C45.6443 281.456 44.7483 280.924 43.6423 280.924C42.4103 280.924 41.7103 281.82 41.7103 283.262C41.7103 284.732 42.4943 285.74 43.7683 285.74ZM49.0992 287V277.116H50.4572V280.742C50.4572 281.078 50.4292 281.33 50.4292 281.33H50.4572C50.7652 280.644 51.6612 279.748 53.0752 279.748C54.7412 279.748 55.5112 280.658 55.5112 282.464V287H54.1532V282.772C54.1532 281.778 53.9432 280.994 52.8092 280.994C51.7452 280.994 50.8632 281.722 50.5692 282.744C50.4852 283.024 50.4572 283.346 50.4572 283.682V287H49.0992ZM57.8287 284.41V281.106H56.9047V280.014H57.8707V277.97H59.1867V280.014H60.8947V281.106H59.1867V284.256C59.1867 285.67 60.1807 285.852 60.6987 285.852C60.8947 285.852 61.0207 285.824 61.0207 285.824V287.028C61.0207 287.028 60.8247 287.056 60.5447 287.056C59.6347 287.056 57.8287 286.776 57.8287 284.41ZM61.9783 286.132L62.6363 285.166C62.6363 285.166 63.4343 285.992 64.6663 285.992C65.2543 285.992 65.8423 285.684 65.8423 285.11C65.8423 283.808 62.2023 284.074 62.2023 281.764C62.2023 280.476 63.3503 279.748 64.7643 279.748C66.3183 279.748 67.0463 280.532 67.0463 280.532L66.5003 281.554C66.5003 281.554 65.8703 280.924 64.7503 280.924C64.1623 280.924 63.5883 281.176 63.5883 281.792C63.5883 283.066 67.2283 282.786 67.2283 285.11C67.2283 286.286 66.2203 287.168 64.6663 287.168C62.9303 287.168 61.9783 286.132 61.9783 286.132ZM72.7174 284.41V281.106H71.7934V280.014H72.7594V277.97H74.0754V280.014H75.7834V281.106H74.0754V284.256C74.0754 285.67 75.0694 285.852 75.5874 285.852C75.7834 285.852 75.9094 285.824 75.9094 285.824V287.028C75.9094 287.028 75.7134 287.056 75.4334 287.056C74.5234 287.056 72.7174 286.776 72.7174 284.41ZM76.923 283.444C76.923 281.302 78.631 279.748 80.745 279.748C82.859 279.748 84.567 281.302 84.567 283.444C84.567 285.6 82.859 287.168 80.745 287.168C78.631 287.168 76.923 285.6 76.923 283.444ZM78.309 283.444C78.309 284.928 79.415 285.992 80.745 285.992C82.089 285.992 83.181 284.928 83.181 283.444C83.181 281.974 82.089 280.924 80.745 280.924C79.415 280.924 78.309 281.974 78.309 283.444ZM89.311 283.458C89.311 281.204 90.641 279.748 92.517 279.748C94.155 279.748 94.701 280.868 94.701 280.868H94.729C94.729 280.868 94.701 280.658 94.701 280.392V277.116H96.059V287H94.771V286.328C94.771 286.048 94.785 285.852 94.785 285.852H94.757C94.757 285.852 94.183 287.168 92.433 287.168C90.515 287.168 89.311 285.656 89.311 283.458ZM90.697 283.458C90.697 284.998 91.523 285.992 92.699 285.992C93.749 285.992 94.743 285.25 94.743 283.444C94.743 282.184 94.085 280.924 92.741 280.924C91.621 280.924 90.697 281.848 90.697 283.458ZM97.6072 285.012C97.6072 282.674 100.687 282.576 101.877 282.576H102.185V282.45C102.185 281.288 101.527 280.896 100.631 280.896C99.5392 280.896 98.6572 281.582 98.6572 281.582L98.0972 280.588C98.0972 280.588 99.1192 279.748 100.743 279.748C102.535 279.748 103.543 280.728 103.543 282.52V287H102.283V286.328C102.283 286.006 102.311 285.768 102.311 285.768H102.283C102.283 285.768 101.709 287.168 100.015 287.168C98.7972 287.168 97.6072 286.426 97.6072 285.012ZM98.9792 284.942C98.9792 285.516 99.4272 286.076 100.309 286.076C101.457 286.076 102.199 284.872 102.199 283.822V283.598H101.849C100.827 283.598 98.9792 283.668 98.9792 284.942ZM105.831 284.41V281.106H104.907V280.014H105.873V277.97H107.189V280.014H108.897V281.106H107.189V284.256C107.189 285.67 108.183 285.852 108.701 285.852C108.897 285.852 109.023 285.824 109.023 285.824V287.028C109.023 287.028 108.827 287.056 108.547 287.056C107.637 287.056 105.831 286.776 105.831 284.41ZM109.98 285.012C109.98 282.674 113.06 282.576 114.25 282.576H114.558V282.45C114.558 281.288 113.9 280.896 113.004 280.896C111.912 280.896 111.03 281.582 111.03 281.582L110.47 280.588C110.47 280.588 111.492 279.748 113.116 279.748C114.908 279.748 115.916 280.728 115.916 282.52V287H114.656V286.328C114.656 286.006 114.684 285.768 114.684 285.768H114.656C114.656 285.768 114.082 287.168 112.388 287.168C111.17 287.168 109.98 286.426 109.98 285.012ZM111.352 284.942C111.352 285.516 111.8 286.076 112.682 286.076C113.83 286.076 114.572 284.872 114.572 283.822V283.598H114.222C113.2 283.598 111.352 283.668 111.352 284.942ZM31.49 299.012C31.49 296.674 34.57 296.576 35.76 296.576H36.068V296.45C36.068 295.288 35.41 294.896 34.514 294.896C33.422 294.896 32.54 295.582 32.54 295.582L31.98 294.588C31.98 294.588 33.002 293.748 34.626 293.748C36.418 293.748 37.426 294.728 37.426 296.52V301H36.166V300.328C36.166 300.006 36.194 299.768 36.194 299.768H36.166C36.166 299.768 35.592 301.168 33.898 301.168C32.68 301.168 31.49 300.426 31.49 299.012ZM32.862 298.942C32.862 299.516 33.31 300.076 34.192 300.076C35.34 300.076 36.082 298.872 36.082 297.822V297.598H35.732C34.71 297.598 32.862 297.668 32.862 298.942ZM41.1405 301L38.4945 293.916H39.9365L41.6585 298.704C41.7985 299.096 41.8825 299.67 41.8965 299.67H41.9245C41.9385 299.67 42.0365 299.096 42.1765 298.704L43.8985 293.916H45.3265L42.7085 301H41.1405ZM45.9138 299.012C45.9138 296.674 48.9938 296.576 50.1838 296.576H50.4918V296.45C50.4918 295.288 49.8338 294.896 48.9378 294.896C47.8458 294.896 46.9638 295.582 46.9638 295.582L46.4038 294.588C46.4038 294.588 47.4258 293.748 49.0498 293.748C50.8418 293.748 51.8498 294.728 51.8498 296.52V301H50.5898V300.328C50.5898 300.006 50.6178 299.768 50.6178 299.768H50.5898C50.5898 299.768 50.0158 301.168 48.3218 301.168C47.1038 301.168 45.9138 300.426 45.9138 299.012ZM47.2858 298.942C47.2858 299.516 47.7338 300.076 48.6158 300.076C49.7638 300.076 50.5058 298.872 50.5058 297.822V297.598H50.1558C49.1338 297.598 47.2858 297.668 47.2858 298.942ZM53.8703 292.502V291.116H55.2423V292.502H53.8703ZM53.8843 301V293.916H55.2423V301H53.8843ZM57.2866 299.068V291.116H58.6446V298.83C58.6446 299.684 58.9806 299.838 59.4006 299.838C59.5266 299.838 59.6386 299.824 59.6386 299.824V301.028C59.6386 301.028 59.4286 301.056 59.1906 301.056C58.4206 301.056 57.2866 300.846 57.2866 299.068ZM60.5017 299.012C60.5017 296.674 63.5817 296.576 64.7717 296.576H65.0797V296.45C65.0797 295.288 64.4217 294.896 63.5257 294.896C62.4337 294.896 61.5517 295.582 61.5517 295.582L60.9917 294.588C60.9917 294.588 62.0137 293.748 63.6377 293.748C65.4297 293.748 66.4377 294.728 66.4377 296.52V301H65.1777V300.328C65.1777 300.006 65.2057 299.768 65.2057 299.768H65.1777C65.1777 299.768 64.6037 301.168 62.9097 301.168C61.6917 301.168 60.5017 300.426 60.5017 299.012ZM61.8737 298.942C61.8737 299.516 62.3217 300.076 63.2037 300.076C64.3517 300.076 65.0937 298.872 65.0937 297.822V297.598H64.7437C63.7217 297.598 61.8737 297.668 61.8737 298.942ZM68.4722 301V291.116H69.8302V294.35C69.8302 294.7 69.8022 294.952 69.8022 294.952H69.8302C69.8302 294.952 70.4322 293.748 72.0982 293.748C74.0022 293.748 75.2062 295.26 75.2062 297.458C75.2062 299.712 73.8482 301.168 71.9862 301.168C70.4042 301.168 69.7602 299.95 69.7602 299.95H69.7322C69.7322 299.95 69.7602 300.174 69.7602 300.482V301H68.4722ZM69.7882 297.486C69.7882 298.746 70.4462 300.006 71.7902 300.006C72.9102 300.006 73.8342 299.082 73.8342 297.472C73.8342 295.932 73.0082 294.938 71.8322 294.938C70.7682 294.938 69.7882 295.68 69.7882 297.486ZM76.7827 299.068V291.116H78.1407V298.83C78.1407 299.684 78.4767 299.838 78.8967 299.838C79.0227 299.838 79.1347 299.824 79.1347 299.824V301.028C79.1347 301.028 78.9247 301.056 78.6867 301.056C77.9167 301.056 76.7827 300.846 76.7827 299.068ZM80.0818 297.458C80.0818 295.204 81.6078 293.748 83.6238 293.748C85.6258 293.748 86.6898 295.232 86.6898 297.066C86.6898 297.248 86.6478 297.654 86.6478 297.654H81.4818C81.5518 299.208 82.6578 299.992 83.9178 299.992C85.1358 299.992 86.0178 299.166 86.0178 299.166L86.5778 300.16C86.5778 300.16 85.5278 301.168 83.8338 301.168C81.6078 301.168 80.0818 299.558 80.0818 297.458ZM81.5238 296.632H85.3038C85.2618 295.414 84.5058 294.826 83.5958 294.826C82.5598 294.826 81.7198 295.47 81.5238 296.632ZM91.9191 292.502V291.116H93.2911V292.502H91.9191ZM91.9331 301V293.916H93.2911V301H91.9331ZM95.4195 301V293.916H96.7355V294.854C96.7355 295.134 96.7075 295.372 96.7075 295.372H96.7355C97.0155 294.756 97.8555 293.748 99.3955 293.748C101.061 293.748 101.831 294.658 101.831 296.464V301H100.473V296.772C100.473 295.778 100.263 294.994 99.1295 294.994C98.0515 294.994 97.1835 295.708 96.8895 296.73C96.8055 297.01 96.7775 297.332 96.7775 297.682V301H95.4195ZM106.975 299.866L107.759 298.816C107.759 298.816 108.809 299.88 110.279 299.88C111.203 299.88 111.987 299.362 111.987 298.424C111.987 296.282 107.199 296.744 107.199 293.706C107.199 292.166 108.529 290.948 110.391 290.948C112.225 290.948 113.191 291.942 113.191 291.942L112.561 293.09C112.561 293.09 111.651 292.236 110.391 292.236C109.341 292.236 108.599 292.894 108.599 293.678C108.599 295.722 113.387 295.176 113.387 298.382C113.387 299.908 112.211 301.168 110.251 301.168C108.151 301.168 106.975 299.866 106.975 299.866ZM115.373 301V291.116H118.649C121.673 291.116 123.661 292.922 123.661 296.044C123.661 299.18 121.673 301 118.649 301H115.373ZM116.759 299.796H118.551C120.777 299.796 122.233 298.48 122.233 296.044C122.233 293.622 120.763 292.32 118.551 292.32H116.759V299.796ZM135.226 301L134.232 298.158H130.508L129.528 301H128.1L131.656 291.116H133.112L136.668 301H135.226ZM132.398 292.474H132.37C132.37 292.474 132.146 293.37 131.978 293.874L130.872 297.01H133.868L132.776 293.874C132.608 293.37 132.398 292.474 132.398 292.474ZM137.843 303.8V293.916H139.089V294.518C139.089 294.798 139.061 295.036 139.061 295.036H139.089C139.089 295.036 139.691 293.748 141.469 293.748C143.373 293.748 144.577 295.26 144.577 297.458C144.577 299.712 143.219 301.168 141.371 301.168C139.817 301.168 139.201 300.006 139.201 300.006H139.173C139.173 300.006 139.201 300.258 139.201 300.622V303.8H137.843ZM139.159 297.486C139.159 298.746 139.859 300.006 141.161 300.006C142.281 300.006 143.205 299.082 143.205 297.472C143.205 295.932 142.379 294.938 141.203 294.938C140.139 294.938 139.159 295.68 139.159 297.486ZM146.238 303.8V293.916H147.484V294.518C147.484 294.798 147.456 295.036 147.456 295.036H147.484C147.484 295.036 148.086 293.748 149.864 293.748C151.768 293.748 152.972 295.26 152.972 297.458C152.972 299.712 151.614 301.168 149.766 301.168C148.212 301.168 147.596 300.006 147.596 300.006H147.568C147.568 300.006 147.596 300.258 147.596 300.622V303.8H146.238ZM147.554 297.486C147.554 298.746 148.254 300.006 149.556 300.006C150.676 300.006 151.6 299.082 151.6 297.472C151.6 295.932 150.774 294.938 149.598 294.938C148.534 294.938 147.554 295.68 147.554 297.486ZM154.548 299.068V291.116H155.906V298.83C155.906 299.684 156.242 299.838 156.662 299.838C156.788 299.838 156.9 299.824 156.9 299.824V301.028C156.9 301.028 156.69 301.056 156.452 301.056C155.682 301.056 154.548 300.846 154.548 299.068ZM157.343 303.506L157.819 302.47C157.819 302.47 158.211 302.764 158.645 302.764C159.191 302.764 159.653 302.372 159.919 301.728L160.269 300.916L157.301 293.916H158.827L160.605 298.55C160.745 298.914 160.871 299.404 160.871 299.404H160.899C160.899 299.404 161.011 298.928 161.137 298.564L162.859 293.916H164.329L161.011 302.274C160.577 303.366 159.709 303.94 158.715 303.94C157.917 303.94 157.343 303.506 157.343 303.506ZM20.5061 319.096C19.3021 319.096 18.3361 318.13 18.3361 316.926C18.3361 315.722 19.3021 314.756 20.5061 314.756C21.6961 314.756 22.6621 315.722 22.6621 316.926C22.6621 318.13 21.6961 319.096 20.5061 319.096ZM31.672 315.988C31.672 313.146 33.898 310.948 36.754 310.948C39.61 310.948 41.822 313.146 41.822 315.988C41.822 318.9 39.61 321.168 36.754 321.168C33.898 321.168 31.672 318.9 31.672 315.988ZM33.1 315.988C33.1 318.214 34.738 319.894 36.754 319.894C38.77 319.894 40.394 318.214 40.394 315.988C40.394 313.832 38.77 312.208 36.754 312.208C34.738 312.208 33.1 313.832 33.1 315.988ZM43.562 321V313.916H44.878V314.854C44.878 315.134 44.85 315.372 44.85 315.372H44.878C45.158 314.756 45.998 313.748 47.538 313.748C49.204 313.748 49.974 314.658 49.974 316.464V321H48.616V316.772C48.616 315.778 48.406 314.994 47.272 314.994C46.194 314.994 45.326 315.708 45.032 316.73C44.948 317.01 44.92 317.332 44.92 317.682V321H43.562ZM51.4936 317.458C51.4936 315.358 53.0616 313.748 55.2876 313.748C57.0656 313.748 57.9476 314.784 57.9476 314.784L57.3036 315.736C57.3036 315.736 56.5476 314.924 55.3436 314.924C53.9156 314.924 52.8796 315.988 52.8796 317.444C52.8796 318.886 53.9156 319.992 55.3856 319.992C56.7016 319.992 57.5696 319.04 57.5696 319.04L58.1156 320.034C58.1156 320.034 57.1356 321.168 55.2876 321.168C53.0616 321.168 51.4936 319.586 51.4936 317.458ZM59.1638 317.458C59.1638 315.204 60.6898 313.748 62.7058 313.748C64.7078 313.748 65.7718 315.232 65.7718 317.066C65.7718 317.248 65.7298 317.654 65.7298 317.654H60.5638C60.6338 319.208 61.7398 319.992 62.9998 319.992C64.2178 319.992 65.0998 319.166 65.0998 319.166L65.6598 320.16C65.6598 320.16 64.6098 321.168 62.9158 321.168C60.6898 321.168 59.1638 319.558 59.1638 317.458ZM60.6058 316.632H64.3858C64.3438 315.414 63.5878 314.826 62.6778 314.826C61.6418 314.826 60.8018 315.47 60.6058 316.632ZM70.4412 319.012C70.4412 316.674 73.5212 316.576 74.7112 316.576H75.0192V316.45C75.0192 315.288 74.3612 314.896 73.4652 314.896C72.3732 314.896 71.4912 315.582 71.4912 315.582L70.9312 314.588C70.9312 314.588 71.9532 313.748 73.5772 313.748C75.3692 313.748 76.3772 314.728 76.3772 316.52V321H75.1172V320.328C75.1172 320.006 75.1452 319.768 75.1452 319.768H75.1172C75.1172 319.768 74.5432 321.168 72.8492 321.168C71.6312 321.168 70.4412 320.426 70.4412 319.012ZM71.8132 318.942C71.8132 319.516 72.2612 320.076 73.1432 320.076C74.2912 320.076 75.0332 318.872 75.0332 317.822V317.598H74.6832C73.6612 317.598 71.8132 317.668 71.8132 318.942ZM77.9077 317.458C77.9077 315.358 79.4757 313.748 81.7017 313.748C83.4797 313.748 84.3617 314.784 84.3617 314.784L83.7177 315.736C83.7177 315.736 82.9617 314.924 81.7577 314.924C80.3297 314.924 79.2937 315.988 79.2937 317.444C79.2937 318.886 80.3297 319.992 81.7997 319.992C83.1157 319.992 83.9837 319.04 83.9837 319.04L84.5297 320.034C84.5297 320.034 83.5497 321.168 81.7017 321.168C79.4757 321.168 77.9077 319.586 77.9077 317.458ZM85.5639 317.458C85.5639 315.358 87.1319 313.748 89.3579 313.748C91.1359 313.748 92.0179 314.784 92.0179 314.784L91.3739 315.736C91.3739 315.736 90.6179 314.924 89.4139 314.924C87.9859 314.924 86.9499 315.988 86.9499 317.444C86.9499 318.886 87.9859 319.992 89.4559 319.992C90.7719 319.992 91.6399 319.04 91.6399 319.04L92.1859 320.034C92.1859 320.034 91.2059 321.168 89.3579 321.168C87.1319 321.168 85.5639 319.586 85.5639 317.458ZM93.2342 317.458C93.2342 315.204 94.7602 313.748 96.7762 313.748C98.7782 313.748 99.8422 315.232 99.8422 317.066C99.8422 317.248 99.8002 317.654 99.8002 317.654H94.6342C94.7042 319.208 95.8102 319.992 97.0702 319.992C98.2882 319.992 99.1702 319.166 99.1702 319.166L99.7302 320.16C99.7302 320.16 98.6802 321.168 96.9862 321.168C94.7602 321.168 93.2342 319.558 93.2342 317.458ZM94.6762 316.632H98.4562C98.4142 315.414 97.6582 314.826 96.7482 314.826C95.7122 314.826 94.8722 315.47 94.6762 316.632ZM100.916 320.132L101.574 319.166C101.574 319.166 102.372 319.992 103.604 319.992C104.192 319.992 104.78 319.684 104.78 319.11C104.78 317.808 101.14 318.074 101.14 315.764C101.14 314.476 102.288 313.748 103.702 313.748C105.256 313.748 105.984 314.532 105.984 314.532L105.438 315.554C105.438 315.554 104.808 314.924 103.688 314.924C103.1 314.924 102.526 315.176 102.526 315.792C102.526 317.066 106.166 316.786 106.166 319.11C106.166 320.286 105.158 321.168 103.604 321.168C101.868 321.168 100.916 320.132 100.916 320.132ZM107.191 320.132L107.849 319.166C107.849 319.166 108.647 319.992 109.879 319.992C110.467 319.992 111.055 319.684 111.055 319.11C111.055 317.808 107.415 318.074 107.415 315.764C107.415 314.476 108.563 313.748 109.977 313.748C111.531 313.748 112.259 314.532 112.259 314.532L111.713 315.554C111.713 315.554 111.083 314.924 109.963 314.924C109.375 314.924 108.801 315.176 108.801 315.792C108.801 317.066 112.441 316.786 112.441 319.11C112.441 320.286 111.433 321.168 109.879 321.168C108.143 321.168 107.191 320.132 107.191 320.132ZM117.93 318.41V315.106H117.006V314.014H117.972V311.97H119.288V314.014H120.996V315.106H119.288V318.256C119.288 319.67 120.282 319.852 120.8 319.852C120.996 319.852 121.122 319.824 121.122 319.824V321.028C121.122 321.028 120.926 321.056 120.646 321.056C119.736 321.056 117.93 320.776 117.93 318.41ZM122.136 317.444C122.136 315.302 123.844 313.748 125.958 313.748C128.072 313.748 129.78 315.302 129.78 317.444C129.78 319.6 128.072 321.168 125.958 321.168C123.844 321.168 122.136 319.6 122.136 317.444ZM123.522 317.444C123.522 318.928 124.628 319.992 125.958 319.992C127.302 319.992 128.394 318.928 128.394 317.444C128.394 315.974 127.302 314.924 125.958 314.924C124.628 314.924 123.522 315.974 123.522 317.444ZM135.28 318.41V315.106H134.356V314.014H135.322V311.97H136.638V314.014H138.346V315.106H136.638V318.256C136.638 319.67 137.632 319.852 138.15 319.852C138.346 319.852 138.472 319.824 138.472 319.824V321.028C138.472 321.028 138.276 321.056 137.996 321.056C137.086 321.056 135.28 320.776 135.28 318.41ZM140.003 321V311.116H141.361V314.742C141.361 315.078 141.333 315.33 141.333 315.33H141.361C141.669 314.644 142.565 313.748 143.979 313.748C145.645 313.748 146.415 314.658 146.415 316.464V321H145.057V316.772C145.057 315.778 144.847 314.994 143.713 314.994C142.649 314.994 141.767 315.722 141.473 316.744C141.389 317.024 141.361 317.346 141.361 317.682V321H140.003ZM147.949 317.458C147.949 315.204 149.475 313.748 151.491 313.748C153.493 313.748 154.557 315.232 154.557 317.066C154.557 317.248 154.515 317.654 154.515 317.654H149.349C149.419 319.208 150.525 319.992 151.785 319.992C153.003 319.992 153.885 319.166 153.885 319.166L154.445 320.16C154.445 320.16 153.395 321.168 151.701 321.168C149.475 321.168 147.949 319.558 147.949 317.458ZM149.391 316.632H153.171C153.129 315.414 152.373 314.826 151.463 314.826C150.427 314.826 149.587 315.47 149.391 316.632ZM31.602 331.458C31.602 329.204 32.932 327.748 34.808 327.748C36.446 327.748 36.992 328.868 36.992 328.868H37.02C37.02 328.868 36.992 328.658 36.992 328.392V325.116H38.35V335H37.062V334.328C37.062 334.048 37.076 333.852 37.076 333.852H37.048C37.048 333.852 36.474 335.168 34.724 335.168C32.806 335.168 31.602 333.656 31.602 331.458ZM32.988 331.458C32.988 332.998 33.814 333.992 34.99 333.992C36.04 333.992 37.034 333.25 37.034 331.444C37.034 330.184 36.376 328.924 35.032 328.924C33.912 328.924 32.988 329.848 32.988 331.458ZM39.8982 333.012C39.8982 330.674 42.9782 330.576 44.1682 330.576H44.4762V330.45C44.4762 329.288 43.8182 328.896 42.9222 328.896C41.8302 328.896 40.9482 329.582 40.9482 329.582L40.3882 328.588C40.3882 328.588 41.4102 327.748 43.0342 327.748C44.8262 327.748 45.8342 328.728 45.8342 330.52V335H44.5742V334.328C44.5742 334.006 44.6022 333.768 44.6022 333.768H44.5742C44.5742 333.768 44.0002 335.168 42.3062 335.168C41.0882 335.168 39.8982 334.426 39.8982 333.012ZM41.2702 332.942C41.2702 333.516 41.7182 334.076 42.6002 334.076C43.7482 334.076 44.4902 332.872 44.4902 331.822V331.598H44.1402C43.1182 331.598 41.2702 331.668 41.2702 332.942ZM48.1217 332.41V329.106H47.1977V328.014H48.1637V325.97H49.4797V328.014H51.1877V329.106H49.4797V332.256C49.4797 333.67 50.4737 333.852 50.9917 333.852C51.1877 333.852 51.3137 333.824 51.3137 333.824V335.028C51.3137 335.028 51.1177 335.056 50.8377 335.056C49.9277 335.056 48.1217 334.776 48.1217 332.41ZM52.2713 333.012C52.2713 330.674 55.3513 330.576 56.5413 330.576H56.8493V330.45C56.8493 329.288 56.1913 328.896 55.2953 328.896C54.2033 328.896 53.3213 329.582 53.3213 329.582L52.7613 328.588C52.7613 328.588 53.7833 327.748 55.4073 327.748C57.1993 327.748 58.2073 328.728 58.2073 330.52V335H56.9473V334.328C56.9473 334.006 56.9753 333.768 56.9753 333.768H56.9473C56.9473 333.768 56.3733 335.168 54.6793 335.168C53.4613 335.168 52.2713 334.426 52.2713 333.012ZM53.6433 332.942C53.6433 333.516 54.0913 334.076 54.9733 334.076C56.1213 334.076 56.8633 332.872 56.8633 331.822V331.598H56.5133C55.4913 331.598 53.6433 331.668 53.6433 332.942ZM63.8374 335V325.116H65.1954V328.742C65.1954 329.078 65.1674 329.33 65.1674 329.33H65.1954C65.5034 328.644 66.3994 327.748 67.8134 327.748C69.4794 327.748 70.2494 328.658 70.2494 330.464V335H68.8914V330.772C68.8914 329.778 68.6814 328.994 67.5474 328.994C66.4834 328.994 65.6014 329.722 65.3074 330.744C65.2234 331.024 65.1954 331.346 65.1954 331.682V335H63.8374ZM71.699 333.012C71.699 330.674 74.779 330.576 75.969 330.576H76.277V330.45C76.277 329.288 75.619 328.896 74.723 328.896C73.631 328.896 72.749 329.582 72.749 329.582L72.189 328.588C72.189 328.588 73.211 327.748 74.835 327.748C76.627 327.748 77.635 328.728 77.635 330.52V335H76.375V334.328C76.375 334.006 76.403 333.768 76.403 333.768H76.375C76.375 333.768 75.801 335.168 74.107 335.168C72.889 335.168 71.699 334.426 71.699 333.012ZM73.071 332.942C73.071 333.516 73.519 334.076 74.401 334.076C75.549 334.076 76.291 332.872 76.291 331.822V331.598H75.941C74.919 331.598 73.071 331.668 73.071 332.942ZM79.0955 334.132L79.7535 333.166C79.7535 333.166 80.5515 333.992 81.7835 333.992C82.3715 333.992 82.9595 333.684 82.9595 333.11C82.9595 331.808 79.3195 332.074 79.3195 329.764C79.3195 328.476 80.4675 327.748 81.8815 327.748C83.4355 327.748 84.1635 328.532 84.1635 328.532L83.6175 329.554C83.6175 329.554 82.9875 328.924 81.8675 328.924C81.2795 328.924 80.7055 329.176 80.7055 329.792C80.7055 331.066 84.3455 330.786 84.3455 333.11C84.3455 334.286 83.3375 335.168 81.7835 335.168C80.0475 335.168 79.0955 334.132 79.0955 334.132ZM89.5406 335V325.116H90.8986V328.35C90.8986 328.7 90.8706 328.952 90.8706 328.952H90.8986C90.8986 328.952 91.5006 327.748 93.1666 327.748C95.0706 327.748 96.2746 329.26 96.2746 331.458C96.2746 333.712 94.9166 335.168 93.0546 335.168C91.4726 335.168 90.8286 333.95 90.8286 333.95H90.8006C90.8006 333.95 90.8286 334.174 90.8286 334.482V335H89.5406ZM90.8566 331.486C90.8566 332.746 91.5146 334.006 92.8586 334.006C93.9786 334.006 94.9026 333.082 94.9026 331.472C94.9026 329.932 94.0766 328.938 92.9006 328.938C91.8366 328.938 90.8566 329.68 90.8566 331.486ZM97.4451 331.458C97.4451 329.204 98.9711 327.748 100.987 327.748C102.989 327.748 104.053 329.232 104.053 331.066C104.053 331.248 104.011 331.654 104.011 331.654H98.8451C98.9151 333.208 100.021 333.992 101.281 333.992C102.499 333.992 103.381 333.166 103.381 333.166L103.941 334.16C103.941 334.16 102.891 335.168 101.197 335.168C98.9711 335.168 97.4451 333.558 97.4451 331.458ZM98.8871 330.632H102.667C102.625 329.414 101.869 328.826 100.959 328.826C99.9231 328.826 99.0831 329.47 98.8871 330.632ZM105.211 331.458C105.211 329.204 106.737 327.748 108.753 327.748C110.755 327.748 111.819 329.232 111.819 331.066C111.819 331.248 111.777 331.654 111.777 331.654H106.611C106.681 333.208 107.787 333.992 109.047 333.992C110.265 333.992 111.147 333.166 111.147 333.166L111.707 334.16C111.707 334.16 110.657 335.168 108.963 335.168C106.737 335.168 105.211 333.558 105.211 331.458ZM106.653 330.632H110.433C110.391 329.414 109.635 328.826 108.725 328.826C107.689 328.826 106.849 329.47 106.653 330.632ZM113.466 335V327.916H114.782V328.854C114.782 329.134 114.754 329.372 114.754 329.372H114.782C115.062 328.756 115.902 327.748 117.442 327.748C119.108 327.748 119.878 328.658 119.878 330.464V335H118.52V330.772C118.52 329.778 118.31 328.994 117.176 328.994C116.098 328.994 115.23 329.708 114.936 330.73C114.852 331.01 114.824 331.332 114.824 331.682V335H113.466ZM32.694 350.288C32.694 350.288 33.576 350.764 34.64 350.764C35.872 350.764 36.88 350.218 36.88 348.776V348.258C36.88 348.034 36.894 347.81 36.894 347.81H36.866C36.446 348.51 35.788 348.916 34.766 348.916C32.792 348.916 31.602 347.334 31.602 345.29C31.602 343.26 32.736 341.748 34.696 341.748C36.404 341.748 36.922 342.798 36.922 342.798H36.95C36.95 342.798 36.936 342.7 36.936 342.574V341.916H38.238V348.706C38.238 351.044 36.46 351.94 34.668 351.94C33.814 351.94 32.932 351.702 32.246 351.352L32.694 350.288ZM35.032 347.74C36.012 347.74 36.908 347.152 36.908 345.304C36.908 343.456 36.012 342.924 34.906 342.924C33.674 342.924 32.974 343.82 32.974 345.262C32.974 346.732 33.758 347.74 35.032 347.74ZM40.3628 349V341.916H41.6788V343.148C41.6788 343.442 41.6508 343.68 41.6508 343.68H41.6788C42.0008 342.644 42.8268 341.832 43.9188 341.832C44.1008 341.832 44.2688 341.86 44.2688 341.86V343.204C44.2688 343.204 44.0868 343.162 43.8768 343.162C43.0088 343.162 42.2108 343.778 41.8888 344.828C41.7628 345.234 41.7208 345.668 41.7208 346.102V349H40.3628ZM45.0388 347.012C45.0388 344.674 48.1188 344.576 49.3088 344.576H49.6168V344.45C49.6168 343.288 48.9588 342.896 48.0628 342.896C46.9708 342.896 46.0888 343.582 46.0888 343.582L45.5288 342.588C45.5288 342.588 46.5508 341.748 48.1748 341.748C49.9668 341.748 50.9748 342.728 50.9748 344.52V349H49.7148V348.328C49.7148 348.006 49.7428 347.768 49.7428 347.768H49.7148C49.7148 347.768 49.1408 349.168 47.4468 349.168C46.2288 349.168 45.0388 348.426 45.0388 347.012ZM46.4108 346.942C46.4108 347.516 46.8588 348.076 47.7408 348.076C48.8888 348.076 49.6308 346.872 49.6308 345.822V345.598H49.2808C48.2588 345.598 46.4108 345.668 46.4108 346.942ZM53.0093 349V341.916H54.3253V342.854C54.3253 343.134 54.2973 343.372 54.2973 343.372H54.3253C54.6053 342.756 55.4453 341.748 56.9853 341.748C58.6513 341.748 59.4213 342.658 59.4213 344.464V349H58.0633V344.772C58.0633 343.778 57.8533 342.994 56.7193 342.994C55.6413 342.994 54.7733 343.708 54.4793 344.73C54.3953 345.01 54.3673 345.332 54.3673 345.682V349H53.0093ZM61.7389 346.41V343.106H60.8149V342.014H61.7809V339.97H63.0969V342.014H64.8049V343.106H63.0969V346.256C63.0969 347.67 64.0909 347.852 64.6089 347.852C64.8049 347.852 64.9309 347.824 64.9309 347.824V349.028C64.9309 349.028 64.7349 349.056 64.4549 349.056C63.5449 349.056 61.7389 348.776 61.7389 346.41ZM65.9724 345.458C65.9724 343.204 67.4984 341.748 69.5144 341.748C71.5164 341.748 72.5804 343.232 72.5804 345.066C72.5804 345.248 72.5384 345.654 72.5384 345.654H67.3724C67.4424 347.208 68.5484 347.992 69.8084 347.992C71.0264 347.992 71.9084 347.166 71.9084 347.166L72.4684 348.16C72.4684 348.16 71.4184 349.168 69.7244 349.168C67.4984 349.168 65.9724 347.558 65.9724 345.458ZM67.4144 344.632H71.1944C71.1524 343.414 70.3964 342.826 69.4864 342.826C68.4504 342.826 67.6104 343.47 67.4144 344.632ZM73.7661 345.458C73.7661 343.204 75.0961 341.748 76.9721 341.748C78.6101 341.748 79.1561 342.868 79.1561 342.868H79.1841C79.1841 342.868 79.1561 342.658 79.1561 342.392V339.116H80.5141V349H79.2261V348.328C79.2261 348.048 79.2401 347.852 79.2401 347.852H79.2121C79.2121 347.852 78.6381 349.168 76.8881 349.168C74.9701 349.168 73.7661 347.656 73.7661 345.458ZM75.1521 345.458C75.1521 346.998 75.9781 347.992 77.1541 347.992C78.2041 347.992 79.1981 347.25 79.1981 345.444C79.1981 344.184 78.5401 342.924 77.1961 342.924C76.0761 342.924 75.1521 343.848 75.1521 345.458ZM81.9503 350.414L82.8183 347.53H84.2043L83.0283 350.414H81.9503ZM88.8063 351.506L89.2823 350.47C89.2823 350.47 89.6743 350.764 90.1083 350.764C90.6543 350.764 91.1163 350.372 91.3823 349.728L91.7323 348.916L88.7643 341.916H90.2903L92.0683 346.55C92.2083 346.914 92.3343 347.404 92.3343 347.404H92.3623C92.3623 347.404 92.4743 346.928 92.6003 346.564L94.3223 341.916H95.7923L92.4743 350.274C92.0403 351.366 91.1723 351.94 90.1783 351.94C89.3803 351.94 88.8063 351.506 88.8063 351.506ZM96.419 345.444C96.419 343.302 98.127 341.748 100.241 341.748C102.355 341.748 104.063 343.302 104.063 345.444C104.063 347.6 102.355 349.168 100.241 349.168C98.127 349.168 96.419 347.6 96.419 345.444ZM97.805 345.444C97.805 346.928 98.911 347.992 100.241 347.992C101.585 347.992 102.677 346.928 102.677 345.444C102.677 343.974 101.585 342.924 100.241 342.924C98.911 342.924 97.805 343.974 97.805 345.444ZM105.575 346.452V341.916H106.933V346.144C106.933 347.124 107.129 347.908 108.263 347.908C109.705 347.908 110.559 346.634 110.559 345.234V341.916H111.917V349H110.601V348.062C110.601 347.768 110.629 347.544 110.629 347.544H110.601C110.307 348.244 109.383 349.168 107.997 349.168C106.401 349.168 105.575 348.328 105.575 346.452ZM117.132 345.458C117.132 343.358 118.7 341.748 120.926 341.748C122.704 341.748 123.586 342.784 123.586 342.784L122.942 343.736C122.942 343.736 122.186 342.924 120.982 342.924C119.554 342.924 118.518 343.988 118.518 345.444C118.518 346.886 119.554 347.992 121.024 347.992C122.34 347.992 123.208 347.04 123.208 347.04L123.754 348.034C123.754 348.034 122.774 349.168 120.926 349.168C118.7 349.168 117.132 347.586 117.132 345.458ZM124.719 347.012C124.719 344.674 127.799 344.576 128.989 344.576H129.297V344.45C129.297 343.288 128.639 342.896 127.743 342.896C126.651 342.896 125.769 343.582 125.769 343.582L125.209 342.588C125.209 342.588 126.231 341.748 127.855 341.748C129.647 341.748 130.655 342.728 130.655 344.52V349H129.395V348.328C129.395 348.006 129.423 347.768 129.423 347.768H129.395C129.395 347.768 128.821 349.168 127.127 349.168C125.909 349.168 124.719 348.426 124.719 347.012ZM126.091 346.942C126.091 347.516 126.539 348.076 127.421 348.076C128.569 348.076 129.311 346.872 129.311 345.822V345.598H128.961C127.939 345.598 126.091 345.668 126.091 346.942ZM132.689 349V341.916H134.005V342.854C134.005 343.134 133.977 343.372 133.977 343.372H134.005C134.285 342.756 135.125 341.748 136.665 341.748C138.331 341.748 139.101 342.658 139.101 344.464V349H137.743V344.772C137.743 343.778 137.533 342.994 136.399 342.994C135.321 342.994 134.453 343.708 134.159 344.73C134.075 345.01 134.047 345.332 134.047 345.682V349H132.689ZM31.49 361.012C31.49 358.674 34.57 358.576 35.76 358.576H36.068V358.45C36.068 357.288 35.41 356.896 34.514 356.896C33.422 356.896 32.54 357.582 32.54 357.582L31.98 356.588C31.98 356.588 33.002 355.748 34.626 355.748C36.418 355.748 37.426 356.728 37.426 358.52V363H36.166V362.328C36.166 362.006 36.194 361.768 36.194 361.768H36.166C36.166 361.768 35.592 363.168 33.898 363.168C32.68 363.168 31.49 362.426 31.49 361.012ZM32.862 360.942C32.862 361.516 33.31 362.076 34.192 362.076C35.34 362.076 36.082 360.872 36.082 359.822V359.598H35.732C34.71 359.598 32.862 359.668 32.862 360.942ZM38.9565 359.458C38.9565 357.358 40.5245 355.748 42.7505 355.748C44.5285 355.748 45.4105 356.784 45.4105 356.784L44.7665 357.736C44.7665 357.736 44.0105 356.924 42.8065 356.924C41.3785 356.924 40.3425 357.988 40.3425 359.444C40.3425 360.886 41.3785 361.992 42.8485 361.992C44.1645 361.992 45.0325 361.04 45.0325 361.04L45.5785 362.034C45.5785 362.034 44.5985 363.168 42.7505 363.168C40.5245 363.168 38.9565 361.586 38.9565 359.458ZM46.6127 359.458C46.6127 357.358 48.1807 355.748 50.4067 355.748C52.1847 355.748 53.0667 356.784 53.0667 356.784L52.4227 357.736C52.4227 357.736 51.6667 356.924 50.4627 356.924C49.0347 356.924 47.9987 357.988 47.9987 359.444C47.9987 360.886 49.0347 361.992 50.5047 361.992C51.8207 361.992 52.6887 361.04 52.6887 361.04L53.2347 362.034C53.2347 362.034 52.2547 363.168 50.4067 363.168C48.1807 363.168 46.6127 361.586 46.6127 359.458ZM54.283 359.458C54.283 357.204 55.809 355.748 57.825 355.748C59.827 355.748 60.891 357.232 60.891 359.066C60.891 359.248 60.849 359.654 60.849 359.654H55.683C55.753 361.208 56.859 361.992 58.119 361.992C59.337 361.992 60.219 361.166 60.219 361.166L60.779 362.16C60.779 362.16 59.729 363.168 58.035 363.168C55.809 363.168 54.283 361.558 54.283 359.458ZM55.725 358.632H59.505C59.463 357.414 58.707 356.826 57.797 356.826C56.761 356.826 55.921 357.47 55.725 358.632ZM61.9646 362.132L62.6226 361.166C62.6226 361.166 63.4206 361.992 64.6526 361.992C65.2406 361.992 65.8286 361.684 65.8286 361.11C65.8286 359.808 62.1886 360.074 62.1886 357.764C62.1886 356.476 63.3366 355.748 64.7506 355.748C66.3046 355.748 67.0326 356.532 67.0326 356.532L66.4866 357.554C66.4866 357.554 65.8566 356.924 64.7366 356.924C64.1486 356.924 63.5746 357.176 63.5746 357.792C63.5746 359.066 67.2146 358.786 67.2146 361.11C67.2146 362.286 66.2066 363.168 64.6526 363.168C62.9166 363.168 61.9646 362.132 61.9646 362.132ZM68.24 362.132L68.898 361.166C68.898 361.166 69.696 361.992 70.928 361.992C71.516 361.992 72.104 361.684 72.104 361.11C72.104 359.808 68.464 360.074 68.464 357.764C68.464 356.476 69.612 355.748 71.026 355.748C72.58 355.748 73.308 356.532 73.308 356.532L72.762 357.554C72.762 357.554 72.132 356.924 71.012 356.924C70.424 356.924 69.85 357.176 69.85 357.792C69.85 359.066 73.49 358.786 73.49 361.11C73.49 362.286 72.482 363.168 70.928 363.168C69.192 363.168 68.24 362.132 68.24 362.132ZM78.9791 360.41V357.106H78.0551V356.014H79.0211V353.97H80.3371V356.014H82.0451V357.106H80.3371V360.256C80.3371 361.67 81.3311 361.852 81.8491 361.852C82.0451 361.852 82.1711 361.824 82.1711 361.824V363.028C82.1711 363.028 81.9751 363.056 81.6951 363.056C80.7851 363.056 78.9791 362.776 78.9791 360.41ZM83.7027 363V353.116H85.0607V356.742C85.0607 357.078 85.0327 357.33 85.0327 357.33H85.0607C85.3687 356.644 86.2647 355.748 87.6787 355.748C89.3447 355.748 90.1147 356.658 90.1147 358.464V363H88.7567V358.772C88.7567 357.778 88.5467 356.994 87.4127 356.994C86.3487 356.994 85.4667 357.722 85.1727 358.744C85.0887 359.024 85.0607 359.346 85.0607 359.682V363H83.7027ZM91.6482 359.458C91.6482 357.204 93.1742 355.748 95.1902 355.748C97.1922 355.748 98.2562 357.232 98.2562 359.066C98.2562 359.248 98.2142 359.654 98.2142 359.654H93.0482C93.1182 361.208 94.2242 361.992 95.4842 361.992C96.7022 361.992 97.5842 361.166 97.5842 361.166L98.1442 362.16C98.1442 362.16 97.0942 363.168 95.4002 363.168C93.1742 363.168 91.6482 361.558 91.6482 359.458ZM93.0902 358.632H96.8702C96.8282 357.414 96.0722 356.826 95.1622 356.826C94.1262 356.826 93.2862 357.47 93.0902 358.632ZM103.038 359.458C103.038 357.204 104.368 355.748 106.244 355.748C107.882 355.748 108.428 356.868 108.428 356.868H108.456C108.456 356.868 108.428 356.658 108.428 356.392V353.116H109.786V363H108.498V362.328C108.498 362.048 108.512 361.852 108.512 361.852H108.484C108.484 361.852 107.91 363.168 106.16 363.168C104.242 363.168 103.038 361.656 103.038 359.458ZM104.424 359.458C104.424 360.998 105.25 361.992 106.426 361.992C107.476 361.992 108.47 361.25 108.47 359.444C108.47 358.184 107.812 356.924 106.468 356.924C105.348 356.924 104.424 357.848 104.424 359.458ZM111.334 361.012C111.334 358.674 114.414 358.576 115.604 358.576H115.912V358.45C115.912 357.288 115.254 356.896 114.358 356.896C113.266 356.896 112.384 357.582 112.384 357.582L111.824 356.588C111.824 356.588 112.846 355.748 114.47 355.748C116.262 355.748 117.27 356.728 117.27 358.52V363H116.01V362.328C116.01 362.006 116.038 361.768 116.038 361.768H116.01C116.01 361.768 115.436 363.168 113.742 363.168C112.524 363.168 111.334 362.426 111.334 361.012ZM112.706 360.942C112.706 361.516 113.154 362.076 114.036 362.076C115.184 362.076 115.926 360.872 115.926 359.822V359.598H115.576C114.554 359.598 112.706 359.668 112.706 360.942ZM119.557 360.41V357.106H118.633V356.014H119.599V353.97H120.915V356.014H122.623V357.106H120.915V360.256C120.915 361.67 121.909 361.852 122.427 361.852C122.623 361.852 122.749 361.824 122.749 361.824V363.028C122.749 363.028 122.553 363.056 122.273 363.056C121.363 363.056 119.557 362.776 119.557 360.41ZM123.707 361.012C123.707 358.674 126.787 358.576 127.977 358.576H128.285V358.45C128.285 357.288 127.627 356.896 126.731 356.896C125.639 356.896 124.757 357.582 124.757 357.582L124.197 356.588C124.197 356.588 125.219 355.748 126.843 355.748C128.635 355.748 129.643 356.728 129.643 358.52V363H128.383V362.328C128.383 362.006 128.411 361.768 128.411 361.768H128.383C128.383 361.768 127.809 363.168 126.115 363.168C124.897 363.168 123.707 362.426 123.707 361.012ZM125.079 360.942C125.079 361.516 125.527 362.076 126.409 362.076C127.557 362.076 128.299 360.872 128.299 359.822V359.598H127.949C126.927 359.598 125.079 359.668 125.079 360.942ZM135.259 354.502V353.116H136.631V354.502H135.259ZM135.273 363V355.916H136.631V363H135.273ZM138.759 363V355.916H140.075V356.854C140.075 357.134 140.047 357.372 140.047 357.372H140.075C140.355 356.756 141.195 355.748 142.735 355.748C144.401 355.748 145.171 356.658 145.171 358.464V363H143.813V358.772C143.813 357.778 143.603 356.994 142.469 356.994C141.391 356.994 140.523 357.708 140.229 358.73C140.145 359.01 140.117 359.332 140.117 359.682V363H138.759ZM150.315 361.866L151.099 360.816C151.099 360.816 152.149 361.88 153.619 361.88C154.543 361.88 155.327 361.362 155.327 360.424C155.327 358.282 150.539 358.744 150.539 355.706C150.539 354.166 151.869 352.948 153.731 352.948C155.565 352.948 156.531 353.942 156.531 353.942L155.901 355.09C155.901 355.09 154.991 354.236 153.731 354.236C152.681 354.236 151.939 354.894 151.939 355.678C151.939 357.722 156.727 357.176 156.727 360.382C156.727 361.908 155.551 363.168 153.591 363.168C151.491 363.168 150.315 361.866 150.315 361.866ZM158.713 363V353.116H161.989C165.013 353.116 167.001 354.922 167.001 358.044C167.001 361.18 165.013 363 161.989 363H158.713ZM160.099 361.796H161.891C164.117 361.796 165.573 360.48 165.573 358.044C165.573 355.622 164.103 354.32 161.891 354.32H160.099V361.796ZM32.344 377V367.116H35.62C38.644 367.116 40.632 368.922 40.632 372.044C40.632 375.18 38.644 377 35.62 377H32.344ZM33.73 375.796H35.522C37.748 375.796 39.204 374.48 39.204 372.044C39.204 369.622 37.734 368.32 35.522 368.32H33.73V375.796ZM41.9373 373.458C41.9373 371.204 43.4633 369.748 45.4793 369.748C47.4813 369.748 48.5453 371.232 48.5453 373.066C48.5453 373.248 48.5033 373.654 48.5033 373.654H43.3373C43.4073 375.208 44.5133 375.992 45.7733 375.992C46.9913 375.992 47.8733 375.166 47.8733 375.166L48.4333 376.16C48.4333 376.16 47.3833 377.168 45.6893 377.168C43.4633 377.168 41.9373 375.558 41.9373 373.458ZM43.3793 372.632H47.1593C47.1173 371.414 46.3613 370.826 45.4513 370.826C44.4153 370.826 43.5753 371.47 43.3793 372.632ZM49.6189 376.132L50.2769 375.166C50.2769 375.166 51.0749 375.992 52.3069 375.992C52.8949 375.992 53.4829 375.684 53.4829 375.11C53.4829 373.808 49.8429 374.074 49.8429 371.764C49.8429 370.476 50.9909 369.748 52.4049 369.748C53.9589 369.748 54.6869 370.532 54.6869 370.532L54.1409 371.554C54.1409 371.554 53.5109 370.924 52.3909 370.924C51.8029 370.924 51.2289 371.176 51.2289 371.792C51.2289 373.066 54.8689 372.786 54.8689 375.11C54.8689 376.286 53.8609 377.168 52.3069 377.168C50.5709 377.168 49.6189 376.132 49.6189 376.132ZM56.4683 377V367.116H57.8263V372.52H58.8203L60.7523 369.916H62.2923L59.9403 373.038V373.066L62.5583 377H60.9763L58.8483 373.668H57.8263V377H56.4683ZM64.1314 374.41V371.106H63.2074V370.014H64.1734V367.97H65.4894V370.014H67.1974V371.106H65.4894V374.256C65.4894 375.67 66.4834 375.852 67.0014 375.852C67.1974 375.852 67.3234 375.824 67.3234 375.824V377.028C67.3234 377.028 67.1274 377.056 66.8474 377.056C65.9374 377.056 64.1314 376.776 64.1314 374.41ZM68.337 373.444C68.337 371.302 70.045 369.748 72.159 369.748C74.273 369.748 75.981 371.302 75.981 373.444C75.981 375.6 74.273 377.168 72.159 377.168C70.045 377.168 68.337 375.6 68.337 373.444ZM69.723 373.444C69.723 374.928 70.829 375.992 72.159 375.992C73.503 375.992 74.595 374.928 74.595 373.444C74.595 371.974 73.503 370.924 72.159 370.924C70.829 370.924 69.723 371.974 69.723 373.444ZM77.5913 379.8V369.916H78.8373V370.518C78.8373 370.798 78.8093 371.036 78.8093 371.036H78.8373C78.8373 371.036 79.4393 369.748 81.2173 369.748C83.1213 369.748 84.3253 371.26 84.3253 373.458C84.3253 375.712 82.9673 377.168 81.1193 377.168C79.5653 377.168 78.9493 376.006 78.9493 376.006H78.9213C78.9213 376.006 78.9493 376.258 78.9493 376.622V379.8H77.5913ZM78.9073 373.486C78.9073 374.746 79.6073 376.006 80.9093 376.006C82.0293 376.006 82.9533 375.082 82.9533 373.472C82.9533 371.932 82.1273 370.938 80.9513 370.938C79.8873 370.938 78.9073 371.68 78.9073 373.486ZM11.176 417V406.99H17.308V409.09H13.626V411.19H16.678V413.29H13.626V417H11.176ZM18.0476 413.416C18.0476 411.148 19.8676 409.622 22.1216 409.622C24.4036 409.622 26.2236 411.148 26.2236 413.416C26.2236 415.67 24.4036 417.168 22.1356 417.168C19.8676 417.168 18.0476 415.67 18.0476 413.416ZM20.4976 413.416C20.4976 414.494 21.2536 415.152 22.1356 415.152C23.0176 415.152 23.7736 414.494 23.7736 413.416C23.7736 412.324 23.0176 411.638 22.1356 411.638C21.2536 411.638 20.4976 412.324 20.4976 413.416ZM27.48 417V409.79H29.804V411.008C29.804 411.246 29.776 411.456 29.776 411.456H29.804C30.112 410.476 31.022 409.664 32.1 409.664C32.24 409.664 32.38 409.692 32.38 409.692V412.072C32.38 412.072 32.184 412.03 31.89 412.03C31.316 412.03 30.378 412.212 30.028 413.29C29.944 413.556 29.902 413.878 29.902 414.27V417H27.48ZM36.2048 413.388C36.2048 411.106 37.5768 409.622 39.4948 409.622C40.9508 409.622 41.3848 410.196 41.3848 410.196H41.4128C41.4128 410.196 41.3988 410.056 41.3988 409.874V406.99H43.8208V417H41.5528V416.524C41.5528 416.3 41.5668 416.118 41.5668 416.118H41.5388C41.5388 416.118 40.9368 417.168 39.4528 417.168C37.4928 417.168 36.2048 415.628 36.2048 413.388ZM38.6408 413.388C38.6408 414.466 39.2148 415.166 40.0548 415.166C40.7828 415.166 41.4688 414.634 41.4688 413.388C41.4688 412.52 41.0068 411.666 40.0548 411.666C39.2988 411.666 38.6408 412.282 38.6408 413.388ZM45.0629 414.844C45.0629 412.744 48.1289 412.506 49.2489 412.506H49.3469V412.38C49.3469 411.778 48.8849 411.582 48.2829 411.582C47.3729 411.582 46.3369 412.268 46.3369 412.268L45.4969 410.56C45.4969 410.56 46.7429 409.622 48.5209 409.622C50.5509 409.622 51.7689 410.728 51.7689 412.562V417H49.5569V416.566C49.5569 416.328 49.5849 416.118 49.5849 416.118H49.5569C49.5569 416.118 49.0249 417.168 47.5129 417.168C46.1689 417.168 45.0629 416.272 45.0629 414.844ZM47.4989 414.718C47.4989 415.054 47.7089 415.32 48.1849 415.32C48.8149 415.32 49.3749 414.634 49.3749 414.046V413.892H49.1509C48.3809 413.892 47.4989 414.116 47.4989 414.718ZM53.8069 414.34V411.806H52.8829V409.916H53.8769V407.844H56.2289V409.916H57.7409V411.806H56.2289V414.018C56.2289 414.83 57.0549 414.942 57.5169 414.942C57.7129 414.942 57.8389 414.928 57.8389 414.928V417.028C57.8389 417.028 57.5729 417.07 57.1809 417.07C56.0329 417.07 53.8069 416.762 53.8069 414.34ZM58.7074 414.844C58.7074 412.744 61.7734 412.506 62.8934 412.506H62.9914V412.38C62.9914 411.778 62.5294 411.582 61.9274 411.582C61.0174 411.582 59.9814 412.268 59.9814 412.268L59.1414 410.56C59.1414 410.56 60.3874 409.622 62.1654 409.622C64.1954 409.622 65.4134 410.728 65.4134 412.562V417H63.2014V416.566C63.2014 416.328 63.2294 416.118 63.2294 416.118H63.2014C63.2014 416.118 62.6694 417.168 61.1574 417.168C59.8134 417.168 58.7074 416.272 58.7074 414.844ZM61.1434 414.718C61.1434 415.054 61.3534 415.32 61.8294 415.32C62.4594 415.32 63.0194 414.634 63.0194 414.046V413.892H62.7954C62.0254 413.892 61.1434 414.116 61.1434 414.718ZM69.7546 413.388C69.7546 411.456 71.1826 409.622 73.7726 409.622C75.7326 409.622 76.6426 410.714 76.6426 410.714L75.6206 412.338C75.6206 412.338 74.9206 411.638 73.9266 411.638C72.7786 411.638 72.2046 412.506 72.2046 413.36C72.2046 414.214 72.7926 415.152 74.0106 415.152C75.0186 415.152 75.9846 414.284 75.9846 414.284L76.8666 415.978C76.8666 415.978 75.7886 417.168 73.7726 417.168C71.1966 417.168 69.7546 415.376 69.7546 413.388ZM77.4656 413.416C77.4656 411.148 79.2856 409.622 81.5396 409.622C83.8216 409.622 85.6416 411.148 85.6416 413.416C85.6416 415.67 83.8216 417.168 81.5536 417.168C79.2856 417.168 77.4656 415.67 77.4656 413.416ZM79.9156 413.416C79.9156 414.494 80.6716 415.152 81.5536 415.152C82.4356 415.152 83.1916 414.494 83.1916 413.416C83.1916 412.324 82.4356 411.638 81.5536 411.638C80.6716 411.638 79.9156 412.324 79.9156 413.416ZM86.898 417V409.79H89.222V410.42C89.222 410.658 89.194 410.868 89.194 410.868H89.222C89.558 410.308 90.244 409.622 91.518 409.622C92.974 409.622 94.108 410.294 94.108 412.324V417H91.686V412.772C91.686 412.1 91.42 411.82 90.888 411.82C90.132 411.82 89.67 412.24 89.46 412.856C89.362 413.136 89.32 413.458 89.32 413.808V417H86.898ZM96.1623 414.34V411.806H95.2383V409.916H96.2323V407.844H98.5843V409.916H100.096V411.806H98.5843V414.018C98.5843 414.83 99.4103 414.942 99.8723 414.942C100.068 414.942 100.194 414.928 100.194 414.928V417.028C100.194 417.028 99.9283 417.07 99.5363 417.07C98.3883 417.07 96.1623 416.762 96.1623 414.34ZM101.609 417V409.79H103.933V411.008C103.933 411.246 103.905 411.456 103.905 411.456H103.933C104.241 410.476 105.151 409.664 106.229 409.664C106.369 409.664 106.509 409.692 106.509 409.692V412.072C106.509 412.072 106.313 412.03 106.019 412.03C105.445 412.03 104.507 412.212 104.157 413.29C104.073 413.556 104.031 413.878 104.031 414.27V417H101.609ZM107.093 413.416C107.093 411.148 108.913 409.622 111.167 409.622C113.449 409.622 115.269 411.148 115.269 413.416C115.269 415.67 113.449 417.168 111.181 417.168C108.913 417.168 107.093 415.67 107.093 413.416ZM109.543 413.416C109.543 414.494 110.299 415.152 111.181 415.152C112.063 415.152 112.819 414.494 112.819 413.416C112.819 412.324 112.063 411.638 111.181 411.638C110.299 411.638 109.543 412.324 109.543 413.416ZM116.427 414.34V406.99H118.849V414.018C118.849 414.704 118.975 414.942 119.521 414.942C119.675 414.942 119.815 414.928 119.815 414.928V417.028C119.815 417.028 119.479 417.07 119.087 417.07C117.799 417.07 116.427 416.762 116.427 414.34ZM120.952 414.34V406.99H123.374V414.018C123.374 414.704 123.5 414.942 124.046 414.942C124.2 414.942 124.34 414.928 124.34 414.928V417.028C124.34 417.028 124.004 417.07 123.612 417.07C122.324 417.07 120.952 416.762 120.952 414.34ZM125.058 413.388C125.058 411.274 126.486 409.622 128.81 409.622C130.938 409.622 132.142 411.106 132.142 413.108C132.142 413.346 132.086 413.864 132.086 413.864H127.536C127.718 414.746 128.446 415.152 129.216 415.152C130.252 415.152 131.204 414.424 131.204 414.424L132.1 416.118C132.1 416.118 130.938 417.168 129.02 417.168C126.444 417.168 125.058 415.306 125.058 413.388ZM127.592 412.478H129.706C129.706 411.932 129.328 411.442 128.754 411.442C128.054 411.442 127.718 411.946 127.592 412.478ZM133.464 417V409.79H135.788V411.008C135.788 411.246 135.76 411.456 135.76 411.456H135.788C136.096 410.476 137.006 409.664 138.084 409.664C138.224 409.664 138.364 409.692 138.364 409.692V412.072C138.364 412.072 138.168 412.03 137.874 412.03C137.3 412.03 136.362 412.212 136.012 413.29C135.928 413.556 135.886 413.878 135.886 414.27V417H133.464ZM138.92 416.104L139.956 414.48C139.956 414.48 140.754 415.208 141.79 415.208C142.154 415.208 142.504 415.11 142.504 414.872C142.504 414.242 139.13 414.172 139.13 411.82C139.13 410.462 140.432 409.622 142.098 409.622C143.778 409.622 144.632 410.448 144.632 410.448L143.806 412.17C143.806 412.17 143.106 411.582 142.098 411.582C141.734 411.582 141.384 411.68 141.384 411.932C141.384 412.478 144.758 412.562 144.758 414.886C144.758 416.118 143.666 417.168 141.804 417.168C139.998 417.168 138.92 416.104 138.92 416.104ZM146.126 412.086V409.79H148.422V412.086H146.126ZM146.126 417V414.704H148.422V417H146.126ZM20.5061 435.096C19.3021 435.096 18.3361 434.13 18.3361 432.926C18.3361 431.722 19.3021 430.756 20.5061 430.756C21.6961 430.756 22.6621 431.722 22.6621 432.926C22.6621 434.13 21.6961 435.096 20.5061 435.096ZM32.036 437L32.834 427.116H34.29L36.558 432.464C36.782 433.01 37.048 433.794 37.048 433.794H37.076C37.076 433.794 37.342 433.01 37.566 432.464L39.834 427.116H41.29L42.088 437H40.716L40.226 430.77C40.184 430.168 40.212 429.314 40.212 429.314H40.184C40.184 429.314 39.89 430.224 39.652 430.77L37.678 435.222H36.446L34.486 430.77C34.262 430.238 33.954 429.286 33.954 429.286H33.926C33.926 429.286 33.94 430.168 33.898 430.77L33.422 437H32.036ZM43.617 435.012C43.617 432.674 46.697 432.576 47.887 432.576H48.195V432.45C48.195 431.288 47.537 430.896 46.641 430.896C45.549 430.896 44.667 431.582 44.667 431.582L44.107 430.588C44.107 430.588 45.129 429.748 46.753 429.748C48.545 429.748 49.553 430.728 49.553 432.52V437H48.293V436.328C48.293 436.006 48.321 435.768 48.321 435.768H48.293C48.293 435.768 47.719 437.168 46.025 437.168C44.807 437.168 43.617 436.426 43.617 435.012ZM44.989 434.942C44.989 435.516 45.437 436.076 46.319 436.076C47.467 436.076 48.209 434.872 48.209 433.822V433.598H47.859C46.837 433.598 44.989 433.668 44.989 434.942ZM51.5874 437V429.916H52.9034V430.854C52.9034 431.134 52.8754 431.372 52.8754 431.372H52.9034C53.1834 430.756 54.0234 429.748 55.5634 429.748C57.2294 429.748 57.9994 430.658 57.9994 432.464V437H56.6414V432.772C56.6414 431.778 56.4314 430.994 55.2974 430.994C54.2194 430.994 53.3514 431.708 53.0574 432.73C52.9734 433.01 52.9454 433.332 52.9454 433.682V437H51.5874ZM59.449 435.012C59.449 432.674 62.529 432.576 63.719 432.576H64.027V432.45C64.027 431.288 63.369 430.896 62.473 430.896C61.381 430.896 60.499 431.582 60.499 431.582L59.939 430.588C59.939 430.588 60.961 429.748 62.585 429.748C64.377 429.748 65.385 430.728 65.385 432.52V437H64.125V436.328C64.125 436.006 64.153 435.768 64.153 435.768H64.125C64.125 435.768 63.551 437.168 61.857 437.168C60.639 437.168 59.449 436.426 59.449 435.012ZM60.821 434.942C60.821 435.516 61.269 436.076 62.151 436.076C63.299 436.076 64.041 434.872 64.041 433.822V433.598H63.691C62.669 433.598 60.821 433.668 60.821 434.942ZM68.0495 438.288C68.0495 438.288 68.9315 438.764 69.9955 438.764C71.2275 438.764 72.2355 438.218 72.2355 436.776V436.258C72.2355 436.034 72.2495 435.81 72.2495 435.81H72.2215C71.8015 436.51 71.1435 436.916 70.1215 436.916C68.1475 436.916 66.9575 435.334 66.9575 433.29C66.9575 431.26 68.0915 429.748 70.0515 429.748C71.7595 429.748 72.2775 430.798 72.2775 430.798H72.3055C72.3055 430.798 72.2915 430.7 72.2915 430.574V429.916H73.5935V436.706C73.5935 439.044 71.8155 439.94 70.0235 439.94C69.1695 439.94 68.2875 439.702 67.6015 439.352L68.0495 438.288ZM70.3875 435.74C71.3675 435.74 72.2635 435.152 72.2635 433.304C72.2635 431.456 71.3675 430.924 70.2615 430.924C69.0295 430.924 68.3295 431.82 68.3295 433.262C68.3295 434.732 69.1135 435.74 70.3875 435.74ZM75.2283 433.458C75.2283 431.204 76.7543 429.748 78.7703 429.748C80.7723 429.748 81.8363 431.232 81.8363 433.066C81.8363 433.248 81.7943 433.654 81.7943 433.654H76.6283C76.6983 435.208 77.8043 435.992 79.0643 435.992C80.2823 435.992 81.1643 435.166 81.1643 435.166L81.7243 436.16C81.7243 436.16 80.6743 437.168 78.9803 437.168C76.7543 437.168 75.2283 435.558 75.2283 433.458ZM76.6703 432.632H80.4503C80.4083 431.414 79.6523 430.826 78.7423 430.826C77.7063 430.826 76.8663 431.47 76.6703 432.632ZM86.5056 435.012C86.5056 432.674 89.5856 432.576 90.7756 432.576H91.0836V432.45C91.0836 431.288 90.4256 430.896 89.5296 430.896C88.4376 430.896 87.5556 431.582 87.5556 431.582L86.9956 430.588C86.9956 430.588 88.0176 429.748 89.6416 429.748C91.4336 429.748 92.4416 430.728 92.4416 432.52V437H91.1816V436.328C91.1816 436.006 91.2096 435.768 91.2096 435.768H91.1816C91.1816 435.768 90.6076 437.168 88.9136 437.168C87.6956 437.168 86.5056 436.426 86.5056 435.012ZM87.8776 434.942C87.8776 435.516 88.3256 436.076 89.2076 436.076C90.3556 436.076 91.0976 434.872 91.0976 433.822V433.598H90.7476C89.7256 433.598 87.8776 433.668 87.8776 434.942ZM93.9721 433.458C93.9721 431.358 95.5401 429.748 97.7661 429.748C99.5441 429.748 100.426 430.784 100.426 430.784L99.7821 431.736C99.7821 431.736 99.0261 430.924 97.8221 430.924C96.3941 430.924 95.3581 431.988 95.3581 433.444C95.3581 434.886 96.3941 435.992 97.8641 435.992C99.1801 435.992 100.048 435.04 100.048 435.04L100.594 436.034C100.594 436.034 99.6141 437.168 97.7661 437.168C95.5401 437.168 93.9721 435.586 93.9721 433.458ZM101.628 433.458C101.628 431.358 103.196 429.748 105.422 429.748C107.2 429.748 108.082 430.784 108.082 430.784L107.438 431.736C107.438 431.736 106.682 430.924 105.478 430.924C104.05 430.924 103.014 431.988 103.014 433.444C103.014 434.886 104.05 435.992 105.52 435.992C106.836 435.992 107.704 435.04 107.704 435.04L108.25 436.034C108.25 436.034 107.27 437.168 105.422 437.168C103.196 437.168 101.628 435.586 101.628 433.458ZM109.299 433.458C109.299 431.204 110.825 429.748 112.841 429.748C114.843 429.748 115.907 431.232 115.907 433.066C115.907 433.248 115.865 433.654 115.865 433.654H110.699C110.769 435.208 111.875 435.992 113.135 435.992C114.353 435.992 115.235 435.166 115.235 435.166L115.795 436.16C115.795 436.16 114.745 437.168 113.051 437.168C110.825 437.168 109.299 435.558 109.299 433.458ZM110.741 432.632H114.521C114.479 431.414 113.723 430.826 112.813 430.826C111.777 430.826 110.937 431.47 110.741 432.632ZM116.98 436.132L117.638 435.166C117.638 435.166 118.436 435.992 119.668 435.992C120.256 435.992 120.844 435.684 120.844 435.11C120.844 433.808 117.204 434.074 117.204 431.764C117.204 430.476 118.352 429.748 119.766 429.748C121.32 429.748 122.048 430.532 122.048 430.532L121.502 431.554C121.502 431.554 120.872 430.924 119.752 430.924C119.164 430.924 118.59 431.176 118.59 431.792C118.59 433.066 122.23 432.786 122.23 435.11C122.23 436.286 121.222 437.168 119.668 437.168C117.932 437.168 116.98 436.132 116.98 436.132ZM123.256 436.132L123.914 435.166C123.914 435.166 124.712 435.992 125.944 435.992C126.532 435.992 127.12 435.684 127.12 435.11C127.12 433.808 123.48 434.074 123.48 431.764C123.48 430.476 124.628 429.748 126.042 429.748C127.596 429.748 128.324 430.532 128.324 430.532L127.778 431.554C127.778 431.554 127.148 430.924 126.028 430.924C125.44 430.924 124.866 431.176 124.866 431.792C124.866 433.066 128.506 432.786 128.506 435.11C128.506 436.286 127.498 437.168 125.944 437.168C124.208 437.168 123.256 436.132 123.256 436.132ZM133.701 437V429.916H135.017V431.148C135.017 431.442 134.989 431.68 134.989 431.68H135.017C135.339 430.644 136.165 429.832 137.257 429.832C137.439 429.832 137.607 429.86 137.607 429.86V431.204C137.607 431.204 137.425 431.162 137.215 431.162C136.347 431.162 135.549 431.778 135.227 432.828C135.101 433.234 135.059 433.668 135.059 434.102V437H133.701ZM138.937 428.502V427.116H140.309V428.502H138.937ZM138.951 437V429.916H140.309V437H138.951ZM143.067 438.288C143.067 438.288 143.949 438.764 145.013 438.764C146.245 438.764 147.253 438.218 147.253 436.776V436.258C147.253 436.034 147.267 435.81 147.267 435.81H147.239C146.819 436.51 146.161 436.916 145.139 436.916C143.165 436.916 141.975 435.334 141.975 433.29C141.975 431.26 143.109 429.748 145.069 429.748C146.777 429.748 147.295 430.798 147.295 430.798H147.323C147.323 430.798 147.309 430.7 147.309 430.574V429.916H148.611V436.706C148.611 439.044 146.833 439.94 145.041 439.94C144.187 439.94 143.305 439.702 142.619 439.352L143.067 438.288ZM145.405 435.74C146.385 435.74 147.281 435.152 147.281 433.304C147.281 431.456 146.385 430.924 145.279 430.924C144.047 430.924 143.347 431.82 143.347 433.262C143.347 434.732 144.131 435.74 145.405 435.74ZM150.736 437V427.116H152.094V430.742C152.094 431.078 152.066 431.33 152.066 431.33H152.094C152.402 430.644 153.298 429.748 154.712 429.748C156.378 429.748 157.148 430.658 157.148 432.464V437H155.79V432.772C155.79 431.778 155.58 430.994 154.446 430.994C153.382 430.994 152.5 431.722 152.206 432.744C152.122 433.024 152.094 433.346 152.094 433.682V437H150.736ZM159.465 434.41V431.106H158.541V430.014H159.507V427.97H160.823V430.014H162.531V431.106H160.823V434.256C160.823 435.67 161.817 435.852 162.335 435.852C162.531 435.852 162.657 435.824 162.657 435.824V437.028C162.657 437.028 162.461 437.056 162.181 437.056C161.271 437.056 159.465 436.776 159.465 434.41ZM163.615 436.132L164.273 435.166C164.273 435.166 165.071 435.992 166.303 435.992C166.891 435.992 167.479 435.684 167.479 435.11C167.479 433.808 163.839 434.074 163.839 431.764C163.839 430.476 164.987 429.748 166.401 429.748C167.955 429.748 168.683 430.532 168.683 430.532L168.137 431.554C168.137 431.554 167.507 430.924 166.387 430.924C165.799 430.924 165.225 431.176 165.225 431.792C165.225 433.066 168.865 432.786 168.865 435.11C168.865 436.286 167.857 437.168 166.303 437.168C164.567 437.168 163.615 436.132 163.615 436.132ZM32.358 448.41V445.106H31.434V444.014H32.4V441.97H33.716V444.014H35.424V445.106H33.716V448.256C33.716 449.67 34.71 449.852 35.228 449.852C35.424 449.852 35.55 449.824 35.55 449.824V451.028C35.55 451.028 35.354 451.056 35.074 451.056C34.164 451.056 32.358 450.776 32.358 448.41ZM36.5636 447.444C36.5636 445.302 38.2716 443.748 40.3856 443.748C42.4996 443.748 44.2076 445.302 44.2076 447.444C44.2076 449.6 42.4996 451.168 40.3856 451.168C38.2716 451.168 36.5636 449.6 36.5636 447.444ZM37.9496 447.444C37.9496 448.928 39.0556 449.992 40.3856 449.992C41.7296 449.992 42.8216 448.928 42.8216 447.444C42.8216 445.974 41.7296 444.924 40.3856 444.924C39.0556 444.924 37.9496 445.974 37.9496 447.444ZM48.4196 453.506L48.8956 452.47C48.8956 452.47 49.2876 452.764 49.7216 452.764C50.2676 452.764 50.7296 452.372 50.9956 451.728L51.3456 450.916L48.3776 443.916H49.9036L51.6816 448.55C51.8216 448.914 51.9476 449.404 51.9476 449.404H51.9756C51.9756 449.404 52.0876 448.928 52.2136 448.564L53.9356 443.916H55.4056L52.0876 452.274C51.6536 453.366 50.7856 453.94 49.7916 453.94C48.9936 453.94 48.4196 453.506 48.4196 453.506ZM56.0323 447.444C56.0323 445.302 57.7403 443.748 59.8543 443.748C61.9683 443.748 63.6763 445.302 63.6763 447.444C63.6763 449.6 61.9683 451.168 59.8543 451.168C57.7403 451.168 56.0323 449.6 56.0323 447.444ZM57.4183 447.444C57.4183 448.928 58.5243 449.992 59.8543 449.992C61.1983 449.992 62.2903 448.928 62.2903 447.444C62.2903 445.974 61.1983 444.924 59.8543 444.924C58.5243 444.924 57.4183 445.974 57.4183 447.444ZM65.1887 448.452V443.916H66.5467V448.144C66.5467 449.124 66.7427 449.908 67.8767 449.908C69.3187 449.908 70.1727 448.634 70.1727 447.234V443.916H71.5307V451H70.2147V450.062C70.2147 449.768 70.2427 449.544 70.2427 449.544H70.2147C69.9207 450.244 68.9967 451.168 67.6107 451.168C66.0147 451.168 65.1887 450.328 65.1887 448.452ZM73.6538 451V443.916H74.9698V445.148C74.9698 445.442 74.9418 445.68 74.9418 445.68H74.9698C75.2918 444.644 76.1178 443.832 77.2098 443.832C77.3918 443.832 77.5598 443.86 77.5598 443.86V445.204C77.5598 445.204 77.3778 445.162 77.1678 445.162C76.2998 445.162 75.5018 445.778 75.1798 446.828C75.0538 447.234 75.0118 447.668 75.0118 448.102V451H73.6538ZM81.9255 450.132L82.5835 449.166C82.5835 449.166 83.3815 449.992 84.6135 449.992C85.2015 449.992 85.7895 449.684 85.7895 449.11C85.7895 447.808 82.1495 448.074 82.1495 445.764C82.1495 444.476 83.2975 443.748 84.7115 443.748C86.2655 443.748 86.9935 444.532 86.9935 444.532L86.4475 445.554C86.4475 445.554 85.8175 444.924 84.6975 444.924C84.1095 444.924 83.5355 445.176 83.5355 445.792C83.5355 447.066 87.1755 446.786 87.1755 449.11C87.1755 450.286 86.1675 451.168 84.6135 451.168C82.8775 451.168 81.9255 450.132 81.9255 450.132ZM88.2849 447.458C88.2849 445.204 89.8109 443.748 91.8269 443.748C93.8289 443.748 94.8929 445.232 94.8929 447.066C94.8929 447.248 94.8509 447.654 94.8509 447.654H89.6849C89.7549 449.208 90.8609 449.992 92.1209 449.992C93.3389 449.992 94.2209 449.166 94.2209 449.166L94.7809 450.16C94.7809 450.16 93.7309 451.168 92.0369 451.168C89.8109 451.168 88.2849 449.558 88.2849 447.458ZM89.7269 446.632H93.5069C93.4649 445.414 92.7089 444.826 91.7989 444.826C90.7629 444.826 89.9229 445.47 89.7269 446.632ZM96.5406 451V443.916H97.8566V444.854C97.8566 445.134 97.8286 445.372 97.8286 445.372H97.8566C98.1366 444.756 98.9766 443.748 100.517 443.748C102.183 443.748 102.953 444.658 102.953 446.464V451H101.595V446.772C101.595 445.778 101.385 444.994 100.251 444.994C99.1726 444.994 98.3046 445.708 98.0106 446.73C97.9266 447.01 97.8986 447.332 97.8986 447.682V451H96.5406ZM104.402 450.132L105.06 449.166C105.06 449.166 105.858 449.992 107.09 449.992C107.678 449.992 108.266 449.684 108.266 449.11C108.266 447.808 104.626 448.074 104.626 445.764C104.626 444.476 105.774 443.748 107.188 443.748C108.742 443.748 109.47 444.532 109.47 444.532L108.924 445.554C108.924 445.554 108.294 444.924 107.174 444.924C106.586 444.924 106.012 445.176 106.012 445.792C106.012 447.066 109.652 446.786 109.652 449.11C109.652 450.286 108.644 451.168 107.09 451.168C105.354 451.168 104.402 450.132 104.402 450.132ZM111.238 442.502V441.116H112.61V442.502H111.238ZM111.252 451V443.916H112.61V451H111.252ZM115.032 448.41V445.106H114.108V444.014H115.074V441.97H116.39V444.014H118.098V445.106H116.39V448.256C116.39 449.67 117.384 449.852 117.902 449.852C118.098 449.852 118.224 449.824 118.224 449.824V451.028C118.224 451.028 118.028 451.056 117.748 451.056C116.838 451.056 115.032 450.776 115.032 448.41ZM119.741 442.502V441.116H121.113V442.502H119.741ZM119.755 451V443.916H121.113V451H119.755ZM124.922 451L122.276 443.916H123.718L125.44 448.704C125.58 449.096 125.664 449.67 125.678 449.67H125.706C125.72 449.67 125.818 449.096 125.958 448.704L127.68 443.916H129.108L126.49 451H124.922ZM129.779 447.458C129.779 445.204 131.305 443.748 133.321 443.748C135.323 443.748 136.387 445.232 136.387 447.066C136.387 447.248 136.345 447.654 136.345 447.654H131.179C131.249 449.208 132.355 449.992 133.615 449.992C134.833 449.992 135.715 449.166 135.715 449.166L136.275 450.16C136.275 450.16 135.225 451.168 133.531 451.168C131.305 451.168 129.779 449.558 129.779 447.458ZM131.221 446.632H135.001C134.959 445.414 134.203 444.826 133.293 444.826C132.257 444.826 131.417 445.47 131.221 446.632ZM31.602 461.458C31.602 459.204 32.932 457.748 34.808 457.748C36.446 457.748 36.992 458.868 36.992 458.868H37.02C37.02 458.868 36.992 458.658 36.992 458.392V455.116H38.35V465H37.062V464.328C37.062 464.048 37.076 463.852 37.076 463.852H37.048C37.048 463.852 36.474 465.168 34.724 465.168C32.806 465.168 31.602 463.656 31.602 461.458ZM32.988 461.458C32.988 462.998 33.814 463.992 34.99 463.992C36.04 463.992 37.034 463.25 37.034 461.444C37.034 460.184 36.376 458.924 35.032 458.924C33.912 458.924 32.988 459.848 32.988 461.458ZM39.8982 463.012C39.8982 460.674 42.9782 460.576 44.1682 460.576H44.4762V460.45C44.4762 459.288 43.8182 458.896 42.9222 458.896C41.8302 458.896 40.9482 459.582 40.9482 459.582L40.3882 458.588C40.3882 458.588 41.4102 457.748 43.0342 457.748C44.8262 457.748 45.8342 458.728 45.8342 460.52V465H44.5742V464.328C44.5742 464.006 44.6022 463.768 44.6022 463.768H44.5742C44.5742 463.768 44.0002 465.168 42.3062 465.168C41.0882 465.168 39.8982 464.426 39.8982 463.012ZM41.2702 462.942C41.2702 463.516 41.7182 464.076 42.6002 464.076C43.7482 464.076 44.4902 462.872 44.4902 461.822V461.598H44.1402C43.1182 461.598 41.2702 461.668 41.2702 462.942ZM48.1217 462.41V459.106H47.1977V458.014H48.1637V455.97H49.4797V458.014H51.1877V459.106H49.4797V462.256C49.4797 463.67 50.4737 463.852 50.9917 463.852C51.1877 463.852 51.3137 463.824 51.3137 463.824V465.028C51.3137 465.028 51.1177 465.056 50.8377 465.056C49.9277 465.056 48.1217 464.776 48.1217 462.41ZM52.2713 463.012C52.2713 460.674 55.3513 460.576 56.5413 460.576H56.8493V460.45C56.8493 459.288 56.1913 458.896 55.2953 458.896C54.2033 458.896 53.3213 459.582 53.3213 459.582L52.7613 458.588C52.7613 458.588 53.7833 457.748 55.4073 457.748C57.1993 457.748 58.2073 458.728 58.2073 460.52V465H56.9473V464.328C56.9473 464.006 56.9753 463.768 56.9753 463.768H56.9473C56.9473 463.768 56.3733 465.168 54.6793 465.168C53.4613 465.168 52.2713 464.426 52.2713 463.012ZM53.6433 462.942C53.6433 463.516 54.0913 464.076 54.9733 464.076C56.1213 464.076 56.8633 462.872 56.8633 461.822V461.598H56.5133C55.4913 461.598 53.6433 461.668 53.6433 462.942ZM59.6677 464.132L60.3257 463.166C60.3257 463.166 61.1237 463.992 62.3557 463.992C62.9437 463.992 63.5317 463.684 63.5317 463.11C63.5317 461.808 59.8917 462.074 59.8917 459.764C59.8917 458.476 61.0397 457.748 62.4537 457.748C64.0077 457.748 64.7357 458.532 64.7357 458.532L64.1897 459.554C64.1897 459.554 63.5597 458.924 62.4397 458.924C61.8517 458.924 61.2777 459.176 61.2777 459.792C61.2777 461.066 64.9177 460.786 64.9177 463.11C64.9177 464.286 63.9097 465.168 62.3557 465.168C60.6197 465.168 59.6677 464.132 59.6677 464.132ZM66.0271 461.458C66.0271 459.204 67.5531 457.748 69.5691 457.748C71.5711 457.748 72.6351 459.232 72.6351 461.066C72.6351 461.248 72.5931 461.654 72.5931 461.654H67.4271C67.4971 463.208 68.6031 463.992 69.8631 463.992C71.0811 463.992 71.9631 463.166 71.9631 463.166L72.5231 464.16C72.5231 464.16 71.4731 465.168 69.7791 465.168C67.5531 465.168 66.0271 463.558 66.0271 461.458ZM67.4691 460.632H71.2491C71.2071 459.414 70.4511 458.826 69.5411 458.826C68.5051 458.826 67.6651 459.47 67.4691 460.632ZM74.5768 462.41V459.106H73.6528V458.014H74.6188V455.97H75.9348V458.014H77.6428V459.106H75.9348V462.256C75.9348 463.67 76.9288 463.852 77.4468 463.852C77.6428 463.852 77.7688 463.824 77.7688 463.824V465.028C77.7688 465.028 77.5728 465.056 77.2928 465.056C76.3828 465.056 74.5768 464.776 74.5768 462.41ZM78.7263 464.132L79.3843 463.166C79.3843 463.166 80.1823 463.992 81.4143 463.992C82.0023 463.992 82.5903 463.684 82.5903 463.11C82.5903 461.808 78.9503 462.074 78.9503 459.764C78.9503 458.476 80.0983 457.748 81.5123 457.748C83.0663 457.748 83.7943 458.532 83.7943 458.532L83.2483 459.554C83.2483 459.554 82.6183 458.924 81.4983 458.924C80.9103 458.924 80.3363 459.176 80.3363 459.792C80.3363 461.066 83.9763 460.786 83.9763 463.11C83.9763 464.286 82.9683 465.168 81.4143 465.168C79.6783 465.168 78.7263 464.132 78.7263 464.132ZM88.5974 464.132L89.2554 463.166C89.2554 463.166 90.0534 463.992 91.2854 463.992C91.8734 463.992 92.4614 463.684 92.4614 463.11C92.4614 461.808 88.8214 462.074 88.8214 459.764C88.8214 458.476 89.9694 457.748 91.3834 457.748C92.9374 457.748 93.6654 458.532 93.6654 458.532L93.1194 459.554C93.1194 459.554 92.4894 458.924 91.3694 458.924C90.7814 458.924 90.2074 459.176 90.2074 459.792C90.2074 461.066 93.8474 460.786 93.8474 463.11C93.8474 464.286 92.8394 465.168 91.2854 465.168C89.5494 465.168 88.5974 464.132 88.5974 464.132ZM95.7408 462.41V459.106H94.8168V458.014H95.7828V455.97H97.0988V458.014H98.8068V459.106H97.0988V462.256C97.0988 463.67 98.0928 463.852 98.6108 463.852C98.8068 463.852 98.9328 463.824 98.9328 463.824V465.028C98.9328 465.028 98.7368 465.056 98.4568 465.056C97.5468 465.056 95.7408 464.776 95.7408 462.41ZM99.9464 461.444C99.9464 459.302 101.654 457.748 103.768 457.748C105.882 457.748 107.59 459.302 107.59 461.444C107.59 463.6 105.882 465.168 103.768 465.168C101.654 465.168 99.9464 463.6 99.9464 461.444ZM101.332 461.444C101.332 462.928 102.438 463.992 103.768 463.992C105.112 463.992 106.204 462.928 106.204 461.444C106.204 459.974 105.112 458.924 103.768 458.924C102.438 458.924 101.332 459.974 101.332 461.444ZM109.201 465V457.916H110.517V459.148C110.517 459.442 110.489 459.68 110.489 459.68H110.517C110.839 458.644 111.665 457.832 112.757 457.832C112.939 457.832 113.107 457.86 113.107 457.86V459.204C113.107 459.204 112.925 459.162 112.715 459.162C111.847 459.162 111.049 459.778 110.727 460.828C110.601 461.234 110.559 461.668 110.559 462.102V465H109.201ZM113.92 461.458C113.92 459.204 115.446 457.748 117.462 457.748C119.464 457.748 120.528 459.232 120.528 461.066C120.528 461.248 120.486 461.654 120.486 461.654H115.32C115.39 463.208 116.496 463.992 117.756 463.992C118.974 463.992 119.856 463.166 119.856 463.166L120.416 464.16C120.416 464.16 119.366 465.168 117.672 465.168C115.446 465.168 113.92 463.558 113.92 461.458ZM115.362 460.632H119.142C119.1 459.414 118.344 458.826 117.434 458.826C116.398 458.826 115.558 459.47 115.362 460.632ZM121.713 461.458C121.713 459.204 123.043 457.748 124.919 457.748C126.557 457.748 127.103 458.868 127.103 458.868H127.131C127.131 458.868 127.103 458.658 127.103 458.392V455.116H128.461V465H127.173V464.328C127.173 464.048 127.187 463.852 127.187 463.852H127.159C127.159 463.852 126.585 465.168 124.835 465.168C122.917 465.168 121.713 463.656 121.713 461.458ZM123.099 461.458C123.099 462.998 123.925 463.992 125.101 463.992C126.151 463.992 127.145 463.25 127.145 461.444C127.145 460.184 126.487 458.924 125.143 458.924C124.023 458.924 123.099 459.848 123.099 461.458ZM133.605 463.012C133.605 460.674 136.685 460.576 137.875 460.576H138.183V460.45C138.183 459.288 137.525 458.896 136.629 458.896C135.537 458.896 134.655 459.582 134.655 459.582L134.095 458.588C134.095 458.588 135.117 457.748 136.741 457.748C138.533 457.748 139.541 458.728 139.541 460.52V465H138.281V464.328C138.281 464.006 138.309 463.768 138.309 463.768H138.281C138.281 463.768 137.707 465.168 136.013 465.168C134.795 465.168 133.605 464.426 133.605 463.012ZM134.977 462.942C134.977 463.516 135.425 464.076 136.307 464.076C137.455 464.076 138.197 462.872 138.197 461.822V461.598H137.847C136.825 461.598 134.977 461.668 134.977 462.942ZM141.829 462.41V459.106H140.905V458.014H141.871V455.97H143.187V458.014H144.895V459.106H143.187V462.256C143.187 463.67 144.181 463.852 144.699 463.852C144.895 463.852 145.021 463.824 145.021 463.824V465.028C145.021 465.028 144.825 465.056 144.545 465.056C143.635 465.056 141.829 464.776 141.829 462.41ZM31.672 474.002C31.672 471.132 33.828 468.948 36.698 468.948C39.078 468.948 40.296 470.25 40.296 470.25L39.61 471.286C39.61 471.286 38.462 470.208 36.754 470.208C34.542 470.208 33.1 471.888 33.1 473.988C33.1 476.102 34.57 477.894 36.768 477.894C38.63 477.894 39.82 476.606 39.82 476.606L40.562 477.6C40.562 477.6 39.204 479.168 36.726 479.168C33.758 479.168 31.672 476.9 31.672 474.002ZM41.6915 477.866L42.4755 476.816C42.4755 476.816 43.5255 477.88 44.9955 477.88C45.9195 477.88 46.7035 477.362 46.7035 476.424C46.7035 474.282 41.9155 474.744 41.9155 471.706C41.9155 470.166 43.2455 468.948 45.1075 468.948C46.9415 468.948 47.9075 469.942 47.9075 469.942L47.2775 471.09C47.2775 471.09 46.3675 470.236 45.1075 470.236C44.0575 470.236 43.3155 470.894 43.3155 471.678C43.3155 473.722 48.1035 473.176 48.1035 476.382C48.1035 477.908 46.9275 479.168 44.9675 479.168C42.8675 479.168 41.6915 477.866 41.6915 477.866ZM49.4181 474.002C49.4181 471.132 51.5741 468.948 54.4441 468.948C56.8241 468.948 58.0421 470.25 58.0421 470.25L57.3561 471.286C57.3561 471.286 56.2081 470.208 54.5001 470.208C52.2881 470.208 50.8461 471.888 50.8461 473.988C50.8461 476.102 52.3161 477.894 54.5141 477.894C56.3761 477.894 57.5661 476.606 57.5661 476.606L58.3081 477.6C58.3081 477.6 56.9501 479.168 54.4721 479.168C51.5041 479.168 49.4181 476.9 49.4181 474.002Z" fill="#002930"/>
<path d="M0 535H180V567C180 572.523 175.523 577 170 577H10C4.47716 577 0 572.523 0 567V535Z" fill="#006778"/>
<path d="M51.036 561V549.704H54.492C55.676 549.704 56.172 549.8 56.604 549.96C57.756 550.392 58.508 551.528 58.508 553.016C58.508 554.456 57.708 555.672 56.476 556.072V556.104C56.476 556.104 56.604 556.248 56.812 556.616L59.212 561H57.42L55.036 556.504H52.62V561H51.036ZM52.62 555.128H54.892C56.124 555.128 56.892 554.344 56.892 553.08C56.892 552.248 56.572 551.656 55.996 551.336C55.692 551.176 55.324 551.08 54.444 551.08H52.62V555.128ZM60.406 556.952C60.406 554.376 62.15 552.712 64.454 552.712C66.742 552.712 67.958 554.408 67.958 556.504C67.958 556.712 67.91 557.176 67.91 557.176H62.006C62.086 558.952 63.35 559.848 64.79 559.848C66.182 559.848 67.19 558.904 67.19 558.904L67.83 560.04C67.83 560.04 66.63 561.192 64.694 561.192C62.15 561.192 60.406 559.352 60.406 556.952ZM62.054 556.008H66.374C66.326 554.616 65.462 553.944 64.422 553.944C63.238 553.944 62.278 554.68 62.054 556.008ZM69.185 558.728C69.185 556.056 72.705 555.944 74.065 555.944H74.417V555.8C74.417 554.472 73.665 554.024 72.641 554.024C71.393 554.024 70.385 554.808 70.385 554.808L69.745 553.672C69.745 553.672 70.913 552.712 72.769 552.712C74.817 552.712 75.969 553.832 75.969 555.88V561H74.529V560.232C74.529 559.864 74.561 559.592 74.561 559.592H74.529C74.529 559.592 73.873 561.192 71.937 561.192C70.545 561.192 69.185 560.344 69.185 558.728ZM70.753 558.648C70.753 559.304 71.265 559.944 72.273 559.944C73.585 559.944 74.433 558.568 74.433 557.368V557.112H74.033C72.865 557.112 70.753 557.192 70.753 558.648ZM77.7661 556.952C77.7661 554.376 79.2861 552.712 81.4301 552.712C83.3021 552.712 83.9261 553.992 83.9261 553.992H83.9581C83.9581 553.992 83.9261 553.752 83.9261 553.448V549.704H85.4781V561H84.0061V560.232C84.0061 559.912 84.0221 559.688 84.0221 559.688H83.9901C83.9901 559.688 83.3341 561.192 81.3341 561.192C79.1421 561.192 77.7661 559.464 77.7661 556.952ZM79.3501 556.952C79.3501 558.712 80.2941 559.848 81.6381 559.848C82.8381 559.848 83.9741 559 83.9741 556.936C83.9741 555.496 83.2221 554.056 81.6861 554.056C80.4061 554.056 79.3501 555.112 79.3501 556.952ZM92.0129 561V552.904H93.5169V553.976C93.5169 554.296 93.4849 554.568 93.4849 554.568H93.5169C93.9009 553.624 95.0369 552.712 96.3009 552.712C97.6609 552.712 98.4609 553.336 98.7329 554.552H98.7649C99.2129 553.576 100.333 552.712 101.645 552.712C103.469 552.712 104.317 553.752 104.317 555.816V561H102.765V556.152C102.765 555.016 102.541 554.12 101.325 554.12C100.189 554.12 99.3409 555.08 99.0529 556.184C98.9729 556.52 98.9409 556.888 98.9409 557.304V561H97.3889V556.152C97.3889 555.096 97.2289 554.12 95.9809 554.12C94.7969 554.12 93.9649 555.096 93.6609 556.248C93.5809 556.568 93.5649 556.936 93.5649 557.304V561H92.0129ZM106.046 556.936C106.046 554.488 107.998 552.712 110.414 552.712C112.83 552.712 114.782 554.488 114.782 556.936C114.782 559.4 112.83 561.192 110.414 561.192C107.998 561.192 106.046 559.4 106.046 556.936ZM107.63 556.936C107.63 558.632 108.894 559.848 110.414 559.848C111.95 559.848 113.198 558.632 113.198 556.936C113.198 555.256 111.95 554.056 110.414 554.056C108.894 554.056 107.63 555.256 107.63 556.936ZM116.622 561V552.904H118.126V554.312C118.126 554.648 118.094 554.92 118.094 554.92H118.126C118.494 553.736 119.438 552.808 120.686 552.808C120.894 552.808 121.086 552.84 121.086 552.84V554.376C121.086 554.376 120.878 554.328 120.638 554.328C119.646 554.328 118.734 555.032 118.366 556.232C118.222 556.696 118.174 557.192 118.174 557.688V561H116.622ZM122.015 556.952C122.015 554.376 123.759 552.712 126.063 552.712C128.351 552.712 129.567 554.408 129.567 556.504C129.567 556.712 129.519 557.176 129.519 557.176H123.615C123.695 558.952 124.959 559.848 126.399 559.848C127.791 559.848 128.799 558.904 128.799 558.904L129.439 560.04C129.439 560.04 128.239 561.192 126.303 561.192C123.759 561.192 122.015 559.352 122.015 556.952ZM123.663 556.008H127.983C127.935 554.616 127.071 553.944 126.031 553.944C124.847 553.944 123.887 554.68 123.663 556.008Z" fill="white"/>
<defs>
<clipPath id="clip0_488_7836">
<rect width="72.6472" height="43.9552" fill="white" transform="translate(53.6763 83.4854)"/>
</clipPath>
</defs>
</svg>
