<?xml version="1.0" encoding="UTF-8" standalone="no"?>
<!DOCTYPE svg PUBLIC "-//W3C//DTD SVG 1.1//EN" "http://www.w3.org/Graphics/SVG/1.1/DTD/svg11.dtd">
<svg width="100%" height="100%" viewBox="0 0 588 463" version="1.1" xmlns="http://www.w3.org/2000/svg" xmlns:xlink="http://www.w3.org/1999/xlink" xml:space="preserve" xmlns:serif="http://www.serif.com/" style="fill-rule:evenodd;clip-rule:evenodd;stroke-linecap:round;stroke-linejoin:round;stroke-miterlimit:1.5;">
    <g transform="matrix(1,0,0,1,-112.358,-71.3275)">
        <g transform="matrix(0.198471,0,0,0.21883,324.819,41.795)">
            <path d="M359.68,349.33C350.882,365.153 333.992,375.869 314.619,375.869C286.184,375.869 263.098,352.783 263.098,324.347C263.098,295.912 286.184,272.826 314.619,272.826C333.992,272.826 350.882,283.542 359.68,299.364L375.652,299.364L375.652,307.653L492.002,307.653L505.451,325.193L484.239,341.041L483.582,341.041L477.719,335.583L470.34,335.583L462.343,341.041L461.371,341.041L452.543,335.4L444.713,335.334L436.888,341.041L435.598,341.041L427.419,336.271L419.953,335.909L412.016,341.041L410.857,341.041L402.831,335.85L393.161,336.219L384.486,341.041L375.652,341.041L375.652,349.33L359.68,349.33ZM287.849,312.55C294.534,312.55 299.962,317.978 299.962,324.663C299.962,331.349 294.534,336.776 287.849,336.776C281.163,336.776 275.736,331.349 275.736,324.663C275.736,317.978 281.163,312.55 287.849,312.55Z" style="fill:rgb(0,199,178);"/>
        </g>
        <g transform="matrix(1.31516,0,0,1.31516,387.613,252.47)">
            <path d="M183.474,184.232C183.474,183.736 183.071,183.334 182.576,183.334L73.701,183.334C73.205,183.334 72.802,183.736 72.802,184.232L72.802,198.508C72.802,199.003 73.205,199.406 73.701,199.406L182.576,199.406C183.071,199.406 183.474,199.003 183.474,198.508L183.474,184.232ZM176.697,76.27C176.697,73.306 174.291,70.899 171.326,70.899L85.962,70.899C82.998,70.899 80.591,73.306 80.591,76.27L80.591,175.726C80.591,178.69 82.998,181.097 85.962,181.097L171.326,181.097C174.291,181.097 176.697,178.69 176.697,175.726L176.697,76.27ZM166.7,165.777C166.7,164.173 165.398,162.871 163.794,162.871L93.495,162.871C91.891,162.871 90.588,164.173 90.588,165.777L90.588,170.881C90.588,172.485 91.891,173.787 93.495,173.787L163.794,173.787C165.398,173.787 166.7,172.485 166.7,170.881L166.7,165.777ZM132.681,166.512C133.819,166.512 134.743,167.436 134.743,168.575C134.743,169.713 133.819,170.637 132.681,170.637C131.543,170.637 130.619,169.713 130.619,168.575C130.619,167.436 131.543,166.512 132.681,166.512ZM149.552,166.464C150.69,166.464 151.614,167.388 151.614,168.526C151.614,169.664 150.69,170.588 149.552,170.588C148.414,170.588 147.49,169.664 147.49,168.526C147.49,167.388 148.414,166.464 149.552,166.464ZM141.117,166.449C142.255,166.449 143.179,167.373 143.179,168.511C143.179,169.649 142.255,170.573 141.117,170.573C139.978,170.573 139.054,169.649 139.054,168.511C139.054,167.373 139.978,166.449 141.117,166.449ZM157.988,166.4C159.126,166.4 160.05,167.324 160.05,168.462C160.05,169.6 159.126,170.524 157.988,170.524C156.85,170.524 155.926,169.6 155.926,168.462C155.926,167.324 156.85,166.4 157.988,166.4ZM166.7,148.977C166.7,147.373 165.398,146.071 163.794,146.071L93.495,146.071C91.891,146.071 90.588,147.373 90.588,148.977L90.588,154.081C90.588,155.685 91.891,156.987 93.495,156.987L163.794,156.987C165.398,156.987 166.7,155.685 166.7,154.081L166.7,148.977ZM149.627,149.464C150.765,149.464 151.689,150.388 151.689,151.526C151.689,152.664 150.765,153.588 149.627,153.588C148.489,153.588 147.565,152.664 147.565,151.526C147.565,150.388 148.489,149.464 149.627,149.464ZM157.988,149.4C159.126,149.4 160.05,150.324 160.05,151.462C160.05,152.6 159.126,153.524 157.988,153.524C156.85,153.524 155.926,152.6 155.926,151.462C155.926,150.324 156.85,149.4 157.988,149.4ZM166.7,132.177C166.7,130.573 165.398,129.271 163.794,129.271L93.495,129.271C91.891,129.271 90.588,130.573 90.588,132.177L90.588,137.281C90.588,138.885 91.891,140.187 93.495,140.187L163.794,140.187C165.398,140.187 166.7,138.885 166.7,137.281L166.7,132.177ZM132.681,133.053C133.819,133.053 134.743,133.977 134.743,135.115C134.743,136.253 133.819,137.177 132.681,137.177C131.543,137.177 130.619,136.253 130.619,135.115C130.619,133.977 131.543,133.053 132.681,133.053ZM149.552,133.005C150.69,133.005 151.614,133.929 151.614,135.067C151.614,136.205 150.69,137.129 149.552,137.129C148.414,137.129 147.49,136.205 147.49,135.067C147.49,133.929 148.414,133.005 149.552,133.005ZM141.117,132.989C142.255,132.989 143.179,133.913 143.179,135.051C143.179,136.19 142.255,137.114 141.117,137.114C139.978,137.114 139.054,136.19 139.054,135.051C139.054,133.913 139.978,132.989 141.117,132.989ZM157.988,132.941C159.126,132.941 160.05,133.865 160.05,135.003C160.05,136.141 159.126,137.065 157.988,137.065C156.85,137.065 155.926,136.141 155.926,135.003C155.926,133.865 156.85,132.941 157.988,132.941ZM166.7,115.377C166.7,113.773 165.398,112.471 163.794,112.471L93.495,112.471C91.891,112.471 90.588,113.773 90.588,115.377L90.588,120.481C90.588,122.085 91.891,123.387 93.495,123.387L163.794,123.387C165.398,123.387 166.7,122.085 166.7,120.481L166.7,115.377ZM149.627,116.005C150.765,116.005 151.689,116.929 151.689,118.067C151.689,119.205 150.765,120.129 149.627,120.129C148.489,120.129 147.565,119.205 147.565,118.067C147.565,116.929 148.489,116.005 149.627,116.005ZM157.988,115.941C159.126,115.941 160.05,116.865 160.05,118.003C160.05,119.141 159.126,120.065 157.988,120.065C156.85,120.065 155.926,119.141 155.926,118.003C155.926,116.865 156.85,115.941 157.988,115.941ZM166.7,98.577C166.7,96.973 165.398,95.671 163.794,95.671L93.495,95.671C91.891,95.671 90.588,96.973 90.588,98.577L90.588,103.681C90.588,105.285 91.891,106.587 93.495,106.587L163.794,106.587C165.398,106.587 166.7,105.285 166.7,103.681L166.7,98.577ZM132.681,99.312C133.819,99.312 134.743,100.236 134.743,101.375C134.743,102.513 133.819,103.437 132.681,103.437C131.543,103.437 130.619,102.513 130.619,101.375C130.619,100.236 131.543,99.312 132.681,99.312ZM149.552,99.264C150.69,99.264 151.614,100.188 151.614,101.326C151.614,102.464 150.69,103.388 149.552,103.388C148.414,103.388 147.49,102.464 147.49,101.326C147.49,100.188 148.414,99.264 149.552,99.264ZM141.117,99.249C142.255,99.249 143.179,100.173 143.179,101.311C143.179,102.449 142.255,103.373 141.117,103.373C139.978,103.373 139.054,102.449 139.054,101.311C139.054,100.173 139.978,99.249 141.117,99.249ZM157.988,99.2C159.126,99.2 160.05,100.124 160.05,101.262C160.05,102.4 159.126,103.324 157.988,103.324C156.85,103.324 155.926,102.4 155.926,101.262C155.926,100.124 156.85,99.2 157.988,99.2ZM166.7,81.777C166.7,80.173 165.398,78.871 163.794,78.871L93.495,78.871C91.891,78.871 90.588,80.173 90.588,81.777L90.588,86.881C90.588,88.485 91.891,89.787 93.495,89.787L163.794,89.787C165.398,89.787 166.7,88.485 166.7,86.881L166.7,81.777ZM149.627,82.264C150.765,82.264 151.689,83.188 151.689,84.326C151.689,85.464 150.765,86.388 149.627,86.388C148.489,86.388 147.565,85.464 147.565,84.326C147.565,83.188 148.489,82.264 149.627,82.264ZM157.988,82.2C159.126,82.2 160.05,83.124 160.05,84.262C160.05,85.4 159.126,86.324 157.988,86.324C156.85,86.324 155.926,85.4 155.926,84.262C155.926,83.124 156.85,82.2 157.988,82.2Z"/>
        </g>
        <g transform="matrix(0.300466,0,0,0.300466,391.222,234.146)">
            <path d="M491.222,229.81L491.222,181.572C491.222,149.763 517.047,123.937 548.857,123.937C580.667,123.937 606.493,149.763 606.493,181.572L606.493,229.81C618.054,243.169 625.054,260.589 625.054,279.631C625.054,321.685 590.912,355.828 548.857,355.828C506.803,355.828 472.66,321.685 472.66,279.631C472.66,260.589 479.66,243.169 491.222,229.81ZM548.857,238.823C570.708,238.823 588.449,256.65 588.449,278.607C588.449,300.565 570.708,318.392 548.857,318.392C527.006,318.392 509.266,300.565 509.266,278.607C509.266,256.65 527.006,238.823 548.857,238.823ZM548.857,244.6C567.535,244.6 582.7,259.838 582.7,278.607C582.7,297.377 567.535,312.615 548.857,312.615C530.179,312.615 515.015,297.377 515.015,278.607C515.015,259.838 530.179,244.6 548.857,244.6ZM519.354,209.403L519.354,181.381C519.354,165.048 532.614,151.787 548.947,151.787C565.28,151.787 578.541,165.048 578.541,181.381L578.541,209.403C569.44,205.559 559.44,203.434 548.947,203.434C538.455,203.434 528.455,205.559 519.354,209.403Z" style="fill:rgb(240,136,164);"/>
        </g>
        <g transform="matrix(1.31516,0,0,1.31516,232.696,242.153)">
            <path d="M183.474,184.232C183.474,183.736 183.071,183.334 182.576,183.334L73.701,183.334C73.205,183.334 72.802,183.736 72.802,184.232L72.802,198.508C72.802,199.003 73.205,199.406 73.701,199.406L182.576,199.406C183.071,199.406 183.474,199.003 183.474,198.508L183.474,184.232ZM176.697,76.27C176.697,73.306 174.291,70.899 171.326,70.899L85.962,70.899C82.998,70.899 80.591,73.306 80.591,76.27L80.591,175.726C80.591,178.69 82.998,181.097 85.962,181.097L171.326,181.097C174.291,181.097 176.697,178.69 176.697,175.726L176.697,76.27ZM166.7,165.777C166.7,164.173 165.398,162.871 163.794,162.871L93.495,162.871C91.891,162.871 90.588,164.173 90.588,165.777L90.588,170.881C90.588,172.485 91.891,173.787 93.495,173.787L163.794,173.787C165.398,173.787 166.7,172.485 166.7,170.881L166.7,165.777ZM132.681,166.512C133.819,166.512 134.743,167.436 134.743,168.575C134.743,169.713 133.819,170.637 132.681,170.637C131.543,170.637 130.619,169.713 130.619,168.575C130.619,167.436 131.543,166.512 132.681,166.512ZM149.552,166.464C150.69,166.464 151.614,167.388 151.614,168.526C151.614,169.664 150.69,170.588 149.552,170.588C148.414,170.588 147.49,169.664 147.49,168.526C147.49,167.388 148.414,166.464 149.552,166.464ZM141.117,166.449C142.255,166.449 143.179,167.373 143.179,168.511C143.179,169.649 142.255,170.573 141.117,170.573C139.978,170.573 139.054,169.649 139.054,168.511C139.054,167.373 139.978,166.449 141.117,166.449ZM157.988,166.4C159.126,166.4 160.05,167.324 160.05,168.462C160.05,169.6 159.126,170.524 157.988,170.524C156.85,170.524 155.926,169.6 155.926,168.462C155.926,167.324 156.85,166.4 157.988,166.4ZM166.7,148.977C166.7,147.373 165.398,146.071 163.794,146.071L93.495,146.071C91.891,146.071 90.588,147.373 90.588,148.977L90.588,154.081C90.588,155.685 91.891,156.987 93.495,156.987L163.794,156.987C165.398,156.987 166.7,155.685 166.7,154.081L166.7,148.977ZM149.627,149.464C150.765,149.464 151.689,150.388 151.689,151.526C151.689,152.664 150.765,153.588 149.627,153.588C148.489,153.588 147.565,152.664 147.565,151.526C147.565,150.388 148.489,149.464 149.627,149.464ZM157.988,149.4C159.126,149.4 160.05,150.324 160.05,151.462C160.05,152.6 159.126,153.524 157.988,153.524C156.85,153.524 155.926,152.6 155.926,151.462C155.926,150.324 156.85,149.4 157.988,149.4ZM166.7,132.177C166.7,130.573 165.398,129.271 163.794,129.271L93.495,129.271C91.891,129.271 90.588,130.573 90.588,132.177L90.588,137.281C90.588,138.885 91.891,140.187 93.495,140.187L163.794,140.187C165.398,140.187 166.7,138.885 166.7,137.281L166.7,132.177ZM132.681,133.053C133.819,133.053 134.743,133.977 134.743,135.115C134.743,136.253 133.819,137.177 132.681,137.177C131.543,137.177 130.619,136.253 130.619,135.115C130.619,133.977 131.543,133.053 132.681,133.053ZM149.552,133.005C150.69,133.005 151.614,133.929 151.614,135.067C151.614,136.205 150.69,137.129 149.552,137.129C148.414,137.129 147.49,136.205 147.49,135.067C147.49,133.929 148.414,133.005 149.552,133.005ZM141.117,132.989C142.255,132.989 143.179,133.913 143.179,135.051C143.179,136.19 142.255,137.114 141.117,137.114C139.978,137.114 139.054,136.19 139.054,135.051C139.054,133.913 139.978,132.989 141.117,132.989ZM157.988,132.941C159.126,132.941 160.05,133.865 160.05,135.003C160.05,136.141 159.126,137.065 157.988,137.065C156.85,137.065 155.926,136.141 155.926,135.003C155.926,133.865 156.85,132.941 157.988,132.941ZM166.7,115.377C166.7,113.773 165.398,112.471 163.794,112.471L93.495,112.471C91.891,112.471 90.588,113.773 90.588,115.377L90.588,120.481C90.588,122.085 91.891,123.387 93.495,123.387L163.794,123.387C165.398,123.387 166.7,122.085 166.7,120.481L166.7,115.377ZM149.627,116.005C150.765,116.005 151.689,116.929 151.689,118.067C151.689,119.205 150.765,120.129 149.627,120.129C148.489,120.129 147.565,119.205 147.565,118.067C147.565,116.929 148.489,116.005 149.627,116.005ZM157.988,115.941C159.126,115.941 160.05,116.865 160.05,118.003C160.05,119.141 159.126,120.065 157.988,120.065C156.85,120.065 155.926,119.141 155.926,118.003C155.926,116.865 156.85,115.941 157.988,115.941ZM166.7,98.577C166.7,96.973 165.398,95.671 163.794,95.671L93.495,95.671C91.891,95.671 90.588,96.973 90.588,98.577L90.588,103.681C90.588,105.285 91.891,106.587 93.495,106.587L163.794,106.587C165.398,106.587 166.7,105.285 166.7,103.681L166.7,98.577ZM132.681,99.312C133.819,99.312 134.743,100.236 134.743,101.375C134.743,102.513 133.819,103.437 132.681,103.437C131.543,103.437 130.619,102.513 130.619,101.375C130.619,100.236 131.543,99.312 132.681,99.312ZM149.552,99.264C150.69,99.264 151.614,100.188 151.614,101.326C151.614,102.464 150.69,103.388 149.552,103.388C148.414,103.388 147.49,102.464 147.49,101.326C147.49,100.188 148.414,99.264 149.552,99.264ZM141.117,99.249C142.255,99.249 143.179,100.173 143.179,101.311C143.179,102.449 142.255,103.373 141.117,103.373C139.978,103.373 139.054,102.449 139.054,101.311C139.054,100.173 139.978,99.249 141.117,99.249ZM157.988,99.2C159.126,99.2 160.05,100.124 160.05,101.262C160.05,102.4 159.126,103.324 157.988,103.324C156.85,103.324 155.926,102.4 155.926,101.262C155.926,100.124 156.85,99.2 157.988,99.2ZM166.7,81.777C166.7,80.173 165.398,78.871 163.794,78.871L93.495,78.871C91.891,78.871 90.588,80.173 90.588,81.777L90.588,86.881C90.588,88.485 91.891,89.787 93.495,89.787L163.794,89.787C165.398,89.787 166.7,88.485 166.7,86.881L166.7,81.777ZM149.627,82.264C150.765,82.264 151.689,83.188 151.689,84.326C151.689,85.464 150.765,86.388 149.627,86.388C148.489,86.388 147.565,85.464 147.565,84.326C147.565,83.188 148.489,82.264 149.627,82.264ZM157.988,82.2C159.126,82.2 160.05,83.124 160.05,84.262C160.05,85.4 159.126,86.324 157.988,86.324C156.85,86.324 155.926,85.4 155.926,84.262C155.926,83.124 156.85,82.2 157.988,82.2Z"/>
        </g>
        <g transform="matrix(0.300466,0,0,0.300466,236.306,223.828)">
            <path d="M491.222,229.81L491.222,181.572C491.222,149.763 517.047,123.937 548.857,123.937C580.667,123.937 606.493,149.763 606.493,181.572L606.493,229.81C618.054,243.169 625.054,260.589 625.054,279.631C625.054,321.685 590.912,355.828 548.857,355.828C506.803,355.828 472.66,321.685 472.66,279.631C472.66,260.589 479.66,243.169 491.222,229.81ZM548.857,238.823C570.708,238.823 588.449,256.65 588.449,278.607C588.449,300.565 570.708,318.392 548.857,318.392C527.006,318.392 509.266,300.565 509.266,278.607C509.266,256.65 527.006,238.823 548.857,238.823ZM548.857,244.6C567.535,244.6 582.7,259.838 582.7,278.607C582.7,297.377 567.535,312.615 548.857,312.615C530.179,312.615 515.015,297.377 515.015,278.607C515.015,259.838 530.179,244.6 548.857,244.6ZM519.354,209.403L519.354,181.381C519.354,165.048 532.614,151.787 548.947,151.787C565.28,151.787 578.541,165.048 578.541,181.381L578.541,209.403C569.44,205.559 559.44,203.434 548.947,203.434C538.455,203.434 528.455,205.559 519.354,209.403Z" style="fill:rgb(0,199,178);"/>
        </g>
        <g transform="matrix(1.31516,0,0,1.31516,84.7823,271.81)">
            <path d="M183.474,184.232C183.474,183.736 183.071,183.334 182.576,183.334L73.701,183.334C73.205,183.334 72.802,183.736 72.802,184.232L72.802,198.508C72.802,199.003 73.205,199.406 73.701,199.406L182.576,199.406C183.071,199.406 183.474,199.003 183.474,198.508L183.474,184.232ZM176.697,76.27C176.697,73.306 174.291,70.899 171.326,70.899L85.962,70.899C82.998,70.899 80.591,73.306 80.591,76.27L80.591,175.726C80.591,178.69 82.998,181.097 85.962,181.097L171.326,181.097C174.291,181.097 176.697,178.69 176.697,175.726L176.697,76.27ZM166.7,165.777C166.7,164.173 165.398,162.871 163.794,162.871L93.495,162.871C91.891,162.871 90.588,164.173 90.588,165.777L90.588,170.881C90.588,172.485 91.891,173.787 93.495,173.787L163.794,173.787C165.398,173.787 166.7,172.485 166.7,170.881L166.7,165.777ZM132.681,166.512C133.819,166.512 134.743,167.436 134.743,168.575C134.743,169.713 133.819,170.637 132.681,170.637C131.543,170.637 130.619,169.713 130.619,168.575C130.619,167.436 131.543,166.512 132.681,166.512ZM149.552,166.464C150.69,166.464 151.614,167.388 151.614,168.526C151.614,169.664 150.69,170.588 149.552,170.588C148.414,170.588 147.49,169.664 147.49,168.526C147.49,167.388 148.414,166.464 149.552,166.464ZM141.117,166.449C142.255,166.449 143.179,167.373 143.179,168.511C143.179,169.649 142.255,170.573 141.117,170.573C139.978,170.573 139.054,169.649 139.054,168.511C139.054,167.373 139.978,166.449 141.117,166.449ZM157.988,166.4C159.126,166.4 160.05,167.324 160.05,168.462C160.05,169.6 159.126,170.524 157.988,170.524C156.85,170.524 155.926,169.6 155.926,168.462C155.926,167.324 156.85,166.4 157.988,166.4ZM166.7,148.977C166.7,147.373 165.398,146.071 163.794,146.071L93.495,146.071C91.891,146.071 90.588,147.373 90.588,148.977L90.588,154.081C90.588,155.685 91.891,156.987 93.495,156.987L163.794,156.987C165.398,156.987 166.7,155.685 166.7,154.081L166.7,148.977ZM149.627,149.464C150.765,149.464 151.689,150.388 151.689,151.526C151.689,152.664 150.765,153.588 149.627,153.588C148.489,153.588 147.565,152.664 147.565,151.526C147.565,150.388 148.489,149.464 149.627,149.464ZM157.988,149.4C159.126,149.4 160.05,150.324 160.05,151.462C160.05,152.6 159.126,153.524 157.988,153.524C156.85,153.524 155.926,152.6 155.926,151.462C155.926,150.324 156.85,149.4 157.988,149.4ZM166.7,132.177C166.7,130.573 165.398,129.271 163.794,129.271L93.495,129.271C91.891,129.271 90.588,130.573 90.588,132.177L90.588,137.281C90.588,138.885 91.891,140.187 93.495,140.187L163.794,140.187C165.398,140.187 166.7,138.885 166.7,137.281L166.7,132.177ZM132.681,133.053C133.819,133.053 134.743,133.977 134.743,135.115C134.743,136.253 133.819,137.177 132.681,137.177C131.543,137.177 130.619,136.253 130.619,135.115C130.619,133.977 131.543,133.053 132.681,133.053ZM149.552,133.005C150.69,133.005 151.614,133.929 151.614,135.067C151.614,136.205 150.69,137.129 149.552,137.129C148.414,137.129 147.49,136.205 147.49,135.067C147.49,133.929 148.414,133.005 149.552,133.005ZM141.117,132.989C142.255,132.989 143.179,133.913 143.179,135.051C143.179,136.19 142.255,137.114 141.117,137.114C139.978,137.114 139.054,136.19 139.054,135.051C139.054,133.913 139.978,132.989 141.117,132.989ZM157.988,132.941C159.126,132.941 160.05,133.865 160.05,135.003C160.05,136.141 159.126,137.065 157.988,137.065C156.85,137.065 155.926,136.141 155.926,135.003C155.926,133.865 156.85,132.941 157.988,132.941ZM166.7,115.377C166.7,113.773 165.398,112.471 163.794,112.471L93.495,112.471C91.891,112.471 90.588,113.773 90.588,115.377L90.588,120.481C90.588,122.085 91.891,123.387 93.495,123.387L163.794,123.387C165.398,123.387 166.7,122.085 166.7,120.481L166.7,115.377ZM149.627,116.005C150.765,116.005 151.689,116.929 151.689,118.067C151.689,119.205 150.765,120.129 149.627,120.129C148.489,120.129 147.565,119.205 147.565,118.067C147.565,116.929 148.489,116.005 149.627,116.005ZM157.988,115.941C159.126,115.941 160.05,116.865 160.05,118.003C160.05,119.141 159.126,120.065 157.988,120.065C156.85,120.065 155.926,119.141 155.926,118.003C155.926,116.865 156.85,115.941 157.988,115.941ZM166.7,98.577C166.7,96.973 165.398,95.671 163.794,95.671L93.495,95.671C91.891,95.671 90.588,96.973 90.588,98.577L90.588,103.681C90.588,105.285 91.891,106.587 93.495,106.587L163.794,106.587C165.398,106.587 166.7,105.285 166.7,103.681L166.7,98.577ZM132.681,99.312C133.819,99.312 134.743,100.236 134.743,101.375C134.743,102.513 133.819,103.437 132.681,103.437C131.543,103.437 130.619,102.513 130.619,101.375C130.619,100.236 131.543,99.312 132.681,99.312ZM149.552,99.264C150.69,99.264 151.614,100.188 151.614,101.326C151.614,102.464 150.69,103.388 149.552,103.388C148.414,103.388 147.49,102.464 147.49,101.326C147.49,100.188 148.414,99.264 149.552,99.264ZM141.117,99.249C142.255,99.249 143.179,100.173 143.179,101.311C143.179,102.449 142.255,103.373 141.117,103.373C139.978,103.373 139.054,102.449 139.054,101.311C139.054,100.173 139.978,99.249 141.117,99.249ZM157.988,99.2C159.126,99.2 160.05,100.124 160.05,101.262C160.05,102.4 159.126,103.324 157.988,103.324C156.85,103.324 155.926,102.4 155.926,101.262C155.926,100.124 156.85,99.2 157.988,99.2ZM166.7,81.777C166.7,80.173 165.398,78.871 163.794,78.871L93.495,78.871C91.891,78.871 90.588,80.173 90.588,81.777L90.588,86.881C90.588,88.485 91.891,89.787 93.495,89.787L163.794,89.787C165.398,89.787 166.7,88.485 166.7,86.881L166.7,81.777ZM149.627,82.264C150.765,82.264 151.689,83.188 151.689,84.326C151.689,85.464 150.765,86.388 149.627,86.388C148.489,86.388 147.565,85.464 147.565,84.326C147.565,83.188 148.489,82.264 149.627,82.264ZM157.988,82.2C159.126,82.2 160.05,83.124 160.05,84.262C160.05,85.4 159.126,86.324 157.988,86.324C156.85,86.324 155.926,85.4 155.926,84.262C155.926,83.124 156.85,82.2 157.988,82.2Z"/>
        </g>
        <g transform="matrix(0.300466,0,0,0.300466,88.392,253.485)">
            <path d="M491.222,229.81L491.222,181.572C491.222,149.763 517.047,123.937 548.857,123.937C580.667,123.937 606.493,149.763 606.493,181.572L606.493,229.81C618.054,243.169 625.054,260.589 625.054,279.631C625.054,321.685 590.912,355.828 548.857,355.828C506.803,355.828 472.66,321.685 472.66,279.631C472.66,260.589 479.66,243.169 491.222,229.81ZM548.857,238.823C570.708,238.823 588.449,256.65 588.449,278.607C588.449,300.565 570.708,318.392 548.857,318.392C527.006,318.392 509.266,300.565 509.266,278.607C509.266,256.65 527.006,238.823 548.857,238.823ZM548.857,244.6C567.535,244.6 582.7,259.838 582.7,278.607C582.7,297.377 567.535,312.615 548.857,312.615C530.179,312.615 515.015,297.377 515.015,278.607C515.015,259.838 530.179,244.6 548.857,244.6ZM519.354,209.403L519.354,181.381C519.354,165.048 532.614,151.787 548.947,151.787C565.28,151.787 578.541,165.048 578.541,181.381L578.541,209.403C569.44,205.559 559.44,203.434 548.947,203.434C538.455,203.434 528.455,205.559 519.354,209.403Z" style="fill:rgb(0,199,178);"/>
        </g>
        <g>
            <g transform="matrix(0.373754,0,0,0.373754,209.406,61.7732)">
                <rect x="365.69" y="43.912" width="296.821" height="186.915" style="fill:none;stroke:black;stroke-width:2.68px;"/>
            </g>
            <g transform="matrix(0.373754,0,0,0.373754,209.406,61.7732)">
                <path d="M685.39,41.176C685.39,33.297 678.994,26.901 671.115,26.901L357.085,26.901C349.206,26.901 342.81,33.297 342.81,41.176L342.81,231.723C342.81,239.602 349.206,245.998 357.085,245.998L671.115,245.998C678.994,245.998 685.39,239.602 685.39,231.723L685.39,41.176ZM662.51,43.912L365.69,43.912L365.69,230.827L662.51,230.827L662.51,43.912Z" style="fill:rgb(147,151,157);stroke:black;stroke-width:2.68px;"/>
            </g>
            <g transform="matrix(0.373754,0,0,0.373754,209.406,61.7732)">
                <path d="M732.917,268.02C732.917,265.079 730.528,262.69 727.587,262.69L303.512,262.69C300.571,262.69 298.182,265.079 298.182,268.02L298.182,278.68C298.182,281.622 300.571,284.01 303.512,284.01L727.587,284.01C730.528,284.01 732.917,281.622 732.917,278.68L732.917,268.02Z" style="fill:rgb(119,127,133);stroke:black;stroke-width:2.68px;"/>
            </g>
            <g transform="matrix(0.386771,-0.00397829,-0.00397829,0.37497,206.421,62.8926)">
                <path d="M303.216,262.065C303.216,262.065 337.949,251.345 355.315,245.985C372.682,240.625 303.216,262.065 303.216,262.065Z" style="fill:none;stroke:black;stroke-width:2.65px;"/>
            </g>
            <g transform="matrix(0.386771,0.00397829,-0.00397829,-0.37497,345.084,250.792)">
                <path d="M303.216,262.065L355.675,246.032" style="fill:none;stroke:black;stroke-width:2.65px;"/>
            </g>
        </g>
        <g transform="matrix(-0.770675,-0.637228,0.637228,-0.770675,353.463,516.213)">
            <path d="M213.218,217.204L231.093,217.204L228.312,173.324L242.325,174.603L221.804,148.174L202.78,174.775L215.089,173.585L213.218,217.204Z" style="fill:none;stroke:black;stroke-width:1px;"/>
        </g>
        <g transform="matrix(-1,0.000612019,-0.000612019,-1,623.878,398.342)">
            <path d="M213.218,217.204L231.093,217.204L228.312,173.324L242.325,174.603L221.804,148.174L202.78,174.775L215.089,173.585L213.218,217.204Z" style="fill:none;stroke:black;stroke-width:1px;"/>
        </g>
        <g transform="matrix(-0.853279,-0.947301,0.906214,-0.81627,508.545,586.48)">
            <path d="M198.645,178.508L213.274,178.628L212.636,193.93L227.881,192.593L227.883,207.833L212.548,207.27L213.034,222.523L197.986,222.523L199.116,207.9L186.349,208.922L186.349,193.095L199.633,194.408L198.645,178.508Z" style="fill:none;stroke:black;stroke-width:0.8px;"/>
        </g>
        <g transform="matrix(0.964799,0,0,0.964799,-4.3041,9.60802)">
            <g transform="matrix(24,0,0,24,493.668,111.227)">
                <path d="M0.547,-0L0.447,-0L0.231,-0.253L0.181,-0.21L0.181,-0L0.105,-0L0.105,-0.689L0.181,-0.689L0.181,-0.294L0.42,-0.509L0.517,-0.509L0.285,-0.301L0.547,-0Z" style="fill-rule:nonzero;"/>
            </g>
            <g transform="matrix(24,0,0,24,508.071,111.227)">
                <path d="M0.512,-0.252L0.163,-0.252C0.163,-0.194 0.18,-0.147 0.213,-0.109C0.247,-0.072 0.287,-0.053 0.336,-0.053C0.382,-0.053 0.43,-0.062 0.479,-0.078L0.492,-0.017C0.447,0.003 0.395,0.013 0.335,0.013C0.259,0.013 0.199,-0.011 0.152,-0.06C0.106,-0.108 0.083,-0.174 0.083,-0.256C0.083,-0.337 0.104,-0.401 0.145,-0.449C0.187,-0.497 0.24,-0.521 0.306,-0.521C0.365,-0.521 0.414,-0.499 0.453,-0.454C0.493,-0.41 0.512,-0.35 0.512,-0.276L0.512,-0.252ZM0.429,-0.314C0.429,-0.354 0.417,-0.387 0.392,-0.414C0.367,-0.441 0.34,-0.455 0.309,-0.455C0.27,-0.455 0.237,-0.442 0.211,-0.416C0.185,-0.39 0.171,-0.356 0.168,-0.314L0.429,-0.314Z" style="fill-rule:nonzero;"/>
            </g>
            <g transform="matrix(24,0,0,24,522.473,111.227)">
                <path d="M0.52,-0.509L0.327,-0C0.299,0.075 0.271,0.127 0.244,0.157C0.216,0.186 0.185,0.201 0.15,0.201C0.119,0.201 0.088,0.195 0.057,0.184L0.07,0.123C0.095,0.131 0.117,0.135 0.136,0.135C0.164,0.135 0.186,0.124 0.204,0.103C0.221,0.082 0.239,0.047 0.257,-0.001L0.066,-0.509L0.149,-0.509L0.293,-0.103L0.437,-0.509L0.52,-0.509Z" style="fill-rule:nonzero;"/>
            </g>
            <g transform="matrix(24,0,0,24,536.875,111.227)">
                <path d="M0.497,-0L0.421,-0L0.421,-0.326C0.421,-0.371 0.414,-0.404 0.399,-0.425C0.385,-0.445 0.362,-0.455 0.331,-0.455C0.285,-0.455 0.235,-0.426 0.181,-0.368L0.181,-0L0.105,-0L0.105,-0.509L0.181,-0.509L0.181,-0.434C0.236,-0.492 0.293,-0.521 0.354,-0.521C0.449,-0.521 0.497,-0.463 0.497,-0.348L0.497,-0Z" style="fill-rule:nonzero;"/>
            </g>
            <g transform="matrix(24,0,0,24,551.278,111.227)">
                <path d="M0.51,-0L0.434,-0C0.428,-0.021 0.425,-0.048 0.425,-0.082C0.382,-0.019 0.323,0.013 0.248,0.013C0.21,0.013 0.177,-0 0.148,-0.027C0.119,-0.054 0.105,-0.089 0.105,-0.131C0.105,-0.156 0.11,-0.178 0.12,-0.197C0.13,-0.216 0.145,-0.233 0.165,-0.246C0.184,-0.259 0.208,-0.269 0.236,-0.277C0.264,-0.285 0.297,-0.29 0.335,-0.293L0.421,-0.3L0.421,-0.324C0.421,-0.411 0.38,-0.455 0.299,-0.455C0.28,-0.455 0.255,-0.451 0.226,-0.443C0.196,-0.434 0.171,-0.424 0.15,-0.413L0.13,-0.468C0.199,-0.503 0.264,-0.521 0.323,-0.521C0.439,-0.521 0.497,-0.46 0.497,-0.337L0.497,-0.118C0.497,-0.074 0.501,-0.035 0.51,-0ZM0.421,-0.151L0.421,-0.243C0.352,-0.237 0.305,-0.231 0.28,-0.226C0.254,-0.22 0.232,-0.21 0.213,-0.196C0.194,-0.181 0.185,-0.161 0.185,-0.136C0.185,-0.113 0.193,-0.095 0.209,-0.081C0.225,-0.067 0.245,-0.06 0.27,-0.06C0.297,-0.06 0.324,-0.068 0.351,-0.084C0.377,-0.1 0.401,-0.123 0.421,-0.151Z" style="fill-rule:nonzero;"/>
            </g>
            <g transform="matrix(24,0,0,24,565.68,111.227)">
                <path d="M0.537,-0L0.461,-0L0.461,-0.334C0.461,-0.415 0.446,-0.455 0.416,-0.455C0.401,-0.455 0.384,-0.441 0.365,-0.413C0.347,-0.385 0.338,-0.37 0.338,-0.367L0.338,-0L0.262,-0L0.262,-0.334C0.262,-0.415 0.247,-0.455 0.217,-0.455C0.202,-0.455 0.185,-0.441 0.167,-0.413C0.148,-0.385 0.139,-0.37 0.139,-0.367L0.139,-0L0.063,-0L0.063,-0.509L0.136,-0.509L0.136,-0.432C0.151,-0.459 0.168,-0.481 0.187,-0.497C0.207,-0.513 0.227,-0.521 0.246,-0.521C0.267,-0.521 0.285,-0.513 0.301,-0.497C0.318,-0.481 0.329,-0.459 0.335,-0.432C0.349,-0.459 0.366,-0.481 0.386,-0.497C0.406,-0.513 0.426,-0.521 0.445,-0.521C0.506,-0.521 0.537,-0.466 0.537,-0.356L0.537,-0Z" style="fill-rule:nonzero;"/>
            </g>
            <g transform="matrix(24,0,0,24,580.082,111.227)">
                <path d="M0.512,-0.252L0.163,-0.252C0.163,-0.194 0.18,-0.147 0.213,-0.109C0.247,-0.072 0.287,-0.053 0.336,-0.053C0.382,-0.053 0.43,-0.062 0.479,-0.078L0.492,-0.017C0.447,0.003 0.395,0.013 0.335,0.013C0.259,0.013 0.199,-0.011 0.152,-0.06C0.106,-0.108 0.083,-0.174 0.083,-0.256C0.083,-0.337 0.104,-0.401 0.145,-0.449C0.187,-0.497 0.24,-0.521 0.306,-0.521C0.365,-0.521 0.414,-0.499 0.453,-0.454C0.493,-0.41 0.512,-0.35 0.512,-0.276L0.512,-0.252ZM0.429,-0.314C0.429,-0.354 0.417,-0.387 0.392,-0.414C0.367,-0.441 0.34,-0.455 0.309,-0.455C0.27,-0.455 0.237,-0.442 0.211,-0.416C0.185,-0.39 0.171,-0.356 0.168,-0.314L0.429,-0.314Z" style="fill-rule:nonzero;"/>
            </g>
            <g transform="matrix(24,0,0,24,594.485,111.227)">
                <path d="M0.297,-0.112C0.314,-0.112 0.329,-0.106 0.34,-0.094C0.352,-0.083 0.358,-0.068 0.358,-0.051C0.358,-0.033 0.352,-0.018 0.34,-0.006C0.328,0.007 0.314,0.013 0.297,0.013C0.28,0.013 0.266,0.007 0.254,-0.006C0.243,-0.018 0.237,-0.033 0.237,-0.051C0.237,-0.068 0.243,-0.083 0.254,-0.094C0.266,-0.106 0.28,-0.112 0.297,-0.112Z" style="fill-rule:nonzero;"/>
            </g>
            <g transform="matrix(24,0,0,24,608.887,111.227)">
                <path d="M0.181,-0.443C0.198,-0.466 0.221,-0.485 0.25,-0.5C0.279,-0.514 0.309,-0.521 0.341,-0.521C0.399,-0.521 0.445,-0.497 0.479,-0.448C0.512,-0.4 0.529,-0.337 0.529,-0.26C0.529,-0.182 0.511,-0.117 0.476,-0.065C0.441,-0.013 0.394,0.013 0.335,0.013C0.303,0.013 0.274,0.005 0.246,-0.01C0.219,-0.026 0.197,-0.047 0.181,-0.073L0.181,0.201L0.105,0.201L0.105,-0.509L0.181,-0.509L0.181,-0.443ZM0.181,-0.367L0.181,-0.156C0.195,-0.127 0.215,-0.103 0.239,-0.084C0.264,-0.065 0.289,-0.055 0.315,-0.055C0.356,-0.055 0.389,-0.074 0.413,-0.113C0.437,-0.151 0.449,-0.199 0.449,-0.256C0.449,-0.314 0.438,-0.362 0.415,-0.399C0.391,-0.437 0.359,-0.455 0.318,-0.455C0.264,-0.455 0.219,-0.426 0.181,-0.367Z" style="fill-rule:nonzero;"/>
            </g>
            <g transform="matrix(24,0,0,24,623.289,111.227)">
                <path d="M0.512,-0.252L0.163,-0.252C0.163,-0.194 0.18,-0.147 0.213,-0.109C0.247,-0.072 0.287,-0.053 0.336,-0.053C0.382,-0.053 0.43,-0.062 0.479,-0.078L0.492,-0.017C0.447,0.003 0.395,0.013 0.335,0.013C0.259,0.013 0.199,-0.011 0.152,-0.06C0.106,-0.108 0.083,-0.174 0.083,-0.256C0.083,-0.337 0.104,-0.401 0.145,-0.449C0.187,-0.497 0.24,-0.521 0.306,-0.521C0.365,-0.521 0.414,-0.499 0.453,-0.454C0.493,-0.41 0.512,-0.35 0.512,-0.276L0.512,-0.252ZM0.429,-0.314C0.429,-0.354 0.417,-0.387 0.392,-0.414C0.367,-0.441 0.34,-0.455 0.309,-0.455C0.27,-0.455 0.237,-0.442 0.211,-0.416C0.185,-0.39 0.171,-0.356 0.168,-0.314L0.429,-0.314Z" style="fill-rule:nonzero;"/>
            </g>
            <g transform="matrix(24,0,0,24,637.692,111.227)">
                <path d="M0.537,-0L0.461,-0L0.461,-0.334C0.461,-0.415 0.446,-0.455 0.416,-0.455C0.401,-0.455 0.384,-0.441 0.365,-0.413C0.347,-0.385 0.338,-0.37 0.338,-0.367L0.338,-0L0.262,-0L0.262,-0.334C0.262,-0.415 0.247,-0.455 0.217,-0.455C0.202,-0.455 0.185,-0.441 0.167,-0.413C0.148,-0.385 0.139,-0.37 0.139,-0.367L0.139,-0L0.063,-0L0.063,-0.509L0.136,-0.509L0.136,-0.432C0.151,-0.459 0.168,-0.481 0.187,-0.497C0.207,-0.513 0.227,-0.521 0.246,-0.521C0.267,-0.521 0.285,-0.513 0.301,-0.497C0.318,-0.481 0.329,-0.459 0.335,-0.432C0.349,-0.459 0.366,-0.481 0.386,-0.497C0.406,-0.513 0.426,-0.521 0.445,-0.521C0.506,-0.521 0.537,-0.466 0.537,-0.356L0.537,-0Z" style="fill-rule:nonzero;"/>
            </g>
        </g>
        <g transform="matrix(0.964799,0,0,0.964799,-364.95,228.422)">
            <g transform="matrix(24,0,0,24,493.668,111.227)">
                <path d="M0.547,-0L0.447,-0L0.231,-0.253L0.181,-0.21L0.181,-0L0.105,-0L0.105,-0.689L0.181,-0.689L0.181,-0.294L0.42,-0.509L0.517,-0.509L0.285,-0.301L0.547,-0Z" style="fill-rule:nonzero;"/>
            </g>
            <g transform="matrix(24,0,0,24,508.071,111.227)">
                <path d="M0.512,-0.252L0.163,-0.252C0.163,-0.194 0.18,-0.147 0.213,-0.109C0.247,-0.072 0.287,-0.053 0.336,-0.053C0.382,-0.053 0.43,-0.062 0.479,-0.078L0.492,-0.017C0.447,0.003 0.395,0.013 0.335,0.013C0.259,0.013 0.199,-0.011 0.152,-0.06C0.106,-0.108 0.083,-0.174 0.083,-0.256C0.083,-0.337 0.104,-0.401 0.145,-0.449C0.187,-0.497 0.24,-0.521 0.306,-0.521C0.365,-0.521 0.414,-0.499 0.453,-0.454C0.493,-0.41 0.512,-0.35 0.512,-0.276L0.512,-0.252ZM0.429,-0.314C0.429,-0.354 0.417,-0.387 0.392,-0.414C0.367,-0.441 0.34,-0.455 0.309,-0.455C0.27,-0.455 0.237,-0.442 0.211,-0.416C0.185,-0.39 0.171,-0.356 0.168,-0.314L0.429,-0.314Z" style="fill-rule:nonzero;"/>
            </g>
            <g transform="matrix(24,0,0,24,522.473,111.227)">
                <path d="M0.52,-0.509L0.327,-0C0.299,0.075 0.271,0.127 0.244,0.157C0.216,0.186 0.185,0.201 0.15,0.201C0.119,0.201 0.088,0.195 0.057,0.184L0.07,0.123C0.095,0.131 0.117,0.135 0.136,0.135C0.164,0.135 0.186,0.124 0.204,0.103C0.221,0.082 0.239,0.047 0.257,-0.001L0.066,-0.509L0.149,-0.509L0.293,-0.103L0.437,-0.509L0.52,-0.509Z" style="fill-rule:nonzero;"/>
            </g>
            <g transform="matrix(24,0,0,24,536.875,111.227)">
                <path d="M0.497,-0L0.421,-0L0.421,-0.326C0.421,-0.371 0.414,-0.404 0.399,-0.425C0.385,-0.445 0.362,-0.455 0.331,-0.455C0.285,-0.455 0.235,-0.426 0.181,-0.368L0.181,-0L0.105,-0L0.105,-0.509L0.181,-0.509L0.181,-0.434C0.236,-0.492 0.293,-0.521 0.354,-0.521C0.449,-0.521 0.497,-0.463 0.497,-0.348L0.497,-0Z" style="fill-rule:nonzero;"/>
            </g>
            <g transform="matrix(24,0,0,24,551.278,111.227)">
                <path d="M0.51,-0L0.434,-0C0.428,-0.021 0.425,-0.048 0.425,-0.082C0.382,-0.019 0.323,0.013 0.248,0.013C0.21,0.013 0.177,-0 0.148,-0.027C0.119,-0.054 0.105,-0.089 0.105,-0.131C0.105,-0.156 0.11,-0.178 0.12,-0.197C0.13,-0.216 0.145,-0.233 0.165,-0.246C0.184,-0.259 0.208,-0.269 0.236,-0.277C0.264,-0.285 0.297,-0.29 0.335,-0.293L0.421,-0.3L0.421,-0.324C0.421,-0.411 0.38,-0.455 0.299,-0.455C0.28,-0.455 0.255,-0.451 0.226,-0.443C0.196,-0.434 0.171,-0.424 0.15,-0.413L0.13,-0.468C0.199,-0.503 0.264,-0.521 0.323,-0.521C0.439,-0.521 0.497,-0.46 0.497,-0.337L0.497,-0.118C0.497,-0.074 0.501,-0.035 0.51,-0ZM0.421,-0.151L0.421,-0.243C0.352,-0.237 0.305,-0.231 0.28,-0.226C0.254,-0.22 0.232,-0.21 0.213,-0.196C0.194,-0.181 0.185,-0.161 0.185,-0.136C0.185,-0.113 0.193,-0.095 0.209,-0.081C0.225,-0.067 0.245,-0.06 0.27,-0.06C0.297,-0.06 0.324,-0.068 0.351,-0.084C0.377,-0.1 0.401,-0.123 0.421,-0.151Z" style="fill-rule:nonzero;"/>
            </g>
            <g transform="matrix(24,0,0,24,565.68,111.227)">
                <path d="M0.537,-0L0.461,-0L0.461,-0.334C0.461,-0.415 0.446,-0.455 0.416,-0.455C0.401,-0.455 0.384,-0.441 0.365,-0.413C0.347,-0.385 0.338,-0.37 0.338,-0.367L0.338,-0L0.262,-0L0.262,-0.334C0.262,-0.415 0.247,-0.455 0.217,-0.455C0.202,-0.455 0.185,-0.441 0.167,-0.413C0.148,-0.385 0.139,-0.37 0.139,-0.367L0.139,-0L0.063,-0L0.063,-0.509L0.136,-0.509L0.136,-0.432C0.151,-0.459 0.168,-0.481 0.187,-0.497C0.207,-0.513 0.227,-0.521 0.246,-0.521C0.267,-0.521 0.285,-0.513 0.301,-0.497C0.318,-0.481 0.329,-0.459 0.335,-0.432C0.349,-0.459 0.366,-0.481 0.386,-0.497C0.406,-0.513 0.426,-0.521 0.445,-0.521C0.506,-0.521 0.537,-0.466 0.537,-0.356L0.537,-0Z" style="fill-rule:nonzero;"/>
            </g>
            <g transform="matrix(24,0,0,24,580.082,111.227)">
                <path d="M0.512,-0.252L0.163,-0.252C0.163,-0.194 0.18,-0.147 0.213,-0.109C0.247,-0.072 0.287,-0.053 0.336,-0.053C0.382,-0.053 0.43,-0.062 0.479,-0.078L0.492,-0.017C0.447,0.003 0.395,0.013 0.335,0.013C0.259,0.013 0.199,-0.011 0.152,-0.06C0.106,-0.108 0.083,-0.174 0.083,-0.256C0.083,-0.337 0.104,-0.401 0.145,-0.449C0.187,-0.497 0.24,-0.521 0.306,-0.521C0.365,-0.521 0.414,-0.499 0.453,-0.454C0.493,-0.41 0.512,-0.35 0.512,-0.276L0.512,-0.252ZM0.429,-0.314C0.429,-0.354 0.417,-0.387 0.392,-0.414C0.367,-0.441 0.34,-0.455 0.309,-0.455C0.27,-0.455 0.237,-0.442 0.211,-0.416C0.185,-0.39 0.171,-0.356 0.168,-0.314L0.429,-0.314Z" style="fill-rule:nonzero;"/>
            </g>
        </g>
        <g transform="matrix(0.964799,0,0,0.964799,114.475,213.772)">
            <g transform="matrix(24,0,0,24,493.668,111.227)">
                <path d="M0.3,-0.521C0.37,-0.521 0.425,-0.497 0.467,-0.448C0.508,-0.399 0.529,-0.335 0.529,-0.255C0.529,-0.174 0.508,-0.11 0.467,-0.061C0.425,-0.011 0.37,0.013 0.3,0.013C0.229,0.013 0.174,-0.011 0.133,-0.06C0.091,-0.109 0.071,-0.174 0.071,-0.255C0.071,-0.335 0.091,-0.399 0.133,-0.448C0.174,-0.497 0.23,-0.521 0.3,-0.521ZM0.3,-0.053C0.346,-0.053 0.382,-0.073 0.409,-0.112C0.436,-0.151 0.449,-0.198 0.449,-0.254C0.449,-0.313 0.436,-0.361 0.41,-0.398C0.383,-0.436 0.347,-0.455 0.3,-0.455C0.253,-0.455 0.216,-0.436 0.19,-0.399C0.164,-0.362 0.151,-0.313 0.151,-0.254C0.151,-0.197 0.164,-0.15 0.19,-0.111C0.217,-0.073 0.253,-0.053 0.3,-0.053Z" style="fill-rule:nonzero;"/>
            </g>
            <g transform="matrix(24,0,0,24,508.071,111.227)">
                <path d="M0.502,-0.023C0.451,0 0.401,0.012 0.351,0.012C0.26,0.012 0.215,-0.036 0.215,-0.132L0.215,-0.443L0.117,-0.443L0.117,-0.509L0.215,-0.509L0.215,-0.648L0.289,-0.648L0.289,-0.509L0.462,-0.509L0.462,-0.443L0.289,-0.443L0.289,-0.152C0.289,-0.121 0.296,-0.097 0.31,-0.08C0.323,-0.063 0.342,-0.054 0.365,-0.054C0.407,-0.054 0.448,-0.063 0.489,-0.082L0.502,-0.023Z" style="fill-rule:nonzero;"/>
            </g>
            <g transform="matrix(24,0,0,24,522.473,111.227)">
                <path d="M0.497,-0L0.421,-0L0.421,-0.326C0.421,-0.371 0.414,-0.404 0.399,-0.425C0.385,-0.445 0.362,-0.455 0.331,-0.455C0.285,-0.455 0.235,-0.426 0.181,-0.368L0.181,-0L0.105,-0L0.105,-0.689L0.181,-0.689L0.181,-0.434C0.236,-0.492 0.293,-0.521 0.354,-0.521C0.449,-0.521 0.497,-0.463 0.497,-0.348L0.497,-0Z" style="fill-rule:nonzero;"/>
            </g>
            <g transform="matrix(24,0,0,24,536.875,111.227)">
                <path d="M0.512,-0.252L0.163,-0.252C0.163,-0.194 0.18,-0.147 0.213,-0.109C0.247,-0.072 0.287,-0.053 0.336,-0.053C0.382,-0.053 0.43,-0.062 0.479,-0.078L0.492,-0.017C0.447,0.003 0.395,0.013 0.335,0.013C0.259,0.013 0.199,-0.011 0.152,-0.06C0.106,-0.108 0.083,-0.174 0.083,-0.256C0.083,-0.337 0.104,-0.401 0.145,-0.449C0.187,-0.497 0.24,-0.521 0.306,-0.521C0.365,-0.521 0.414,-0.499 0.453,-0.454C0.493,-0.41 0.512,-0.35 0.512,-0.276L0.512,-0.252ZM0.429,-0.314C0.429,-0.354 0.417,-0.387 0.392,-0.414C0.367,-0.441 0.34,-0.455 0.309,-0.455C0.27,-0.455 0.237,-0.442 0.211,-0.416C0.185,-0.39 0.171,-0.356 0.168,-0.314L0.429,-0.314Z" style="fill-rule:nonzero;"/>
            </g>
            <g transform="matrix(24,0,0,24,551.278,111.227)">
                <path d="M0.505,-0.495L0.474,-0.422C0.441,-0.437 0.412,-0.444 0.387,-0.444C0.365,-0.444 0.343,-0.437 0.321,-0.425C0.3,-0.412 0.28,-0.393 0.262,-0.369C0.244,-0.345 0.235,-0.332 0.235,-0.329L0.235,-0L0.159,-0L0.159,-0.509L0.235,-0.509L0.235,-0.406C0.276,-0.483 0.328,-0.521 0.393,-0.521C0.431,-0.521 0.469,-0.512 0.505,-0.495Z" style="fill-rule:nonzero;"/>
            </g>
            <g transform="matrix(24,0,0,24,565.68,111.227)">
                <path d="M0.547,-0L0.447,-0L0.231,-0.253L0.181,-0.21L0.181,-0L0.105,-0L0.105,-0.689L0.181,-0.689L0.181,-0.294L0.42,-0.509L0.517,-0.509L0.285,-0.301L0.547,-0Z" style="fill-rule:nonzero;"/>
            </g>
            <g transform="matrix(24,0,0,24,580.082,111.227)">
                <path d="M0.512,-0.252L0.163,-0.252C0.163,-0.194 0.18,-0.147 0.213,-0.109C0.247,-0.072 0.287,-0.053 0.336,-0.053C0.382,-0.053 0.43,-0.062 0.479,-0.078L0.492,-0.017C0.447,0.003 0.395,0.013 0.335,0.013C0.259,0.013 0.199,-0.011 0.152,-0.06C0.106,-0.108 0.083,-0.174 0.083,-0.256C0.083,-0.337 0.104,-0.401 0.145,-0.449C0.187,-0.497 0.24,-0.521 0.306,-0.521C0.365,-0.521 0.414,-0.499 0.453,-0.454C0.493,-0.41 0.512,-0.35 0.512,-0.276L0.512,-0.252ZM0.429,-0.314C0.429,-0.354 0.417,-0.387 0.392,-0.414C0.367,-0.441 0.34,-0.455 0.309,-0.455C0.27,-0.455 0.237,-0.442 0.211,-0.416C0.185,-0.39 0.171,-0.356 0.168,-0.314L0.429,-0.314Z" style="fill-rule:nonzero;"/>
            </g>
            <g transform="matrix(24,0,0,24,594.485,111.227)">
                <path d="M0.52,-0.509L0.327,-0C0.299,0.075 0.271,0.127 0.244,0.157C0.216,0.186 0.185,0.201 0.15,0.201C0.119,0.201 0.088,0.195 0.057,0.184L0.07,0.123C0.095,0.131 0.117,0.135 0.136,0.135C0.164,0.135 0.186,0.124 0.204,0.103C0.221,0.082 0.239,0.047 0.257,-0.001L0.066,-0.509L0.149,-0.509L0.293,-0.103L0.437,-0.509L0.52,-0.509Z" style="fill-rule:nonzero;"/>
            </g>
        </g>
        <g transform="matrix(0.964799,0,0,0.964799,-365.888,252.943)">
            <g transform="matrix(24,0,0,24,493.668,111.607)">
                <path d="M0.161,0.21C0.11,0.098 0.084,-0.017 0.084,-0.135C0.084,-0.214 0.095,-0.287 0.115,-0.355C0.136,-0.423 0.168,-0.49 0.21,-0.556C0.238,-0.6 0.283,-0.658 0.344,-0.728L0.413,-0.728C0.375,-0.687 0.335,-0.63 0.292,-0.556C0.25,-0.482 0.219,-0.41 0.2,-0.338C0.181,-0.267 0.171,-0.195 0.171,-0.124C0.171,-0.016 0.19,0.095 0.227,0.21L0.161,0.21Z" style="fill-rule:nonzero;"/>
            </g>
            <g transform="matrix(24,0,0,24,501.66,111.607)">
                <path d="M-0.01,0.199L0.14,-0.519L0.221,-0.519L0.206,-0.446C0.236,-0.478 0.263,-0.5 0.287,-0.512C0.311,-0.524 0.337,-0.53 0.363,-0.53C0.413,-0.53 0.454,-0.512 0.486,-0.476C0.519,-0.44 0.535,-0.389 0.535,-0.322C0.535,-0.268 0.526,-0.219 0.508,-0.174C0.49,-0.13 0.468,-0.094 0.442,-0.067C0.416,-0.04 0.39,-0.02 0.363,-0.007C0.337,0.005 0.309,0.012 0.281,0.012C0.219,0.012 0.171,-0.02 0.137,-0.083L0.078,0.199L-0.01,0.199ZM0.165,-0.212C0.165,-0.173 0.167,-0.146 0.173,-0.131C0.181,-0.11 0.194,-0.093 0.213,-0.08C0.231,-0.067 0.253,-0.061 0.277,-0.061C0.328,-0.061 0.369,-0.089 0.4,-0.146C0.432,-0.203 0.447,-0.262 0.447,-0.321C0.447,-0.365 0.437,-0.399 0.416,-0.423C0.395,-0.447 0.369,-0.459 0.337,-0.459C0.315,-0.459 0.294,-0.453 0.275,-0.441C0.256,-0.429 0.238,-0.412 0.221,-0.388C0.205,-0.364 0.191,-0.335 0.181,-0.301C0.17,-0.267 0.165,-0.237 0.165,-0.212Z" style="fill-rule:nonzero;"/>
            </g>
            <g transform="matrix(24,0,0,24,515.008,111.607)">
                <path d="M0.387,-0.094C0.325,-0.023 0.261,0.012 0.196,0.012C0.156,0.012 0.124,0 0.099,-0.023C0.075,-0.046 0.063,-0.074 0.063,-0.107C0.063,-0.129 0.068,-0.166 0.079,-0.219L0.142,-0.519L0.23,-0.519L0.161,-0.187C0.155,-0.159 0.152,-0.138 0.152,-0.123C0.152,-0.103 0.158,-0.088 0.17,-0.077C0.182,-0.066 0.199,-0.061 0.222,-0.061C0.247,-0.061 0.271,-0.067 0.295,-0.079C0.318,-0.091 0.339,-0.107 0.356,-0.127C0.373,-0.148 0.387,-0.172 0.397,-0.2C0.405,-0.218 0.413,-0.25 0.422,-0.294L0.469,-0.519L0.558,-0.519L0.449,-0L0.368,-0L0.387,-0.094Z" style="fill-rule:nonzero;"/>
            </g>
            <g transform="matrix(24,0,0,24,528.356,111.607)">
                <path d="M0.033,-0L0.183,-0.716L0.271,-0.716L0.218,-0.46C0.246,-0.486 0.271,-0.504 0.294,-0.514C0.317,-0.525 0.34,-0.53 0.365,-0.53C0.414,-0.53 0.454,-0.512 0.487,-0.476C0.519,-0.44 0.535,-0.387 0.535,-0.318C0.535,-0.272 0.529,-0.23 0.516,-0.192C0.503,-0.154 0.486,-0.122 0.467,-0.096C0.448,-0.071 0.428,-0.05 0.408,-0.034C0.387,-0.019 0.366,-0.007 0.345,0C0.323,0.008 0.303,0.012 0.283,0.012C0.249,0.012 0.218,0.003 0.192,-0.015C0.166,-0.033 0.146,-0.061 0.131,-0.098L0.111,-0L0.033,-0ZM0.164,-0.213L0.164,-0.196C0.164,-0.152 0.174,-0.118 0.195,-0.095C0.216,-0.072 0.243,-0.061 0.274,-0.061C0.305,-0.061 0.334,-0.071 0.36,-0.093C0.385,-0.115 0.407,-0.148 0.423,-0.194C0.44,-0.24 0.448,-0.283 0.448,-0.321C0.448,-0.365 0.438,-0.399 0.417,-0.423C0.396,-0.447 0.37,-0.459 0.339,-0.459C0.307,-0.459 0.278,-0.447 0.251,-0.422C0.224,-0.398 0.202,-0.36 0.184,-0.309C0.171,-0.271 0.164,-0.239 0.164,-0.213Z" style="fill-rule:nonzero;"/>
            </g>
            <g transform="matrix(24,0,0,24,541.703,111.607)">
                <path d="M0.026,-0L0.176,-0.716L0.264,-0.716L0.115,-0L0.026,-0Z" style="fill-rule:nonzero;"/>
            </g>
            <g transform="matrix(24,0,0,24,547.035,111.607)">
                <path d="M0.159,-0.616L0.18,-0.716L0.268,-0.716L0.247,-0.616L0.159,-0.616ZM0.03,-0L0.138,-0.519L0.227,-0.519L0.118,-0L0.03,-0Z" style="fill-rule:nonzero;"/>
            </g>
            <g transform="matrix(24,0,0,24,552.367,111.607)">
                <path d="M0.391,-0.189L0.479,-0.18C0.457,-0.115 0.426,-0.067 0.385,-0.035C0.344,-0.004 0.298,0.012 0.246,0.012C0.189,0.012 0.144,-0.007 0.109,-0.043C0.074,-0.079 0.056,-0.13 0.056,-0.196C0.056,-0.252 0.067,-0.308 0.09,-0.363C0.112,-0.417 0.144,-0.459 0.186,-0.488C0.228,-0.516 0.276,-0.53 0.33,-0.53C0.385,-0.53 0.429,-0.515 0.462,-0.483C0.494,-0.452 0.511,-0.41 0.511,-0.358L0.424,-0.353C0.424,-0.385 0.414,-0.411 0.395,-0.43C0.377,-0.448 0.352,-0.458 0.321,-0.458C0.286,-0.458 0.255,-0.446 0.229,-0.424C0.203,-0.401 0.183,-0.367 0.168,-0.322C0.153,-0.276 0.146,-0.232 0.146,-0.189C0.146,-0.145 0.155,-0.112 0.175,-0.09C0.194,-0.068 0.218,-0.057 0.247,-0.057C0.276,-0.057 0.303,-0.068 0.329,-0.089C0.356,-0.111 0.376,-0.144 0.391,-0.189Z" style="fill-rule:nonzero;"/>
            </g>
            <g transform="matrix(24,0,0,24,564.367,111.607)">
                <path d="M0.198,-0.728C0.25,-0.616 0.275,-0.501 0.275,-0.383C0.275,-0.304 0.265,-0.231 0.244,-0.163C0.224,-0.095 0.192,-0.028 0.15,0.039C0.122,0.083 0.077,0.14 0.016,0.21L-0.053,0.21C-0.015,0.169 0.025,0.112 0.067,0.038C0.11,-0.036 0.141,-0.108 0.16,-0.179C0.179,-0.251 0.188,-0.322 0.188,-0.395C0.188,-0.502 0.17,-0.613 0.132,-0.728L0.198,-0.728Z" style="fill-rule:nonzero;"/>
            </g>
        </g>
        <g transform="matrix(0.964799,0,0,0.964799,-5.73363,32.0188)">
            <g transform="matrix(24,0,0,24,493.668,111.607)">
                <path d="M0.161,0.21C0.11,0.098 0.084,-0.017 0.084,-0.135C0.084,-0.214 0.095,-0.287 0.115,-0.355C0.136,-0.423 0.168,-0.49 0.21,-0.556C0.238,-0.6 0.283,-0.658 0.344,-0.728L0.413,-0.728C0.375,-0.687 0.335,-0.63 0.292,-0.556C0.25,-0.482 0.219,-0.41 0.2,-0.338C0.181,-0.267 0.171,-0.195 0.171,-0.124C0.171,-0.016 0.19,0.095 0.227,0.21L0.161,0.21Z" style="fill-rule:nonzero;"/>
            </g>
            <g transform="matrix(24,0,0,24,501.66,111.607)">
                <path d="M-0.01,0.199L0.14,-0.519L0.221,-0.519L0.206,-0.446C0.236,-0.478 0.263,-0.5 0.287,-0.512C0.311,-0.524 0.337,-0.53 0.363,-0.53C0.413,-0.53 0.454,-0.512 0.486,-0.476C0.519,-0.44 0.535,-0.389 0.535,-0.322C0.535,-0.268 0.526,-0.219 0.508,-0.174C0.49,-0.13 0.468,-0.094 0.442,-0.067C0.416,-0.04 0.39,-0.02 0.363,-0.007C0.337,0.005 0.309,0.012 0.281,0.012C0.219,0.012 0.171,-0.02 0.137,-0.083L0.078,0.199L-0.01,0.199ZM0.165,-0.212C0.165,-0.173 0.167,-0.146 0.173,-0.131C0.181,-0.11 0.194,-0.093 0.213,-0.08C0.231,-0.067 0.253,-0.061 0.277,-0.061C0.328,-0.061 0.369,-0.089 0.4,-0.146C0.432,-0.203 0.447,-0.262 0.447,-0.321C0.447,-0.365 0.437,-0.399 0.416,-0.423C0.395,-0.447 0.369,-0.459 0.337,-0.459C0.315,-0.459 0.294,-0.453 0.275,-0.441C0.256,-0.429 0.238,-0.412 0.221,-0.388C0.205,-0.364 0.191,-0.335 0.181,-0.301C0.17,-0.267 0.165,-0.237 0.165,-0.212Z" style="fill-rule:nonzero;"/>
            </g>
            <g transform="matrix(24,0,0,24,515.008,111.607)">
                <path d="M0.033,-0L0.142,-0.519L0.22,-0.519L0.198,-0.413C0.224,-0.453 0.251,-0.482 0.276,-0.501C0.302,-0.521 0.328,-0.53 0.354,-0.53C0.372,-0.53 0.394,-0.524 0.419,-0.511L0.383,-0.429C0.368,-0.44 0.351,-0.446 0.333,-0.446C0.302,-0.446 0.27,-0.429 0.238,-0.394C0.205,-0.36 0.18,-0.298 0.161,-0.208L0.117,-0L0.033,-0Z" style="fill-rule:nonzero;"/>
            </g>
            <g transform="matrix(24,0,0,24,523,111.607)">
                <path d="M0.159,-0.616L0.18,-0.716L0.268,-0.716L0.247,-0.616L0.159,-0.616ZM0.03,-0L0.138,-0.519L0.227,-0.519L0.118,-0L0.03,-0Z" style="fill-rule:nonzero;"/>
            </g>
            <g transform="matrix(24,0,0,24,528.332,111.607)">
                <path d="M0.164,-0L0.079,-0.519L0.165,-0.519L0.209,-0.233C0.214,-0.202 0.22,-0.151 0.228,-0.08C0.244,-0.117 0.266,-0.159 0.292,-0.207L0.466,-0.519L0.559,-0.519L0.262,-0L0.164,-0Z" style="fill-rule:nonzero;"/>
            </g>
            <g transform="matrix(24,0,0,24,540.332,111.607)">
                <path d="M0.383,-0.064C0.352,-0.038 0.323,-0.019 0.294,-0.007C0.266,0.006 0.236,0.012 0.204,0.012C0.156,0.012 0.117,-0.002 0.088,-0.031C0.059,-0.059 0.044,-0.095 0.044,-0.139C0.044,-0.168 0.051,-0.193 0.064,-0.216C0.077,-0.238 0.094,-0.256 0.116,-0.269C0.138,-0.283 0.165,-0.292 0.196,-0.298C0.216,-0.302 0.254,-0.305 0.309,-0.308C0.365,-0.31 0.405,-0.316 0.429,-0.325C0.436,-0.349 0.439,-0.369 0.439,-0.385C0.439,-0.406 0.431,-0.422 0.417,-0.434C0.396,-0.45 0.366,-0.458 0.327,-0.458C0.29,-0.458 0.259,-0.45 0.236,-0.433C0.212,-0.417 0.195,-0.394 0.184,-0.363L0.095,-0.371C0.113,-0.423 0.142,-0.462 0.181,-0.489C0.221,-0.517 0.271,-0.53 0.331,-0.53C0.395,-0.53 0.446,-0.515 0.483,-0.484C0.512,-0.462 0.526,-0.432 0.526,-0.396C0.526,-0.368 0.522,-0.336 0.514,-0.299L0.485,-0.17C0.476,-0.129 0.472,-0.096 0.472,-0.07C0.472,-0.054 0.475,-0.031 0.482,-0L0.393,-0C0.388,-0.017 0.385,-0.038 0.383,-0.064ZM0.416,-0.263C0.403,-0.258 0.39,-0.254 0.376,-0.251C0.362,-0.249 0.338,-0.246 0.305,-0.243C0.253,-0.239 0.217,-0.233 0.196,-0.226C0.175,-0.219 0.159,-0.208 0.148,-0.192C0.137,-0.177 0.132,-0.16 0.132,-0.142C0.132,-0.117 0.14,-0.097 0.157,-0.081C0.175,-0.065 0.199,-0.057 0.23,-0.057C0.26,-0.057 0.288,-0.064 0.315,-0.08C0.342,-0.095 0.363,-0.117 0.379,-0.145C0.395,-0.172 0.407,-0.212 0.416,-0.263Z" style="fill-rule:nonzero;"/>
            </g>
            <g transform="matrix(24,0,0,24,553.68,111.607)">
                <path d="M0.24,-0.072L0.225,0C0.204,0.006 0.183,0.009 0.164,0.009C0.128,0.009 0.1,0 0.08,-0.017C0.064,-0.03 0.056,-0.048 0.056,-0.07C0.056,-0.082 0.06,-0.108 0.069,-0.149L0.132,-0.45L0.062,-0.45L0.076,-0.519L0.146,-0.519L0.173,-0.646L0.274,-0.707L0.234,-0.519L0.321,-0.519L0.307,-0.45L0.22,-0.45L0.16,-0.164C0.153,-0.127 0.149,-0.105 0.149,-0.098C0.149,-0.088 0.152,-0.08 0.158,-0.074C0.164,-0.069 0.174,-0.066 0.188,-0.066C0.207,-0.066 0.224,-0.068 0.24,-0.072Z" style="fill-rule:nonzero;"/>
            </g>
            <g transform="matrix(24,0,0,24,560.348,111.607)">
                <path d="M0.414,-0.176L0.5,-0.167C0.488,-0.125 0.459,-0.084 0.415,-0.046C0.37,-0.007 0.317,0.012 0.256,0.012C0.217,0.012 0.182,0.003 0.15,-0.015C0.118,-0.033 0.094,-0.058 0.077,-0.092C0.06,-0.126 0.052,-0.165 0.052,-0.208C0.052,-0.265 0.065,-0.32 0.091,-0.373C0.117,-0.426 0.151,-0.466 0.193,-0.491C0.235,-0.517 0.28,-0.53 0.328,-0.53C0.39,-0.53 0.439,-0.511 0.476,-0.473C0.513,-0.434 0.532,-0.382 0.532,-0.315C0.532,-0.29 0.529,-0.264 0.525,-0.237L0.143,-0.237C0.142,-0.227 0.141,-0.218 0.141,-0.21C0.141,-0.161 0.152,-0.124 0.175,-0.099C0.197,-0.073 0.224,-0.061 0.256,-0.061C0.287,-0.061 0.316,-0.07 0.346,-0.09C0.375,-0.11 0.398,-0.139 0.414,-0.176ZM0.157,-0.305L0.448,-0.305C0.449,-0.314 0.449,-0.32 0.449,-0.324C0.449,-0.368 0.438,-0.402 0.416,-0.426C0.393,-0.45 0.365,-0.461 0.33,-0.461C0.292,-0.461 0.258,-0.448 0.227,-0.422C0.196,-0.396 0.173,-0.357 0.157,-0.305Z" style="fill-rule:nonzero;"/>
            </g>
            <g transform="matrix(24,0,0,24,573.696,111.607)">
                <path d="M0.198,-0.728C0.25,-0.616 0.275,-0.501 0.275,-0.383C0.275,-0.304 0.265,-0.231 0.244,-0.163C0.224,-0.095 0.192,-0.028 0.15,0.039C0.122,0.083 0.077,0.14 0.016,0.21L-0.053,0.21C-0.015,0.169 0.025,0.112 0.067,0.038C0.11,-0.036 0.141,-0.108 0.16,-0.179C0.179,-0.251 0.188,-0.322 0.188,-0.395C0.188,-0.502 0.17,-0.613 0.132,-0.728L0.198,-0.728Z" style="fill-rule:nonzero;"/>
            </g>
        </g>
    </g>
</svg>
